<svg width="20" height="20" viewBox="0 0 20 20" fill="none" xmlns="http://www.w3.org/2000/svg">
<path d="M18.9847 6.91837V16.829C18.9575 16.8346 18.9538 16.8566 18.9463 16.8791C18.6538 17.8015 18.1026 18.2037 17.1291 18.2037H9.96131C8.38039 18.2037 6.79947 18.2079 5.21809 18.2037C4.83062 18.2054 4.45836 18.0531 4.1832 17.7803C3.90803 17.5075 3.75251 17.1365 3.75083 16.7491C3.74915 16.3616 3.90146 15.9894 4.17425 15.7142C4.44704 15.439 4.81797 15.2835 5.20543 15.2818C5.48071 15.2768 5.756 15.2768 6.03128 15.2818C6.12502 15.2818 6.15923 15.2584 6.17189 15.16C6.23094 14.6444 6.2989 14.1288 6.36358 13.6133C6.2975 13.5804 6.23188 13.595 6.16861 13.595C5.00342 13.595 3.83824 13.595 2.67259 13.595C1.87158 13.595 1.28899 13.1586 1.05042 12.3993C1.03964 12.3651 1.05042 12.3131 0.995117 12.3004V3.40642C1.03261 3.39798 1.02886 3.3647 1.03683 3.33799C1.2918 2.51308 1.85002 2.10094 2.71149 2.10156H16.1163C17.123 2.10156 17.7975 2.77649 17.8008 3.7856C17.8008 4.33022 17.8045 4.87485 17.7979 5.41948C17.7979 5.53571 17.8289 5.58727 17.9386 5.63461C18.4855 5.86896 18.8291 6.28047 18.9519 6.86822C18.9547 6.89213 18.9566 6.91415 18.9847 6.91837ZM9.39512 3.22456H2.72133C2.28591 3.22456 2.11859 3.39189 2.11859 3.82731C2.11859 6.50264 2.11859 9.17797 2.11859 11.8533C2.11859 12.2943 2.2906 12.4654 2.73586 12.4654C5.50493 12.4654 8.274 12.467 11.0431 12.4701C11.2085 12.4701 11.2305 12.4176 11.2282 12.2737C11.2235 10.6173 11.2254 8.96049 11.2245 7.30552C11.221 7.14161 11.2367 6.97786 11.2713 6.8176C11.4588 6.02082 12.1197 5.51181 12.9769 5.509C14.1487 5.50525 15.3204 5.50431 16.4893 5.51228C16.6501 5.51228 16.6806 5.46541 16.6768 5.31777C16.667 4.82048 16.6735 4.32272 16.6731 3.82497C16.6731 3.38767 16.5095 3.22644 16.0684 3.22644L9.39512 3.22456ZM17.8603 11.8566V7.28911C17.8603 6.84479 17.6503 6.63294 17.2041 6.63294C15.8046 6.63294 14.4049 6.63294 13.005 6.63294C12.5607 6.63294 12.3489 6.84572 12.3489 7.28911V16.424C12.3489 16.867 12.5621 17.0802 13.005 17.0802H17.2074C17.6508 17.0802 17.8636 16.8688 17.8636 16.424L17.8603 11.8566ZM9.25076 15.2781C9.86523 15.2781 10.4802 15.2781 11.0946 15.2781C11.1884 15.2781 11.2287 15.264 11.2277 15.1567C11.2221 14.6711 11.2221 14.1854 11.2277 13.6995C11.2277 13.5987 11.1879 13.5884 11.1045 13.5884C9.93959 13.5906 8.77488 13.5906 7.61032 13.5884C7.52127 13.5884 7.49315 13.6133 7.4833 13.7018C7.4294 14.1785 7.37503 14.6547 7.30473 15.129C7.28411 15.2668 7.32442 15.2804 7.44253 15.2795C8.04527 15.2757 8.64802 15.2785 9.25076 15.2785V15.2781ZM11.3233 17.0788C11.2606 16.9178 11.2287 16.7464 11.2296 16.5736C11.2376 16.4189 11.1785 16.3987 11.0421 16.3992C9.14421 16.4039 7.24677 16.405 5.34979 16.4025C5.2973 16.4025 5.24386 16.4025 5.19184 16.4058C5.11556 16.4116 5.04364 16.4436 4.98828 16.4964C4.93292 16.5492 4.89753 16.6195 4.88812 16.6954C4.87615 16.7713 4.89122 16.8491 4.93071 16.915C4.9702 16.981 5.0316 17.031 5.10419 17.0563C5.16519 17.0732 5.22844 17.0805 5.29167 17.0779C7.25364 17.0779 9.21546 17.0779 11.1771 17.0779L11.3233 17.0788Z" fill="#555555"/>
<path d="M15.1309 14.6371C15.2911 14.6429 15.4462 14.6958 15.5765 14.7893C15.7068 14.8828 15.8067 15.0126 15.8635 15.1626C15.9203 15.3126 15.9316 15.476 15.8959 15.6324C15.8602 15.7888 15.7792 15.9311 15.6629 16.0416C15.5467 16.1521 15.4004 16.2258 15.2424 16.2536C15.0844 16.2813 14.9218 16.2617 14.7749 16.1974C14.628 16.133 14.5033 16.0267 14.4166 15.8918C14.3298 15.7569 14.2848 15.5994 14.2872 15.4391C14.2893 15.3308 14.3128 15.224 14.3564 15.1249C14.4001 15.0258 14.463 14.9364 14.5414 14.8618C14.6199 14.7872 14.7124 14.7289 14.8136 14.6904C14.9148 14.6518 15.0226 14.6337 15.1309 14.6371Z" fill="#555555"/>
</svg>
