<?xml version="1.0" standalone="no"?>
<!DOCTYPE svg PUBLIC "-//W3C//DTD SVG 20010904//EN"
 "http://www.w3.org/TR/2001/REC-SVG-20010904/DTD/svg10.dtd">
<svg version="1.0" xmlns="http://www.w3.org/2000/svg"
 width="200.000000pt" height="200.000000pt" viewBox="0 0 200.000000 200.000000"
 preserveAspectRatio="xMidYMid meet">

<g transform="translate(0.000000,200.000000) scale(0.100000,-0.100000)"
fill="currentColor" stroke="none">
<path d="M961 1938 c-137 -67 -136 -280 1 -347 40 -19 61 -21 207 -21 l163 0
48 -35 c80 -59 80 -58 80 119 0 85 -5 167 -11 183 -14 38 -67 92 -106 109 -23
10 -77 14 -185 14 -137 0 -158 -2 -197 -22z m369 -40 c75 -39 84 -61 89 -204
1 -68 -1 -124 -5 -124 -5 0 -20 9 -34 20 -22 17 -42 20 -180 20 -181 0 -217 8
-259 55 -54 62 -51 152 7 208 41 39 69 45 212 46 112 1 131 -2 170 -21z"/>
<path d="M1010 1820 c0 -19 7 -20 145 -20 138 0 145 1 145 20 0 19 -7 20 -145
20 -138 0 -145 -1 -145 -20z"/>
<path d="M1010 1710 c0 -18 7 -20 85 -20 78 0 85 2 85 20 0 18 -7 20 -85 20
-78 0 -85 -2 -85 -20z"/>
<path d="M652 1619 c-79 -39 -120 -139 -93 -222 56 -169 296 -169 352 0 50
154 -113 294 -259 222z m178 -64 c75 -72 51 -190 -46 -231 -44 -19 -60 -18
-109 6 -51 24 -77 67 -77 126 0 85 61 138 150 131 41 -3 59 -10 82 -32z"/>
<path d="M1605 1515 c-5 -2 -22 -6 -37 -9 -62 -14 -127 -102 -128 -174 0 -40
24 -99 53 -130 81 -87 233 -69 293 34 51 86 20 205 -65 252 -35 19 -96 34
-116 27z m96 -68 c90 -60 88 -181 -4 -237 -90 -55 -207 12 -207 120 0 110 121
178 211 117z"/>
<path d="M502 1199 c-25 -13 -55 -39 -69 -61 -46 -69 -43 -246 3 -207 9 8 14
34 14 78 0 74 20 117 67 148 23 15 54 19 193 21 195 4 235 -4 279 -53 29 -33
31 -41 31 -109 0 -50 4 -77 14 -85 26 -21 39 13 34 92 -4 91 -34 144 -100 176
-40 19 -61 21 -234 21 -173 0 -193 -2 -232 -21z"/>
<path d="M1677 1094 l-109 -55 -225 -32 c-220 -31 -253 -41 -226 -68 6 -6 97
4 244 25 l234 35 95 50 c52 28 103 51 113 51 10 0 29 -11 42 -25 l25 -24 0
-280 0 -281 -29 -32 -29 -33 -154 -3 c-86 -2 -158 -8 -165 -14 -10 -8 -13 -58
-13 -190 0 -166 1 -179 18 -176 15 3 18 21 22 168 l5 165 151 5 c172 6 193 14
225 83 17 38 19 69 19 312 0 252 -1 272 -20 303 -21 34 -74 72 -100 71 -8 0
-64 -25 -123 -55z"/>
<path d="M577 1053 c-4 -3 -7 -32 -7 -64 0 -58 15 -80 39 -56 12 12 15 85 5
111 -6 16 -26 21 -37 9z"/>
<path d="M856 1038 c-15 -59 1 -122 30 -111 22 8 16 126 -7 131 -10 2 -19 -6
-23 -20z"/>
<path d="M84 867 c-3 -8 -4 -49 -2 -92 l3 -79 122 -65 122 -66 3 -260 c3 -252
4 -260 23 -260 19 0 20 8 23 253 l2 252 355 0 355 0 2 -253 c3 -244 4 -252 23
-252 19 0 20 8 23 260 l3 260 122 66 122 65 0 90 0 89 -648 3 c-535 2 -648 0
-653 -11z m1256 -82 l0 -45 -605 0 -605 0 0 45 0 45 605 0 605 0 0 -45z m-145
-140 l-80 -45 -380 0 -380 1 -80 44 -80 45 540 0 540 -1 -80 -44z"/>
<path d="M1444 866 c-11 -28 7 -36 82 -36 l75 0 -3 -107 -3 -107 -123 -31
c-86 -21 -128 -36 -138 -50 -12 -16 -14 -64 -12 -255 3 -227 4 -235 23 -235
19 0 20 8 25 234 l5 235 105 26 c58 15 117 30 133 34 l28 7 -3 147 -3 147 -93
3 c-74 2 -93 0 -98 -12z"/>
</g>
</svg>
