<svg width="29" height="29" viewBox="0 0 29 29" fill="none" xmlns="http://www.w3.org/2000/svg">
<g clip-path="url(#clip0_2930_14544)">
<g clip-path="url(#clip1_2930_14544)">
<g clip-path="url(#clip2_2930_14544)">
<path d="M27.1335 28.2485V15.6123C27.1335 15.2156 26.8989 14.8564 26.5357 14.6968L17.127 10.5625" stroke="#C29340" stroke-width="0.8" stroke-linecap="round"/>
<path d="M15.6738 28.1719V26.4531" stroke="#C29340" stroke-width="0.8" stroke-linecap="round"/>
<path d="M15.9012 23.8281L13.6595 21.1059V20.3281H14.8262C15.1206 20.3281 15.3748 20.2163 15.5888 19.9925C15.8028 19.7688 15.9319 19.4918 15.9762 19.1615H13.3262V18.3837H15.8762C15.7817 18.1568 15.6414 17.9704 15.4552 17.8245C15.2689 17.6785 15.0593 17.6056 14.8262 17.6059H13.3262V16.8281H17.3262V17.6059H16.2428C16.3206 17.7161 16.3901 17.836 16.4512 17.9656C16.5123 18.0953 16.5595 18.2346 16.5928 18.3837H17.3262V19.1615H16.6512C16.6067 19.7124 16.4123 20.1743 16.0678 20.5471C15.7234 20.9199 15.3095 21.1062 14.8262 21.1059H14.5845L16.8262 23.8281H15.9012Z" fill="#C29340"/>
<circle cx="15.3262" cy="20.3281" r="6.1" stroke="#C29340" stroke-width="0.8"/>
<path d="M2.75391 28.1172V6.42058C2.75391 6.2103 2.88548 6.02249 3.08311 5.95066L14.8463 1.67522C15.1724 1.5567 15.5171 1.79819 15.5171 2.14514V13.8797" stroke="#C29340" stroke-width="0.8"/>
<path d="M1.28516 28.1172L28.4102 28.25" stroke="#C29340" stroke-width="0.8" stroke-linecap="round"/>
<path d="M6.82617 8.82812L6.82617 10.8281" stroke="#C29340" stroke-width="0.8" stroke-linecap="round"/>
<path d="M22.8262 15.3281L22.8262 17.3281" stroke="#C29340" stroke-width="0.8" stroke-linecap="round"/>
<path d="M6.82617 15.3281L6.82617 17.3281" stroke="#C29340" stroke-width="0.8" stroke-linecap="round"/>
<path d="M22.8262 21.8281L22.8262 23.8281" stroke="#C29340" stroke-width="0.8" stroke-linecap="round"/>
<path d="M6.82617 21.8281L6.82617 23.8281" stroke="#C29340" stroke-width="0.8" stroke-linecap="round"/>
<path d="M11.8262 8.82812L11.8262 10.8281" stroke="#C29340" stroke-width="0.8" stroke-linecap="round"/>
</g>
</g>
</g>
<defs>
<clipPath id="clip0_2930_14544">
<rect width="28" height="28" fill="white" transform="translate(0.826172 0.828125)"/>
</clipPath>
<clipPath id="clip1_2930_14544">
<rect width="28" height="28" fill="white" transform="translate(0.826172 0.828125)"/>
</clipPath>
<clipPath id="clip2_2930_14544">
<rect width="28" height="28" fill="white" transform="translate(0.826172 0.828125)"/>
</clipPath>
</defs>
</svg>
