<svg width="110" height="124" viewBox="0 0 110 124" fill="none" xmlns="http://www.w3.org/2000/svg">
<path d="M7.08241 23.0089L82.3 12.7662C85.8862 12.2779 89.2189 14.8117 89.7073 18.398L101.449 104.625C101.937 108.211 99.4036 111.544 95.8174 112.032L20.5998 122.275C17.0135 122.763 13.6809 120.229 13.1925 116.643L1.45068 30.4162C0.95796 26.7979 3.49459 23.4975 7.08241 23.0089Z" fill="#FFFDFA" stroke="#EDD5AB"/>
<path d="M29.1415 72.7417C30.5488 71.4527 30.6446 69.2688 29.3589 67.861C28.0694 66.4503 25.8855 66.3546 24.4782 67.6436C23.0671 68.9297 22.9718 71.117 24.2574 72.5247C25.5465 73.9321 27.7342 74.0307 29.1415 72.7417Z" fill="#EDD5AB" stroke="#EDD5AB" stroke-width="1.12804" stroke-linecap="round" stroke-linejoin="round"/>
<path d="M25.2235 47.4448C26.6308 46.1558 26.7266 43.9719 25.4409 42.5641C24.1514 41.1534 21.9675 41.0577 20.5602 42.3467C19.1491 43.6328 19.0538 45.8201 20.3395 47.2279C21.6285 48.6352 23.8162 48.7338 25.2235 47.4448Z" fill="#EDD5AB" stroke="#EDD5AB" stroke-width="1.12804" stroke-linecap="round" stroke-linejoin="round"/>
<path d="M32.7686 99.3894C34.1759 98.1004 34.275 95.9161 32.986 94.5087C31.7003 93.101 29.5126 93.0023 28.1053 94.2913C26.6975 95.577 26.5989 97.7647 27.8879 99.172C29.1769 100.579 31.3612 100.678 32.7686 99.3894Z" fill="#EDD5AB" stroke="#EDD5AB" stroke-width="1.12804" stroke-linecap="round" stroke-linejoin="round"/>
<path d="M36.9844 42.2578L68.1992 38.0072L36.9844 42.2578Z" fill="#EDD5AB"/>
<path d="M36.9844 42.2578L68.1992 38.0072" stroke="#EDD5AB" stroke-width="1.12804" stroke-linecap="round" stroke-linejoin="round"/>
<path d="M40.5371 68.3438L71.7519 64.0931L40.5371 68.3438Z" fill="#EDD5AB"/>
<path d="M40.5371 68.3438L71.7519 64.0931" stroke="#EDD5AB" stroke-width="1.12804" stroke-linecap="round" stroke-linejoin="round"/>
<path d="M44.1328 94.7578L75.3476 90.5072L44.1328 94.7578Z" fill="#EDD5AB"/>
<path d="M44.1328 94.7578L75.3476 90.5072" stroke="#EDD5AB" stroke-width="1.12804" stroke-linecap="round" stroke-linejoin="round"/>
<path d="M91.2951 37.4105C101.627 37.4105 110 29.0368 110 18.7053C110 8.37705 101.627 0 91.2951 0C80.9635 0 72.5898 8.37705 72.5898 18.7053C72.5898 29.0368 80.9635 37.4105 91.2951 37.4105Z" fill="#C29340"/>
<path d="M94.1209 9.86771V19.6234C94.1209 21.1918 92.8608 22.4519 91.2958 22.4519C89.7308 22.4519 88.4707 21.1918 88.4707 19.6234V9.86771C88.4707 8.29935 89.7308 7.03923 91.2958 7.03923C92.8608 7.02229 94.1209 8.29935 94.1209 9.86771Z" fill="white"/>
<path d="M91.2958 30.3723C92.8574 30.3723 94.1209 29.1088 94.1209 27.5472C94.1209 25.9856 92.8574 24.7188 91.2958 24.7188C89.7342 24.7188 88.4707 25.9856 88.4707 27.5472C88.4707 29.1088 89.7342 30.3723 91.2958 30.3723Z" fill="white"/>
</svg>
