<svg width="24" height="24" viewBox="0 0 24 24" fill="none" xmlns="http://www.w3.org/2000/svg">
<rect x="1" y="1" width="22" height="22" rx="3" fill="#C29340" stroke="#C29340" stroke-width="2"/>
<path d="M3.6665 8.66536C3.6665 8.44435 3.7543 8.23239 3.91058 8.07611C4.06686 7.91983 4.27882 7.83203 4.49984 7.83203H19.4998C19.7208 7.83203 19.9328 7.91983 20.0891 8.07611C20.2454 8.23239 20.3332 8.44435 20.3332 8.66536C20.3332 8.88638 20.2454 9.09834 20.0891 9.25462C19.9328 9.4109 19.7208 9.4987 19.4998 9.4987H4.49984C4.27882 9.4987 4.06686 9.4109 3.91058 9.25462C3.7543 9.09834 3.6665 8.88638 3.6665 8.66536ZM3.6665 11.9987C3.6665 11.7777 3.7543 11.5657 3.91058 11.4094C4.06686 11.2532 4.27882 11.1654 4.49984 11.1654H19.4998C19.7208 11.1654 19.9328 11.2532 20.0891 11.4094C20.2454 11.5657 20.3332 11.7777 20.3332 11.9987C20.3332 12.2197 20.2454 12.4317 20.0891 12.588C19.9328 12.7442 19.7208 12.832 19.4998 12.832H4.49984C4.27882 12.832 4.06686 12.7442 3.91058 12.588C3.7543 12.4317 3.6665 12.2197 3.6665 11.9987ZM4.49984 14.4987C4.27882 14.4987 4.06686 14.5865 3.91058 14.7428C3.7543 14.8991 3.6665 15.111 3.6665 15.332C3.6665 15.553 3.7543 15.765 3.91058 15.9213C4.06686 16.0776 4.27882 16.1654 4.49984 16.1654H14.4998C14.7208 16.1654 14.9328 16.0776 15.0891 15.9213C15.2454 15.765 15.3332 15.553 15.3332 15.332C15.3332 15.111 15.2454 14.8991 15.0891 14.7428C14.9328 14.5865 14.7208 14.4987 14.4998 14.4987H4.49984Z" fill="white"/>
</svg>
