<svg width="111" height="111" viewBox="0 0 111 111" fill="none" xmlns="http://www.w3.org/2000/svg">
<circle cx="55.5" cy="55.5" r="55" fill="#FFFDFA" stroke="#EDD5AB"/>
<path d="M56 9C30.7 9 10 29.7 10 55C10 80.3 30.7 101 56 101C81.3 101 102 80.3 102 55C102 29.7 81.3 9 56 9ZM56 78C53.24 78 51.4 76.16 51.4 73.4C51.4 70.64 53.24 68.8 56 68.8C58.76 68.8 60.6 70.64 60.6 73.4C60.6 76.16 58.76 78 56 78ZM60.6 55C60.6 57.76 58.76 59.6 56 59.6C53.24 59.6 51.4 57.76 51.4 55V36.6C51.4 33.84 53.24 32 56 32C58.76 32 60.6 33.84 60.6 36.6V55Z" fill="#C29340"/>
</svg>
