<?xml version="1.0" standalone="no"?>
<!DOCTYPE svg PUBLIC "-//W3C//DTD SVG 20010904//EN"
 "http://www.w3.org/TR/2001/REC-SVG-20010904/DTD/svg10.dtd">
<svg version="1.0" xmlns="http://www.w3.org/2000/svg"
 width="10px" height="10px" viewBox="0 0 310.000000 310.000000"
 preserveAspectRatio="xMidYMid meet">

<g transform="translate(0.000000,310.000000) scale(0.100000,-0.100000)"
fill="currentColor" stroke="none">
<path d="M1770 2644 c-180 -38 -357 -177 -439 -344 -94 -193 -94 -387 0 -580
33 -67 59 -102 123 -165 122 -121 245 -179 411 -191 317 -25 615 203 679 518
20 97 20 158 1 256 -38 190 -173 366 -345 451 -139 68 -284 87 -430 55z m281
-130 c175 -52 311 -188 363 -363 20 -69 21 -199 1 -276 -45 -173 -187 -317
-364 -369 -71 -21 -211 -21 -282 0 -175 52 -311 188 -363 363 -9 32 -16 91
-16 141 0 98 17 167 63 255 59 112 190 216 316 251 67 18 217 17 282 -2z"/>
<path d="M1850 2356 c0 -44 -1 -44 -46 -60 -68 -23 -110 -59 -129 -111 -17
-43 -17 -47 0 -91 21 -56 61 -84 181 -125 49 -17 100 -41 113 -54 35 -34 18
-70 -39 -85 -44 -12 -163 0 -201 20 -30 17 -37 12 -54 -41 -15 -43 -15 -53 -4
-60 18 -12 72 -26 132 -34 l47 -6 0 -45 0 -44 55 0 55 0 0 49 0 49 43 10 c55
14 105 48 135 92 20 29 23 44 19 89 -3 48 -9 59 -44 91 -21 20 -66 47 -99 59
-32 12 -78 28 -102 37 -52 19 -74 40 -70 67 7 46 87 59 191 32 32 -8 60 -15
62 -15 3 0 35 96 35 106 0 2 -53 14 -137 30 -19 4 -23 11 -23 44 l0 40 -60 0
-60 0 0 -44z"/>
<path d="M893 1479 c-121 -14 -197 -47 -376 -159 -92 -58 -167 -109 -167 -115
1 -18 308 -609 318 -613 6 -2 50 20 99 47 49 28 96 51 105 51 9 0 229 -41 489
-90 260 -50 495 -90 521 -90 94 0 187 33 652 233 504 217 502 216 513 294 7
52 -17 99 -63 120 -30 15 -42 15 -95 4 -81 -16 -274 -90 -444 -168 -77 -36
-162 -72 -190 -80 -91 -26 -754 -5 -832 27 -27 11 -30 46 -5 58 10 6 151 3
350 -6 307 -14 337 -13 368 1 98 47 99 204 1 250 -19 9 -43 17 -52 17 -9 0
-148 21 -308 46 -268 42 -301 49 -402 90 -191 76 -332 101 -482 83z"/>
<path d="M2390 1339 c-127 -29 -160 -39 -160 -47 0 -4 11 -19 24 -34 l24 -27
51 19 c28 11 98 32 156 46 58 15 105 30 105 34 0 12 -50 30 -83 29 -18 0 -70
-10 -117 -20z"/>
<path d="M2575 1230 c-49 -16 -128 -42 -175 -58 l-85 -29 -3 -53 c-2 -40 0
-51 10 -47 7 3 65 27 128 55 95 41 277 110 340 129 12 4 12 7 -4 19 -30 22
-112 16 -211 -16z"/>
<path d="M150 1094 c-50 -32 -89 -64 -94 -78 -8 -20 13 -63 139 -287 81 -145
152 -270 157 -276 6 -7 19 -13 29 -13 24 0 169 80 169 93 0 9 -309 618 -313
616 -1 0 -40 -25 -87 -55z"/>
</g>
</svg>
