<svg width="29" height="29" viewBox="0 0 29 29" fill="none" xmlns="http://www.w3.org/2000/svg">
<g clip-path="url(#clip0_2930_14587)">
<path d="M16.6494 1.64844C22.545 2.43528 27.2195 7.1092 28.0059 13.0045H16.6494V1.64844ZM28.0059 16.5349C27.694 18.869 26.7713 21.0116 25.4095 22.7975L19.1447 16.5349H28.0059ZM13.1216 1.64844V14.7697C13.1216 15.2381 13.3061 15.6866 13.6356 16.0179L22.9141 25.2937C20.6867 26.996 17.9014 28.0078 14.8833 28.0078C7.57734 28.0078 1.64648 22.0761 1.64648 14.7697C1.64648 8.0617 6.64596 2.51261 13.1216 1.64844Z" stroke="#C29340" stroke-width="0.8" stroke-miterlimit="10" stroke-linecap="round" stroke-linejoin="round"/>
<path d="M8.40117 18.8281L6.15951 16.1059V15.3281H7.32617C7.62062 15.3281 7.87484 15.2163 8.08884 14.9925C8.30284 14.7688 8.43195 14.4918 8.47617 14.1615H5.82617V13.3837H8.37617C8.28173 13.1568 8.14139 12.9704 7.95517 12.8245C7.76895 12.6785 7.55928 12.6056 7.32617 12.6059H5.82617V11.8281H9.82617V12.6059H8.74284C8.82062 12.7161 8.89006 12.836 8.95117 12.9656C9.01228 13.0953 9.05951 13.2346 9.09284 13.3837H9.82617V14.1615H9.15117C9.10673 14.7124 8.91228 15.1743 8.56784 15.5471C8.22339 15.9199 7.80951 16.1062 7.32617 16.1059H7.08451L9.32617 18.8281H8.40117Z" fill="#C29340"/>
</g>
<defs>
<clipPath id="clip0_2930_14587">
<rect width="28" height="28" fill="white" transform="translate(0.826172 0.828125)"/>
</clipPath>
</defs>
</svg>
