<svg width="29" height="29" viewBox="0 0 29 29" fill="none" xmlns="http://www.w3.org/2000/svg">
<g clip-path="url(#clip0_2930_14361)">
<path d="M9.83008 17.6094C7.4177 17.6094 5.45508 19.572 5.45508 21.9844C5.45508 24.3967 7.4177 26.3594 9.83008 26.3594C12.2425 26.3594 14.2051 24.3967 14.2051 21.9844C14.2051 19.572 12.2425 17.6094 9.83008 17.6094ZM9.83008 25.4844C7.90027 25.4844 6.33008 23.9142 6.33008 21.9844C6.33008 20.0546 7.90027 18.4844 9.83008 18.4844C11.7599 18.4844 13.3301 20.0546 13.3301 21.9844C13.3301 23.9142 11.7599 25.4844 9.83008 25.4844Z" fill="#C29340"/>
<path d="M17.7405 25.2122L17.7068 25.1952C17.706 25.1947 17.7055 25.1943 17.7046 25.1939C17.4898 25.0862 17.345 24.8784 17.3157 24.6278L16.572 19.4499C16.4022 18.0014 15.476 16.8118 14.22 16.2514L15.6353 14.567C15.6536 14.5447 15.6703 14.5215 15.6838 14.4957C15.9708 13.9724 15.9608 13.3534 15.6567 12.8393C15.3649 12.3458 14.8543 12.0514 14.2908 12.0514H13.7024C13.4543 11.4621 12.8698 11.0469 12.1895 11.0469H7.47064C6.8297 11.0469 6.27889 11.4187 6.00895 11.9542H5.44808C4.88414 11.9542 4.37314 12.2496 4.08177 12.7439C3.77858 13.2584 3.7707 13.8775 4.07258 14.4218L5.27395 16.3258C4.10233 16.9133 3.25052 18.0618 3.08952 19.4381L2.3427 24.6391C2.3147 24.8784 2.16989 25.0858 1.92183 25.2109C1.40252 25.4717 1.08008 25.9958 1.08008 26.5808C1.08008 27.4238 1.76345 28.1094 2.60389 28.1094H17.0558C17.8967 28.1094 18.5801 27.4238 18.5801 26.5781C18.5801 25.9958 18.2576 25.4717 17.7405 25.2122ZM13.6858 13.3486C13.7466 13.2103 13.7811 13.069 13.8035 12.9264H14.2908C14.5455 12.9264 14.7686 13.0572 14.9038 13.2847C15.042 13.5187 15.053 13.7988 14.9344 14.0407L13.3143 15.9688C13.082 15.9263 12.8431 15.9031 12.5995 15.9031H12.3492L13.6858 13.3486ZM7.47064 11.9219H12.1891C12.662 11.9219 12.9547 12.3165 12.9547 12.6823C12.9547 12.7846 12.9311 12.8905 12.8978 12.9688L11.3622 15.9027H8.29752L6.77458 12.9951C6.7282 12.8901 6.70458 12.7846 6.70458 12.6818C6.70502 12.3165 6.9977 11.9219 7.47064 11.9219ZM4.82552 13.9764C4.6877 13.7274 4.69164 13.433 4.83558 13.188C4.96989 12.9601 5.19302 12.8292 5.44808 12.8292H5.8462C5.86327 13.006 5.90177 13.1841 5.98664 13.3748L7.31008 15.9027H7.06027C6.73477 15.9027 6.41933 15.946 6.11527 16.0199L4.82552 13.9764ZM17.0563 27.2344H2.60389C2.24645 27.2344 1.95508 26.9412 1.95508 26.5781C1.95508 26.3287 2.09289 26.1043 2.34839 25.9757C2.82658 25.7351 3.14945 25.2739 3.21027 24.7524L3.95708 19.5514C4.14214 17.9703 5.47652 16.7777 7.0607 16.7777H12.5999C14.1841 16.7777 15.518 17.9703 15.7048 19.5628L16.4486 24.7406C16.5111 25.2735 16.8336 25.7346 17.3122 25.9753L17.3459 25.9923C17.5673 26.1043 17.7051 26.3288 17.7051 26.5808C17.7051 26.9412 17.4137 27.2344 17.0563 27.2344Z" fill="#C29340"/>
<path d="M27.2421 2.0335C27.1481 1.90838 26.9941 1.8445 26.8383 1.86244L23.7723 2.24568C23.5326 2.27565 23.3626 2.49426 23.3926 2.73397C23.4225 2.97365 23.6411 3.14368 23.8808 3.11375L25.0586 2.96669L18.1517 7.45675L14.0187 4.56356C13.8888 4.47256 13.7203 4.459 13.5781 4.52769L2.15974 10.0254C1.94204 10.1302 1.85048 10.3917 1.95519 10.6094C2.05997 10.8273 2.3216 10.9189 2.53945 10.8141L13.7269 5.42763L17.8923 8.34313C18.0389 8.4455 18.2323 8.44856 18.3814 8.35188L25.9226 3.44925L25.3503 4.7853C25.2551 5.00739 25.3581 5.26454 25.5802 5.35964C25.8022 5.4547 26.0592 5.35183 26.1544 5.12985L27.2946 2.46925C27.3563 2.32488 27.3366 2.15906 27.2421 2.0335Z" fill="#C29340"/>
<path d="M26.8926 14.9844H24.2676C24.0261 14.9844 23.8301 15.1799 23.8301 15.4219V27.6719C23.8301 27.9138 24.0261 28.1094 24.2676 28.1094H26.8926C27.1341 28.1094 27.3301 27.9138 27.3301 27.6719V15.4219C27.3301 15.1799 27.1341 14.9844 26.8926 14.9844ZM26.4551 27.2344H24.7051V15.8594H26.4551V27.2344Z" fill="#C29340"/>
<path d="M22.5176 20.6719H19.8926C19.6511 20.6719 19.4551 20.8674 19.4551 21.1094V27.6719C19.4551 27.9138 19.6511 28.1094 19.8926 28.1094H22.5176C22.7591 28.1094 22.9551 27.9138 22.9551 27.6719V21.1094C22.9551 20.8674 22.7591 20.6719 22.5176 20.6719ZM22.0801 27.2344H20.3301V21.5469H22.0801V27.2344Z" fill="#C29340"/>
<path d="M2.39258 1.85938C2.15095 1.85938 1.95508 2.05525 1.95508 2.29688V2.73438H1.51758C1.27595 2.73438 1.08008 2.93025 1.08008 3.17188C1.08008 3.4135 1.27595 3.60938 1.51758 3.60938H1.95508V4.04688C1.95508 4.2885 2.15095 4.48438 2.39258 4.48438C2.6342 4.48438 2.83008 4.2885 2.83008 4.04688V3.60938H3.26758C3.5092 3.60938 3.70508 3.4135 3.70508 3.17188C3.70508 2.93025 3.5092 2.73438 3.26758 2.73438H2.83008V2.29688C2.83008 2.05525 2.6342 1.85938 2.39258 1.85938Z" fill="#C29340"/>
<path d="M19.4551 14.9844C19.2135 14.9844 19.0176 15.1803 19.0176 15.4219V15.8594H18.5801C18.3385 15.8594 18.1426 16.0553 18.1426 16.2969C18.1426 16.5385 18.3385 16.7344 18.5801 16.7344H19.0176V17.1719C19.0176 17.4135 19.2135 17.6094 19.4551 17.6094C19.6967 17.6094 19.8926 17.4135 19.8926 17.1719V16.7344H20.3301C20.5717 16.7344 20.7676 16.5385 20.7676 16.2969C20.7676 16.0553 20.5717 15.8594 20.3301 15.8594H19.8926V15.4219C19.8926 15.1803 19.6967 14.9844 19.4551 14.9844Z" fill="#C29340"/>
<path d="M24.7039 9.73438C24.4622 9.73438 24.2664 9.93025 24.2664 10.1719V10.6094H23.8289C23.5872 10.6094 23.3914 10.8053 23.3914 11.0469C23.3914 11.2885 23.5872 11.4844 23.8289 11.4844H24.2664V11.9219C24.2664 12.1635 24.4622 12.3594 24.7039 12.3594C24.9455 12.3594 25.1414 12.1635 25.1414 11.9219V11.4844H25.5789C25.8205 11.4844 26.0164 11.2885 26.0164 11.0469C26.0164 10.8053 25.8205 10.6094 25.5789 10.6094H25.1414V10.1719C25.1414 9.93025 24.9455 9.73438 24.7039 9.73438Z" fill="#C29340"/>
<path d="M10.1363 24.9844L8.45508 23.0399V22.4844H9.33008C9.55091 22.4844 9.74158 22.4045 9.90208 22.2447C10.0626 22.0848 10.1594 21.887 10.1926 21.651H8.20508V21.0955H10.1176C10.0467 20.9334 9.94149 20.8003 9.80183 20.696C9.66216 20.5918 9.50491 20.5397 9.33008 20.5399H8.20508V19.9844H11.2051V20.5399H10.3926C10.4509 20.6186 10.503 20.7043 10.5488 20.7969C10.5947 20.8895 10.6301 20.989 10.6551 21.0955H11.2051V21.651H10.6988C10.6655 22.0446 10.5197 22.3745 10.2613 22.6408C10.003 22.9071 9.69258 23.0401 9.33008 23.0399H9.14883L10.8301 24.9844H10.1363Z" fill="#C29340"/>
</g>
<defs>
<clipPath id="clip0_2930_14361">
<rect width="28" height="28" fill="white" transform="translate(0.205078 0.984375)"/>
</clipPath>
</defs>
</svg>
