<svg width="200" height="200" viewBox="0 0 200 200" fill="none" xmlns="http://www.w3.org/2000/svg">
<path d="M52.0824 61.005L127.3 50.7623C130.886 50.274 134.219 52.8078 134.707 56.3941L146.449 142.621C146.937 146.207 144.404 149.54 140.817 150.028L65.5998 160.271C62.0135 160.759 58.6809 158.225 58.1925 154.639L46.4507 68.4123C45.958 64.794 48.4946 61.4936 52.0824 61.005Z" fill="#FFFDFA" stroke="#EDD5AB"/>
<path d="M74.1425 110.734C75.5498 109.445 75.6455 107.261 74.3599 105.853C73.0704 104.443 70.8865 104.347 69.4792 105.636C68.068 106.922 67.9727 109.109 69.2584 110.517C70.5475 111.924 72.7351 112.023 74.1425 110.734Z" fill="#EDD5AB" stroke="#EDD5AB" stroke-width="1.12804" stroke-linecap="round" stroke-linejoin="round"/>
<path d="M70.2235 85.4409C71.6308 84.1519 71.7266 81.968 70.4409 80.5602C69.1514 79.1495 66.9675 79.0538 65.5602 80.3428C64.1491 81.6289 64.0538 83.8162 65.3395 85.224C66.6285 86.6313 68.8162 86.7299 70.2235 85.4409Z" fill="#EDD5AB" stroke="#EDD5AB" stroke-width="1.12804" stroke-linecap="round" stroke-linejoin="round"/>
<path d="M77.7676 137.382C79.1749 136.093 79.274 133.908 77.985 132.501C76.6993 131.093 74.5116 130.995 73.1043 132.284C71.6965 133.569 71.5979 135.757 72.8869 137.164C74.1759 138.572 76.3603 138.671 77.7676 137.382Z" fill="#EDD5AB" stroke="#EDD5AB" stroke-width="1.12804" stroke-linecap="round" stroke-linejoin="round"/>
<path d="M81.9844 80.2539L113.199 76.0033L81.9844 80.2539Z" fill="#EDD5AB"/>
<path d="M81.9844 80.2539L113.199 76.0033" stroke="#EDD5AB" stroke-width="1.12804" stroke-linecap="round" stroke-linejoin="round"/>
<path d="M85.5361 106.336L116.751 102.085L85.5361 106.336Z" fill="#EDD5AB"/>
<path d="M85.5361 106.336L116.751 102.085" stroke="#EDD5AB" stroke-width="1.12804" stroke-linecap="round" stroke-linejoin="round"/>
<path d="M89.1328 132.75L120.348 128.499L89.1328 132.75Z" fill="#EDD5AB"/>
<path d="M89.1328 132.75L120.348 128.499" stroke="#EDD5AB" stroke-width="1.12804" stroke-linecap="round" stroke-linejoin="round"/>
<circle cx="137.5" cy="68.5" r="11.5" fill="white"/>
<path d="M137 52.332C127.8 52.332 120.333 59.7987 120.333 68.9987C120.333 78.1987 127.8 85.6654 137 85.6654C146.2 85.6654 153.666 78.1987 153.666 68.9987C153.666 59.7987 146.2 52.332 137 52.332ZM143.916 70.382L141.033 71.3487C140.233 71.6154 139.616 72.232 139.35 73.032L138.383 75.9154C137.566 78.3987 134.066 78.3487 133.3 75.8654L130.05 65.3987C129.416 63.3154 131.333 61.3987 133.383 62.032L143.866 65.282C146.35 66.0654 146.383 69.5654 143.916 70.382Z" fill="#C29340"/>
</svg>
