<svg width="29" height="29" viewBox="0 0 29 29" fill="none" xmlns="http://www.w3.org/2000/svg">
<g clip-path="url(#clip0_2930_14397)">
<path d="M9.39258 14.9844C9.39258 17.6378 11.5516 19.7969 14.2051 19.7969C16.8585 19.7969 19.0176 17.6378 19.0176 14.9844C19.0176 12.3309 16.8585 10.1719 14.2051 10.1719C11.5516 10.1719 9.39258 12.3309 9.39258 14.9844ZM14.2051 11.0469C16.376 11.0469 18.1426 12.8135 18.1426 14.9844C18.1426 17.1553 16.376 18.9219 14.2051 18.9219C12.0342 18.9219 10.2676 17.1553 10.2676 14.9844C10.2676 12.8135 12.0342 11.0469 14.2051 11.0469Z" fill="#C29340"/>
<path d="M14.2051 1.42188C13.9636 1.42188 13.7676 1.61788 13.7676 1.85938V8.85938C13.7676 9.10087 13.9636 9.29688 14.2051 9.29688C15.7245 9.29688 17.1525 9.88838 18.2266 10.9629C18.3088 11.0451 18.42 11.0911 18.5359 11.0911C18.6518 11.0911 18.7634 11.0451 18.8452 10.9629L23.7951 6.013C23.8773 5.93075 23.9233 5.81962 23.9233 5.70369C23.9233 5.58775 23.8773 5.47619 23.7951 5.39437C21.2335 2.83281 17.8276 1.42188 14.2051 1.42188ZM18.5258 10.0446C17.4386 9.09081 16.0859 8.53038 14.6426 8.43587V2.30431C17.7221 2.408 20.611 3.60456 22.8619 5.70894L18.5258 10.0446Z" fill="#C29340"/>
<path d="M12.4835 2.98943C12.3868 2.91637 12.2643 2.88575 12.1462 2.90675C6.24083 3.90643 1.95508 8.98581 1.95508 14.9844C1.95508 18.2564 3.22952 21.3329 5.54302 23.6464C5.62833 23.7317 5.74033 23.7746 5.85233 23.7746C5.96433 23.7746 6.07633 23.7317 6.16164 23.6464L10.1831 19.6249C10.2711 19.537 10.317 19.4154 10.31 19.2911C10.3039 19.1822 10.2571 19.0798 10.1805 19.0037C9.1082 17.9296 8.51758 16.5021 8.51758 14.9844C8.51758 12.3222 10.3262 10.0437 12.9158 9.44343C13.131 9.39356 13.2754 9.191 13.2522 8.97137L12.6546 3.29218C12.6419 3.17187 12.5798 3.0625 12.4835 2.98943ZM7.64258 14.9844C7.64258 16.5904 8.2157 18.109 9.26527 19.3051L5.85802 22.7124C3.90239 20.6041 2.83008 17.8767 2.83008 14.9844C2.83008 9.57031 6.58908 4.963 11.8338 3.85656L12.3426 8.68962C9.55664 9.50731 7.64258 12.0431 7.64258 14.9844Z" fill="#C29340"/>
<path d="M24.3196 8.07188L24.2571 7.98131C24.1862 7.88113 24.0764 7.81506 23.9548 7.79931C23.8314 7.78313 23.7098 7.82031 23.6166 7.89994L19.242 11.6134C19.0815 11.7499 19.0408 11.9814 19.1453 12.1643C19.6345 13.0183 19.8926 13.9934 19.8926 14.9844C19.8926 16.5038 19.3011 17.9318 18.2266 19.0059C18.1443 19.0881 18.0984 19.1993 18.0984 19.3152C18.0984 19.4311 18.1443 19.5427 18.2266 19.6245L22.2481 23.646C22.3334 23.7313 22.4454 23.7742 22.5574 23.7742C22.6694 23.7742 22.7814 23.7313 22.8667 23.646C25.1806 21.3329 26.4551 18.2564 26.4551 14.9844C26.4551 12.5024 25.7166 10.1119 24.3196 8.07188ZM22.5521 22.7128L19.1449 19.3056C20.1945 18.109 20.7676 16.5909 20.7676 14.9844C20.7676 13.9641 20.53 12.9579 20.0772 12.0523L23.8082 8.88519C24.9689 10.7074 25.5801 12.8078 25.5801 14.9844C25.5801 17.8767 24.5078 20.6041 22.5521 22.7128Z" fill="#C29340"/>
<path d="M14.2051 28.5469C16.8476 28.5469 19.4087 27.7865 21.6119 26.3476C21.7117 26.2824 21.7808 26.1791 21.8027 26.0623C21.8246 25.9451 21.7979 25.8243 21.7288 25.7272L17.6517 20.0196C17.5204 19.8354 17.2698 19.7824 17.0746 19.8962C15.3504 20.9059 13.0916 20.9121 11.3618 19.9111C11.1675 19.7986 10.919 19.8516 10.7878 20.034L6.68445 25.7263C6.61445 25.8234 6.58733 25.9446 6.6092 26.0623C6.63108 26.18 6.7002 26.2833 6.79995 26.3489C9.00233 27.7869 11.563 28.5469 14.2051 28.5469ZM9.39258 26.7212V23.4658L10.2676 22.2517V27.0419C9.97226 26.9456 9.68045 26.8393 9.39258 26.7212ZM14.6426 21.5106C14.9366 21.4918 15.2288 21.455 15.5176 21.3977V27.5971C15.2275 27.6268 14.9357 27.6469 14.6426 27.657V21.5106ZM13.7676 27.657C13.4745 27.6469 13.1826 27.6272 12.8926 27.5971V21.399C13.1813 21.4563 13.4736 21.4922 13.7676 21.511V27.657ZM18.1426 27.0419V22.2123L19.0176 23.4373V26.7216C18.7297 26.8393 18.4379 26.9456 18.1426 27.0419ZM19.8926 26.3253V24.6623L20.7466 25.858C20.4679 26.026 20.1822 26.1796 19.8926 26.3253ZM17.1648 20.8429L17.2676 20.9873V27.2926C16.9784 27.3643 16.6866 27.4256 16.3926 27.4768V21.1658C16.6564 21.0739 16.915 20.9689 17.1648 20.8429ZM11.273 20.8569C11.514 20.9773 11.7634 21.0792 12.0176 21.1676V27.4763C11.7236 27.4251 11.4318 27.3639 11.1426 27.2921V21.0381L11.273 20.8569ZM8.51758 24.6798V26.3253C8.22926 26.1804 7.94445 26.0273 7.66708 25.8598L8.51758 24.6798Z" fill="#C29340"/>
<path d="M14.6363 17.4844L12.9551 15.5399V14.9844H13.8301C14.0509 14.9844 14.2416 14.9045 14.4021 14.7447C14.5626 14.5848 14.6594 14.387 14.6926 14.151H12.7051V13.5955H14.6176C14.5467 13.4334 14.4415 13.3003 14.3018 13.196C14.1622 13.0918 14.0049 13.0397 13.8301 13.0399H12.7051V12.4844H15.7051V13.0399H14.8926C14.9509 13.1186 15.003 13.2043 15.0488 13.2969C15.0947 13.3895 15.1301 13.489 15.1551 13.5955H15.7051V14.151H15.1988C15.1655 14.5446 15.0197 14.8745 14.7613 15.1408C14.503 15.4071 14.1926 15.5401 13.8301 15.5399H13.6488L15.3301 17.4844H14.6363Z" fill="#C29340"/>
</g>
<defs>
<clipPath id="clip0_2930_14397">
<rect width="28" height="28" fill="white" transform="translate(0.205078 0.984375)"/>
</clipPath>
</defs>
</svg>
