<svg width="29" height="29" viewBox="0 0 29 29" fill="none" xmlns="http://www.w3.org/2000/svg">
<path d="M9.00742 8.67188L7.32617 6.72743V6.17188H8.20117C8.42201 6.17188 8.61267 6.09197 8.77317 5.93215C8.93367 5.77234 9.03051 5.57447 9.06367 5.33854H7.07617V4.78299H8.98867C8.91784 4.62095 8.81259 4.4878 8.67292 4.38354C8.53326 4.27928 8.37601 4.22725 8.20117 4.22743H7.07617V3.67188H10.0762V4.22743H9.26367C9.32201 4.30613 9.37409 4.39178 9.41992 4.48438C9.46576 4.57697 9.50117 4.6765 9.52617 4.78299H10.0762V5.33854H9.56992C9.53659 5.73206 9.39076 6.06197 9.13242 6.32826C8.87409 6.59456 8.56367 6.72762 8.20117 6.72743H8.01992L9.70117 8.67188H9.00742Z" fill="#C29340"/>
<path d="M3.0237 15.7281H1.01781C0.498688 15.7281 0.0761719 16.1502 0.0761719 16.6693V27.7318C0.0761719 28.2509 0.498688 28.6734 1.01781 28.6734H3.0237C3.54282 28.6734 3.96489 28.2509 3.96489 27.7318V16.6693C3.96489 16.1501 3.54277 15.7281 3.0237 15.7281ZM3.08989 27.7318C3.08989 27.7686 3.05997 27.7984 3.02365 27.7984H1.01781C0.981039 27.7984 0.951178 27.7685 0.951178 27.7318V16.6693C0.951178 16.6329 0.981095 16.603 1.01781 16.603H3.0237C3.06003 16.603 3.08994 16.6329 3.08994 16.6693L3.08989 27.7318Z" fill="#C29340"/>
<path d="M9.05086 19.0647H7.04497C6.52585 19.0647 6.10333 19.4872 6.10333 20.0063V27.7287C6.10333 28.2478 6.52585 28.6704 7.04497 28.6704H9.05086C9.56998 28.6704 9.9925 28.2478 9.9925 27.7287V20.0063C9.9925 19.4872 9.56998 19.0647 9.05086 19.0647ZM9.11755 27.7287C9.11755 27.7654 9.08763 27.7953 9.05092 27.7953H7.04502C7.00825 27.7953 6.97839 27.7654 6.97839 27.7287V20.0063C6.97839 19.9695 7.00831 19.9397 7.04502 19.9397H9.05092C9.08769 19.9397 9.11755 19.9696 9.11755 20.0063V27.7287Z" fill="#C29340"/>
<path d="M15.0791 15.7281H13.0737C12.5545 15.7281 12.132 16.1502 12.132 16.6693V27.7318C12.132 28.2509 12.5545 28.6734 13.0737 28.6734H15.0791C15.5982 28.6734 16.0207 28.2509 16.0207 27.7318V16.6693C16.0207 16.1501 15.5982 15.7281 15.0791 15.7281ZM15.1457 27.7318C15.1457 27.7686 15.1158 27.7984 15.0791 27.7984H13.0737C13.0369 27.7984 13.007 27.7685 13.007 27.7318V16.6693C13.007 16.6329 13.0369 16.603 13.0737 16.603H15.0791C15.1159 16.603 15.1457 16.6329 15.1457 16.6693V27.7318Z" fill="#C29340"/>
<path d="M21.1062 17.5933H19.1003C18.5811 17.5933 18.1586 18.0154 18.1586 18.5344V27.7342C18.1586 28.2533 18.5811 28.6758 19.1003 28.6758H21.1062C21.6253 28.6758 22.0478 28.2533 22.0478 27.7342V18.5344C22.0478 18.0153 21.6252 17.5933 21.1062 17.5933ZM21.1728 27.7342C21.1728 27.771 21.1429 27.8008 21.1062 27.8008H19.1003C19.0635 27.8008 19.0336 27.7709 19.0336 27.7342V18.5344C19.0336 18.4981 19.0636 18.4682 19.1003 18.4682H21.1062C21.1429 18.4682 21.1728 18.4981 21.1728 18.5344V27.7342Z" fill="#C29340"/>
<path d="M27.1344 12.5075H25.1285C24.6094 12.5075 24.1873 12.9296 24.1873 13.4487V27.7352C24.1873 28.2543 24.6094 28.6768 25.1285 28.6768H27.1344C27.6535 28.6768 28.076 28.2543 28.076 27.7352V13.4487C28.076 12.9296 27.6535 12.5075 27.1344 12.5075ZM27.2011 27.7352C27.2011 27.772 27.1712 27.8018 27.1345 27.8018H25.1286C25.0922 27.8018 25.0623 27.7719 25.0623 27.7352V13.4487C25.0623 13.4124 25.0922 13.3825 25.1286 13.3825H27.1345C27.1712 13.3825 27.2011 13.4124 27.2011 13.4487V27.7352Z" fill="#C29340"/>
<path d="M7.78931 17.0006C7.94185 17.1133 8.15283 17.1147 8.30715 17.0006L14.13 12.7248L19.9255 15.3011C20.1045 15.3797 20.3152 15.331 20.4408 15.1798L25.6944 8.81912L25.6941 10.1405C25.6941 10.3819 25.8898 10.578 26.1316 10.578C26.373 10.578 26.5691 10.3823 26.5691 10.1405L26.5696 7.60394C26.5696 7.37017 26.3515 7.13925 26.0825 7.16956C26.0822 7.16956 26.0819 7.16944 26.0816 7.16944L23.5584 7.46254C23.3182 7.49029 23.1465 7.70734 23.1743 7.94746C23.202 8.18757 23.4187 8.36357 23.6592 8.33153L25.1002 8.16429L19.9777 14.3668L14.2535 11.822C14.1103 11.7588 13.9437 11.7759 13.8168 11.8694L8.0482 16.1055L2.27922 11.8695C2.08356 11.7264 1.81012 11.7687 1.66784 11.963C1.52471 12.1579 1.56655 12.4317 1.76138 12.5744L7.78931 17.0006Z" fill="#C29340"/>
<path d="M8.60962 11.2085C11.5174 11.2085 13.883 8.84498 13.883 5.94018C13.883 3.03538 11.5174 0.671875 8.60962 0.671875C5.70482 0.671875 3.34131 3.03538 3.34131 5.94018C3.34131 8.84498 5.70476 11.2085 8.60962 11.2085ZM8.60962 1.54683C11.0351 1.54683 13.008 3.51768 13.008 5.94013C13.008 8.36258 11.035 10.3334 8.60962 10.3334C6.18717 10.3334 4.21631 8.36258 4.21631 5.94013C4.21631 3.51768 6.18717 1.54683 8.60962 1.54683Z" fill="#C29340"/>
</svg>
