<svg width="24" height="24" viewBox="0 0 24 24" fill="none" xmlns="http://www.w3.org/2000/svg">
<rect x="-1" y="1" width="22" height="22" rx="3" transform="matrix(-1 0 0 1 22 0)" fill="#EADDC7" stroke="#EADDC7" stroke-width="2"/>
<path fill-rule="evenodd" clip-rule="evenodd" d="M11.9999 6.24156C10.5861 6.24156 9.43993 7.38771 9.43993 8.80156C9.43993 10.2154 10.5861 11.3616 11.9999 11.3616C13.4138 11.3616 14.5599 10.2154 14.5599 8.80156C14.5599 7.38771 13.4138 6.24156 11.9999 6.24156ZM8.79993 8.80156C8.79993 7.03425 10.2326 5.60156 11.9999 5.60156C13.7672 5.60156 15.1999 7.03425 15.1999 8.80156C15.1999 10.5689 13.7672 12.0016 11.9999 12.0016C10.2326 12.0016 8.79993 10.5689 8.79993 8.80156Z" fill="white" stroke="white" stroke-width="0.266667"/>
<path fill-rule="evenodd" clip-rule="evenodd" d="M17.3015 15.1799C13.9866 13.4184 10.0132 13.4184 6.69842 15.1799C6.61321 15.2252 6.55995 15.3138 6.55995 15.4103V17.7603C6.55995 17.937 6.70322 18.0803 6.87995 18.0803H17.12C17.2967 18.0803 17.44 17.937 17.44 17.7603V15.4103C17.44 15.3138 17.3867 15.2252 17.3015 15.1799H17.3015ZM6.39807 14.6147C9.90072 12.7534 14.0991 12.7534 17.6018 14.6147C17.896 14.7711 18.0799 15.0771 18.0799 15.4103V17.7603C18.0799 18.2905 17.6501 18.7203 17.1199 18.7203H6.87992C6.34973 18.7203 5.91992 18.2905 5.91992 17.7603V15.4103C5.91992 15.0771 6.10383 14.7711 6.39806 14.6147H6.39807Z" fill="white" stroke="white" stroke-width="0.266667"/>
</svg>
