<svg width="29" height="29" viewBox="0 0 29 29" fill="none" xmlns="http://www.w3.org/2000/svg">
<g clip-path="url(#clip0_2930_14523)">
<path d="M4.72946 23.0494C7.11697 23.0494 9.05907 21.1073 9.05907 18.72C9.05907 16.3328 7.11697 14.3907 4.72946 14.3907C2.34249 14.3907 0.400391 16.3328 0.400391 18.72C0.400391 21.1073 2.34249 23.0494 4.72946 23.0494ZM4.72946 15.0906C6.73084 15.0906 8.35918 16.7189 8.35918 18.72C8.35918 20.7211 6.73084 22.3495 4.72946 22.3495C2.72835 22.3495 1.10027 20.7211 1.10027 18.72C1.10027 16.7189 2.72835 15.0906 4.72946 15.0906Z" fill="#C29340"/>
<path d="M13.7297 16.0496C16.1167 16.0496 18.0588 14.1075 18.0588 11.7202C18.0588 9.33273 16.1167 7.39062 13.7297 7.39062C11.3425 7.39062 9.40039 9.33273 9.40039 11.7202C9.40039 14.1075 11.3425 16.0496 13.7297 16.0496ZM13.7297 8.09077C15.7308 8.09077 17.3589 9.71885 17.3589 11.7202C17.3589 13.7213 15.7308 15.3494 13.7297 15.3494C11.7283 15.3494 10.1005 13.7213 10.1005 11.7202C10.1005 9.71885 11.7283 8.09077 13.7297 8.09077Z" fill="#C29340"/>
<path d="M24.0712 9.04929C26.4584 9.04929 28.4005 7.10719 28.4005 4.71995C28.4005 2.33271 26.4584 0.39061 24.0712 0.39061C21.6837 0.39061 19.7416 2.33271 19.7416 4.71995C19.7416 7.10719 21.6837 9.04929 24.0712 9.04929ZM24.0712 1.09049C26.0726 1.09049 27.7004 2.71883 27.7004 4.71995C27.7004 6.72133 26.0726 8.3494 24.0712 8.3494C22.0701 8.3494 20.4417 6.72133 20.4417 4.71995C20.4417 2.71883 22.0701 1.09049 24.0712 1.09049Z" fill="#C29340"/>
<path d="M0.750465 28.3907H8.70926C8.90259 28.3907 9.05907 28.234 9.05907 28.0407V24.5845C9.05907 24.3912 8.90259 24.2344 8.70926 24.2344H0.750465C0.556869 24.2344 0.400391 24.3912 0.400391 24.5845V28.0407C0.400391 28.234 0.556869 28.3907 0.750465 28.3907ZM1.10027 24.9343H8.35918V27.6906H1.10027V24.9343Z" fill="#C29340"/>
<path d="M10.4211 28.3907H18.3796C18.573 28.3907 18.7295 28.234 18.7295 28.0407V17.5843C18.7295 17.391 18.573 17.2343 18.3796 17.2343H10.4211C10.2278 17.2343 10.071 17.391 10.071 17.5843V28.0407C10.071 28.234 10.2278 28.3907 10.4211 28.3907ZM10.7712 17.9344H18.0296V27.6906H10.7712V17.9344Z" fill="#C29340"/>
<path d="M20.0917 28.3907H28.0504C28.2438 28.3907 28.4005 28.234 28.4005 28.0407V10.5844C28.4005 10.3911 28.2438 10.2344 28.0504 10.2344H20.0917C19.8983 10.2344 19.7416 10.3911 19.7416 10.5844V28.0407C19.7416 28.234 19.8983 28.3907 20.0917 28.3907ZM20.4417 10.9343H27.7004V27.6906H20.4417V10.9343Z" fill="#C29340"/>
<path d="M5.33164 21.3906L3.65039 19.4462V18.8906H4.52539C4.74622 18.8906 4.93689 18.8107 5.09739 18.6509C5.25789 18.4911 5.35472 18.2932 5.38789 18.0573H3.40039V17.5017H5.31289C5.24206 17.3397 5.13681 17.2066 4.99714 17.1023C4.85747 16.998 4.70022 16.946 4.52539 16.9462H3.40039V16.3906H6.40039V16.9462H5.58789C5.64622 17.0249 5.69831 17.1105 5.74414 17.2031C5.78997 17.2957 5.82539 17.3953 5.85039 17.5017H6.40039V18.0573H5.89414C5.86081 18.4508 5.71497 18.7807 5.45664 19.047C5.19831 19.3133 4.88789 19.4464 4.52539 19.4462H4.34414L6.02539 21.3906H5.33164Z" fill="#C29340"/>
<path d="M14.3316 14.3906L12.6504 12.4462V11.8906H13.5254C13.7462 11.8906 13.9369 11.8107 14.0974 11.6509C14.2579 11.4911 14.3547 11.2932 14.3879 11.0573H12.4004V10.5017H14.3129C14.2421 10.3397 14.1368 10.2066 13.9971 10.1023C13.8575 9.99803 13.7002 9.946 13.5254 9.94618H12.4004V9.39062H15.4004V9.94618H14.5879C14.6462 10.0249 14.6983 10.1105 14.7441 10.2031C14.79 10.2957 14.8254 10.3953 14.8504 10.5017H15.4004V11.0573H14.8941C14.8608 11.4508 14.715 11.7807 14.4566 12.047C14.1983 12.3133 13.8879 12.4464 13.5254 12.4462H13.3441L15.0254 14.3906H14.3316Z" fill="#C29340"/>
<path d="M24.3316 7.39062L22.6504 5.44618V4.89062H23.5254C23.7462 4.89062 23.9369 4.81072 24.0974 4.6509C24.2579 4.49109 24.3547 4.29322 24.3879 4.05729H22.4004V3.50174H24.3129C24.2421 3.3397 24.1368 3.20655 23.9971 3.10229C23.8575 2.99803 23.7002 2.946 23.5254 2.94618H22.4004V2.39062H25.4004V2.94618H24.5879C24.6462 3.02488 24.6983 3.11053 24.7441 3.20313C24.79 3.29572 24.8254 3.39525 24.8504 3.50174H25.4004V4.05729H24.8941C24.8608 4.45081 24.715 4.78072 24.4566 5.04701C24.1983 5.31331 23.8879 5.44637 23.5254 5.44618H23.3441L25.0254 7.39062H24.3316Z" fill="#C29340"/>
</g>
<defs>
<clipPath id="clip0_2930_14523">
<rect width="28" height="28" fill="white" transform="translate(0.400391 0.390625)"/>
</clipPath>
</defs>
</svg>
