<svg width="34" height="34" viewBox="0 0 34 34" fill="none" xmlns="http://www.w3.org/2000/svg">
<path d="M22.6676 10.6224C22.6676 10.2314 22.3503 9.91406 21.9593 9.91406H15.5843H12.0426C11.6516 9.91406 11.3343 10.2314 11.3343 10.6224C11.3343 11.0134 11.6516 11.3307 12.0426 11.3307H15.5843C17.1469 11.3307 18.4176 12.6015 18.4176 14.1641H12.0426C11.6516 14.1641 11.3343 14.4814 11.3343 14.8724C11.3343 15.2634 11.6516 15.5807 12.0426 15.5807H18.0238C17.5322 16.4236 16.6284 16.9974 15.5843 16.9974H12.0426C11.7423 16.9974 11.4745 17.1872 11.3739 17.472C11.2748 17.7553 11.364 18.0712 11.5992 18.2596L18.6825 23.9263C18.8143 24.0297 18.9701 24.0807 19.1259 24.0807C19.3328 24.0807 19.5396 23.9901 19.6799 23.8144C19.9235 23.5084 19.8754 23.0636 19.5694 22.8185L14.0628 18.4141H15.5843C17.4288 18.4141 18.9871 17.2255 19.5736 15.5807H21.9593C22.3503 15.5807 22.6676 15.2634 22.6676 14.8724C22.6676 14.4814 22.3503 14.1641 21.9593 14.1641H19.8343C19.8343 13.0718 19.4079 12.0844 18.7293 11.3307H21.9593C22.3503 11.3307 22.6676 11.0134 22.6676 10.6224Z" fill="#C29340"/>
<path d="M16.9994 1.41406C8.40727 1.41406 1.41602 8.40531 1.41602 16.9974C1.41602 25.5895 8.40727 32.5807 16.9994 32.5807C25.5914 32.5807 32.5827 25.5895 32.5827 16.9974C32.5827 8.40531 25.5914 1.41406 16.9994 1.41406ZM16.9994 31.1641C9.18785 31.1641 2.83268 24.8089 2.83268 16.9974C2.83268 9.1859 9.18785 2.83073 16.9994 2.83073C24.8109 2.83073 31.166 9.1859 31.166 16.9974C31.166 24.8089 24.8109 31.1641 16.9994 31.1641Z" fill="#C29340"/>
</svg>
