<svg width="15" height="15" viewBox="0 0 15 15" fill="none" xmlns="http://www.w3.org/2000/svg">
<g clip-path="url(#clip0_1604_152103)">
<path d="M9.96904 4.84242C9.96904 4.67928 9.83664 4.54688 9.6735 4.54688H7.01361H5.5359C5.37276 4.54688 5.24036 4.67928 5.24036 4.84242C5.24036 5.00556 5.37276 5.13796 5.5359 5.13796H7.01361C7.66558 5.13796 8.19578 5.66816 8.19578 6.32013H5.5359C5.37276 6.32013 5.24036 6.45253 5.24036 6.61567C5.24036 6.77881 5.37276 6.91121 5.5359 6.91121H8.03146C7.82636 7.26291 7.44924 7.5023 7.01361 7.5023H5.5359C5.41059 7.5023 5.29887 7.5815 5.25691 7.70031C5.21553 7.81853 5.25277 7.95034 5.35089 8.02896L8.30632 10.3933C8.36129 10.4364 8.42631 10.4577 8.49133 10.4577C8.57763 10.4577 8.66392 10.4199 8.72244 10.3466C8.82411 10.2189 8.80401 10.0333 8.67634 9.93107L6.37879 8.09338H7.01361C7.78321 8.09338 8.4334 7.59746 8.67811 6.91121H9.6735C9.83664 6.91121 9.96904 6.77881 9.96904 6.61567C9.96904 6.45253 9.83664 6.32013 9.6735 6.32013H8.78687C8.78687 5.8644 8.60895 5.45242 8.32582 5.13796H9.6735C9.83664 5.13796 9.96904 5.00556 9.96904 4.84242Z" fill="#8E8E8E"/>
<path d="M7.60546 1C4.02052 1 1.10352 3.91701 1.10352 7.50194C1.10352 11.0869 4.02052 14.0039 7.60546 14.0039C11.1904 14.0039 14.1074 11.0869 14.1074 7.50194C14.1074 3.91701 11.1904 1 7.60546 1ZM7.60546 13.4128C4.34621 13.4128 1.6946 10.7612 1.6946 7.50194C1.6946 4.2427 4.34621 1.59109 7.60546 1.59109C10.8647 1.59109 13.5163 4.2427 13.5163 7.50194C13.5163 10.7612 10.8647 13.4128 7.60546 13.4128Z" fill="#8E8E8E"/>
</g>
<defs>
<clipPath id="clip0_1604_152103">
<rect width="14.186" height="14.186" fill="white" transform="translate(0.511719 0.40625)"/>
</clipPath>
</defs>
</svg>
