<svg width="29" height="29" viewBox="0 0 29 29" fill="none" xmlns="http://www.w3.org/2000/svg">
<g clip-path="url(#clip0_2930_14371)">
<path d="M2.39258 19.7969H3.26758V20.6719H2.39258V19.7969Z" fill="#C29340"/>
<path d="M4.14258 19.7969H5.01758V20.6719H4.14258V19.7969Z" fill="#C29340"/>
<path d="M5.89258 19.7969H6.76758V20.6719H5.89258V19.7969Z" fill="#C29340"/>
<path d="M2.39258 17.1719H3.26758V18.0469H2.39258V17.1719Z" fill="#C29340"/>
<path d="M4.14258 17.1719H5.01758V18.0469H4.14258V17.1719Z" fill="#C29340"/>
<path d="M5.89258 17.1719H6.76758V18.0469H5.89258V17.1719Z" fill="#C29340"/>
<path d="M2.39258 14.5469H3.26758V15.4219H2.39258V14.5469Z" fill="#C29340"/>
<path d="M4.14258 14.5469H5.01758V15.4219H4.14258V14.5469Z" fill="#C29340"/>
<path d="M5.89258 14.5469H6.76758V15.4219H5.89258V14.5469Z" fill="#C29340"/>
<path d="M27.0886 22.5479C27.5318 21.6803 27.7676 20.7213 27.7676 19.7356C27.7676 18.2599 27.2386 16.8302 26.2783 15.7098L22.5176 11.3229V9.86694L22.5911 9.75669C23.1152 8.97006 23.3926 8.05481 23.3926 7.10938V6.92825L23.2644 6.80006C23.162 6.69725 22.1825 5.79688 19.4551 5.79688H19.0176V6.23438C19.0176 6.38225 19.022 6.53056 19.0307 6.678C18.2975 6.71037 17.6447 7.12687 17.314 7.78837L17.216 7.98438L18.1426 9.83763V11.3225L17.2676 12.3432V10.2463L15.5176 9.91813V6.23438C15.5176 5.99275 15.3217 5.79688 15.0801 5.79688C14.8385 5.79688 14.6426 5.99275 14.6426 6.23438V9.75406L13.7676 9.59V7.98438C13.7676 7.74275 13.5717 7.54688 13.3301 7.54688C13.0885 7.54688 12.8926 7.74275 12.8926 7.98438V9.42594L12.0176 9.26188V4.99625L9.39258 4.50406V1.85938C9.39258 1.61775 9.1967 1.42188 8.95508 1.42188C8.71345 1.42188 8.51758 1.61775 8.51758 1.85937V4.34L7.64258 4.17594V2.73438C7.64258 2.49275 7.4467 2.29688 7.20508 2.29688C6.96345 2.29688 6.76758 2.49275 6.76758 2.73438V4.01188L4.14258 3.51969V12.215L3.26758 12.3791V10.6094C3.26758 10.3678 3.0717 10.1719 2.83008 10.1719C2.58845 10.1719 2.39258 10.3678 2.39258 10.6094V12.5431L0.642578 12.8713V28.5469H22.3876C23.1143 28.5469 23.8209 28.4016 24.4881 28.1155C25.9699 27.4807 27.0728 26.2286 27.5151 24.6794L27.7212 23.9584C27.7518 23.8508 27.7676 23.7396 27.7676 23.6272C27.7676 23.1516 27.4889 22.7439 27.0886 22.5479ZM26.8926 19.7361C26.8926 20.7143 26.6231 21.6628 26.1182 22.4928C25.8155 22.5807 25.5394 22.75 25.3325 22.9981L24.5432 23.9452C23.96 24.6453 23.1025 25.0469 22.1908 25.0469H19.2906C19.1401 25.0469 19.0176 24.9244 19.0176 24.7739C19.0176 24.6396 19.1138 24.5267 19.2455 24.5044L20.4136 24.3097C21.1255 24.1911 21.6426 23.5812 21.6426 22.8594C21.6426 22.1357 21.0537 21.5469 20.3301 21.5469H19.0176C17.5747 21.5469 16.1463 22.0084 14.9698 22.8423L14.7559 22.8156C14.111 21.9131 13.7676 20.8534 13.7676 19.7356C13.7676 18.4686 14.2217 17.2414 15.046 16.2794L18.7813 11.9219H21.8793L25.6146 16.2794C26.4385 17.2414 26.8926 18.4691 26.8926 19.7361ZM21.6426 10.1719V11.0469H19.0176V10.1719H21.6426ZM22.5119 7.322C22.4738 8.01806 22.2516 8.68787 21.8631 9.27106L21.846 9.29688H20.6044C20.2058 8.48181 19.9661 7.58756 19.9075 6.68106C21.4396 6.74713 22.2227 7.13737 22.5119 7.322ZM19.1208 7.54688H19.13C19.2324 8.14756 19.4039 8.73644 19.641 9.29688H18.8505L18.2043 8.0045C18.4182 7.71837 18.7538 7.54688 19.1208 7.54688ZM16.3926 13.3643L15.3789 14.5469H14.6426V15.4061L14.3818 15.7102C14.0012 16.1538 13.6919 16.6477 13.453 17.1719H12.8926V18.0469H13.1306C12.9753 18.5929 12.8926 19.1603 12.8926 19.7361C12.8926 20.7786 13.1481 21.7783 13.635 22.6756L10.2676 22.2543V9.82406L16.3926 10.9725V13.3643ZM5.01758 4.57406L11.1426 5.7225V9.09781L9.39258 8.76969V22.1449L8.51758 22.0356V11.3947L5.01758 12.0509V4.57406ZM7.64258 12.4491V21.9262L1.51758 21.1606V13.5975L7.64258 12.4491ZM1.51758 22.0426L12.0176 23.3551V27.6719H1.51758V22.0426ZM12.8926 27.6719V23.4644L14.6426 23.6832V27.6719H12.8926ZM26.8799 23.7173L26.6734 24.4388C26.3037 25.7333 25.3819 26.7807 24.1433 27.3109C23.5855 27.5507 22.9949 27.6719 22.3876 27.6719H15.5176V23.5204C16.5387 22.8108 17.7729 22.4219 19.0176 22.4219H20.3301C20.5716 22.4219 20.7676 22.6183 20.7676 22.8594C20.7676 23.1516 20.558 23.3984 20.2701 23.4465L19.102 23.6412C18.5464 23.7339 18.1426 24.2104 18.1426 24.7739C18.1426 25.4069 18.6575 25.9219 19.2906 25.9219H22.1908C23.3628 25.9219 24.4653 25.4056 25.2156 24.5053L26.0045 23.5585C26.1431 23.3923 26.3466 23.2969 26.5627 23.2969C26.7447 23.2969 26.8926 23.4448 26.8926 23.6268C26.8926 23.6578 26.8882 23.6884 26.8799 23.7173Z" fill="#C29340"/>
<path d="M11.1426 17.1719H12.0176V18.0469H11.1426V17.1719Z" fill="#C29340"/>
<path d="M11.1426 19.7969H12.0176V20.6719H11.1426V19.7969Z" fill="#C29340"/>
<path d="M12.8926 14.5469H13.7676V15.4219H12.8926V14.5469Z" fill="#C29340"/>
<path d="M11.1426 14.5469H12.0176V15.4219H11.1426V14.5469Z" fill="#C29340"/>
<path d="M14.6426 11.9219H15.5176V12.7969H14.6426V11.9219Z" fill="#C29340"/>
<path d="M12.8926 11.9219H13.7676V12.7969H12.8926V11.9219Z" fill="#C29340"/>
<path d="M11.1426 11.9219H12.0176V12.7969H11.1426V11.9219Z" fill="#C29340"/>
<path d="M5.89258 9.29688H6.76758V10.1719H5.89258V9.29688Z" fill="#C29340"/>
<path d="M9.39258 6.67188H10.2676V7.54688H9.39258V6.67188Z" fill="#C29340"/>
<path d="M7.64258 6.67188H8.51758V7.54688H7.64258V6.67188Z" fill="#C29340"/>
<path d="M5.89258 6.67188H6.76758V7.54688H5.89258V6.67188Z" fill="#C29340"/>
<path d="M7.64258 9.29688H8.51758V10.1719H7.64258V9.29688Z" fill="#C29340"/>
<path d="M21.1363 19.9844L19.4551 18.0399V17.4844H20.3301C20.5509 17.4844 20.7416 17.4045 20.9021 17.2447C21.0626 17.0848 21.1594 16.887 21.1926 16.651H19.2051V16.0955H21.1176C21.0467 15.9334 20.9415 15.8003 20.8018 15.696C20.6622 15.5918 20.5049 15.5397 20.3301 15.5399H19.2051V14.9844H22.2051V15.5399H21.3926C21.4509 15.6186 21.503 15.7043 21.5488 15.7969C21.5947 15.8895 21.6301 15.989 21.6551 16.0955H22.2051V16.651H21.6988C21.6655 17.0446 21.5197 17.3745 21.2613 17.6408C21.003 17.9071 20.6926 18.0401 20.3301 18.0399H20.1488L21.8301 19.9844H21.1363Z" fill="#C29340"/>
</g>
<defs>
<clipPath id="clip0_2930_14371">
<rect width="28" height="28" fill="white" transform="translate(0.205078 0.984375)"/>
</clipPath>
</defs>
</svg>
