<svg width="9" height="17" viewBox="0 0 9 17" fill="none" xmlns="http://www.w3.org/2000/svg">
<path d="M6.07233 0.127441C6.62332 1.1409 6.50697 2.50355 5.44166 3.13433C5.28558 3.22684 5.11381 3.29254 4.93792 3.3287C4.92961 3.357 4.91733 3.38465 4.90119 3.41091C4.17124 4.59703 3.73589 5.96723 3.64149 7.37309C3.52662 9.08367 3.90977 10.7587 4.75015 12.2173C5.57146 13.6423 6.7692 14.7676 8.21503 15.4711C8.3805 15.5518 8.45009 15.7568 8.37017 15.929C8.30442 16.0712 8.15783 16.1464 8.01568 16.1233C7.98529 16.1184 7.95521 16.1093 7.92635 16.095C7.22959 15.7559 6.58614 15.3262 6.00818 14.8178C5.94131 14.9783 5.85045 15.1287 5.7399 15.261C4.93611 16.2226 3.62531 16.0758 2.77491 15.3176C3.14303 14.3573 4.03564 13.64 5.01852 13.7921C4.70852 13.4145 4.42709 13.0073 4.1776 12.5749C4.07192 12.391 3.97264 12.2044 3.88018 12.0146C3.76312 12.1457 3.62534 12.2582 3.47464 12.345C2.40271 12.9639 1.22664 12.3573 0.68465 11.3388C1.37219 10.5377 2.49884 10.1834 3.38117 10.7585C3.15915 10.0537 3.02293 9.32117 2.97507 8.5749C2.81606 8.69003 2.63605 8.77673 2.4485 8.82756C1.26388 9.15021 0.275959 8.2557 0 7.12591C0.940771 6.46876 2.26095 6.47074 2.93635 7.51593C2.94682 7.53149 2.9565 7.5473 2.96583 7.56306C2.96811 7.4872 2.97245 7.41012 2.97787 7.33322C3.0177 6.73517 3.1153 6.14264 3.26679 5.56578C3.08228 5.59554 2.89228 5.59283 2.70926 5.55621C1.51202 5.32044 0.997926 4.06808 1.22057 2.91981C2.28007 2.75283 3.39898 3.27468 3.65879 4.39416C3.84865 3.92633 4.07744 3.47483 4.34159 3.04562C4.34927 3.03262 4.35791 3.02054 4.36721 3.00896C4.29687 2.86356 4.24687 2.70721 4.22016 2.54693C4.01238 1.30344 4.9597 0.340483 6.07233 0.127441Z" fill="#9A9A9A"/>
</svg>
