<svg width="18" height="18" viewBox="0 0 18 18" fill="none" xmlns="http://www.w3.org/2000/svg">
<path fill-rule="evenodd" clip-rule="evenodd" d="M3.16667 1.29297C2.59137 1.29297 2.125 1.75934 2.125 2.33464V15.668C2.125 16.2433 2.59137 16.7096 3.16667 16.7096H14.8333C15.4086 16.7096 15.875 16.2433 15.875 15.668V5.92685L11.2411 1.29297H3.16667ZM0.875 2.33464C0.875 1.06898 1.90101 0.0429688 3.16667 0.0429688H11.3274C11.6037 0.0429688 11.8686 0.152716 12.064 0.348066L16.8199 5.10399C17.0153 5.29934 17.125 5.56429 17.125 5.84056V15.668C17.125 16.9336 16.099 17.9596 14.8333 17.9596H3.16667C1.90101 17.9596 0.875 16.9336 0.875 15.668V2.33464Z" fill="#555555"/>
<path fill-rule="evenodd" clip-rule="evenodd" d="M10.875 0.86991C10.875 0.238851 11.638 -0.0771824 12.0842 0.369042L16.7997 5.08452C17.2459 5.53075 16.9299 6.29373 16.2988 6.29373H11.5833C11.1921 6.29373 10.875 5.97659 10.875 5.58539V0.86991ZM12.125 2.17761V5.04373H14.9911L12.125 2.17761Z" fill="#555555"/>
<path fill-rule="evenodd" clip-rule="evenodd" d="M5.04199 9C5.04199 8.65482 5.32181 8.375 5.66699 8.375H12.3337C12.6788 8.375 12.9587 8.65482 12.9587 9C12.9587 9.34518 12.6788 9.625 12.3337 9.625H5.66699C5.32181 9.625 5.04199 9.34518 5.04199 9Z" fill="#555555"/>
<path fill-rule="evenodd" clip-rule="evenodd" d="M5.04199 12.3359C5.04199 11.9908 5.32181 11.7109 5.66699 11.7109H12.3337C12.6788 11.7109 12.9587 11.9908 12.9587 12.3359C12.9587 12.6811 12.6788 12.9609 12.3337 12.9609H5.66699C5.32181 12.9609 5.04199 12.6811 5.04199 12.3359Z" fill="#555555"/>
</svg>
