<svg width="16" height="19" viewBox="0 0 16 19" fill="none" xmlns="http://www.w3.org/2000/svg">
<path d="M8.01288 18.2409H2.43623C2.1138 18.2541 1.79214 18.2003 1.49154 18.0829C1.19095 17.9655 0.917964 17.7871 0.689782 17.5589C0.4616 17.3307 0.283189 17.0577 0.165812 16.7571C0.0484352 16.4566 -0.00537025 16.1349 0.00780682 15.8125V9.33666C-0.00537025 9.01423 0.0484352 8.69257 0.165812 8.39197C0.283189 8.09138 0.4616 7.8184 0.689782 7.59021C0.917964 7.36203 1.19095 7.18362 1.49154 7.06624C1.79214 6.94887 2.1138 6.89506 2.43623 6.90824C2.63081 6.90824 3.66195 6.85377 3.65416 6.68254C3.65416 6.05208 3.65416 5.4294 3.65416 4.80673C3.71774 3.74078 4.1711 2.73542 4.92792 1.98209C5.68474 1.22875 6.69218 0.780063 7.75841 0.721415C8.82464 0.662767 9.87521 0.998276 10.7101 1.66406C11.545 2.32984 12.1059 3.27939 12.286 4.33193C12.3519 4.7514 12.3754 5.17645 12.356 5.60063C12.356 5.98202 12.356 6.37897 12.356 6.737C12.356 6.88489 13.356 6.90824 13.535 6.90824C13.9255 6.88333 14.3159 6.95898 14.6688 7.12795C15.0218 7.29693 15.3255 7.55359 15.5509 7.8734C15.8442 8.25758 16.0004 8.72887 15.9946 9.21214C15.9946 11.4538 15.9946 13.6954 15.9946 15.937C15.9946 16.5563 15.7486 17.1502 15.3107 17.5881C14.8728 18.026 14.2789 18.272 13.6596 18.272L8.01288 18.2409ZM8.01288 17.0812H13.6051C13.7715 17.0937 13.9387 17.0705 14.0954 17.0129C14.2521 16.9554 14.3946 16.865 14.5134 16.7477C14.6322 16.6304 14.7244 16.489 14.7839 16.333C14.8434 16.1771 14.8687 16.0102 14.8582 15.8436V9.3211C14.8686 9.15522 14.8434 8.98903 14.7844 8.83366C14.7254 8.67829 14.6338 8.53733 14.5159 8.42017C14.3981 8.30301 14.2565 8.21238 14.1008 8.15433C13.945 8.09627 13.7787 8.07214 13.6129 8.08354H2.43623C2.26847 8.06966 2.0997 8.09221 1.94147 8.14967C1.78325 8.20712 1.63932 8.29813 1.51955 8.41642C1.39978 8.5347 1.30702 8.67749 1.2476 8.83499C1.18818 8.99249 1.16352 9.16097 1.17532 9.32889V15.8358C1.16367 16.004 1.18836 16.1728 1.24772 16.3307C1.30708 16.4885 1.39972 16.6317 1.51933 16.7506C1.63895 16.8695 1.78274 16.9612 1.94095 17.0196C2.09916 17.078 2.26807 17.1016 2.43623 17.089L8.01288 17.0812ZM8.01288 6.90824H11.0406C11.1885 6.90824 11.2196 6.86934 11.2196 6.72924C11.2196 6.19996 11.2196 5.67069 11.2196 5.17255C11.2168 4.35442 10.8999 3.56863 10.3343 2.97748C9.76867 2.38634 8.99764 2.03499 8.18043 1.99603C7.36323 1.95707 6.56228 2.23347 5.94301 2.76812C5.32374 3.30278 4.93348 4.05484 4.85281 4.86899C4.8139 5.49944 4.85281 6.1299 4.85281 6.76035C4.85281 6.90824 4.89174 6.93938 5.03184 6.93938L8.01288 6.90824Z" fill="#555555"/>
<path d="M7.23417 13.3018V13.0683C7.26489 12.795 7.19879 12.5196 7.04737 12.29C6.90239 12.0545 6.85306 11.7725 6.90951 11.5018C6.96596 11.2311 7.1239 10.9923 7.35091 10.8345C7.57113 10.6676 7.84487 10.5874 8.1203 10.6089C8.39572 10.6304 8.6537 10.7522 8.84534 10.9512C9.03689 11.1475 9.14982 11.4072 9.16273 11.6812C9.17564 11.9552 9.08763 12.2244 8.91539 12.4378C8.88197 12.476 8.85648 12.5204 8.84044 12.5685C8.82441 12.6166 8.81815 12.6675 8.82199 12.7181V13.87C8.83189 13.9583 8.82179 14.0476 8.79244 14.1315C8.76308 14.2153 8.71522 14.2914 8.65242 14.3542C8.58961 14.417 8.51346 14.4649 8.42964 14.4942C8.34581 14.5236 8.25645 14.5337 8.16819 14.5238H7.84127C7.76163 14.5259 7.68237 14.5119 7.60828 14.4826C7.53418 14.4533 7.46678 14.4094 7.41008 14.3534C7.35338 14.2975 7.30858 14.2306 7.27835 14.1569C7.24812 14.0832 7.23309 14.0041 7.23417 13.9245C7.23417 13.7299 7.23417 13.5197 7.23417 13.3018Z" fill="#555555"/>
</svg>
