<svg width="29" height="29" viewBox="0 0 29 29" fill="none" xmlns="http://www.w3.org/2000/svg">
<g clip-path="url(#clip0_2930_14409)">
<path d="M21.0074 25.8594L19.3262 23.9149V23.3594H20.2012C20.422 23.3594 20.6127 23.2795 20.7732 23.1197C20.9337 22.9598 21.0305 22.762 21.0637 22.526H19.0762V21.9705H20.9887C20.9178 21.8084 20.8126 21.6753 20.6729 21.571C20.5333 21.4668 20.376 21.4147 20.2012 21.4149H19.0762V20.8594H22.0762V21.4149H21.2637C21.322 21.4936 21.3741 21.5793 21.4199 21.6719C21.4658 21.7645 21.5012 21.864 21.5262 21.9705H22.0762V22.526H21.5699C21.5366 22.9196 21.3908 23.2495 21.1324 23.5158C20.8741 23.7821 20.5637 23.9151 20.2012 23.9149H20.0199L21.7012 25.8594H21.0074Z" fill="#C29340"/>
<g clip-path="url(#clip1_2930_14409)">
<path d="M13.6388 1.21825H20.2017C20.5037 1.21825 20.7485 1.46309 20.7485 1.76513V3.40575C20.7485 3.70779 20.5037 3.95263 20.2017 3.95263H2.70166C2.39962 3.95263 2.15479 3.70779 2.15479 3.40575V1.76513C2.15479 1.46309 2.39962 1.21825 2.70166 1.21825H9.26378" stroke="#C29340" stroke-width="1.09375" stroke-miterlimit="10" stroke-linecap="round" stroke-linejoin="round"/>
<path d="M16.1395 25.3936H2.70166C2.39979 25.3936 2.15479 25.6386 2.15479 25.9405V27.5811C2.15479 27.883 2.39979 28.128 2.70166 28.128H20.7485" stroke="#C29340" stroke-width="1.09375" stroke-miterlimit="10" stroke-linejoin="round"/>
<path d="M19.6538 3.95016C19.6538 9.86997 15.9812 14.6689 11.4507 14.6689C6.92021 14.6689 3.24756 9.86997 3.24756 3.95016" stroke="#C29340" stroke-width="1.09375" stroke-miterlimit="10" stroke-linejoin="round"/>
<path d="M3.24756 25.3906C3.24756 19.4707 6.92037 14.6719 11.4507 14.6719C13.992 14.6719 16.2632 16.1818 17.7676 18.5525" stroke="#C29340" stroke-width="1.09375" stroke-miterlimit="10" stroke-linejoin="round"/>
<path d="M6.76337 25.3877C6.98862 25.1189 8.65402 23.2002 11.4512 23.2002C11.8019 23.2002 14.3422 23.2439 16.1391 25.3877" stroke="#C29340" stroke-width="1.09375" stroke-miterlimit="10" stroke-linejoin="round"/>
<path d="M18.7836 8.76446C17.8562 9.00044 16.6048 9.22356 15.1178 9.22356C13.6309 9.22356 12.3794 9.00044 11.4521 8.76446C10.5248 8.52848 9.27325 8.30536 7.7863 8.30536C6.29935 8.30536 5.04788 8.52848 4.12054 8.76446" stroke="#C29340" stroke-width="1.09375" stroke-miterlimit="10" stroke-linejoin="round"/>
<path d="M11.4512 17.3483V17.8398" stroke="#C29340" stroke-width="1.09375" stroke-miterlimit="10" stroke-linecap="round" stroke-linejoin="round"/>
<path d="M11.4512 20.0327V20.5242" stroke="#C29340" stroke-width="1.09375" stroke-miterlimit="10" stroke-linecap="round" stroke-linejoin="round"/>
<path d="M20.7476 28.1255C23.6471 28.1255 25.9976 25.775 25.9976 22.8755C25.9976 19.976 23.6471 17.6255 20.7476 17.6255C17.8481 17.6255 15.4976 19.976 15.4976 22.8755C15.4976 25.775 17.8481 28.1255 20.7476 28.1255Z" stroke="#C29340" stroke-width="1.09375" stroke-miterlimit="10" stroke-linejoin="round"/>
</g>
</g>
<defs>
<clipPath id="clip0_2930_14409">
<rect width="28" height="28" fill="white" transform="translate(0.0761719 0.671875)"/>
</clipPath>
<clipPath id="clip1_2930_14409">
<rect width="28" height="28" fill="white" transform="translate(0.0761719 0.671875)"/>
</clipPath>
</defs>
</svg>
