<svg width="29" height="29" viewBox="0 0 29 29" fill="none" xmlns="http://www.w3.org/2000/svg">
<g clip-path="url(#clip0_2930_14610)">
<mask id="mask0_2930_14610" style="mask-type:luminance" maskUnits="userSpaceOnUse" x="0" y="0" width="29" height="29">
<path d="M0.826172 0.828127H28.8262V28.8281H0.826172V0.828127Z" fill="white"/>
</mask>
<g mask="url(#mask0_2930_14610)">
<path d="M17.271 28.418V24.9056C16.9449 25.0995 16.5637 25.2115 16.1563 25.2115C14.9525 25.2115 13.9766 24.2356 13.9766 23.0312C13.9766 21.8273 14.9525 20.8514 16.1563 20.8514C16.5637 20.8514 16.9449 20.9634 17.271 21.1574V17.3758" stroke="#C29340" stroke-width="0.8" stroke-miterlimit="10" stroke-linecap="round" stroke-linejoin="round"/>
<path d="M6.22852 23.055V26.1885C6.22852 27.4197 7.22667 28.4178 8.45791 28.4178H26.0835C27.3148 28.4178 28.3129 27.4197 28.3129 26.1885L28.313 8.56283C28.313 7.33154 27.3149 6.3335 26.0836 6.3335H22.3274" stroke="#C29340" stroke-width="0.8" stroke-miterlimit="10" stroke-linecap="round" stroke-linejoin="round"/>
<path d="M28.3129 17.3758H24.8004C24.9944 17.7018 25.1065 18.0831 25.1065 18.4905C25.1065 19.6943 24.1305 20.6703 22.9267 20.6703C21.7223 20.6703 20.7464 19.6943 20.7464 18.4905C20.7464 18.0831 20.8584 17.7018 21.0523 17.3758H13.4892C13.683 17.0497 13.7951 16.6685 13.7951 16.2611C13.7951 15.0573 12.8192 14.0808 11.6147 14.0808C10.4109 14.0808 9.43495 15.0573 9.43495 16.2611C9.43495 16.6685 9.54701 17.0497 9.74093 17.3758H6.53477C6.36567 17.3758 6.22852 17.5129 6.22852 17.682V21.2325V23.3341" stroke="#C29340" stroke-width="0.8" stroke-miterlimit="10" stroke-linecap="round" stroke-linejoin="round"/>
<path d="M20.5038 6.33352H17.5806C17.4088 6.33352 17.2695 6.47275 17.2695 6.64452V9.36211C17.2695 9.57555 17.4793 9.72491 17.6814 9.656C17.9019 9.5808 18.1384 9.53995 18.3844 9.53995C19.6395 9.53995 20.6473 10.6007 20.5591 11.8752C20.4847 12.9498 19.6152 13.8196 18.5406 13.8946C18.2387 13.9156 17.9489 13.875 17.6823 13.7842C17.4798 13.7153 17.2695 13.864 17.2695 14.0779V17.3757" stroke="#C29340" stroke-width="0.8" stroke-miterlimit="10" stroke-linecap="round" stroke-linejoin="round"/>
<path d="M20.3262 6.32887H22.8262" stroke="#C29340" stroke-width="0.8"/>
<path d="M8.43777 2.14992L10.3311 1.26726C10.4869 1.19507 10.6718 1.26234 10.7445 1.4182L12.0975 4.31992C12.3107 4.00546 12.6093 3.74296 12.9785 3.5707C14.0941 3.05068 15.4257 3.55593 15.9092 4.70109C16.3511 5.74781 15.8999 6.97718 14.8865 7.4907C14.4982 7.68703 14.0815 7.75648 13.6812 7.71546L15.1479 10.8616C15.2207 11.0175 15.1534 11.2023 14.9975 11.2751L12.2911 12.5372C12.0969 12.6275 11.8738 12.5001 11.8502 12.2873C11.8229 12.0347 11.7501 11.7815 11.6282 11.5398C11.1169 10.5264 9.88973 10.073 8.84301 10.5116C7.69348 10.9929 7.18543 12.3273 7.7066 13.4451C7.81051 13.6677 7.94777 13.8651 8.10905 14.0335C8.2567 14.1872 8.20973 14.4404 8.01668 14.5307L5.55356 15.6791C5.39824 15.7512 5.21285 15.684 5.14066 15.5287L1.54715 7.8232C1.02702 6.70703 1.50991 5.38086 2.62559 4.86078L3.10514 4.63711" stroke="#C29340" stroke-width="0.8" stroke-miterlimit="10" stroke-linecap="round" stroke-linejoin="round"/>
<path d="M46.2279 17.5067C46.7902 17.5067 47.3174 17.3579 47.7737 17.0987M9.36219 4.37253C9.36219 2.64151 7.95897 1.23829 6.22794 1.23829C4.49698 1.23829 3.09375 2.64151 3.09375 4.37253C3.09375 6.1035 4.49698 7.50673 6.22794 7.50673C6.79024 7.50673 7.32617 7.33485 7.77369 7.09871C8.9317 6.50979 9.3152 5.03587 9.36219 4.37253Z" stroke="#C29340" stroke-width="0.8" stroke-miterlimit="10" stroke-linecap="round" stroke-linejoin="round"/>
</g>
<path d="M6.61367 5.82812L5.49284 4.66146V4.32812H6.07617C6.22339 4.32812 6.35051 4.28018 6.45751 4.18429C6.56451 4.0884 6.62906 3.96968 6.65117 3.82813H5.32617V3.49479H6.60117C6.55395 3.39757 6.48378 3.31768 6.39067 3.25513C6.29756 3.19257 6.19273 3.16135 6.07617 3.16146H5.32617V2.82812H7.32617V3.16146H6.78451C6.82339 3.20868 6.85812 3.26007 6.88867 3.31563C6.91923 3.37118 6.94284 3.4309 6.95951 3.49479H7.32617V3.82813H6.98867C6.96645 4.06424 6.86923 4.26218 6.69701 4.42196C6.52478 4.58174 6.31784 4.66157 6.07617 4.66146H5.95534L7.07617 5.82812H6.61367Z" fill="#C29340"/>
</g>
<defs>
<clipPath id="clip0_2930_14610">
<rect width="28" height="28" fill="white" transform="translate(0.826172 0.828125)"/>
</clipPath>
</defs>
</svg>
