<svg width="27" height="21" viewBox="0 0 27 21" fill="none" xmlns="http://www.w3.org/2000/svg">
<path d="M26.5342 10.7045H12.569C12.3121 10.7045 12.1035 10.4959 12.1035 10.2389C12.1035 9.98198 12.3121 9.77344 12.569 9.77344H26.5342C26.7911 9.77344 26.9997 9.98198 26.9997 10.2389C26.9997 10.4959 26.7911 10.7045 26.5342 10.7045Z" fill="#C5A265"/>
<path d="M22.8105 14.4331C22.6913 14.4331 22.5721 14.3875 22.4809 14.2972C22.2993 14.1156 22.2993 13.8205 22.4809 13.6389L25.8763 10.2435L22.4818 6.84907C22.3003 6.66753 22.3003 6.37239 22.4818 6.19085C22.6634 6.0093 22.9585 6.0093 23.14 6.19085L26.8641 9.91489C27.0456 10.0964 27.0456 10.3916 26.8641 10.5731L23.14 14.2972C23.0488 14.3875 22.9296 14.4331 22.8105 14.4331Z" fill="#C5A265"/>
<path d="M10.2417 20.4822C14.5755 20.4822 18.456 17.7385 19.8981 13.6551C19.9838 13.4121 19.8562 13.1468 19.6142 13.0612C19.3712 12.9774 19.1058 13.103 19.0202 13.3451C17.7093 17.057 14.1817 19.5512 10.2417 19.5512C5.1081 19.5512 0.931583 15.3747 0.931583 10.2411C0.931583 5.10753 5.1081 0.931011 10.2417 0.931011C14.1817 0.931011 17.7093 3.42519 19.0193 7.13806C19.1049 7.38012 19.3712 7.50581 19.6132 7.42202C19.8553 7.33637 19.9829 7.07103 19.8972 6.82803C18.456 2.74369 14.5755 0 10.2417 0C4.59511 0 0.000574112 4.59454 0.000574112 10.2411C0.000574112 15.8877 4.59511 20.4822 10.2417 20.4822Z" fill="#C5A265"/>
</svg>
