<svg width="28" height="27" viewBox="0 0 28 27" fill="none" xmlns="http://www.w3.org/2000/svg">
<path d="M10.7116 15.4649C10.7116 15.2944 10.5731 15.1562 10.4021 15.1562H6.45598C6.28506 15.1562 6.14648 15.2944 6.14648 15.4649C6.14648 15.6353 6.28506 15.7735 6.45598 15.7735H7.36599C8.13545 15.7735 8.77692 16.3068 8.91008 17.0079H6.49467C6.32375 17.0079 6.18517 17.1462 6.18517 17.3165C6.18517 17.487 6.32375 17.6251 6.49467 17.6251H8.89327C8.72929 18.2878 8.10697 18.7825 7.36602 18.7825H6.47219C6.19326 18.7825 6.05692 19.1231 6.25883 19.3147L9.05503 21.968C9.11492 22.0249 9.19172 22.0531 9.26832 22.0531C9.54652 22.0531 9.68367 21.7124 9.4818 21.5209L7.24641 19.3998H7.36606C8.451 19.3998 9.35375 18.6305 9.52526 17.6251H10.4021C10.5731 17.6251 10.7116 17.487 10.7116 17.3165C10.7116 17.1462 10.5731 17.0079 10.4021 17.0079H9.53659C9.47345 16.5283 9.24492 16.0981 8.90776 15.7735H10.4021C10.5731 15.7735 10.7116 15.6353 10.7116 15.4649Z" fill="#C5A265"/>
<path d="M13.7271 13.3841C13.0385 12.6955 12.2184 12.1478 11.3139 11.7723C10.0737 11.249 8.71114 11.072 7.37563 11.2611C6.04009 11.4501 4.78327 11.9977 3.7431 12.8438C2.41522 13.9337 1.50284 15.4354 1.15552 17.1028C0.808193 18.7702 1.04654 20.5043 1.83148 22.0209C2.62188 23.5408 3.92758 24.7406 5.52224 25.4122C7.10169 26.0832 8.87057 26.1854 10.519 25.7011C12.1785 25.2135 13.6119 24.1684 14.5693 22.7476C15.536 21.3169 15.9798 19.6052 15.828 17.8935C15.6712 16.1983 14.9299 14.6069 13.7271 13.3841ZM13.8122 20.8377C13.5205 21.5339 13.0929 22.1669 12.5536 22.701V22.7476C11.621 23.6984 10.3763 24.2931 9.04059 24.4262C7.70483 24.5592 6.3644 24.222 5.25726 23.4743C4.14424 22.726 3.3258 21.6242 2.93871 20.3531C2.53727 19.0651 2.5974 17.6803 3.10904 16.4307C3.61701 15.2042 4.53515 14.1853 5.71151 13.5425C6.88803 12.9079 8.25356 12.7002 9.56979 12.9555C10.8859 13.211 12.0693 13.9133 12.9132 14.9401C13.5991 15.7407 14.0499 16.7106 14.2166 17.7452C14.3834 18.7796 14.2599 19.8392 13.8596 20.8097L13.8122 20.8377Z" fill="#C5A265" stroke="#FFFDFA" stroke-width="0.72"/>
<path d="M26.1037 1.95897C25.5059 1.35725 24.6967 1.01311 23.8487 1H7.84438C7.00853 1.01968 6.21304 1.36354 5.62588 1.95897C5.03697 2.57275 4.70959 3.39148 4.71292 4.24224V9.11018C4.7264 9.31749 4.81013 9.51398 4.95029 9.66731C5.02575 9.73833 5.11204 9.79694 5.20591 9.84083C5.30543 9.87694 5.41046 9.89546 5.51632 9.89564C5.70681 9.87944 5.8851 9.79518 6.01845 9.65814C6.1652 9.5062 6.24705 9.30314 6.24669 9.09194V4.2331C6.26383 3.8062 6.44735 3.40298 6.75795 3.10974C7.04322 2.81294 7.43303 2.63927 7.84438 2.62568H23.8304C24.0403 2.62816 24.2476 2.67221 24.4403 2.7553C24.6331 2.83838 24.8074 2.95885 24.9533 3.10974C25.1023 3.26001 25.22 3.43821 25.3 3.63412C25.3798 3.83003 25.4203 4.03978 25.419 4.25137V7.48444H21.4384C21.2278 7.48509 21.0192 7.52731 20.825 7.60879C20.6307 7.69037 20.4545 7.80944 20.3064 7.95944C20.0108 8.27 19.8443 8.68138 19.8408 9.11018V12.3432C19.8397 12.773 20.0067 13.1861 20.3064 13.4941C20.4545 13.644 20.6307 13.763 20.825 13.8446C21.0192 13.9261 21.2278 13.9683 21.4384 13.969H25.419V17.2112C25.4203 17.4228 25.3798 17.6325 25.3 17.8284C25.22 18.0243 25.1023 18.2026 24.9533 18.3529C24.8067 18.502 24.6319 18.6208 24.4393 18.7023C24.2465 18.7839 24.0396 18.8265 23.8304 18.8278H18.2431C18.1377 18.8278 18.0333 18.8488 17.9362 18.8895C17.839 18.9304 17.751 18.99 17.677 19.0652C17.5297 19.2205 17.448 19.4266 17.4488 19.6405C17.4489 19.7465 17.4675 19.8516 17.5036 19.9511C17.5495 20.0467 17.6078 20.1357 17.677 20.216C17.7545 20.2888 17.8441 20.3475 17.9418 20.3895C18.038 20.4261 18.1401 20.4446 18.2431 20.4442H23.8304C24.2479 20.4482 24.662 20.3695 25.0491 20.2129C25.4361 20.0561 25.7883 19.8243 26.0854 19.531C26.676 18.9183 27.0036 18.0989 26.9984 17.2477V4.24224C27.0076 3.39385 26.6868 2.57511 26.1037 1.95897ZM25.4372 12.3432H21.4384V9.11018H25.419L25.4372 12.3432Z" fill="#C5A265" stroke="#FFFDFA" stroke-width="0.72"/>
</svg>
