<svg width="24" height="24" viewBox="0 0 24 24" fill="none" xmlns="http://www.w3.org/2000/svg">
<rect x="-1" y="1" width="22" height="22" rx="3" transform="matrix(-1 0 0 1 22 0)" fill="#C29340" stroke="#C29340" stroke-width="2"/>
<g clip-path="url(#clip0_584_18808)">
<path fill-rule="evenodd" clip-rule="evenodd" d="M10.4012 6.24156C8.98735 6.24156 7.84117 7.38771 7.84117 8.80156C7.84117 10.2154 8.98735 11.3616 10.4012 11.3616C11.815 11.3616 12.9612 10.2154 12.9612 8.80156C12.9612 7.38771 11.815 6.24156 10.4012 6.24156ZM7.20117 8.80156C7.20117 7.03425 8.63387 5.60156 10.4012 5.60156C12.1685 5.60156 13.6012 7.03425 13.6012 8.80156C13.6012 10.5689 12.1685 12.0016 10.4012 12.0016C8.63387 12.0016 7.20117 10.5689 7.20117 8.80156Z" fill="white" stroke="white" stroke-width="0.32"/>
<path fill-rule="evenodd" clip-rule="evenodd" d="M15.7019 15.1799C12.387 13.4184 8.41362 13.4184 5.09881 15.1799C5.0136 15.2252 4.96034 15.3138 4.96034 15.4103V17.7603C4.96034 17.937 5.10361 18.0803 5.28034 18.0803H15.5203C15.697 18.0803 15.8403 17.937 15.8403 17.7603V15.4103C15.8403 15.3138 15.7871 15.2252 15.7019 15.1799H15.7019ZM4.79846 14.6147C8.30111 12.7534 12.4995 12.7534 16.0022 14.6147C16.2964 14.7711 16.4803 15.0771 16.4803 15.4103V17.7603C16.4803 18.2905 16.0505 18.7203 15.5203 18.7203H5.28031C4.75012 18.7203 4.32031 18.2905 4.32031 17.7603V15.4103C4.32031 15.0771 4.50422 14.7711 4.79845 14.6147H4.79846Z" fill="white" stroke="white" stroke-width="0.32"/>
<path d="M17.793 9.70404L19.3579 9.83984C19.358 9.83984 19.3581 9.83985 19.3582 9.83986C19.7242 9.86921 19.8658 10.3251 19.5906 10.5634C19.5906 10.5634 19.5906 10.5634 19.5906 10.5634L18.4037 11.5918L18.7595 13.1215C18.8421 13.4767 18.4576 13.7582 18.1434 13.568L16.8015 12.7564L15.4596 13.5647L15.4595 13.5648L15.4182 13.4963L17.793 9.70404ZM17.793 9.70404L17.182 8.26529C17.1819 8.26523 17.1819 8.26517 17.1819 8.26511C17.041 7.92995 16.562 7.92996 16.4212 8.26514L16.4212 8.26504L16.4949 8.29625L16.4211 8.26529L17.793 9.70404ZM14.8436 13.1181L14.8436 13.1181L14.2485 9.83984L14.2549 9.91958L14.2481 9.83987L14.2483 9.83985C13.8839 9.86901 13.7359 10.3239 14.0125 10.5634C14.0125 10.5634 14.0125 10.5634 14.0125 10.5634L15.1993 11.5918L14.8436 13.1181ZM15.81 9.70728L15.7912 9.7517L15.8649 9.78292L15.8581 9.7032L15.81 9.70728ZM16.8429 11.9711L16.8016 11.9461L16.7602 11.9711L15.6693 12.6297L15.9594 11.3878L15.9704 11.3408L15.934 11.3092L14.97 10.473L16.2418 10.3626L16.2898 10.3584L16.3086 10.314L16.8017 9.14512L17.2979 10.3174L17.3166 10.3618L17.3646 10.366L18.6364 10.4763L17.6725 11.3125L17.636 11.3441L17.647 11.3911L17.9371 12.6328L16.8429 11.9711Z" fill="white" stroke="white" stroke-width="0.16"/>
</g>
<defs>
<clipPath id="clip0_584_18808">
<rect width="16" height="16" fill="white" transform="translate(4 4)"/>
</clipPath>
</defs>
</svg>
