<svg width="20" height="20" viewBox="0 0 20 20" fill="none" xmlns="http://www.w3.org/2000/svg">
<path d="M18.7506 19.9978H1.25004C0.560851 19.9978 0 19.437 0 18.7478V7.08074C0 6.85074 0.186673 6.66406 0.41668 6.66406H19.584C19.814 6.66406 20.0006 6.85074 20.0006 7.08074V18.7478C20.0006 19.437 19.4398 19.9978 18.7506 19.9978ZM0.83336 7.49742V18.7478C0.83336 18.9778 1.02003 19.1645 1.25004 19.1645H18.7506C18.9806 19.1645 19.1673 18.9778 19.1673 18.7478V7.49742H0.83336Z" fill="#C5A265"/>
<path d="M17.0822 17.5028H11.2487C11.0187 17.5028 10.832 17.3161 10.832 17.0861V13.7526C10.832 13.5226 11.0187 13.3359 11.2487 13.3359H17.0822C17.3123 13.3359 17.4989 13.5226 17.4989 13.7526V17.0861C17.4989 17.3161 17.3123 17.5028 17.0822 17.5028ZM11.6654 16.6694H16.6656V14.1693H11.6654V16.6694Z" fill="#C5A265"/>
<path d="M19.584 7.50024C19.4156 7.50024 19.2565 7.39691 19.194 7.23023L16.7947 0.83336H3.20594L0.806692 7.23023C0.725856 7.44524 0.485848 7.55275 0.270008 7.47358C0.0550008 7.39274 -0.0541694 7.15273 0.0266665 6.93689L2.52675 0.270009C2.58758 0.107504 2.74342 0 2.91676 0H17.0839C17.2572 0 17.4131 0.107504 17.4739 0.270009L19.974 6.93689C20.0548 7.15273 19.9456 7.39274 19.7306 7.47358C19.6823 7.49191 19.6331 7.50024 19.584 7.50024Z" fill="#C5A265"/>
<path d="M9.99871 7.50024C9.76871 7.50024 9.58203 7.31356 9.58203 7.08356V0.41668C9.58203 0.186673 9.76871 0 9.99871 0C10.2287 0 10.4154 0.186673 10.4154 0.41668V7.08356C10.4154 7.31356 10.2287 7.50024 9.99871 7.50024Z" fill="#C5A265"/>
</svg>
