<svg width="22" height="22" viewBox="0 0 22 22" fill="none" xmlns="http://www.w3.org/2000/svg">
<path d="M12.0083 22H9.99167C9.25833 22 8.70833 21.45 8.61667 20.8083L8.43333 19.0667C7.975 18.8833 7.60833 18.7917 7.15 18.5167L5.775 19.6167C5.225 20.075 4.4 19.9833 3.94167 19.525L2.475 18.0583C2.01667 17.6 1.925 16.775 2.38333 16.225L3.48333 14.85C3.3 14.4833 3.11667 14.025 2.93333 13.5667L1.19167 13.3833C0.55 13.2917 0 12.7417 0 12.0083V9.99167C0 9.25833 0.55 8.70833 1.19167 8.61667L2.93333 8.43333C3.11667 7.975 3.20833 7.60833 3.48333 7.15L2.38333 5.775C1.925 5.225 2.01667 4.4 2.475 3.94167L3.94167 2.475C4.4 2.01667 5.225 1.925 5.775 2.38333L7.15 3.48333C7.51667 3.3 7.975 3.11667 8.43333 2.93333L8.61667 1.19167C8.70833 0.55 9.25833 0 9.99167 0H12.0083C12.7417 0 13.2917 0.55 13.3833 1.19167L13.5667 2.93333C14.025 3.11667 14.3917 3.20833 14.85 3.48333L16.225 2.38333C16.775 1.925 17.6 2.01667 18.0583 2.475L19.525 3.94167C19.9833 4.4 20.075 5.225 19.6167 5.775L18.5167 7.15C18.7 7.51667 18.8833 7.975 19.0667 8.43333L20.8083 8.61667C21.45 8.70833 22 9.25833 22 9.99167V12.0083C22 12.7417 21.45 13.2917 20.8083 13.3833L19.0667 13.5667C18.8833 14.025 18.7917 14.3917 18.5167 14.85L19.6167 16.225C20.075 16.775 19.9833 17.6 19.525 18.0583L18.0583 19.525C17.6 19.9833 16.775 20.075 16.225 19.6167L14.85 18.5167C14.4833 18.7 14.025 18.8833 13.5667 19.0667L13.3833 20.8083C13.2917 21.45 12.7417 22 12.0083 22ZM7.05833 17.5083C7.15 17.5083 7.24167 17.5083 7.24167 17.6C7.79167 17.875 8.25 18.15 8.89167 18.2417C9.075 18.3333 9.16667 18.425 9.25833 18.6083L9.53333 20.625C9.53333 20.8083 9.71667 20.9917 9.99167 20.9917H12.0083C12.1917 20.9917 12.4667 20.8083 12.4667 20.625L12.7417 18.6083C12.7417 18.425 12.925 18.2417 13.1083 18.2417C13.6583 18.0583 14.2083 17.875 14.7583 17.6C14.9417 17.5083 15.125 17.5083 15.3083 17.6L16.9583 18.8833C17.1417 19.0667 17.4167 18.975 17.6 18.8833L19.0667 17.4167C19.25 17.2333 19.25 16.9583 19.0667 16.775L17.7833 15.2167C17.6917 15.0333 17.6917 14.85 17.7833 14.6667C18.0583 14.1167 18.3333 13.6583 18.425 13.0167C18.5167 12.8333 18.6083 12.7417 18.7917 12.65L20.8083 12.375C20.9917 12.375 21.175 12.1917 21.175 11.9167V9.9C21.175 9.71667 20.9917 9.44167 20.8083 9.44167L18.7917 9.16667C18.6083 9.16667 18.425 8.98333 18.425 8.8C18.2417 8.25 18.0583 7.7 17.7833 7.15C17.6917 6.96667 17.6917 6.78333 17.7833 6.6L19.0667 4.95C19.25 4.76667 19.1583 4.49167 19.0667 4.30833L17.4167 3.11667C17.2333 2.93333 16.9583 2.93333 16.775 3.11667L15.2167 4.4C15.0333 4.49167 14.85 4.49167 14.6667 4.4C14.2083 4.125 13.6583 3.85 13.0167 3.75833C12.8333 3.66667 12.7417 3.575 12.65 3.39167L12.375 1.375C12.375 1.19167 12.1917 1.00833 11.9167 1.00833H9.9C9.71667 1.00833 9.44167 1.19167 9.44167 1.375L9.16667 3.39167C9.16667 3.575 8.98333 3.75833 8.8 3.75833C8.34167 3.85 7.79167 4.125 7.33333 4.4C7.15 4.49167 6.96667 4.49167 6.78333 4.4L5.225 3.11667C5.04167 2.93333 4.76667 3.025 4.58333 3.11667L3.11667 4.58333C2.93333 4.76667 2.93333 5.04167 3.11667 5.225L4.4 6.78333C4.49167 6.96667 4.49167 7.15 4.4 7.33333C4.125 7.79167 3.85 8.34167 3.75833 8.89167C3.66667 9.075 3.48333 9.25833 3.3 9.25833L1.28333 9.53333C1.1 9.53333 0.916667 9.71667 0.916667 9.99167V12.0083C0.916667 12.1917 1.1 12.4667 1.28333 12.4667L3.3 12.7417C3.48333 12.7417 3.66667 12.925 3.66667 13.1083C3.85 13.6583 4.03333 14.2083 4.30833 14.7583C4.4 14.9417 4.4 15.125 4.30833 15.3083L3.025 16.9583C2.84167 17.1417 2.93333 17.4167 3.025 17.6L4.58333 18.8833C4.76667 19.0667 5.04167 19.0667 5.225 18.8833L6.78333 17.6C6.875 17.6 6.96667 17.5083 7.05833 17.5083Z" fill="#C4A265"/>
<path d="M11.46 14.2057H9.16829C8.89329 14.2057 8.70996 14.0224 8.70996 13.7474C8.70996 13.4724 8.89329 13.289 9.16829 13.289H11.46C12.01 13.289 12.3766 12.9224 12.3766 12.3724C12.3766 11.8224 12.01 11.4557 11.46 11.4557H10.5433C9.53496 11.4557 8.70996 10.6307 8.70996 9.62239C8.70996 8.61406 9.53496 7.78906 10.5433 7.78906H12.835C13.11 7.78906 13.2933 7.9724 13.2933 8.24739C13.2933 8.52239 13.11 8.70573 12.835 8.70573H10.5433C9.99329 8.70573 9.62663 9.07239 9.62663 9.62239C9.62663 10.1724 9.99329 10.5391 10.5433 10.5391H11.46C12.4683 10.5391 13.2933 11.3641 13.2933 12.3724C13.2933 13.3807 12.4683 14.2057 11.46 14.2057Z" fill="#C4A265"/>
<path d="M10.9984 15.5807C10.7234 15.5807 10.54 15.3974 10.54 15.1224V13.7474C10.54 13.4724 10.7234 13.2891 10.9984 13.2891C11.2734 13.2891 11.4567 13.4724 11.4567 13.7474V15.1224C11.4567 15.3974 11.2734 15.5807 10.9984 15.5807Z" fill="#C4A265"/>
<path d="M10.9984 8.70574C10.7234 8.70574 10.54 8.5224 10.54 8.2474V6.8724C10.54 6.5974 10.7234 6.41406 10.9984 6.41406C11.2734 6.41406 11.4567 6.5974 11.4567 6.8724V8.2474C11.4567 8.5224 11.2734 8.70574 10.9984 8.70574Z" fill="#C4A265"/>
</svg>
