<svg width="20" height="20" viewBox="0 0 20 20" fill="none" xmlns="http://www.w3.org/2000/svg">
<path d="M13.7503 12.657C13.3326 12.6571 12.9197 12.7456 12.5386 12.9166C12.1576 13.0876 11.817 13.3372 11.5393 13.6492L7.71901 11.1883C7.88387 10.8141 7.96901 10.4097 7.96901 10.0008C7.96901 9.59187 7.88387 9.18745 7.71901 8.81326L11.5393 6.35232C12.0025 6.86918 12.6321 7.20744 13.3187 7.30832C14.0054 7.4092 14.7056 7.26633 15.2979 6.90453C15.8901 6.54274 16.3369 5.98488 16.5606 5.3279C16.7843 4.67092 16.7707 3.95634 16.5223 3.30832C16.2738 2.6603 15.8062 2.1198 15.2006 1.78075C14.5951 1.44169 13.8899 1.32551 13.2075 1.45238C12.5252 1.57925 11.9089 1.94116 11.4657 2.47522C11.0225 3.00929 10.7804 3.68175 10.7815 4.37576C10.7789 4.78492 10.8642 5.18987 11.0315 5.56326L7.2112 8.0242C6.81069 7.57536 6.28329 7.25878 5.69885 7.11639C5.1144 6.97399 4.50048 7.0125 3.93841 7.22681C3.37634 7.44113 2.89263 7.82113 2.55136 8.3165C2.21008 8.81187 2.02734 9.39922 2.02734 10.0008C2.02734 10.6023 2.21008 11.1897 2.55136 11.685C2.89263 12.1804 3.37634 12.5604 3.93841 12.7747C4.50048 12.989 5.1144 13.0275 5.69885 12.8851C6.28329 12.7427 6.81069 12.4262 7.2112 11.9773L11.0315 14.4383C10.8642 14.8116 10.7789 15.2166 10.7815 15.6258C10.7815 16.2129 10.9556 16.7869 11.2818 17.2751C11.608 17.7633 12.0717 18.1438 12.6142 18.3685C13.1566 18.5932 13.7536 18.652 14.3294 18.5375C14.9053 18.4229 15.4343 18.1402 15.8495 17.725C16.2647 17.3098 16.5474 16.7808 16.662 16.2049C16.7765 15.6291 16.7177 15.0321 16.493 14.4897C16.2683 13.9472 15.8878 13.4835 15.3996 13.1573C14.9114 12.8311 14.3374 12.657 13.7503 12.657ZM13.7503 2.34451C14.152 2.34451 14.5447 2.46364 14.8788 2.68684C15.2128 2.91003 15.4731 3.22727 15.6269 3.59844C15.7806 3.9696 15.8209 4.37801 15.7425 4.77204C15.6641 5.16606 15.4706 5.528 15.1866 5.81207C14.9025 6.09615 14.5406 6.28961 14.1465 6.36798C13.7525 6.44636 13.3441 6.40613 12.9729 6.25239C12.6018 6.09865 12.2845 5.8383 12.0613 5.50426C11.8381 5.17023 11.719 4.7775 11.719 4.37576C11.7211 3.83767 11.9357 3.32221 12.3162 2.94172C12.6967 2.56124 13.2122 2.34657 13.7503 2.34451ZM5.00026 12.032C4.59852 12.032 4.20579 11.9129 3.87176 11.6897C3.53772 11.4665 3.27737 11.1492 3.12363 10.7781C2.96989 10.4069 2.92966 9.99851 3.00804 9.60448C3.08641 9.21046 3.27987 8.84853 3.56395 8.56445C3.84802 8.28038 4.20996 8.08692 4.60398 8.00854C4.998 7.93016 5.40642 7.97039 5.77758 8.12413C6.14875 8.27787 6.46598 8.53822 6.68918 8.87226C6.91238 9.2063 7.03151 9.59902 7.03151 10.0008C7.02945 10.5388 6.81478 11.0543 6.4343 11.4348C6.05381 11.8153 5.53835 12.03 5.00026 12.032ZM13.7503 17.657C13.3485 17.657 12.9558 17.5379 12.6218 17.3147C12.2877 17.0915 12.0274 16.7743 11.8736 16.4031C11.7199 16.0319 11.6797 15.6235 11.758 15.2295C11.8364 14.8355 12.0299 14.4735 12.3139 14.1895C12.598 13.9054 12.96 13.7119 13.354 13.6335C13.748 13.5552 14.1564 13.5954 14.5276 13.7491C14.8987 13.9029 15.216 14.1632 15.4392 14.4973C15.6624 14.8313 15.7815 15.224 15.7815 15.6258C15.7795 16.1638 15.5648 16.6793 15.1843 17.0598C14.8038 17.4403 14.2883 17.655 13.7503 17.657Z" fill="#C29340"/>
</svg>
