<svg width="88" height="88" viewBox="0 0 88 88" fill="none" xmlns="http://www.w3.org/2000/svg">
<g clip-path="url(#clip0_1604_138969)">
<path d="M23.0868 65.6447C24.7108 65.6447 25.9305 64.1611 25.6161 62.5678L15.7467 12.5252C15.5088 11.3167 14.4489 10.4453 13.217 10.4453H2.65102C1.26279 10.4453 0.0682566 11.5121 0.00294408 12.8988C-0.0668372 14.3792 1.11291 15.6016 2.57815 15.6016H11.0973L19.9557 60.5886C15.1417 61.2701 11.4263 65.4173 11.4263 70.4182C11.4263 75.8936 15.8792 80.3479 21.3526 80.3479H74.831C76.2192 80.3479 77.4137 79.2811 77.4789 77.8944C77.5486 76.4139 76.3689 75.1917 74.9037 75.1917H21.3524C18.7222 75.1917 16.5823 73.0503 16.5823 70.4182C16.5823 67.7861 18.7222 65.6447 21.3524 65.6447H23.0571C23.0608 65.6447 23.0646 65.6452 23.0686 65.6452C23.072 65.6452 23.0754 65.6447 23.0789 65.6447H23.0868Z" fill="#EDD5AB"/>
<path d="M69.9623 79.4544C69.9689 76.1303 67.2808 73.4301 63.9582 73.4235C60.6356 73.4168 57.9367 76.1062 57.93 79.4303C57.9234 82.7545 60.6115 85.4546 63.9341 85.4613C67.2567 85.4679 69.9556 82.7785 69.9623 79.4544Z" fill="#E2D2B4"/>
<path d="M63.9144 87.9987C59.1756 87.9987 55.3203 84.142 55.3203 79.4019C55.3203 74.6614 59.1756 70.8047 63.9144 70.8047C68.6532 70.8047 72.5087 74.6612 72.5087 79.4019C72.5087 84.142 68.6533 87.9987 63.9144 87.9987ZM63.9144 75.9609C62.0188 75.9609 60.4766 77.5044 60.4766 79.4019C60.4766 81.299 62.0188 82.8425 63.9144 82.8425C65.81 82.8425 67.3524 81.299 67.3524 79.4019C67.3524 77.5044 65.8102 75.9609 63.9144 75.9609Z" fill="#C29340"/>
<path d="M37.6093 79.4544C37.6159 76.1302 34.9278 73.4301 31.6052 73.4235C28.2825 73.4168 25.5836 76.1062 25.577 79.4303C25.5703 82.7545 28.2585 85.4546 31.5811 85.4613C34.9037 85.4679 37.6026 82.7785 37.6093 79.4544Z" fill="#E2D2B4"/>
<path d="M31.5777 87.9987C26.8389 87.9987 22.9834 84.142 22.9834 79.4019C22.9834 74.6614 26.8389 70.8047 31.5777 70.8047C36.3164 70.8047 40.1718 74.6612 40.1718 79.4019C40.1718 84.142 36.3164 87.9987 31.5777 87.9987ZM31.5777 75.9609C29.6821 75.9609 28.1396 77.5044 28.1396 79.4019C28.1396 81.299 29.6821 82.8425 31.5777 82.8425C33.4733 82.8425 35.0155 81.299 35.0155 79.4019C35.0155 77.5044 33.4733 75.9609 31.5777 75.9609Z" fill="#C29340"/>
<path d="M74.9039 65.6433H23.0713C21.8403 65.6433 20.7808 64.7731 20.5421 63.5651L12.3052 21.7344H81.9828C82.7476 21.7344 83.4729 22.074 83.963 22.6615C84.4528 23.2489 84.6565 24.0234 84.519 24.7759L77.4401 63.5285C77.2163 64.7533 76.1492 65.6433 74.9039 65.6433Z" fill="#EDD5AB"/>
<path d="M70.0392 35.936C60.1358 35.936 52.0786 27.8757 52.0786 17.968C52.0786 8.06042 60.1358 0 70.0392 0C79.9426 0 87.9998 8.06042 87.9998 17.968C87.9998 27.8757 79.9426 35.936 70.0392 35.936Z" fill="#C29340"/>
<path d="M77.7803 12.2194C77.4874 11.9269 77.0126 11.9269 76.7197 12.2194L67.7342 21.1921L64.2803 17.7432C63.9875 17.4507 63.5126 17.4507 63.2197 17.7432C62.9268 18.0356 62.9268 18.5098 63.2197 18.8023L67.2039 22.7807C67.4967 23.0732 67.9719 23.073 68.2645 22.7807L77.7803 13.2785C78.0732 12.9861 78.0732 12.5119 77.7803 12.2194Z" fill="white"/>
</g>
<defs>
<clipPath id="clip0_1604_138969">
<rect width="88" height="88" fill="white"/>
</clipPath>
</defs>
</svg>
