<svg width="26" height="23" viewBox="0 0 26 23" fill="none" xmlns="http://www.w3.org/2000/svg">
<path d="M10.4021 21.4216C10.4021 21.7338 10.3092 22.0389 10.1353 22.2985C9.96135 22.5581 9.71413 22.7604 9.42489 22.8798C9.13565 22.9993 8.81737 23.0306 8.51032 22.9697C8.20326 22.9088 7.92121 22.7584 7.69983 22.5377C7.47846 22.3169 7.3277 22.0357 7.26662 21.7295C7.20555 21.4233 7.23689 21.1059 7.3567 20.8175C7.47651 20.5291 7.6794 20.2826 7.93971 20.1091C8.20002 19.9357 8.50606 19.8431 8.81913 19.8431C9.23895 19.8431 9.64157 20.0094 9.93842 20.3055C10.2353 20.6015 10.4021 21.0029 10.4021 21.4216ZM20.578 19.8431C20.2649 19.8431 19.9589 19.9357 19.6985 20.1091C19.4382 20.2826 19.2353 20.5291 19.1155 20.8175C18.9957 21.1059 18.9644 21.4233 19.0255 21.7295C19.0865 22.0357 19.2373 22.3169 19.4587 22.5377C19.68 22.7584 19.9621 22.9088 20.2692 22.9697C20.5762 23.0306 20.8945 22.9993 21.1837 22.8798C21.473 22.7604 21.7202 22.5581 21.8941 22.2985C22.0681 22.0389 22.1609 21.7338 22.1609 21.4216C22.1609 21.0029 21.9941 20.6015 21.6973 20.3055C21.4004 20.0094 20.9978 19.8431 20.578 19.8431ZM25.4963 5.36667L22.5114 15.7843C22.3603 16.3025 22.0452 16.7581 21.6133 17.0831C21.1813 17.4082 20.6556 17.5854 20.1144 17.5882H9.2827C8.74153 17.5854 8.21578 17.4082 7.78382 17.0831C7.35186 16.7581 7.03684 16.3025 6.8857 15.7843L3.90077 5.38922V5.35539L2.79272 1.52206C2.78222 1.47336 2.75503 1.42983 2.71582 1.39897C2.67661 1.3681 2.62784 1.35183 2.5779 1.35294H0.678395C0.498473 1.35294 0.325921 1.28167 0.198697 1.15481C0.0714735 1.02794 0 0.855882 0 0.676471C0 0.497059 0.0714735 0.324996 0.198697 0.198134C0.325921 0.0712707 0.498473 0 0.678395 0H2.5779C2.92284 0.00121811 3.25809 0.113967 3.53331 0.321322C3.80853 0.528677 4.00888 0.819451 4.10429 1.15L5.06535 4.5098H24.8405C24.9459 4.5098 25.0497 4.53426 25.1439 4.58122C25.2381 4.62819 25.3201 4.69638 25.3833 4.78039C25.4458 4.86298 25.4886 4.95878 25.5082 5.06042C25.5278 5.16206 25.5237 5.26683 25.4963 5.36667ZM23.9473 5.86275H5.44977L8.19727 15.4123C8.26371 15.6485 8.40566 15.8568 8.60155 16.0053C8.79745 16.1538 9.0366 16.2346 9.2827 16.2353H20.1144C20.3605 16.2346 20.5996 16.1538 20.7955 16.0053C20.9914 15.8568 21.1334 15.6485 21.1998 15.4123L23.9473 5.86275Z" fill="white"/>
</svg>
