<svg width="28" height="28" viewBox="0 0 28 28" fill="none" xmlns="http://www.w3.org/2000/svg">
<g clip-path="url(#clip0_647_14480)">
<path d="M20.7507 28.0007C20.4287 28.0007 20.1673 27.7393 20.1673 27.4173V1.41701L8.50065 5.66018V27.4173C8.50065 27.7393 8.23932 28.0007 7.91732 28.0007C7.59532 28.0007 7.33398 27.7393 7.33398 27.4173V5.25068C7.33398 5.00568 7.48682 4.78634 7.71782 4.70234L20.5512 0.0356773C20.7297 -0.0308227 20.9292 -0.00282272 21.0855 0.106844C21.2407 0.215344 21.334 0.393844 21.334 0.584011V27.4173C21.334 27.7393 21.0727 28.0007 20.7507 28.0007Z" fill="#C29340"/>
<path d="M11.4173 10.5C11.0953 10.5 10.834 10.2387 10.834 9.91667V7.58333C10.834 7.26133 11.0953 7 11.4173 7C11.7393 7 12.0006 7.26133 12.0006 7.58333V9.91667C12.0006 10.2387 11.7393 10.5 11.4173 10.5Z" fill="#C29340"/>
<path d="M17.2494 10.5C16.9273 10.5 16.666 10.2387 16.666 9.91667V7.58333C16.666 7.26133 16.9273 7 17.2494 7C17.5714 7 17.8327 7.26133 17.8327 7.58333V9.91667C17.8327 10.2387 17.5714 10.5 17.2494 10.5Z" fill="#C29340"/>
<path d="M11.4173 17.5C11.0953 17.5 10.834 17.2387 10.834 16.9167V14.5833C10.834 14.2613 11.0953 14 11.4173 14C11.7393 14 12.0006 14.2613 12.0006 14.5833V16.9167C12.0006 17.2387 11.7393 17.5 11.4173 17.5Z" fill="#C29340"/>
<path d="M17.2494 17.5C16.9273 17.5 16.666 17.2387 16.666 16.9167V14.5833C16.666 14.2613 16.9273 14 17.2494 14C17.5714 14 17.8327 14.2613 17.8327 14.5833V16.9167C17.8327 17.2387 17.5714 17.5 17.2494 17.5Z" fill="#C29340"/>
<path d="M11.4173 24.5C11.0953 24.5 10.834 24.2387 10.834 23.9167V21.5833C10.834 21.2613 11.0953 21 11.4173 21C11.7393 21 12.0006 21.2613 12.0006 21.5833V23.9167C12.0006 24.2387 11.7393 24.5 11.4173 24.5Z" fill="#C29340"/>
<path d="M17.2494 24.5C16.9273 24.5 16.666 24.2387 16.666 23.9167V21.5833C16.666 21.2613 16.9273 21 17.2494 21C17.5714 21 17.8327 21.2613 17.8327 21.5833V23.9167C17.8327 24.2387 17.5714 24.5 17.2494 24.5Z" fill="#C29340"/>
<path d="M27.4167 28.0026H0.583333C0.261333 28.0026 0 27.7413 0 27.4193C0 27.0973 0.261333 26.8359 0.583333 26.8359H27.4167C27.7387 26.8359 28 27.0973 28 27.4193C28 27.7413 27.7387 28.0026 27.4167 28.0026Z" fill="#C29340"/>
</g>
<defs>
<clipPath id="clip0_647_14480">
<rect width="28" height="28" fill="white"/>
</clipPath>
</defs>
</svg>
