<svg width="14" height="14" viewBox="0 0 14 14" fill="none" xmlns="http://www.w3.org/2000/svg">
    <path fill-rule="evenodd" clip-rule="evenodd"
        d="M4.01407 1.76447C4.52868 1.72339 5.0172 1.52098 5.41007 1.18607C5.8538 0.808147 6.41761 0.600586 7.00047 0.600586C7.58333 0.600586 8.14714 0.808147 8.59087 1.18607C8.98374 1.52098 9.47227 1.72339 9.98687 1.76447C10.568 1.81092 11.1136 2.06284 11.5259 2.47509C11.9381 2.88733 12.19 3.43293 12.2365 4.01407C12.2773 4.52847 12.4797 5.01727 12.8149 5.41007C13.1928 5.8538 13.4004 6.41761 13.4004 7.00047C13.4004 7.58333 13.1928 8.14714 12.8149 8.59087C12.48 8.98374 12.2776 9.47227 12.2365 9.98687C12.19 10.568 11.9381 11.1136 11.5259 11.5259C11.1136 11.9381 10.568 12.19 9.98687 12.2365C9.47227 12.2776 8.98374 12.48 8.59087 12.8149C8.14714 13.1928 7.58333 13.4004 7.00047 13.4004C6.41761 13.4004 5.8538 13.1928 5.41007 12.8149C5.0172 12.48 4.52868 12.2776 4.01407 12.2365C3.43293 12.19 2.88733 11.9381 2.47509 11.5259C2.06284 11.1136 1.81092 10.568 1.76447 9.98687C1.72339 9.47227 1.52098 8.98374 1.18607 8.59087C0.808147 8.14714 0.600586 7.58333 0.600586 7.00047C0.600586 6.41761 0.808147 5.8538 1.18607 5.41007C1.52098 5.0172 1.72339 4.52868 1.76447 4.01407C1.81092 3.43293 2.06284 2.88733 2.47509 2.47509C2.88733 2.06284 3.43293 1.81092 4.01407 1.76447ZM9.96607 5.96607C10.1118 5.81519 10.1924 5.61311 10.1906 5.40335C10.1888 5.1936 10.1047 4.99295 9.95633 4.84462C9.808 4.69629 9.60735 4.61216 9.39759 4.61033C9.18784 4.60851 8.98576 4.68915 8.83487 4.83487L6.20047 7.46927L5.16607 6.43487C5.01519 6.28915 4.81311 6.20851 4.60335 6.21033C4.39359 6.21216 4.19295 6.29629 4.04462 6.44462C3.89629 6.59295 3.81216 6.7936 3.81033 7.00335C3.80851 7.21311 3.88915 7.41519 4.03487 7.56607L5.63487 9.16607C5.7849 9.31605 5.98834 9.4003 6.20047 9.4003C6.41261 9.4003 6.61605 9.31605 6.76607 9.16607L9.96607 5.96607Z"
        fill="currentColor" />
</svg>