<svg width="22" height="22" viewBox="0 0 22 22" fill="none" xmlns="http://www.w3.org/2000/svg">
<path d="M10.8219 1.44903C10.8961 1.30358 11.1039 1.30358 11.1781 1.44903L13.6902 6.37151C13.8646 6.71317 14.1918 6.95089 14.5706 7.01114L20.0285 7.87916C20.1897 7.90481 20.254 8.10247 20.1386 8.21801L16.2333 12.1283C15.9622 12.3997 15.8373 12.7843 15.897 13.1632L16.758 18.6222C16.7835 18.7835 16.6153 18.9056 16.4698 18.8316L11.5441 16.3258C11.2022 16.1519 10.7978 16.1519 10.4559 16.3258L5.5302 18.8316C5.38466 18.9056 5.21652 18.7835 5.24196 18.6222L6.10299 13.1632C6.16275 12.7843 6.03777 12.3997 5.76671 12.1283L1.86144 8.21801C1.74605 8.10247 1.81027 7.90481 1.97154 7.87916L7.42938 7.01114C7.8082 6.95089 8.13539 6.71317 8.30975 6.37151L10.8219 1.44903Z" stroke="#555555"/>
<path fill-rule="evenodd" clip-rule="evenodd" d="M11.063 6.68564C10.1437 6.68564 9.39853 7.43083 9.39853 8.35007C9.39853 9.26932 10.1437 10.0145 11.063 10.0145C11.9822 10.0145 12.7274 9.26932 12.7274 8.35007C12.7274 7.43083 11.9822 6.68564 11.063 6.68564ZM8.98242 8.35007C8.98242 7.20102 9.91392 6.26953 11.063 6.26953C12.212 6.26953 13.1435 7.20102 13.1435 8.35007C13.1435 9.49912 12.212 10.4306 11.063 10.4306C9.91392 10.4306 8.98242 9.49912 8.98242 8.35007Z" fill="#555555"/>
<path fill-rule="evenodd" clip-rule="evenodd" d="M11.0635 6.38384C9.97188 6.38384 9.08696 7.26875 9.08696 8.36035C9.08696 9.45195 9.97188 10.3369 11.0635 10.3369C12.1551 10.3369 13.04 9.45195 13.04 8.36035C13.04 7.26875 12.1551 6.38384 11.0635 6.38384ZM8.87891 8.36035C8.87891 7.15385 9.85698 6.17578 11.0635 6.17578C12.27 6.17578 13.2481 7.15385 13.2481 8.36035C13.2481 9.56685 12.27 10.5449 11.0635 10.5449C9.85698 10.5449 8.87891 9.56685 8.87891 8.36035ZM9.29502 8.36035C9.29502 7.38366 10.0868 6.59189 11.0635 6.59189C12.0402 6.59189 12.8319 7.38366 12.8319 8.36035C12.8319 9.33705 12.0402 10.1288 11.0635 10.1288C10.0868 10.1288 9.29502 9.33705 9.29502 8.36035ZM11.0635 6.79994C10.2017 6.79994 9.50307 7.49856 9.50307 8.36035C9.50307 9.22214 10.2017 9.92076 11.0635 9.92076C11.9253 9.92076 12.6239 9.22214 12.6239 8.36035C12.6239 7.49856 11.9253 6.79994 11.0635 6.79994Z" fill="#555555" stroke="#555555" stroke-width="0.220433"/>
<path fill-rule="evenodd" clip-rule="evenodd" d="M14.5093 12.5056C12.3541 11.3603 9.77072 11.3603 7.61553 12.5056C7.56013 12.535 7.5255 12.5926 7.5255 12.6554V14.1832C7.5255 14.2982 7.61865 14.3913 7.73356 14.3913H14.3913C14.5062 14.3913 14.5994 14.2982 14.5994 14.1832V12.6554C14.5994 12.5926 14.5647 12.535 14.5094 12.5056H14.5093ZM7.42025 12.1381C9.69757 10.9279 12.4272 10.9279 14.7046 12.1381C14.8959 12.2398 15.0154 12.4387 15.0154 12.6554V14.1832C15.0154 14.528 14.736 14.8074 14.3913 14.8074H7.73354C7.38882 14.8074 7.10938 14.528 7.10938 14.1832V12.6554C7.10938 12.4387 7.22894 12.2398 7.42025 12.1381H7.42025Z" fill="#555555"/>
<path fill-rule="evenodd" clip-rule="evenodd" d="M14.6563 12.2441C12.4095 11.0502 9.71638 11.0502 7.46958 12.2441L7.46835 12.2448C7.31174 12.3286 7.21391 12.4918 7.21391 12.6695V14.1974C7.21391 14.4847 7.44678 14.7176 7.73405 14.7176H14.3918C14.679 14.7176 14.9119 14.4847 14.9119 14.1974V12.6695C14.9119 12.4914 14.8136 12.3277 14.6563 12.2441ZM14.7539 12.0604C14.9792 12.1801 15.12 12.4144 15.12 12.6695V14.1974C15.12 14.5996 14.7939 14.9256 14.3918 14.9256H7.73405C7.33188 14.9256 7.00586 14.5996 7.00586 14.1974V12.6695C7.00586 12.4144 7.14666 12.1801 7.37194 12.0604L7.39483 12.0483C9.69804 10.834 12.4537 10.8381 14.7539 12.0604ZM14.5358 12.4157L14.5587 12.4279C14.6481 12.4754 14.7039 12.5684 14.7039 12.6695V14.1974C14.7039 14.3698 14.5641 14.5095 14.3918 14.5095H7.73407C7.56172 14.5095 7.42199 14.3698 7.42199 14.1974V12.6695C7.42199 12.5683 7.47783 12.4754 7.56725 12.4279C9.74531 11.2704 12.3547 11.2664 14.5358 12.4157ZM14.461 12.6116C12.3363 11.4825 9.78953 11.4825 7.66486 12.6116C7.64348 12.623 7.63004 12.6452 7.63004 12.6695V14.1974C7.63004 14.2549 7.67661 14.3014 7.73407 14.3014H14.3918C14.4493 14.3014 14.4958 14.2549 14.4958 14.1974V12.6695C14.4958 12.6456 14.4828 12.6237 14.4621 12.6122L14.461 12.6116Z" fill="#555555"/>
<path d="M14.7051 12.1523L14.7539 12.0604M14.7539 12.0604C14.9792 12.1801 15.12 12.4144 15.12 12.6695V14.1974C15.12 14.5996 14.7939 14.9256 14.3918 14.9256H7.73405C7.33188 14.9256 7.00586 14.5996 7.00586 14.1974V12.6695C7.00586 12.4144 7.14666 12.1801 7.37194 12.0604L7.39483 12.0483C9.69804 10.834 12.4537 10.8381 14.7539 12.0604ZM7.56725 12.4279C7.47783 12.4754 7.42199 12.5683 7.42199 12.6695V14.1974C7.42199 14.3698 7.56172 14.5095 7.73407 14.5095H14.3918C14.5641 14.5095 14.7039 14.3698 14.7039 14.1974V12.6695C14.7039 12.5684 14.6481 12.4754 14.5587 12.4279L14.5358 12.4157C12.3547 11.2664 9.74531 11.2704 7.56725 12.4279ZM7.56725 12.4279L7.61604 12.5197M7.46958 12.2441C9.71638 11.0502 12.4095 11.0502 14.6563 12.2441C14.8136 12.3277 14.9119 12.4914 14.9119 12.6695V14.1974C14.9119 14.4847 14.679 14.7176 14.3918 14.7176H7.73405C7.44678 14.7176 7.21391 14.4847 7.21391 14.1974V12.6695C7.21391 12.4918 7.31174 12.3286 7.46835 12.2448L7.46958 12.2441ZM7.66486 12.6116C9.78953 11.4825 12.3363 11.4825 14.461 12.6116L14.4621 12.6122C14.4828 12.6237 14.4958 12.6456 14.4958 12.6695V14.1974C14.4958 14.2549 14.4493 14.3014 14.3918 14.3014H7.73407C7.67661 14.3014 7.63004 14.2549 7.63004 14.1974V12.6695C7.63004 12.6452 7.64348 12.623 7.66486 12.6116Z" stroke="#555555" stroke-width="0.220433"/>
</svg>
