<svg width="95" height="95" viewBox="0 0 95 95" fill="none" xmlns="http://www.w3.org/2000/svg">
<circle cx="47.5" cy="47.5" r="47.5" fill="#EA4747"/>
<path fill-rule="evenodd" clip-rule="evenodd" d="M32.3004 32.2964C33.1435 31.4533 34.5106 31.4533 35.3538 32.2964L64.1416 61.0843C64.9848 61.9275 64.9848 63.2946 64.1416 64.1377C63.2985 64.9809 61.9314 64.9809 61.0882 64.1377L32.3004 35.3499C31.4572 34.5067 31.4572 33.1396 32.3004 32.2964Z" fill="white"/>
<path fill-rule="evenodd" clip-rule="evenodd" d="M64.1416 32.2964C64.9848 33.1396 64.9848 34.5067 64.1416 35.3499L35.3538 64.1377C34.5106 64.9809 33.1435 64.9809 32.3004 64.1377C31.4572 63.2946 31.4572 61.9275 32.3004 61.0843L61.0882 32.2964C61.9314 31.4533 63.2985 31.4533 64.1416 32.2964Z" fill="white"/>
</svg>
