<svg width="24" height="24" viewBox="0 0 24 24" fill="none" xmlns="http://www.w3.org/2000/svg">
<g clip-path="url(#clip0_1604_167479)">
<path d="M23.3124 11.7191C22.9304 11.7191 22.6248 12.0247 22.6248 12.4067V18.6613C22.6248 20.3625 21.2394 21.7428 19.5433 21.7428H4.45671C2.75552 21.7428 1.37521 20.3574 1.37521 18.6613V12.3048C1.37521 11.9228 1.06961 11.6172 0.687606 11.6172C0.305603 11.6172 0 11.9228 0 12.3048V18.6613C0 21.1214 2.0017 23.118 4.45671 23.118H19.5433C22.0034 23.118 24 21.1163 24 18.6613V12.4067C24 12.0298 23.6944 11.7191 23.3124 11.7191Z" fill="#C29340"/>
<path d="M8.11356 6.42169L11.3122 3.22305V17.1738C11.3122 17.5558 11.6178 17.8614 11.9998 17.8614C12.3818 17.8614 12.6874 17.5558 12.6874 17.1738V3.22305L15.8861 6.42169C16.0185 6.55412 16.1968 6.62542 16.3699 6.62542C16.5482 6.62542 16.7214 6.55921 16.8538 6.42169C17.1238 6.15174 17.1238 5.7188 16.8538 5.44885L12.4837 1.07874C12.3564 0.951401 12.1781 0.875 11.9998 0.875C11.8165 0.875 11.6433 0.946307 11.5159 1.07874L7.14582 5.44885C6.87587 5.7188 6.87587 6.15174 7.14582 6.42169C7.41068 6.68654 7.84871 6.68654 8.11356 6.42169Z" fill="#C29340"/>
</g>
<defs>
<clipPath id="clip0_1604_167479">
<rect width="24" height="24" fill="white"/>
</clipPath>
</defs>
</svg>
