<svg width="66" height="66" viewBox="0 0 66 66" fill="none" xmlns="http://www.w3.org/2000/svg">
<path fill-rule="evenodd" clip-rule="evenodd" d="M3.4375 33C3.4375 16.6731 16.6731 3.4375 33 3.4375C49.3269 3.4375 62.5625 16.6731 62.5625 33C62.5625 49.3269 49.3269 62.5625 33 62.5625C16.6731 62.5625 3.4375 49.3269 3.4375 33ZM33 7.5625C18.9513 7.5625 7.5625 18.9513 7.5625 33C7.5625 47.0488 18.9513 58.4375 33 58.4375C47.0488 58.4375 58.4375 47.0488 58.4375 33C58.4375 18.9513 47.0488 7.5625 33 7.5625Z" fill="#EDD5AB"/>
<path fill-rule="evenodd" clip-rule="evenodd" d="M42.625 22.6875C43.7641 22.6875 44.6875 23.6109 44.6875 24.75V26.125C44.6875 27.2641 43.7641 28.1875 42.625 28.1875C41.4859 28.1875 40.5625 27.2641 40.5625 26.125V24.75C40.5625 23.6109 41.4859 22.6875 42.625 22.6875Z" fill="#EDD5AB"/>
<path fill-rule="evenodd" clip-rule="evenodd" d="M23.375 22.6875C24.5141 22.6875 25.4375 23.6109 25.4375 24.75V26.125C25.4375 27.2641 24.5141 28.1875 23.375 28.1875C22.2359 28.1875 21.3125 27.2641 21.3125 26.125V24.75C21.3125 23.6109 22.2359 22.6875 23.375 22.6875Z" fill="#EDD5AB"/>
<path fill-rule="evenodd" clip-rule="evenodd" d="M24.2389 38.3333C26.0824 36.6947 28.9584 35.0623 32.9998 35.0623C37.0412 35.0623 39.9172 36.6947 41.7607 38.3333C42.6737 39.1449 43.334 39.9567 43.7707 40.5733C43.9899 40.8827 44.1552 41.1464 44.2701 41.3414C44.3276 41.439 44.3727 41.5197 44.4058 41.5807L44.4464 41.6573L44.4602 41.6839L44.4654 41.6942L44.4676 41.6986C44.4681 41.6995 44.4695 41.7024 42.6623 42.6061L44.4695 41.7025C44.979 42.7213 44.566 43.9602 43.5472 44.4696C42.5326 44.9769 41.2998 44.5695 40.7864 43.5599L40.7787 43.5454C40.7681 43.5259 40.7474 43.4884 40.7163 43.4356C40.6539 43.3298 40.5507 43.1638 40.4046 42.9576C40.1109 42.5429 39.654 41.9798 39.0202 41.4164C37.7699 40.305 35.8334 39.1873 32.9998 39.1873C30.1662 39.1873 28.2297 40.305 26.9794 41.4164C26.3456 41.9798 25.8887 42.5429 25.5949 42.9576C25.4489 43.1638 25.3457 43.3298 25.2833 43.4356C25.2522 43.4884 25.2315 43.5259 25.2209 43.5454L25.2131 43.5599C24.6998 44.5695 23.467 44.9769 22.4524 44.4696C21.4336 43.9602 21.0206 42.7213 21.53 41.7025L23.3748 42.6248C21.53 41.7025 21.5296 41.7034 21.53 41.7025L21.532 41.6986L21.5342 41.6942L21.5394 41.6839L21.5531 41.6573L21.5938 41.5807C21.6269 41.5197 21.6719 41.439 21.7295 41.3414C21.8443 41.1464 22.0097 40.8827 22.2288 40.5733C22.6656 39.9567 23.3259 39.1449 24.2389 38.3333ZM40.7864 43.5599C40.7864 43.56 40.7865 43.56 40.7864 43.5599V43.5599Z" fill="#EDD5AB"/>
</svg>
