<svg width="29" height="29" viewBox="0 0 29 29" fill="none" xmlns="http://www.w3.org/2000/svg">
<g clip-path="url(#clip0_2930_14572)">
<path d="M11.3579 25.4739L11.3579 25.4739L11.6065 25.8281V25.9031H11.6067C11.6068 25.9031 11.6068 25.9031 11.6068 25.9031H18.0469L18.0472 25.8281V25.9031H18.047C18.0974 25.9033 18.1469 25.8902 18.1906 25.8651C18.2344 25.8399 18.2707 25.8037 18.2959 25.76C18.321 25.7165 18.3342 25.6672 18.3342 25.617C18.3342 25.5667 18.321 25.5174 18.2959 25.4739L18.2959 25.4739L15.0745 19.8958L15.0744 19.8957C15.0493 19.8523 15.0131 19.8163 14.9697 19.7913C14.9263 19.7663 14.877 19.7531 14.8269 19.7531C14.7767 19.7531 14.7275 19.7663 14.684 19.7913C14.6406 19.8163 14.6045 19.8523 14.5793 19.8957L14.5793 19.8958L11.3579 25.4739ZM12.1059 25.3308L14.8269 20.6114L17.5478 25.3308H12.1059Z" fill="#C29340" stroke="#C29340" stroke-width="0.15"/>
<path d="M18.7559 12.4022C18.7559 15.1783 21.0147 17.4372 23.7909 17.4372C26.567 17.4372 28.8259 15.1783 28.8259 12.4022C28.8259 9.62607 26.567 7.36719 23.7909 7.36719C21.0147 7.36719 18.7559 9.62607 18.7559 12.4022ZM23.7909 8.28264C26.0621 8.28264 27.9104 10.1309 27.9104 12.4022C27.9104 14.6734 26.0621 16.5217 23.7909 16.5217C21.5196 16.5217 19.6713 14.6734 19.6713 12.4022C19.6713 10.1309 21.5196 8.28264 23.7909 8.28264Z" fill="#C29340"/>
<path d="M24.2423 15.0197L22.4834 12.9854V12.4041H23.3988C23.6299 12.4041 23.8293 12.3205 23.9973 12.1533C24.1652 11.9861 24.2665 11.7791 24.3012 11.5323H22.2218V10.951H24.2227C24.1486 10.7815 24.0385 10.6422 23.8924 10.5331C23.7463 10.424 23.5817 10.3696 23.3988 10.3698H22.2218V9.78853H25.3605V10.3698H24.5104C24.5715 10.4521 24.626 10.5417 24.6739 10.6386C24.7219 10.7355 24.7589 10.8396 24.7851 10.951H25.3605V11.5323H24.8308C24.796 11.944 24.6434 12.2891 24.3731 12.5677C24.1028 12.8463 23.7781 12.9856 23.3988 12.9854H23.2092L24.9682 15.0197H24.2423Z" fill="#C29340"/>
<path d="M1.75586 12.4022C1.75586 15.1783 4.01474 17.4372 6.79086 17.4372C9.56698 17.4372 11.8259 15.1783 11.8259 12.4022C11.8259 9.62607 9.56698 7.36719 6.79086 7.36719C4.01474 7.36719 1.75586 9.62607 1.75586 12.4022ZM6.79086 8.28264C9.0621 8.28264 10.9104 10.1309 10.9104 12.4022C10.9104 14.6734 9.0621 16.5217 6.79086 16.5217C4.51962 16.5217 2.67131 14.6734 2.67131 12.4022C2.67131 10.1309 4.51962 8.28264 6.79086 8.28264Z" fill="#C29340"/>
<path d="M1.82617 18.3281H27.8262" stroke="#C29340" stroke-width="0.8" stroke-linecap="round"/>
<path d="M6.61523 9.125V12.2891L7.92366 13.7036" stroke="#C29340" stroke-width="0.8" stroke-linecap="round"/>
</g>
<defs>
<clipPath id="clip0_2930_14572">
<rect width="28" height="28" fill="white" transform="translate(0.826172 0.828125)"/>
</clipPath>
</defs>
</svg>
