<svg width="29" height="29" viewBox="0 0 29 29" fill="none" xmlns="http://www.w3.org/2000/svg">
<g clip-path="url(#clip0_2930_14585)">
<path d="M28.8043 19.9469L23.5543 2.66562C23.4887 2.44687 23.2699 2.31562 23.0512 2.35937L18.1512 3.25625C17.648 1.61562 15.9418 0.565625 14.1918 0.89375C12.4418 1.2 11.2387 2.79687 11.3262 4.525L6.42617 5.42188C6.27305 5.44375 6.1418 5.575 6.09805 5.72812L0.848047 23.0094C0.826172 23.0531 0.826172 23.0969 0.826172 23.1406C0.826172 26.2688 3.38555 28.8281 6.51367 28.8281C9.6418 28.8281 12.2012 26.2688 12.2012 23.1406C12.2012 23.0969 12.2012 23.0531 12.1793 23.0094L7.08242 6.20937L11.5012 5.4C11.9605 6.84375 13.3168 7.82812 14.8262 7.82812C15.023 7.82812 15.2418 7.80625 15.4605 7.7625C17.2105 7.43437 18.4137 5.85938 18.3262 4.13125L22.5262 3.34375L17.4949 19.9469C17.4512 19.9906 17.4512 20.0344 17.4512 20.0781C17.4512 23.2063 20.0105 25.7656 23.1387 25.7656C26.2668 25.7656 28.8262 23.2063 28.8262 20.0781C28.8262 20.0344 28.8262 19.9906 28.8043 19.9469ZM6.51367 27.9531C3.99805 27.9531 1.9418 26.0281 1.72305 23.5781H11.3043C11.0855 26.0281 9.0293 27.9531 6.51367 27.9531ZM4.58867 22.7031C4.78555 21.8281 5.57305 21.1719 6.51367 21.1719C7.4543 21.1719 8.2418 21.8281 8.43867 22.7031H4.58867ZM11.173 22.7031H9.31367C9.09492 21.3469 7.93555 20.2969 6.51367 20.2969C5.0918 20.2969 3.91055 21.3469 3.71367 22.7031H1.8543L6.51367 7.36875L11.173 22.7031ZM15.3074 6.90937C13.8855 7.17187 12.5074 6.23125 12.2449 4.7875C12.1137 4.0875 12.2668 3.40937 12.6605 2.81875C13.0543 2.25 13.6668 1.85625 14.3449 1.725C14.5199 1.725 14.673 1.70312 14.8262 1.70312C16.073 1.70312 17.1668 2.6 17.4074 3.84687C17.6699 5.29063 16.7293 6.64687 15.3074 6.90937ZM23.1387 4.30625L27.798 19.6406H26.1137L23.4668 16.9938C23.2918 16.8188 23.0293 16.8188 22.8543 16.9938L20.1637 19.6406H18.4793L23.1387 4.30625ZM24.8668 19.6406H21.4105L23.1387 17.9125L24.8668 19.6406ZM23.1387 24.8906C20.623 24.8906 18.5668 22.9656 18.348 20.5156H27.9293C27.7105 22.9656 25.6543 24.8906 23.1387 24.8906Z" fill="#C29340"/>
</g>
<defs>
<clipPath id="clip0_2930_14585">
<rect width="28" height="28" fill="white" transform="translate(0.826172 0.828125)"/>
</clipPath>
</defs>
</svg>
