<svg width="29" height="29" viewBox="0 0 29 29" fill="none" xmlns="http://www.w3.org/2000/svg">
<g clip-path="url(#clip0_2930_14567)">
<path d="M11.3579 25.4739L11.3579 25.4739L11.6065 25.8281V25.9031H11.6067C11.6068 25.9031 11.6068 25.9031 11.6068 25.9031H18.0469L18.0472 25.8281V25.9031H18.047C18.0974 25.9033 18.1469 25.8902 18.1906 25.8651C18.2344 25.8399 18.2707 25.8037 18.2959 25.76C18.321 25.7165 18.3342 25.6672 18.3342 25.617C18.3342 25.5667 18.321 25.5174 18.2959 25.4739L18.2959 25.4739L15.0745 19.8958L15.0744 19.8957C15.0493 19.8523 15.0131 19.8163 14.9697 19.7913C14.9263 19.7663 14.877 19.7531 14.8269 19.7531C14.7767 19.7531 14.7275 19.7663 14.684 19.7913C14.6406 19.8163 14.6045 19.8523 14.5793 19.8957L14.5793 19.8958L11.3579 25.4739ZM12.1059 25.3308L14.8269 20.6114L17.5478 25.3308H12.1059Z" fill="#C29340" stroke="#C29340" stroke-width="0.15"/>
<path d="M24.0443 16.7969C23.0981 16.7969 22.1731 16.5161 21.3865 15.9902C20.5999 15.4643 19.987 14.7168 19.6254 13.8424C19.2638 12.968 19.1697 12.006 19.3551 11.0781C19.5405 10.1502 19.997 9.29816 20.6669 8.62984C21.3367 7.96152 22.1898 7.50695 23.1181 7.32368C24.0464 7.14041 25.0082 7.23667 25.8818 7.60027C26.7554 7.96388 27.5015 8.57849 28.0256 9.3663C28.5497 10.1541 28.8283 11.0797 28.8262 12.0259C28.8227 13.2921 28.3174 14.5052 27.4211 15.3995C26.5247 16.2938 25.3104 16.7963 24.0443 16.7969ZM24.0443 8.11031C23.272 8.11032 22.5169 8.33923 21.8747 8.76814C21.2324 9.19704 20.7316 9.8067 20.4356 10.5201C20.1397 11.2335 20.0618 12.0186 20.2119 12.7762C20.3619 13.5338 20.7331 14.2299 21.2786 14.7767C21.8241 15.3234 22.5195 15.6962 23.2767 15.8479C24.034 15.9997 24.8193 15.9235 25.5333 15.6292C26.2474 15.3348 26.8581 14.8354 27.2885 14.1941C27.7188 13.5528 27.9494 12.7983 27.9512 12.0259C27.95 10.9901 27.538 9.99707 26.8056 9.26464C26.0732 8.53221 25.0801 8.12022 24.0443 8.11906V8.11031Z" fill="#C29340"/>
<path d="M7.04358 16.7981C6.09735 16.7981 5.17239 16.5174 4.38578 15.9915C3.59917 15.4655 2.98628 14.7181 2.62467 13.8437C2.26306 12.9693 2.16901 12.0072 2.35441 11.0793C2.5398 10.1514 2.99632 9.29941 3.66617 8.63109C4.33602 7.96277 5.1891 7.5082 6.11741 7.32493C7.04572 7.14166 8.00754 7.23792 8.88112 7.60152C9.7547 7.96513 10.5008 8.57974 11.0249 9.36755C11.549 10.1554 11.8276 11.081 11.8255 12.0272C11.822 13.2933 11.3167 14.5065 10.4204 15.4008C9.52404 16.2951 8.30975 16.7976 7.04358 16.7981ZM7.04358 8.11156C6.27125 8.11157 5.51624 8.34048 4.87395 8.76939C4.23166 9.1983 3.7309 9.80795 3.43495 10.5213C3.13899 11.2347 3.06111 12.0198 3.21115 12.7774C3.36119 13.535 3.73242 14.2312 4.27793 14.7779C4.82344 15.3247 5.51876 15.6974 6.27604 15.8492C7.03332 16.0009 7.81859 15.9248 8.53263 15.6304C9.24666 15.3361 9.85744 14.8367 10.2878 14.1953C10.7181 13.554 10.9487 12.7995 10.9505 12.0272C10.9493 10.9914 10.5373 9.99832 9.80488 9.26589C9.07245 8.53346 8.0794 8.12147 7.04358 8.12032V8.11156Z" fill="#C29340"/>
<path d="M1.82617 18.3281H27.8262" stroke="#C29340" stroke-width="0.8" stroke-linecap="round"/>
</g>
<defs>
<clipPath id="clip0_2930_14567">
<rect width="28" height="28" fill="white" transform="translate(0.826172 0.828125)"/>
</clipPath>
</defs>
</svg>
