<svg width="26" height="25" viewBox="0 0 26 25" fill="none" xmlns="http://www.w3.org/2000/svg">
<path d="M1.55762 11.0416H4.63835V18.99H2.43783C2.3211 18.99 2.20916 19.0365 2.12663 19.1193C2.04409 19.2021 1.99772 19.3145 1.99772 19.4316C1.99772 19.5487 2.04409 19.661 2.12663 19.7438C2.20916 19.8266 2.3211 19.8732 2.43783 19.8732H23.5628C23.6796 19.8732 23.7915 19.8266 23.874 19.7438C23.9566 19.661 24.0029 19.5487 24.0029 19.4316C24.0029 19.3145 23.9566 19.2021 23.874 19.1193C23.7915 19.0365 23.6796 18.99 23.5628 18.99H21.3623V11.0416H24.443C24.5382 11.0424 24.631 11.0113 24.7067 10.9534C24.7824 10.8954 24.8367 10.8138 24.8611 10.7215C24.8879 10.6295 24.8841 10.5313 24.8504 10.4417C24.8166 10.3521 24.7548 10.276 24.6741 10.2247L13.2314 3.1595C13.1619 3.11651 13.0819 3.09375 13.0003 3.09375C12.9187 3.09375 12.8387 3.11651 12.7693 3.1595L1.32656 10.2247C1.2459 10.276 1.18404 10.3521 1.1503 10.4417C1.11656 10.5313 1.11277 10.6295 1.13952 10.7215C1.16393 10.8138 1.21826 10.8954 1.29395 10.9534C1.36965 11.0113 1.4624 11.0424 1.55762 11.0416ZM5.51855 11.0416H9.9196V18.99H5.51855V11.0416ZM15.2008 11.0416V18.99H10.7998V11.0416H15.2008ZM20.4821 18.99H16.0811V11.0416H20.4821V18.99ZM13.0003 4.05369L22.8917 10.1585H3.10898L13.0003 4.05369ZM25.7633 22.9642C25.7633 23.0813 25.717 23.1936 25.6344 23.2764C25.5519 23.3592 25.44 23.4058 25.3232 23.4058H0.677409C0.560686 23.4058 0.448744 23.3592 0.366208 23.2764C0.283673 23.1936 0.237305 23.0813 0.237305 22.9642C0.237305 22.8471 0.283673 22.7348 0.366208 22.6519C0.448744 22.5691 0.560686 22.5226 0.677409 22.5226H25.3232C25.44 22.5226 25.5519 22.5691 25.6344 22.6519C25.717 22.7348 25.7633 22.8471 25.7633 22.9642Z" fill="#C4A265"/>
</svg>
