<svg width="28" height="28" viewBox="0 0 28 28" fill="none" xmlns="http://www.w3.org/2000/svg">
<g clip-path="url(#clip0_647_14463)">
<g clip-path="url(#clip1_647_14463)">
<path d="M3.14921 15.0352H1.18019C0.670609 15.0352 0.255859 15.4495 0.255859 15.959V26.8182C0.255859 27.3278 0.670609 27.7426 1.18019 27.7426H3.14921C3.65879 27.7426 4.0731 27.3278 4.0731 26.8182V15.959C4.0731 15.4495 3.65873 15.0352 3.14921 15.0352ZM3.21418 26.8182C3.21418 26.8543 3.18481 26.8836 3.14916 26.8836H1.18019C1.14409 26.8836 1.11478 26.8543 1.11478 26.8182V15.959C1.11478 15.9234 1.14415 15.894 1.18019 15.894H3.14921C3.18487 15.894 3.21423 15.9234 3.21423 15.959L3.21418 26.8182Z" fill="#C29340"/>
<path d="M9.06523 18.3125H7.0962C6.58663 18.3125 6.17188 18.7273 6.17188 19.2368V26.8173C6.17188 27.3269 6.58663 27.7416 7.0962 27.7416H9.06523C9.57481 27.7416 9.98955 27.3269 9.98955 26.8173V19.2368C9.98955 18.7273 9.57481 18.3125 9.06523 18.3125ZM9.13069 26.8172C9.13069 26.8533 9.10132 26.8826 9.06528 26.8826H7.09626C7.06016 26.8826 7.03085 26.8533 7.03085 26.8172V19.2368C7.03085 19.2007 7.06022 19.1714 7.09626 19.1714H9.06528C9.10137 19.1714 9.13069 19.2008 9.13069 19.2368V26.8172Z" fill="#C29340"/>
<path d="M14.9828 15.0352H13.0142C12.5046 15.0352 12.0898 15.4495 12.0898 15.959V26.8182C12.0898 27.3278 12.5046 27.7426 13.0142 27.7426H14.9828C15.4923 27.7426 15.9071 27.3278 15.9071 26.8182V15.959C15.9071 15.4495 15.4923 15.0352 14.9828 15.0352ZM15.0482 26.8182C15.0482 26.8543 15.0188 26.8836 14.9828 26.8836H13.0142C12.9781 26.8836 12.9488 26.8543 12.9488 26.8182V15.959C12.9488 15.9234 12.9781 15.894 13.0142 15.894H14.9828C15.0189 15.894 15.0482 15.9234 15.0482 15.959V26.8182Z" fill="#C29340"/>
<path d="M20.8992 16.8633H18.9302C18.4206 16.8633 18.0059 17.2776 18.0059 17.7872V26.8178C18.0059 27.3274 18.4206 27.7422 18.9302 27.7422H20.8992C21.4088 27.7422 21.8235 27.3274 21.8235 26.8178V17.7872C21.8235 17.2776 21.4087 16.8633 20.8992 16.8633ZM20.9646 26.8178C20.9646 26.8539 20.9353 26.8832 20.8992 26.8832H18.9302C18.8941 26.8832 18.8648 26.8539 18.8648 26.8178V17.7872C18.8648 17.7515 18.8941 17.7221 18.9302 17.7221H20.8992C20.9353 17.7221 20.9646 17.7515 20.9646 17.7872V26.8178Z" fill="#C29340"/>
<path d="M26.8167 11.8711H24.8477C24.3381 11.8711 23.9238 12.2855 23.9238 12.795V26.8189C23.9238 27.3285 24.3382 27.7432 24.8477 27.7432H26.8167C27.3263 27.7432 27.7411 27.3285 27.7411 26.8189V12.795C27.7411 12.2855 27.3263 11.8711 26.8167 11.8711ZM26.8822 26.8189C26.8822 26.855 26.8528 26.8843 26.8168 26.8843H24.8478C24.8121 26.8843 24.7828 26.8549 24.7828 26.8189V12.795C24.7828 12.7593 24.8121 12.73 24.8478 12.73H26.8168C26.8529 12.73 26.8822 12.7593 26.8822 12.795V26.8189Z" fill="#C29340"/>
<path d="M7.82678 16.2858C7.97651 16.3965 8.18361 16.3978 8.3351 16.2858L14.0509 12.0886L19.7399 14.6175C19.9156 14.6947 20.1224 14.6469 20.2457 14.4984L25.4027 8.2547L25.4025 9.55177C25.4025 9.78873 25.5945 9.98123 25.8319 9.98123C26.0689 9.98123 26.2614 9.78917 26.2614 9.55177L26.2618 7.06185C26.2618 6.83238 26.0478 6.6057 25.7837 6.63545C25.7834 6.63545 25.7831 6.63534 25.7829 6.63534L23.306 6.92305C23.0703 6.95029 22.9017 7.16335 22.929 7.39905C22.9562 7.63476 23.1689 7.80752 23.405 7.77607L24.8194 7.6119L19.7911 13.7004L14.1721 11.2024C14.0316 11.1403 13.8681 11.1571 13.7435 11.2489L8.08091 15.4072L2.41797 11.249C2.2259 11.1085 1.9575 11.15 1.81782 11.3408C1.67733 11.5321 1.7184 11.8009 1.90965 11.941L7.82678 16.2858Z" fill="#C29340"/>
<path d="M8.63241 10.6007C11.4868 10.6007 13.8089 8.28069 13.8089 5.42928C13.8089 2.57788 11.4868 0.257812 8.63241 0.257812C5.781 0.257812 3.46094 2.57788 3.46094 5.42928C3.46094 8.28069 5.78095 10.6007 8.63241 10.6007ZM8.63241 1.11668C11.0133 1.11668 12.95 3.0513 12.95 5.42923C12.95 7.80715 11.0132 9.74177 8.63241 9.74177C6.25449 9.74177 4.31986 7.80715 4.31986 5.42923C4.31986 3.0513 6.25449 1.11668 8.63241 1.11668Z" fill="#C29340"/>
<path d="M7.4376 5.67675C7.32012 5.6637 7.23311 5.62237 7.17655 5.55275C7.11998 5.48314 7.09388 5.41135 7.09823 5.33739C7.10258 5.25907 7.13521 5.18946 7.19612 5.12855C7.25704 5.06329 7.34623 5.02848 7.4637 5.02413H9.0561C8.99954 4.8588 8.89947 4.72827 8.7559 4.63255C8.63842 4.55859 8.52095 4.51073 8.40348 4.48898C8.29036 4.46287 8.17506 4.44764 8.05759 4.44329C7.94012 4.43894 7.82047 4.43894 7.69864 4.44329C7.57682 4.44764 7.45065 4.44112 7.32012 4.42371L7.19612 4.41719C7.10911 4.38238 7.0482 4.33887 7.01339 4.28666C6.98293 4.2301 6.97206 4.17354 6.98076 4.11698C6.98946 4.05607 7.01339 4.00168 7.05255 3.95382C7.0917 3.90161 7.14174 3.86246 7.20265 3.83635C7.59858 3.83635 7.99668 3.83853 8.39695 3.84288C8.79723 3.84288 9.22143 3.8407 9.66957 3.83635C9.76964 3.86681 9.84578 3.91249 9.89799 3.9734C9.9502 4.02996 9.97848 4.09088 9.98283 4.15614C9.98718 4.2214 9.96543 4.28231 9.91757 4.33887C9.86971 4.39543 9.79574 4.43459 9.69568 4.45635H9.49989C9.5608 4.54336 9.60866 4.63473 9.64347 4.73045C9.68262 4.82617 9.7109 4.92406 9.72831 5.02413H10.0611C10.1612 5.05458 10.2352 5.10244 10.283 5.16771C10.3309 5.22862 10.3527 5.29388 10.3483 5.36349C10.3439 5.43311 10.3157 5.49837 10.2635 5.55928C10.2112 5.61584 10.1351 5.655 10.035 5.67675H9.6761C9.64129 5.78987 9.59126 5.89864 9.52599 6.00306C9.46508 6.10313 9.38894 6.1945 9.29757 6.27717C9.11484 6.4425 8.92993 6.56867 8.74284 6.65569C8.55576 6.74271 8.34039 6.80362 8.09675 6.83842C8.44916 7.17344 8.79723 7.50845 9.14094 7.84347C9.20186 7.92613 9.23014 8.00662 9.22579 8.08494C9.22579 8.1676 9.20403 8.23504 9.16052 8.28725C9.11701 8.33946 9.0561 8.37209 8.97779 8.38514C8.89947 8.40255 8.81463 8.38732 8.72327 8.33946C8.46222 8.08711 8.20117 7.83694 7.94012 7.58894C7.68342 7.33659 7.42454 7.08642 7.16349 6.83842C7.11128 6.76881 7.083 6.70355 7.07865 6.64264C7.0743 6.57737 7.08518 6.51864 7.11128 6.46643C7.13739 6.41422 7.17437 6.37071 7.22223 6.3359C7.27444 6.29675 7.32665 6.27064 7.37886 6.25759C7.51373 6.25324 7.64644 6.24454 7.77696 6.23148C7.90748 6.21843 8.03583 6.19668 8.16201 6.16622C8.28818 6.13141 8.41001 6.08573 8.52748 6.02917C8.6493 5.96826 8.76242 5.88994 8.86684 5.79422C8.90165 5.76812 8.93646 5.72896 8.97126 5.67675H7.4376Z" fill="#C29340"/>
</g>
</g>
<defs>
<clipPath id="clip0_647_14463">
<rect width="28" height="28" fill="white"/>
</clipPath>
<clipPath id="clip1_647_14463">
<rect width="28" height="28" fill="white"/>
</clipPath>
</defs>
</svg>
