<svg width="40" height="40" viewBox="0 0 40 40" fill="none" xmlns="http://www.w3.org/2000/svg">
<g clip-path="url(#clip0_1158_60735)">
<path d="M29.1668 35.8333C28.7068 35.8333 28.3335 35.46 28.3335 35V33.3333C28.3335 32.8733 28.7068 32.5 29.1668 32.5C29.6268 32.5 30.0002 32.8733 30.0002 33.3333V35C30.0002 35.46 29.6268 35.8333 29.1668 35.8333Z" fill="#C5A265"/>
<path d="M29.583 34.166H26.6663C26.2063 34.166 25.833 33.7927 25.833 33.3327C25.833 32.8727 26.2063 32.4993 26.6663 32.4993H29.583C30.273 32.4993 30.833 31.9393 30.833 31.2493C30.833 30.5593 30.273 29.9993 29.583 29.9993H28.7497C27.1413 29.9993 25.833 28.691 25.833 27.0827C25.833 25.4743 27.1413 24.166 28.7497 24.166H31.6663C32.1263 24.166 32.4997 24.5393 32.4997 24.9993C32.4997 25.4593 32.1263 25.8327 31.6663 25.8327H28.7497C28.0597 25.8327 27.4997 26.3927 27.4997 27.0827C27.4997 27.7727 28.0597 28.3327 28.7497 28.3327H29.583C31.1913 28.3327 32.4997 29.641 32.4997 31.2493C32.4997 32.8577 31.1913 34.166 29.583 34.166Z" fill="#C5A265"/>
<path d="M29.1668 25.8333C28.7068 25.8333 28.3335 25.46 28.3335 25V23.3333C28.3335 22.8733 28.7068 22.5 29.1668 22.5C29.6268 22.5 30.0002 22.8733 30.0002 23.3333V25C30.0002 25.46 29.6268 25.8333 29.1668 25.8333Z" fill="#C5A265"/>
<path d="M29.1663 40.0007C23.193 40.0007 18.333 35.1407 18.333 29.1673C18.333 23.194 23.193 18.334 29.1663 18.334C35.1397 18.334 39.9997 23.194 39.9997 29.1673C39.9997 35.1407 35.1397 40.0007 29.1663 40.0007ZM29.1663 20.0007C24.1113 20.0007 19.9997 24.1123 19.9997 29.1673C19.9997 34.2223 24.1113 38.334 29.1663 38.334C34.2214 38.334 38.333 34.2223 38.333 29.1673C38.333 24.1123 34.2214 20.0007 29.1663 20.0007Z" fill="#C5A265"/>
<path d="M14.1667 35H4.16667C1.87 35 0 33.13 0 30.8333V4.16667C0 1.87 1.87 0 4.16667 0H22.5C24.7967 0 26.6667 1.87 26.6667 4.16667V14.1667C26.6667 14.6267 26.2933 15 25.8333 15C25.3733 15 25 14.6267 25 14.1667V4.16667C25 2.78833 23.8783 1.66667 22.5 1.66667H4.16667C2.78833 1.66667 1.66667 2.78833 1.66667 4.16667V30.8333C1.66667 32.2117 2.78833 33.3333 4.16667 33.3333H14.1667C14.6267 33.3333 15 33.7067 15 34.1667C15 34.6267 14.6267 35 14.1667 35Z" fill="#C5A265"/>
<path d="M5.83326 21.6667C5.61993 21.6667 5.4066 21.585 5.24326 21.4234C4.91826 21.0984 4.91826 20.57 5.24326 20.245L9.40993 16.0784C9.66326 15.8234 10.0499 15.7601 10.3716 15.9217L13.1683 17.32L18.5766 11.9117C18.9016 11.5867 19.4299 11.5867 19.7549 11.9117C20.0799 12.2367 20.0799 12.7651 19.7549 13.0901L13.9216 18.9234C13.6666 19.1784 13.2783 19.2384 12.9599 19.08L10.1633 17.6817L6.4216 21.4234C6.25993 21.585 6.0466 21.6667 5.83326 21.6667Z" fill="#C5A265"/>
<path d="M19.1663 18.3327C18.7063 18.3327 18.333 17.9594 18.333 17.4994V13.3327H14.1663C13.7063 13.3327 13.333 12.9594 13.333 12.4993C13.333 12.0393 13.7063 11.666 14.1663 11.666H19.1663C19.6263 11.666 19.9997 12.0393 19.9997 12.4993V17.4994C19.9997 17.9594 19.6263 18.3327 19.1663 18.3327Z" fill="#C5A265"/>
</g>
<defs>
<clipPath id="clip0_1158_60735">
<rect width="40" height="40" fill="white"/>
</clipPath>
</defs>
</svg>
