<svg width="48" height="48" viewBox="0 0 48 48" fill="none" xmlns="http://www.w3.org/2000/svg">
<rect x="0.5" y="0.5" width="47" height="47" rx="7.5" fill="white"/>
<path d="M16.8678 19.0061C17.231 14.7222 15.1113 13.4238 15.1113 13.4238C15.1113 13.4238 15.6115 15.2407 15.2458 19.9015C14.997 23.0789 16.13 25.5423 16.7884 27.0635C16.882 27.2792 17.2002 27.1115 17.141 26.8875C16.5442 24.6369 16.5679 22.548 16.8678 19.0061Z" fill="#FF4612"/>
<path d="M27.0344 39.2577C29.8154 36.7214 33.7716 29.1664 33.8445 23.4384C33.2021 23.628 31.9286 24.3137 31.4575 26.431C31.1867 27.647 30.4246 30.5199 27.6181 30.2722C23.7265 29.9291 24.2907 22.572 30.3843 23.2387C33.2643 23.554 33.7319 21.4822 33.7319 21.2049C33.1008 21.4941 32.1503 21.3732 31.2572 21.2665C25.7668 20.6064 23.131 23.7501 23.131 27.3383C23.131 29.4923 24.5313 31.3015 26.11 32.3089C26.9497 32.8434 26.3458 33.3667 25.7218 32.9169C24.0614 31.7187 22.1224 30.1353 22.1224 26.7605C22.1224 21.1255 27.8711 18.6775 29.2217 17.6713C31.2252 16.1774 32.1905 14.9442 31.7023 12.7462C30.9094 14.2058 28.9621 15.4811 27.5091 16.2532C23.5825 18.3403 20.5046 21.3791 20.5046 25.842C20.5046 29.3537 22.0465 31.2825 23.899 32.7759C24.3191 33.1143 23.8741 33.5883 23.336 33.1551C20.3879 30.7788 19.4148 28.1477 19.4148 24.767C19.4148 18.3788 27.4694 12.6028 23.8474 8.00195C23.8978 12.6994 17.8237 16.802 17.8237 24.5732C17.8237 28.0624 19.2246 31.5255 23.1304 34.2645C25.4314 35.8787 25.7574 37.727 25.4208 39.3993C25.2703 40.3024 26.3642 39.8686 27.0344 39.2577Z" fill="#FF4612"/>
<rect x="0.5" y="0.5" width="47" height="47" rx="7.5" stroke="#EADDC7"/>
</svg>
