<svg width="48" height="48" viewBox="0 0 48 48" fill="none" xmlns="http://www.w3.org/2000/svg">
<g clip-path="url(#clip0_2312_140101)">
<path d="M36.301 30.9232C34.6534 29.2756 31.9823 29.2756 30.3348 30.9232L29.3396 31.9183L39.6148 42.1935L40.6099 41.1984C42.2574 39.5508 42.2574 36.8797 40.6099 35.2321L36.301 30.9232Z" fill="#C5A265"/>
<path d="M26.8047 34.4547C25.8441 35.4153 24.3353 35.5543 23.214 34.7872C19.25 32.0759 15.9252 28.7511 13.2139 24.7872C12.4469 23.6658 12.5857 22.1571 13.5464 21.1965L14.0926 20.6503L3.8175 10.375L2.05387 12.1386C0.0495 14.143 -0.548813 17.1543 0.5295 19.8105C3.17644 26.3302 6.84787 31.9653 11.4417 36.5593C11.442 36.5596 11.4414 36.559 11.4418 36.5594C16.0355 41.153 21.6712 44.8248 28.1905 47.4716C30.8467 48.55 33.858 47.9516 35.8624 45.9472L37.626 44.1836L27.3509 33.9084L26.8047 34.4547Z" fill="#C5A265"/>
<path d="M17.0766 17.6671C18.7242 16.0195 18.7242 13.3484 17.0766 11.7009L12.7677 7.39192C11.1201 5.74436 8.44899 5.74436 6.80143 7.39192L5.80627 8.38708L16.0814 18.6623L17.0766 17.6671Z" fill="#C5A265"/>
<path d="M42.8437 3.75005H30.3012L31.6507 2.40061C32.1998 1.85142 32.1998 0.961078 31.6507 0.411891C31.1015 -0.137297 30.2111 -0.137297 29.6619 0.411891L25.9119 4.16189C25.3627 4.71108 25.3627 5.60142 25.9119 6.15061L29.6619 9.90061C30.2111 10.4498 31.1015 10.4498 31.6507 9.90061C32.1998 9.35142 32.1998 8.46108 31.6507 7.91189L30.3012 6.56255H42.8437C44.1361 6.56255 45.1875 7.61395 45.1875 8.9063V22.0313C45.1875 22.8079 45.8171 23.4376 46.5937 23.4376C47.3704 23.4376 48 22.8079 48 22.0313V8.9063C48 6.06314 45.6869 3.75005 42.8437 3.75005Z" fill="#C5A265"/>
</g>
<defs>
<clipPath id="clip0_2312_140101">
<rect width="48" height="48" fill="white"/>
</clipPath>
</defs>
</svg>
