<svg width="83" height="83" viewBox="0 0 83 83" fill="none" xmlns="http://www.w3.org/2000/svg">
<path d="M0 41.5C0 18.5802 18.5802 0 41.5 0C64.4198 0 83 18.5802 83 41.5C83 64.4198 64.4198 83 41.5 83C18.5802 83 0 64.4198 0 41.5ZM44.4109 18.3375C44.411 16.7384 43.1149 15.442 41.5158 15.4419C39.9167 15.4417 38.6203 16.7379 38.6202 18.3369L38.6178 41.5167C38.6178 42.2847 38.9228 43.0213 39.4659 43.5643L55.8331 59.9315C56.9638 61.0622 58.797 61.0622 59.9277 59.9315C61.0584 58.8008 61.0584 56.9676 59.9277 55.8369L44.4087 40.3178L44.4109 18.3375Z" fill="#C29340"/>
</svg>
