<svg width="29" height="29" viewBox="0 0 29 29" fill="none" xmlns="http://www.w3.org/2000/svg">
<path d="M27.0163 9.35215C27.0163 5.21485 23.6679 1.86719 19.5313 1.86719C15.4045 1.86719 12.0469 5.22505 12.0469 9.35215C12.0469 9.45323 12.0469 13.4731 12.0469 13.4197C12.0469 13.7114 12.2832 13.948 12.5752 13.948C12.8672 13.948 13.1035 13.7114 13.1035 13.4197V12.5306C13.3743 12.6718 13.6775 12.7593 14.0038 12.7593H14.1781C14.9907 14.9814 17.1354 16.5007 19.5282 16.5007C21.9242 16.5007 24.0714 14.9814 24.884 12.7593H25.0589C25.3796 12.7593 25.6843 12.6747 25.9597 12.5316V14.7852C25.5953 15.442 23.212 19.3162 17.6186 19.9046C17.2542 19.6065 16.8888 19.2782 16.522 18.9078C16.3161 18.7009 15.9818 18.6983 15.7749 18.9042C15.5675 19.1092 15.5654 19.4438 15.7708 19.6512C18.6317 22.5415 22.0105 23.8964 25.5095 21.7925C24.5657 24.2104 22.2386 25.8557 19.5313 25.8557C17.4445 25.8557 15.5888 24.8719 14.3995 23.2964C14.2235 23.0638 13.8923 23.0176 13.6596 23.193C13.427 23.3689 13.3805 23.7001 13.5565 23.9331C14.9512 25.7806 17.1178 26.9123 19.5313 26.9123C23.7241 26.9123 27.0163 23.5613 27.0163 19.4273C27.0163 14.1523 27.0163 14.5118 27.0163 9.35215ZM19.5313 2.92379C22.9599 2.92379 25.7964 5.60958 25.9459 9.06849C25.6783 8.93119 25.3797 8.84629 25.0589 8.84629H24.883C24.0652 6.62448 21.9185 5.10484 19.5282 5.10484C17.1354 5.10484 14.9907 6.62423 14.1781 8.84629H14.0038C13.691 8.84629 13.3892 8.92852 13.118 9.06524C13.2697 5.65417 16.0838 2.92379 19.5313 2.92379ZM25.0589 11.7027H24.5007C24.2649 11.7027 24.0575 11.8587 23.993 12.0855C23.426 14.063 21.5904 15.4441 19.5282 15.4441C17.4697 15.4441 15.6361 14.063 15.0691 12.0855C15.0046 11.8587 14.7972 11.7027 14.5615 11.7027H14.0038C13.5146 11.7027 13.1173 11.3137 13.1035 10.8311V10.7786C13.1173 10.2904 13.5056 9.9029 14.0038 9.9029H14.5615C14.7972 9.9029 15.0046 9.74683 15.0691 9.52008C15.6354 7.54505 17.4652 6.16525 19.5205 6.16177C19.5276 6.16206 19.5335 6.16583 19.5406 6.16583C19.9183 6.16583 20.2258 6.47306 20.2258 6.85097C20.2258 7.23095 19.9183 7.54024 19.5406 7.54024C19.2486 7.54024 19.0123 7.77679 19.0123 8.06854C19.0123 8.3603 19.2486 8.59685 19.5406 8.59685C20.6391 8.59685 21.4702 7.58253 21.2462 6.49828C22.5483 7.02216 23.5883 8.12072 23.993 9.52137C24.0585 9.74735 24.2654 9.9029 24.5007 9.9029H25.0589C25.5578 9.9029 25.9486 10.2887 25.9597 10.7847V10.8272C25.9481 11.331 25.5375 11.7027 25.0589 11.7027ZM18.8724 20.791C22.5762 20.0907 24.805 18.0704 25.9597 16.6438V19.4273C25.9597 19.7049 25.939 19.9682 25.907 20.2224C23.6479 22.0378 21.2912 22.2272 18.8724 20.791Z" fill="#C29340"/>
<path d="M12.5977 12.5L12.5977 16.5625" stroke="#C29340" stroke-width="1.1" stroke-linecap="round"/>
<path d="M18.6828 9.80555C18.5512 9.54527 18.2324 9.44028 17.9729 9.57339C17.6236 9.75009 17.2991 9.74958 16.9509 9.57339C16.6903 9.44028 16.3725 9.54527 16.241 9.80555C16.1089 10.0656 16.2126 10.3836 16.4731 10.5155C17.1194 10.8437 17.8037 10.8441 18.4506 10.5155C18.7112 10.3836 18.8149 10.0656 18.6828 9.80555Z" fill="#C29340"/>
<path d="M22.1135 9.57339C21.7658 9.74958 21.4413 9.75009 21.0915 9.57339C20.832 9.44028 20.5131 9.54527 20.3816 9.80555C20.2495 10.0656 20.3532 10.3836 20.6137 10.5155C21.26 10.8437 21.9443 10.8441 22.5913 10.5155C22.8518 10.3836 22.9555 10.0656 22.8234 9.80555C22.6919 9.54527 22.3725 9.44028 22.1135 9.57339Z" fill="#C29340"/>
<path d="M20.9345 12.5198C20.6884 12.3635 20.3619 12.4365 20.2055 12.6826C20.0807 12.8789 19.8165 13.0055 19.5323 13.0055C19.2475 13.0055 18.9838 12.8789 18.8595 12.6831C18.7037 12.4367 18.3776 12.3637 18.1305 12.5195C17.8839 12.6756 17.8106 13.0019 17.967 13.2485C18.2848 13.7503 18.8848 14.0621 19.5323 14.0621C20.1792 14.0621 20.7787 13.7505 21.0971 13.2491C21.2539 13.0027 21.1806 12.6761 20.9345 12.5198Z" fill="#C29340"/>
<path d="M7.71963 25.3377C11.0607 25.3377 13.7791 22.6193 13.7791 19.2782C13.7791 15.9371 11.0607 13.2188 7.71963 13.2188C4.37854 13.2188 1.66016 15.9371 1.66016 19.2782C1.66016 22.6193 4.37854 25.3377 7.71963 25.3377ZM7.71963 14.2754C10.4783 14.2754 12.7225 16.5196 12.7225 19.2782C12.7225 22.0369 10.4783 24.2811 7.71963 24.2811C4.96101 24.2811 2.71676 22.0369 2.71676 19.2782C2.71676 16.5196 4.96101 14.2754 7.71963 14.2754Z" fill="#C29340"/>
<path d="M8.41289 22.8906L6.17122 20.1684V19.3906H7.33789C7.63234 19.3906 7.88656 19.2788 8.10056 19.055C8.31456 18.8313 8.44367 18.5543 8.48789 18.224H5.83789V17.4462H8.38789C8.29345 17.2193 8.15311 17.0329 7.96689 16.887C7.78067 16.741 7.571 16.6681 7.33789 16.6684H5.83789V15.8906H9.83789V16.6684H8.75456C8.83234 16.7786 8.90178 16.8985 8.96289 17.0281C9.024 17.1578 9.07122 17.2971 9.10456 17.4462H9.83789V18.224H9.16289C9.11845 18.7749 8.924 19.2368 8.57956 19.6096C8.23511 19.9824 7.82122 20.1687 7.33789 20.1684H7.09622L9.33789 22.8906H8.41289Z" fill="#C29340"/>
<path d="M13.9414 23.5469C13.2961 22.7314 12.6085 21.7049 12.7539 21.6641" stroke="#C29340" stroke-width="1.05" stroke-linecap="round"/>
</svg>
