<svg width="28" height="28" viewBox="0 0 28 28" fill="none" xmlns="http://www.w3.org/2000/svg">
<path fill-rule="evenodd" clip-rule="evenodd" d="M10.2087 18.666C10.2087 18.1828 10.6004 17.791 11.0837 17.791H16.917C17.4002 17.791 17.792 18.1828 17.792 18.666V23.916C17.792 24.3993 17.4002 24.791 16.917 24.791H11.0837C10.6004 24.791 10.2087 24.3993 10.2087 23.916V18.666ZM11.9587 19.541V23.041H16.042V19.541H11.9587Z" fill="#C29340"/>
<path fill-rule="evenodd" clip-rule="evenodd" d="M4.08366 5.54102C3.92258 5.54102 3.79199 5.6716 3.79199 5.83268V17.4993C3.79199 17.6604 3.92258 17.791 4.08366 17.791H23.917C24.0781 17.791 24.2087 17.6604 24.2087 17.4993V5.83268C24.2087 5.6716 24.0781 5.54102 23.917 5.54102H4.08366ZM2.04199 5.83268C2.04199 4.7051 2.95608 3.79102 4.08366 3.79102H23.917C25.0446 3.79102 25.9587 4.7051 25.9587 5.83268V17.4993C25.9587 18.6269 25.0446 19.541 23.917 19.541H4.08366C2.95608 19.541 2.04199 18.6269 2.04199 17.4993V5.83268Z" fill="#C29340"/>
<path fill-rule="evenodd" clip-rule="evenodd" d="M11.9587 15.7493C11.9587 15.2661 12.3504 14.8743 12.8337 14.8743H15.167C15.6502 14.8743 16.042 15.2661 16.042 15.7493C16.042 16.2326 15.6502 16.6243 15.167 16.6243H12.8337C12.3504 16.6243 11.9587 16.2326 11.9587 15.7493Z" fill="#C29340"/>
<path fill-rule="evenodd" clip-rule="evenodd" d="M7.29199 23.916C7.29199 23.4328 7.68374 23.041 8.16699 23.041H19.8337C20.3169 23.041 20.7087 23.4328 20.7087 23.916C20.7087 24.3993 20.3169 24.791 19.8337 24.791H8.16699C7.68374 24.791 7.29199 24.3993 7.29199 23.916Z" fill="#C29340"/>
</svg>
