<svg width="29" height="29" viewBox="0 0 29 29" fill="none" xmlns="http://www.w3.org/2000/svg">
<g clip-path="url(#clip0_2930_14562)">
<path d="M21.498 27.625H8.1543C8.0772 27.6253 8.0014 27.6052 7.93456 27.5668C7.86772 27.5284 7.81222 27.473 7.77367 27.4063C7.73527 27.3397 7.71506 27.2643 7.71506 27.1875C7.71506 27.1107 7.73527 27.0353 7.77367 26.9688L14.4477 15.4122C14.4862 15.3459 14.5414 15.2909 14.6078 15.2526C14.6742 15.2143 14.7495 15.1942 14.8262 15.1942C14.9028 15.1942 14.9781 15.2143 15.0445 15.2526C15.111 15.2909 15.1662 15.3459 15.2046 15.4122L21.8787 26.9688C21.9171 27.0353 21.9373 27.1107 21.9373 27.1875C21.9373 27.2643 21.9171 27.3397 21.8787 27.4063C21.8401 27.473 21.7846 27.5284 21.7178 27.5668C21.6509 27.6052 21.5751 27.6253 21.498 27.625ZM8.91992 26.75H20.7324L14.8262 16.5059L8.91992 26.75Z" fill="#C29340"/>
<path d="M28.3887 21.1719C28.3235 21.1715 28.2592 21.1565 28.2006 21.1281L1.07556 8.22188C1.02228 8.19807 0.974313 8.16385 0.934464 8.12122C0.894616 8.0786 0.863697 8.02843 0.843527 7.97368C0.823358 7.91892 0.814344 7.86069 0.817018 7.8024C0.819693 7.74411 0.834 7.68694 0.859098 7.63427C0.884196 7.58159 0.919578 7.53447 0.963162 7.49567C1.00675 7.45687 1.05765 7.42718 1.11288 7.40835C1.16811 7.38952 1.22654 7.38193 1.28475 7.38603C1.34296 7.39012 1.39976 7.40582 1.45181 7.43219L28.5768 20.3384C28.6296 20.3621 28.6771 20.3959 28.7167 20.438C28.7563 20.4801 28.7872 20.5297 28.8075 20.5838C28.8278 20.6379 28.8373 20.6955 28.8352 20.7532C28.8332 20.811 28.8197 20.8678 28.7956 20.9203C28.7595 20.9972 28.7018 21.062 28.6295 21.1066C28.5573 21.1513 28.4736 21.174 28.3887 21.1719Z" fill="#C29340"/>
<path d="M3.45117 7.28125C2.932 7.28125 2.42448 7.1273 1.9928 6.83886C1.56112 6.55042 1.22467 6.14045 1.02599 5.6608C0.827309 5.18114 0.775325 4.65334 0.876612 4.14414C0.977898 3.63494 1.2279 3.16721 1.59502 2.8001C1.96213 2.43298 2.42986 2.18298 2.93906 2.08169C3.44826 1.9804 3.97606 2.03239 4.45572 2.23107C4.93537 2.42975 5.34534 2.7662 5.63378 3.19788C5.92222 3.62956 6.07617 4.13708 6.07617 4.65625C6.07617 5.35244 5.79961 6.02012 5.30733 6.51241C4.81505 7.00469 4.14737 7.28125 3.45117 7.28125ZM3.45117 2.90625C3.10506 2.90625 2.76671 3.00889 2.47893 3.20118C2.19114 3.39347 1.96684 3.66678 1.83438 3.98656C1.70193 4.30633 1.66727 4.65819 1.7348 4.99766C1.80232 5.33713 1.96899 5.64895 2.21374 5.89369C2.45848 6.13843 2.7703 6.3051 3.10977 6.37263C3.44923 6.44015 3.8011 6.40549 4.12087 6.27304C4.44064 6.14059 4.71395 5.91629 4.90624 5.6285C5.09854 5.34071 5.20117 5.00237 5.20117 4.65625C5.20117 4.19212 5.0168 3.747 4.68861 3.41881C4.36042 3.09063 3.9153 2.90625 3.45117 2.90625Z" fill="#C29340"/>
<path d="M24.0443 16.7969C23.0981 16.7969 22.1731 16.5161 21.3865 15.9902C20.5999 15.4643 19.987 14.7168 19.6254 13.8424C19.2638 12.968 19.1697 12.006 19.3551 11.0781C19.5405 10.1502 19.997 9.29816 20.6669 8.62984C21.3367 7.96152 22.1898 7.50695 23.1181 7.32368C24.0464 7.14041 25.0082 7.23667 25.8818 7.60027C26.7554 7.96388 27.5015 8.57849 28.0256 9.3663C28.5497 10.1541 28.8283 11.0797 28.8262 12.0259C28.8227 13.2921 28.3174 14.5052 27.4211 15.3995C26.5247 16.2938 25.3104 16.7963 24.0443 16.7969ZM24.0443 8.11031C23.272 8.11032 22.5169 8.33923 21.8747 8.76814C21.2324 9.19704 20.7316 9.8067 20.4356 10.5201C20.1397 11.2335 20.0618 12.0186 20.2119 12.7762C20.3619 13.5338 20.7331 14.2299 21.2786 14.7767C21.8241 15.3234 22.5195 15.6962 23.2767 15.8479C24.034 15.9997 24.8193 15.9235 25.5333 15.6292C26.2474 15.3348 26.8581 14.8354 27.2885 14.1941C27.7188 13.5528 27.9494 12.7983 27.9512 12.0259C27.95 10.9901 27.538 9.99707 26.8056 9.26464C26.0732 8.53221 25.0801 8.12022 24.0443 8.11906V8.11031Z" fill="#C29340"/>
</g>
<defs>
<clipPath id="clip0_2930_14562">
<rect width="28" height="28" fill="white" transform="translate(0.826172 0.828125)"/>
</clipPath>
</defs>
</svg>
