<svg width="28" height="28" viewBox="0 0 28 28" fill="none" xmlns="http://www.w3.org/2000/svg">
<g clip-path="url(#clip0_647_14448)">
<g clip-path="url(#clip1_647_14448)">
<path d="M17.918 18.1654H7.91797C7.2288 18.1654 6.66797 17.6045 6.66797 16.9154V11.082C6.66797 10.3929 7.2288 9.83203 7.91797 9.83203H17.918C18.6071 9.83203 19.168 10.3929 19.168 11.082V16.9154C19.168 17.6045 18.6071 18.1654 17.918 18.1654ZM7.91797 10.6654C7.68797 10.6654 7.5013 10.8529 7.5013 11.082V16.9154C7.5013 17.1445 7.68797 17.332 7.91797 17.332H17.918C18.148 17.332 18.3346 17.1445 18.3346 16.9154V11.082C18.3346 10.8529 18.148 10.6654 17.918 10.6654H7.91797Z" fill="#C29340"/>
<path d="M12.9167 15.6654C11.9975 15.6654 11.25 14.9179 11.25 13.9987C11.25 13.0795 11.9975 12.332 12.9167 12.332C13.8358 12.332 14.5833 13.0795 14.5833 13.9987C14.5833 14.9179 13.8358 15.6654 12.9167 15.6654ZM12.9167 13.1654C12.4575 13.1654 12.0833 13.5387 12.0833 13.9987C12.0833 14.4587 12.4575 14.832 12.9167 14.832C13.3758 14.832 13.75 14.4587 13.75 13.9987C13.75 13.5387 13.3758 13.1654 12.9167 13.1654Z" fill="#C29340"/>
<path d="M2.91666 26.3333H0.416666C0.186666 26.3333 0 26.1467 0 25.9167V18.4167C0 18.1867 0.186666 18 0.416666 18C3.25083 18 4.74833 18.955 4.81083 18.9958C4.95999 19.0933 5.03083 19.275 4.98749 19.4475L3.32083 26.0192C3.27333 26.2042 3.1075 26.3333 2.91666 26.3333ZM0.833332 25.5H2.5925L4.09999 19.5583C3.63083 19.3342 2.52583 18.9033 0.833332 18.8408V25.5Z" fill="#C29340"/>
<path d="M10.8329 27.9987C8.86623 27.9987 5.06373 26.3454 2.97123 25.3587C2.7629 25.2612 2.67457 25.012 2.77207 24.8045C2.86957 24.5954 3.11873 24.5079 3.32707 24.6054C4.9604 25.3754 8.9604 27.1654 10.8329 27.1654C12.8596 27.1654 17.6371 24.7845 19.0112 24.077C18.7946 23.7937 18.3471 23.4154 17.4996 23.4154C16.7304 23.4154 15.7554 23.7229 14.8121 24.0212C13.8096 24.337 12.7721 24.6654 11.8746 24.6654C10.1546 24.6654 7.8704 23.842 7.77373 23.807C7.5579 23.7287 7.44623 23.4895 7.52457 23.2729C7.6029 23.057 7.84123 22.9445 8.05873 23.0237C8.0804 23.032 10.3021 23.832 11.8746 23.832C12.6437 23.832 13.6187 23.5245 14.5621 23.2262C15.5646 22.9104 16.6021 22.582 17.4996 22.582C19.4437 22.582 19.9571 24.0545 19.9779 24.117C20.0421 24.3095 19.9587 24.5204 19.7787 24.617C19.5196 24.7537 13.4071 27.9987 10.8329 27.9987Z" fill="#C29340"/>
<path d="M13.7499 24.3262C13.5199 24.3262 13.3332 24.1395 13.3332 23.9095V23.4929C13.3332 22.9112 12.9416 22.4129 12.3799 22.2829L4.33492 20.3404C4.11075 20.2862 3.97325 20.0612 4.02742 19.837C4.08075 19.612 4.30992 19.4812 4.52992 19.5295L12.5716 21.4712C13.5099 21.6904 14.1666 22.522 14.1666 23.4929V23.9095C14.1666 24.1395 13.9799 24.3262 13.7499 24.3262Z" fill="#C29340"/>
<path d="M25.0833 1.66667H27.5833C27.8133 1.66667 28 1.85333 28 2.08333V9.58333C28 9.81333 27.8133 10 27.5833 10C24.7492 10 23.2517 9.045 23.1892 9.00417C23.04 8.90667 22.9692 8.725 23.0125 8.5525L24.6792 1.98083C24.7267 1.79583 24.8925 1.66667 25.0833 1.66667ZM27.1667 2.5H25.4075L23.9 8.44167C24.3692 8.66583 25.4742 9.09667 27.1667 9.15917V2.5Z" fill="#C29340"/>
<path d="M17.1671 0.00128746C19.1338 0.00128746 22.9363 1.65462 25.0288 2.64129C25.2371 2.73879 25.3254 2.98796 25.2279 3.19546C25.1304 3.40463 24.8813 3.49213 24.6729 3.39463C23.0396 2.62463 19.0396 0.834623 17.1671 0.834623C15.1404 0.834623 10.3629 3.21546 8.98877 3.92296C9.20544 4.2063 9.65294 4.58463 10.5004 4.58463C11.2696 4.58463 12.2446 4.27713 13.1879 3.9788C14.1904 3.66296 15.2279 3.33463 16.1254 3.33463C17.8454 3.33463 20.1296 4.15797 20.2263 4.19297C20.4421 4.2713 20.5538 4.51047 20.4754 4.72713C20.3971 4.94297 20.1588 5.05547 19.9413 4.9763C19.9196 4.96797 17.6979 4.16797 16.1254 4.16797C15.3563 4.16797 14.3813 4.47547 13.4379 4.7738C12.4354 5.08963 11.3979 5.41797 10.5004 5.41797C8.55627 5.41797 8.04294 3.94547 8.0221 3.88297C7.95794 3.69046 8.04127 3.47963 8.22127 3.38296C8.48044 3.2463 14.5929 0.00128746 17.1671 0.00128746Z" fill="#C29340"/>
<path d="M14.2501 3.67379C14.4801 3.67379 14.6668 3.86046 14.6668 4.09046V4.50712C14.6668 5.08879 15.0584 5.58713 15.6201 5.71713L23.6651 7.65963C23.8892 7.7138 24.0267 7.9388 23.9726 8.16297C23.9192 8.38797 23.6901 8.5188 23.4701 8.47047L15.4284 6.5288C14.4901 6.30963 13.8334 5.47796 13.8334 4.50712V4.09046C13.8334 3.86046 14.0201 3.67379 14.2501 3.67379Z" fill="#C29340"/>
</g>
</g>
<defs>
<clipPath id="clip0_647_14448">
<rect width="28" height="28" fill="white"/>
</clipPath>
<clipPath id="clip1_647_14448">
<rect width="28" height="28" fill="white"/>
</clipPath>
</defs>
</svg>
