<?xml version="1.0" standalone="no"?>
<!DOCTYPE svg PUBLIC "-//W3C//DTD SVG 20010904//EN"
 "http://www.w3.org/TR/2001/REC-SVG-20010904/DTD/svg10.dtd">
<svg version="1.0" xmlns="http://www.w3.org/2000/svg"
 width="33" height="33" viewBox="0 0 512.000000 512.000000"
 preserveAspectRatio="xMidYMid meet">

<g transform="translate(0.000000,512.000000) scale(0.100000,-0.100000)"
fill="#C29340" stroke="none">
<path d="M315 4967 c-148 -50 -262 -168 -300 -312 -13 -51 -15 -170 -15 -853
0 -498 4 -800 10 -812 19 -36 63 -40 405 -40 l332 0 23 -62 c45 -125 128 -237
234 -315 86 -63 142 -56 161 20 7 25 2 33 -41 70 -140 121 -208 222 -233 345
-7 35 -11 284 -11 742 l0 690 934 0 c577 0 973 -4 1037 -10 119 -12 252 -41
354 -77 39 -14 412 -192 830 -396 738 -361 762 -374 821 -432 82 -81 108 -146
109 -270 0 -80 -4 -97 -31 -155 -56 -117 -164 -200 -287 -220 -114 -18 -142
-8 -652 237 -258 125 -599 288 -757 364 l-288 139 -279 -46 -279 -45 -284 90
c-344 109 -332 107 -368 69 -26 -29 -26 -69 3 -96 14 -13 188 -74 506 -176
528 -169 525 -168 593 -267 153 -224 30 -520 -236 -570 -32 -6 -77 -7 -100 -4
-22 4 -174 49 -337 101 -163 52 -305 94 -316 94 -11 0 -48 -23 -83 -50 -109
-88 -204 -126 -348 -137 -88 -6 -107 -16 -118 -60 -8 -32 22 -74 62 -85 35
-10 138 -1 217 18 83 21 159 57 233 109 l64 46 264 -85 c146 -47 293 -90 328
-96 153 -28 320 29 438 149 200 204 200 508 1 723 -37 40 -75 69 -123 92 -79
38 -80 37 62 56 l85 12 726 -350 c399 -193 752 -358 785 -368 171 -51 383 6
514 136 205 204 212 531 17 738 -87 92 16 38 -1357 709 -368 180 -515 229
-765 253 -67 6 -474 10 -1046 10 l-936 0 -6 40 c-16 119 -119 251 -242 310
-63 31 -80 34 -170 37 -63 2 -115 -2 -140 -10z m254 -168 c41 -21 73 -46 96
-77 67 -86 65 -67 63 -882 l-3 -735 -288 -3 -287 -2 2 762 3 763 22 41 c36 67
70 101 135 133 87 44 170 44 257 0z"/>
<path d="M3209 3061 c-24 -19 -24 -21 -27 -255 l-3 -236 25 -25 c32 -32 75
-33 104 -2 21 23 22 31 22 259 l0 237 -26 20 c-33 26 -65 27 -95 2z"/>
<path d="M3630 2790 c-19 -19 -20 -33 -20 -259 l0 -240 26 -20 c30 -24 43 -26
77 -10 42 19 47 46 47 278 0 206 -1 220 -21 245 -26 33 -79 36 -109 6z"/>
<path d="M1845 2395 c-24 -23 -25 -29 -25 -153 0 -115 2 -130 20 -150 30 -32
82 -30 109 4 19 24 21 40 21 151 0 118 -1 125 -25 148 -13 14 -36 25 -50 25
-14 0 -37 -11 -50 -25z"/>
<path d="M2780 2335 c-8 -2 -49 -9 -90 -15 -462 -74 -871 -421 -1034 -878 -20
-57 -66 -248 -66 -276 0 -3 -51 -6 -113 -6 -69 0 -136 -6 -172 -15 -319 -84
-477 -436 -328 -734 34 -69 140 -177 209 -213 113 -61 37 -58 1575 -58 1326 0
1407 1 1422 18 49 55 16 120 -66 129 -26 3 -46 8 -45 12 2 3 25 48 51 100 83
160 126 320 142 524 l8 89 121 -4 c96 -4 131 -9 169 -26 66 -30 151 -113 184
-181 24 -49 27 -68 28 -151 0 -83 -4 -102 -27 -152 -52 -112 -161 -190 -289
-208 -73 -10 -99 -31 -99 -77 0 -49 29 -73 88 -73 111 0 236 56 328 145 203
199 205 523 3 724 -108 108 -223 151 -406 151 -109 0 -113 1 -117 22 -30 146
-43 195 -68 268 -155 438 -525 761 -993 865 -64 14 -376 30 -415 20z m340
-160 c256 -42 477 -160 666 -356 160 -167 259 -357 309 -594 21 -100 24 -321
6 -425 -27 -155 -96 -328 -181 -457 l-35 -53 -139 0 -139 0 45 47 c175 188
271 462 254 724 -27 416 -307 764 -711 885 -121 36 -330 45 -454 20 -190 -39
-355 -123 -488 -249 -100 -95 -157 -173 -214 -292 -75 -158 -94 -240 -94 -425
0 -182 18 -266 90 -417 51 -108 91 -169 158 -241 l50 -52 -141 0 -140 0 -40
63 c-268 424 -251 956 42 1351 268 363 711 543 1156 471z m0 -365 c316 -75
563 -336 624 -659 58 -306 -69 -633 -318 -818 l-58 -43 -445 0 -445 0 -48 35
c-207 152 -340 416 -340 675 0 382 264 718 638 810 108 26 280 26 392 0z
m-1536 -897 c14 -187 63 -365 146 -527 l50 -97 -223 3 -223 3 -66 33 c-149 73
-228 246 -188 411 26 110 132 222 241 256 25 8 90 14 150 14 l106 1 7 -97z"/>
<path d="M2462 1609 c-65 -32 -99 -66 -135 -133 -17 -33 -22 -58 -22 -126 0
-73 4 -92 27 -136 90 -171 320 -212 456 -81 59 56 85 111 90 192 6 102 -16
164 -82 230 -91 91 -219 112 -334 54z m205 -139 c83 -50 84 -190 1 -244 -66
-42 -165 -16 -201 54 -34 66 -10 154 53 194 35 22 108 20 147 -4z"/>
<path d="M3153 1590 c-12 -5 -29 -19 -37 -32 -30 -47 -506 -1045 -506 -1062 0
-29 18 -53 49 -66 65 -27 62 -31 338 540 161 335 253 536 253 556 0 48 -51 82
-97 64z"/>
<path d="M3133 915 c-183 -92 -223 -333 -80 -473 149 -146 384 -102 471 87 15
34 21 66 21 121 0 90 -24 149 -82 207 -57 57 -105 77 -198 81 -70 3 -86 0
-132 -23z m208 -152 c86 -73 74 -195 -25 -243 -60 -29 -108 -20 -158 30 -37
37 -44 59 -39 119 10 104 143 160 222 94z"/>
</g>
</svg>
