<svg width="338" height="307" viewBox="0 0 338 307" fill="none" xmlns="http://www.w3.org/2000/svg">
<path d="M22.9336 86.9838V271.271H315.067V86.9838C315.067 77.9704 307.759 70.6641 298.745 70.6641H39.256C30.2415 70.6641 22.9336 77.9704 22.9336 86.9838Z" fill="#C29340"/>
<path d="M42.0098 271.272V109.314C42.0098 103.305 46.8817 98.4336 52.8911 98.4336H285.11C291.12 98.4336 295.992 103.305 295.992 109.314V271.272H42.0098Z" fill="#EDD5AB"/>
<path d="M0 289.684V276.711C0 273.707 2.43598 271.271 5.44036 271.271H332.56C335.565 271.271 338 273.707 338 276.711V289.684C338 298.698 330.693 306.004 321.678 306.004H16.3217C7.30728 306.004 0 298.697 0 289.684Z" fill="#EADDC7"/>
<path d="M244.326 33.4659C243.021 33.4659 241.716 32.9676 240.719 31.9722C238.728 29.9801 238.728 26.7516 240.719 24.7589L250.816 14.663C252.809 12.6722 256.038 12.6722 258.031 14.663C260.022 16.6551 260.022 19.8836 258.031 21.8763L247.934 31.9722C246.937 32.9682 245.631 33.4659 244.326 33.4659Z" fill="#C29340"/>
<path d="M226.67 25.9779C223.852 25.9779 221.569 23.6947 221.569 20.8782V5.09974C221.569 2.28254 223.853 0 226.67 0C229.487 0 231.77 2.2832 231.77 5.09974V20.8775C231.77 23.6947 229.487 25.9779 226.67 25.9779Z" fill="#C29340"/>
<path d="M267.598 51.1233H251.818C249.001 51.1233 246.718 48.8401 246.718 46.0236C246.718 43.2064 249.001 40.9238 251.818 40.9238H267.598C270.415 40.9238 272.698 43.207 272.698 46.0236C272.698 48.8401 270.415 51.1233 267.598 51.1233Z" fill="#C29340"/>
<path d="M131.478 222.099C122.517 222.099 114.166 217.278 109.686 209.518L72.1637 144.537C67.6838 136.776 67.6838 127.137 72.163 119.378L109.686 54.3942C114.165 46.635 122.515 41.8145 131.478 41.8145H206.522C215.485 41.8145 223.836 46.6356 228.315 54.3968L265.837 119.377C270.317 127.137 270.317 136.776 265.837 144.535L228.314 209.519C223.834 217.279 215.484 222.099 206.522 222.099H131.478Z" fill="#F5F5F5"/>
<path d="M252.879 126.863L215.357 61.881C213.535 58.7252 210.166 56.7812 206.522 56.7812H131.478C127.833 56.7812 124.465 58.7252 122.643 61.881L85.1214 126.863C83.2994 130.019 83.2994 133.908 85.1214 137.064L122.643 202.046C124.465 205.202 127.834 207.146 131.478 207.146H206.522C210.167 207.146 213.535 205.202 215.357 202.046L252.879 137.064C254.701 133.907 254.701 130.019 252.879 126.863Z" fill="#C29340"/>
<path d="M145.084 132.637H143.157V128.897C143.157 126.08 140.873 123.797 138.056 123.797C135.239 123.797 132.956 126.08 132.956 128.897V132.637H126.286L135.791 113.235C137.03 110.705 135.985 107.65 133.455 106.411C130.923 105.169 127.869 106.218 126.63 108.747L113.527 135.493C112.752 137.074 112.848 138.942 113.779 140.436C114.711 141.93 116.346 142.837 118.107 142.837H132.955V152.924C132.955 155.742 135.239 158.025 138.056 158.025C140.873 158.025 143.156 155.742 143.156 152.924V142.837H145.083C147.901 142.837 150.183 140.555 150.183 137.737C150.184 134.92 147.901 132.637 145.084 132.637Z" fill="#EBEEF2"/>
<path d="M219.894 132.637H217.967V128.897C217.967 126.08 215.684 123.797 212.867 123.797C210.049 123.797 207.766 126.08 207.766 128.897V132.637H201.096L210.602 113.235C211.841 110.705 210.795 107.65 208.266 106.411C205.733 105.169 202.679 106.218 201.441 108.747L188.337 135.493C187.563 137.074 187.659 138.942 188.59 140.436C189.521 141.93 191.157 142.837 192.918 142.837H207.766V152.924C207.766 155.742 210.049 158.025 212.866 158.025C215.684 158.025 217.967 155.742 217.967 152.924V142.837H219.893C222.71 142.837 224.993 140.555 224.993 137.737C224.994 134.92 222.71 132.637 219.894 132.637Z" fill="#EBEEF2"/>
<path d="M169 108.279C160.189 108.279 153.021 115.446 153.021 124.255V139.65C153.021 148.459 160.189 155.626 169 155.626C177.81 155.626 184.978 148.459 184.978 139.65V124.255C184.978 115.446 177.81 108.279 169 108.279ZM174.777 139.651C174.777 142.836 172.185 145.426 169 145.426C165.815 145.426 163.223 142.835 163.223 139.651V124.256C163.223 121.071 165.815 118.48 169 118.48C172.185 118.48 174.777 121.072 174.777 124.256V139.651Z" fill="#EBEEF2"/>
<path d="M181.322 222.105H156.68V271.274H181.322V222.105Z" fill="#C29340"/>
</svg>
