<svg width="248" height="269" viewBox="0 0 248 269" fill="none" xmlns="http://www.w3.org/2000/svg">
<g clip-path="url(#clip0_1604_151018)">
<path d="M91.9136 213.824L83.0711 93.1314C82.7508 88.7594 86.0354 84.9562 90.4075 84.6367L173.099 78.5935C177.471 78.274 181.275 81.5592 181.595 85.9312L190.438 206.624C190.758 210.996 187.473 214.799 183.101 215.119L100.41 221.162C96.0378 221.481 92.2339 218.196 91.9136 213.824Z" stroke="#EDD5AB" stroke-width="0.83551"/>
<path d="M195.439 199.294C196.363 203.579 193.639 207.802 189.354 208.726L108.154 226.245C103.869 227.17 99.6458 224.445 98.7213 220.16L73.852 104.891L85.196 91.1028L160.473 74.8618C164.758 73.9373 168.981 76.6616 169.905 80.9467L195.439 199.294Z" fill="white" stroke="#EDD5AB" stroke-width="0.83551"/>
<path d="M73.5883 104.769L85.0878 105.764L84.9672 90.7249L73.5883 104.769Z" fill="#EDD5AB"/>
<path d="M165.426 96.2771L83.5897 113.933C83.5186 113.949 83.4734 114.019 83.4887 114.09C83.5041 114.161 83.5741 114.206 83.6453 114.191L165.481 96.5346C165.552 96.5193 165.597 96.4492 165.582 96.3781C165.567 96.307 165.497 96.2617 165.426 96.2771Z" fill="#EDD5AB" stroke="#EDD5AB" stroke-width="0.83551"/>
<path d="M167.76 107.09L85.9237 124.746C85.8526 124.761 85.8074 124.831 85.8227 124.902C85.838 124.973 85.9081 125.019 85.9792 125.003L167.815 107.347C167.886 107.332 167.931 107.262 167.916 107.191C167.901 107.119 167.831 107.074 167.76 107.09Z" fill="#EDD5AB" stroke="#EDD5AB" stroke-width="0.83551"/>
<path d="M170.094 117.91L88.2577 135.566C88.1866 135.581 88.1413 135.651 88.1567 135.723C88.172 135.794 88.2421 135.839 88.3132 135.823L170.149 118.167C170.22 118.152 170.265 118.082 170.25 118.011C170.235 117.94 170.165 117.895 170.094 117.91Z" fill="#EDD5AB" stroke="#EDD5AB" stroke-width="0.83551"/>
<path d="M172.371 128.465L90.535 146.121C90.4639 146.136 90.4187 146.206 90.434 146.277C90.4494 146.348 90.5195 146.394 90.5906 146.378L172.426 128.722C172.498 128.707 172.543 128.637 172.527 128.566C172.512 128.494 172.442 128.449 172.371 128.465Z" fill="#EDD5AB" stroke="#EDD5AB" stroke-width="0.83551"/>
<path d="M174.705 139.277L92.869 156.933C92.7979 156.949 92.7527 157.019 92.768 157.09C92.7834 157.161 92.8534 157.206 92.9246 157.191L174.76 139.535C174.832 139.519 174.877 139.449 174.861 139.378C174.846 139.307 174.776 139.262 174.705 139.277Z" fill="#EDD5AB" stroke="#EDD5AB" stroke-width="0.83551"/>
<path d="M176.926 149.582L95.0897 167.238C95.0186 167.253 94.9734 167.323 94.9887 167.394C95.0041 167.465 95.0741 167.511 95.1453 167.495L176.981 149.839C177.052 149.824 177.097 149.754 177.082 149.683C177.067 149.612 176.997 149.566 176.926 149.582Z" fill="#EDD5AB" stroke="#EDD5AB" stroke-width="0.83551"/>
<path d="M138.975 169.032L97.285 178.027C97.2139 178.042 97.1687 178.112 97.184 178.183C97.1994 178.255 97.2695 178.3 97.3406 178.284L139.03 169.29C139.102 169.274 139.147 169.204 139.131 169.133C139.116 169.062 139.046 169.017 138.975 169.032Z" fill="#EDD5AB" stroke="#EDD5AB" stroke-width="0.83551"/>
<path d="M126.454 129.217L125.584 131.336L188.203 157.097L189.073 154.978L126.454 129.217Z" fill="#C29340"/>
<path d="M127.333 127.123L126.463 129.242L189.082 155.003L189.952 152.884L127.333 127.123Z" fill="#C29340"/>
<path d="M128.185 124.99L127.314 127.109L189.931 152.879L190.801 150.76L128.185 124.99Z" fill="#C29340"/>
<path d="M128.02 125.127L125.55 131.128L116.41 123.861L128.02 125.127Z" fill="#C29340" stroke="#C29340" stroke-width="0.219217"/>
<path d="M190.804 150.737L188.203 157.07L191.028 158.233L193.629 151.899L190.804 150.737Z" fill="#C29340"/>
<path d="M193.63 151.909L191.029 158.242L195.73 160.176L198.331 153.842L193.63 151.909Z" fill="#C29340"/>
<path d="M115.893 123.641L118.352 125.606L119.029 123.985L115.893 123.641Z" fill="#C29340"/>
<path d="M93.8536 108.07L61.9492 137.438L64.3925 140.094L96.2969 110.727L93.8536 108.07Z" fill="#EDD5AB"/>
<path d="M66.2421 99.3763C68.9831 102.352 68.7743 106.96 65.8247 109.689C62.8517 112.429 58.245 112.218 55.5162 109.265C52.7752 106.29 52.984 101.682 55.9336 98.9532C58.8831 96.2248 63.5012 96.4007 66.2421 99.3763Z" fill="#C29340"/>
<path d="M58.4463 111.289C58.4463 111.289 70.9024 117.509 67.9767 126.74L76.4979 125.238L77.7685 121.891L62.5741 105.379L58.4463 111.289Z" fill="#C29340"/>
<path d="M67.9837 102.541C67.9837 102.541 73.1533 115.494 82.5739 113.322L80.3805 121.674L76.9173 122.652L61.7228 106.141L67.9837 102.541Z" fill="#C29340"/>
<path d="M92.1762 106.26C91.3183 105.339 89.8927 105.271 88.9717 106.129L60.4073 132.401C59.4864 133.259 59.4195 134.685 60.2774 135.607L62.9709 138.548L94.8576 109.178L92.1762 106.26Z" fill="#C29340"/>
</g>
<defs>
<clipPath id="clip0_1604_151018">
<rect width="167.701" height="215.531" fill="white" transform="translate(0 76.5938) rotate(-27.1749)"/>
</clipPath>
</defs>
</svg>
