<svg width="32" height="32" viewBox="0 0 32 32" fill="none" xmlns="http://www.w3.org/2000/svg">
<rect x="0.567901" y="0.567901" width="30.8642" height="30.8642" rx="3.97531" fill="white"/>
<path d="M23.9423 8.06239C23.7241 7.84329 23.4648 7.66943 23.1793 7.5508C22.8938 7.43216 22.5876 7.37109 22.2784 7.37109C21.9692 7.37109 21.6631 7.43216 21.3776 7.5508C21.092 7.66943 20.8328 7.84329 20.6146 8.06239L12.1681 16.5305C12.1004 16.5994 12.0579 16.6891 12.0472 16.7851L11.6847 19.8366C11.677 19.9008 11.6839 19.966 11.7048 20.0273C11.7257 20.0886 11.7601 20.1443 11.8055 20.1905C11.846 20.2318 11.8944 20.2645 11.9478 20.2868C12.0012 20.309 12.0585 20.3203 12.1163 20.32H12.1638L15.2411 20.0006C15.3392 19.9897 15.4306 19.9455 15.5001 19.8754L23.9423 11.403C24.3835 10.9591 24.6311 10.3586 24.6311 9.7327C24.6311 9.10681 24.3835 8.50633 23.9423 8.06239ZM14.9994 19.1503L12.6083 19.405L12.8846 17.0355L19.5572 10.3456L21.6677 12.4604L14.9994 19.1503ZM22.2763 11.8519L20.1657 9.7327L21.2232 8.66664C21.5071 8.39289 21.8862 8.23993 22.2806 8.23993C22.675 8.23993 23.0541 8.39289 23.338 8.66664C23.6179 8.94738 23.7751 9.32764 23.7751 9.72407C23.7751 10.1205 23.6179 10.5008 23.338 10.7815L22.2763 11.8519Z" fill="#C5A265"/>
<path d="M22.0427 21.6122C22.0427 22.1846 21.8154 22.7335 21.4107 23.1382C21.0059 23.5429 20.457 23.7703 19.8847 23.7703H10.3894C9.81705 23.7703 9.26815 23.5429 8.86344 23.1382C8.45874 22.7335 8.23137 22.1846 8.23137 21.6122V12.1169C8.23137 11.5446 8.45874 10.9957 8.86344 10.591C9.26815 10.1863 9.81705 9.95891 10.3894 9.95891H16.8635V9.0957H10.3894C9.58812 9.0957 8.81965 9.41401 8.25306 9.9806C7.68647 10.5472 7.36816 11.3157 7.36816 12.1169V21.6122C7.36816 22.4135 7.68647 23.182 8.25306 23.7486C8.81965 24.3152 9.58812 24.6335 10.3894 24.6335H19.8847C20.686 24.6335 21.4544 24.3152 22.021 23.7486C22.5876 23.182 22.9059 22.4135 22.9059 21.6122V15.1382H22.0427V21.6122Z" fill="#C5A265"/>
<rect x="0.567901" y="0.567901" width="30.8642" height="30.8642" rx="3.97531" stroke="#C5A265" stroke-width="1.1358"/>
</svg>
