<svg width="29" height="29" viewBox="0 0 29 29" fill="none" xmlns="http://www.w3.org/2000/svg">
<path d="M25.2159 15.4253C24.9407 15.2699 24.5833 15.2462 24.2905 15.3597L24.2904 15.3598C24.0445 15.4557 23.8562 15.6427 23.777 15.8802C23.533 16.5924 23.2972 17.0413 23.0872 17.3203C22.8774 17.5992 22.6955 17.7056 22.5591 17.7391C22.0447 17.8648 21.5672 18.2114 21.2186 18.6539C20.8701 19.0965 20.6468 19.6397 20.6468 20.1632V20.2714C20.6468 20.2794 20.6468 20.2875 20.6468 20.2957C20.6469 20.7565 20.647 21.4332 20.3538 22.2078L20.3537 22.2079C20.2926 22.3709 20.3804 22.559 20.5425 22.6198L20.5425 22.6198L25.1916 15.469M25.2159 15.4253C25.216 15.4254 25.2161 15.4254 25.2162 15.4255L25.1916 15.469M25.2159 15.4253C25.2159 15.4253 25.2158 15.4252 25.2157 15.4252L25.1916 15.469M25.2159 15.4253C25.6278 15.6523 25.843 16.1124 25.7534 16.5724M25.1916 15.469C25.5847 15.6855 25.7897 16.1241 25.7043 16.5628M25.7534 16.5724C25.7534 16.5723 25.7534 16.5723 25.7534 16.5722L25.7043 16.5628M25.7534 16.5724L25.7043 16.5628M25.7534 16.5724L25.7043 16.5628M23.8795 20.2241C23.8795 20.2241 23.8795 20.2241 23.8795 20.2241L23.8414 20.1917L23.8795 20.2241ZM25.1254 16.4509C25.1254 16.4509 25.1254 16.4509 25.1254 16.451L25.1745 16.4603L25.1254 16.4508C25.1254 16.4508 25.1254 16.4508 25.1254 16.4509ZM24.5207 15.9598C24.5207 15.9598 24.5208 15.9598 24.5208 15.9598L24.5023 15.9134L24.5205 15.9599C24.5205 15.9599 24.5206 15.9599 24.5207 15.9598ZM22.7139 18.3603C22.7139 18.3603 22.714 18.3603 22.714 18.3603L22.7021 18.3117L22.7138 18.3603C22.7138 18.3603 22.7138 18.3603 22.7139 18.3603ZM21.2937 20.2597C21.2937 20.2596 21.2937 20.2595 21.2937 20.2594L21.2437 20.26H21.2937V20.2597Z" fill="#C29340" stroke="#C29340" stroke-width="0.1"/>
<path d="M23.1196 23.9695L23.1196 23.9693C22.9566 22.6942 23.818 21.6908 24.6751 21.297L24.685 21.2924H24.6872C24.6885 21.2919 24.6898 21.2914 24.6912 21.2908C24.6934 21.29 24.6964 21.289 24.7 21.2882C25.2192 21.0883 25.5341 20.8751 25.7546 20.6058C25.9767 20.3346 26.1068 20.0023 26.2491 19.5556L26.2491 19.5555C26.6281 18.3677 26.6114 17.674 26.5829 16.513C26.58 16.43 26.5786 16.3456 26.5772 16.2588L26.577 16.2503C26.5757 16.1661 26.5743 16.0795 26.5715 15.9889L26.5715 15.9882L26.5145 12.4277L26.5145 12.4269C26.5145 12.3467 26.4769 12.2681 26.4052 12.2015L26.405 12.2013C26.3254 12.1267 26.2087 12.0902 26.1008 12.0951C25.8806 12.1153 25.7543 12.3223 25.7543 12.5408V12.5415H25.7543L25.7087 16.0957C25.7087 16.0958 25.7087 16.0959 25.7087 16.096M23.1196 23.9695L25.1631 12.5351L25.1131 12.5345L25.1131 12.5345C25.1131 12.5346 25.1131 12.5346 25.1131 12.5346L25.0675 16.0893H25.0675V16.09C25.0675 16.2643 25.2082 16.4134 25.3853 16.4134C25.5595 16.4134 25.7085 16.2729 25.7087 16.096M23.1196 23.9695C23.14 24.1259 23.2812 24.2465 23.4368 24.2466L23.4465 24.2611L23.4769 24.2576C23.654 24.2372 23.7744 24.0743 23.7544 23.9003L23.7543 23.8995C23.6216 22.888 24.379 22.1474 24.9321 21.8898C25.5897 21.634 25.9991 21.3304 26.2805 20.9724C26.5614 20.6152 26.7117 20.2074 26.8571 19.7511L26.8095 19.7359L26.8571 19.7511C27.2699 18.4553 27.2526 17.6736 27.2241 16.4989L27.2241 16.4984C27.2184 16.3332 27.2127 16.163 27.2127 15.9817L27.2127 15.9809L27.1557 12.4204L27.1557 12.4201M23.1196 23.9695L27.1557 12.4201M25.7087 16.096L25.7087 16.0963L25.6587 16.0957L25.7087 16.096ZM26.5645 12.4269L26.6215 15.9874C26.6242 16.0783 26.6257 16.1652 26.627 16.2493C26.6285 16.3393 26.6299 16.4262 26.6329 16.5115C26.6614 17.6737 26.6785 18.3744 26.2968 19.5707C26.0119 20.4651 25.767 20.9323 24.713 21.3368C24.7102 21.3368 24.7073 21.3382 24.7045 21.3396C24.7016 21.341 24.6988 21.3424 24.696 21.3424L26.5645 12.4269ZM26.5645 12.4269C26.5645 12.33 26.5189 12.2389 26.4392 12.1648L26.5645 12.4269ZM27.1557 12.4201C27.1497 12.1554 27.0353 11.909 26.8375 11.7291L27.1557 12.4201Z" fill="#C29340" stroke="#C29340" stroke-width="0.1"/>
<path d="M22.603 27.1965L22.603 27.1966L22.6057 27.1979C22.6573 27.2238 22.7105 27.2374 22.7647 27.2374H22.7667C22.7883 27.2374 22.8164 27.2374 22.8452 27.2302C22.9259 27.21 23.0005 27.1564 23.0419 27.0809L24.5057 24.5405L24.5059 24.5402C24.5926 24.3869 24.547 24.1906 24.3904 24.1019C24.3903 24.1018 24.3902 24.1018 24.3902 24.1018L20.0505 21.5959C19.9742 21.5477 19.8858 21.5421 19.8073 21.5617C19.7267 21.5818 19.6521 21.6355 19.6107 21.711L18.1469 24.2514L18.1468 24.2513L18.1463 24.2524C18.1066 24.3251 18.0928 24.412 18.1132 24.4935C18.1333 24.5742 18.187 24.6488 18.2625 24.6902L22.603 27.1965ZM23.7902 24.4997L22.6439 26.4811L18.8567 24.2922L20.0029 22.3108L23.7902 24.4997Z" fill="#C29340" stroke="#C29340" stroke-width="0.1"/>
<path d="M6.94426 18.366L6.94436 18.366C7.31243 18.4539 7.66805 18.7122 7.93219 19.047C8.19634 19.3817 8.36437 19.787 8.36437 20.1632V20.2657C8.36437 20.2737 8.36437 20.2817 8.36437 20.2898C8.36427 20.7654 8.3641 21.5425 8.69793 22.4309C8.74516 22.5589 8.86652 22.64 8.99545 22.64C9.01411 22.64 9.03117 22.6386 9.04649 22.6372L9.04891 22.637C9.06522 22.6356 9.08042 22.6344 9.09799 22.6344H9.10672L9.11493 22.6314C9.28454 22.5703 9.36501 22.3811 9.30432 22.2193L9.30426 22.2191C9.01103 21.4446 9.01117 20.7679 9.01126 20.307C9.01127 20.2989 9.01127 20.2908 9.01127 20.2828V20.1746C9.01127 19.6482 8.78647 19.1049 8.43722 18.6631C8.08795 18.2213 7.61044 17.8761 7.09893 17.7504L7.09892 17.7504C6.96257 17.717 6.78067 17.6106 6.5708 17.3317C6.36079 17.0526 6.12503 16.6037 5.881 15.8914L5.881 15.8914L5.88089 15.8911C5.79599 15.6486 5.61388 15.4672 5.36764 15.3711L5.36764 15.3711L5.36723 15.371C5.06892 15.2576 4.7173 15.2812 4.44196 15.4368C4.0363 15.6635 3.81502 16.1233 3.90464 16.5836C4.15178 17.8711 5.05169 19.377 5.77845 20.2354L5.77851 20.2355C5.89378 20.3711 6.09634 20.3838 6.23068 20.2697C6.36629 20.1544 6.37906 19.9518 6.26488 19.8175C5.5902 19.0237 4.75836 17.6358 4.53266 16.4623C4.49674 16.2723 4.58402 16.0833 4.75245 15.9914C4.86498 15.93 5.02036 15.9198 5.13738 15.9655C5.21363 15.9961 5.25622 16.0381 5.27319 16.0933L5.27317 16.0933L5.27367 16.0947C5.50521 16.7722 5.75641 17.2987 6.03187 17.6761C6.30742 18.0536 6.60988 18.2854 6.94426 18.366Z" fill="#C29340" stroke="#C29340" stroke-width="0.1"/>
<path d="M6.17544 24.2466L6.17548 24.2462C5.99838 24.2258 5.8779 24.0629 5.89797 23.8889L5.89803 23.8884C6.02518 22.8823 5.26755 22.136 4.72019 21.8784C4.06267 21.6226 3.65329 21.3205 3.37184 20.9632C3.09093 20.6066 2.94063 20.1988 2.79519 19.7396L2.79518 19.7396C2.39004 18.4557 2.40531 17.6697 2.42795 16.5044L2.42827 16.4878L2.42828 16.487H2.42829C2.43112 16.4049 2.43254 16.3213 2.43396 16.2351L2.43407 16.2285C2.43546 16.1446 2.43688 16.0583 2.43967 15.9691C2.43967 15.969 2.43967 15.9689 2.43968 15.9688L2.49663 12.409L2.49663 12.4087L2.49663 12.4087C2.50265 12.1442 2.61121 11.9034 2.81487 11.7177L2.81533 11.7173L2.81534 11.7173C3.0301 11.5264 3.31689 11.4245 3.60469 11.4485M6.17544 24.2466L4.48925 12.5237L4.53924 12.5232C4.53924 12.5232 4.53924 12.5232 4.53924 12.5231C4.53328 11.9482 4.14064 11.4907 3.60469 11.4485M6.17544 24.2466H6.18121M6.17544 24.2466H6.18121M3.60469 11.4485L3.60054 11.4983L3.60446 11.4484C3.60454 11.4485 3.60461 11.4485 3.60469 11.4485ZM6.18121 24.2466H6.18128H6.18134H6.18141H6.18148H6.18154H6.18161H6.18168H6.18174H6.18181H6.18188H6.18194H6.18201H6.18208H6.18214H6.18221H6.18228H6.18235H6.18241H6.18248H6.18255H6.18261H6.18268H6.18275H6.18281H6.18288H6.18295H6.18301H6.18308H6.18315H6.18321H6.18328H6.18335H6.18341H6.18348H6.18355H6.18361H6.18368H6.18375H6.18381H6.18388H6.18395H6.18401H6.18408H6.18415H6.18421H6.18428H6.18435H6.18441H6.18448H6.18455H6.18462H6.18468H6.18475H6.18482H6.18488H6.18495H6.18502H6.18508H6.18515H6.18522H6.18528H6.18535H6.18542H6.18548H6.18555H6.18562H6.18568H6.18575H6.18582H6.18588H6.18595H6.18602H6.18608H6.18615H6.18622H6.18628H6.18635H6.18642H6.18648H6.18655H6.18662H6.18668H6.18675H6.18682H6.18688H6.18695H6.18702H6.18709H6.18715H6.18722H6.18729H6.18735H6.18742H6.18749H6.18755H6.18762H6.18769H6.18775H6.18782H6.18789H6.18795H6.18802H6.18809H6.18815H6.18822H6.18829H6.18835H6.18842H6.18849H6.18855H6.18862H6.18869H6.18875H6.18882H6.18889H6.18895H6.18902H6.18909H6.18915H6.18922H6.18929H6.18936H6.18942H6.18949H6.18956H6.18962H6.18969H6.18976H6.18982H6.18989H6.18996H6.19002H6.19009H6.19016H6.19022H6.19029H6.19036H6.19042H6.19049H6.19056H6.19062H6.19069H6.19076H6.19082H6.19089H6.19096H6.19102H6.19109H6.19116H6.19122H6.19129H6.19136H6.19142H6.19149H6.19156H6.19162H6.19169H6.19176H6.19183H6.19189H6.19196H6.19203H6.19209H6.19216H6.19223H6.19229H6.19236H6.19243H6.19249H6.19256H6.19263H6.19269H6.19276H6.19283H6.19289H6.19296H6.19303H6.19309H6.19316H6.19323H6.19329H6.19336H6.19343H6.19349H6.19356H6.19363H6.19369H6.19376H6.19383H6.19389H6.19396H6.19403H6.19409H6.19416H6.19423H6.1943H6.19436H6.19443H6.1945H6.19456H6.19463H6.1947H6.19476H6.19483H6.1949H6.19496H6.19503H6.1951H6.19516H6.19523H6.1953H6.19536H6.19543H6.1955H6.19556H6.19563H6.1957H6.19576H6.19583H6.1959H6.19596H6.19603H6.1961H6.19616H6.19623H6.1963H6.19636H6.19643H6.1965H6.19657H6.19663H6.1967H6.19677H6.19683H6.1969H6.19697H6.19703H6.1971H6.19717H6.19723H6.1973H6.19737H6.19743H6.1975H6.19757H6.19763H6.1977H6.19777H6.19783H6.1979H6.19797H6.19803H6.1981H6.19817H6.19823H6.1983H6.19837H6.19843H6.1985H6.19857H6.19863H6.1987H6.19877H6.19883H6.1989H6.19897H6.19904H6.1991H6.19917H6.19924H6.1993H6.19937H6.19944H6.1995H6.19957H6.19964H6.1997H6.19977H6.19984H6.1999H6.19997H6.20004H6.2001H6.20017H6.20024H6.2003H6.20037H6.20044H6.2005H6.20057H6.20064H6.2007H6.20077H6.20084H6.2009H6.20097H6.20104H6.2011H6.20117H6.20124H6.2013H6.20137H6.20144H6.20151H6.20157H6.20164H6.20171H6.20177H6.20184H6.20191H6.20197H6.20204H6.20211H6.20217H6.20224H6.20231H6.20237H6.20244H6.20251H6.20257H6.20264H6.20271H6.20277H6.20284H6.20291H6.20297H6.20304H6.20311H6.20317H6.20324H6.20331H6.20337H6.20344H6.20351H6.20357H6.20364H6.20371H6.20378H6.20384H6.20391H6.20398H6.20404H6.20411H6.20418H6.20424H6.20431H6.20438H6.20444H6.20451H6.20458H6.20464H6.20471H6.20478H6.20484H6.20491H6.20498H6.20504H6.20511H6.20518H6.20524H6.20531H6.20538H6.20544H6.20551H6.20558H6.20564H6.20571H6.20578H6.20584H6.20591H6.20598H6.20604H6.20611H6.20618H6.20625H6.20631H6.20638H6.20645H6.20651H6.20658H6.20665H6.20671H6.20678H6.20685H6.20691H6.20698H6.20705H6.20711H6.20718H6.20725H6.20731H6.20738H6.20745H6.20751H6.20758H6.20765H6.20771H6.20778H6.20785H6.20791H6.20798H6.20805H6.20811H6.20818H6.20825H6.20831H6.20838H6.20845H6.20852H6.20858H6.20865H6.20872H6.20878H6.20885H6.20892H6.20898H6.20905H6.20912H6.20918H6.20925H6.20932H6.20938H6.20945H6.20952H6.20958H6.20965H6.20972H6.20978H6.20985H6.20992H6.20998H6.21005H6.21012H6.21018H6.21025H6.21032H6.21038H6.21045H6.21052H6.21058H6.21065H6.21072H6.21078H6.21085H6.21092H6.21099H6.21105H6.21112H6.21119H6.21125H6.21132H6.21139H6.21145H6.21152H6.21159H6.21165H6.21172H6.21179H6.21185H6.21192H6.21199H6.21205H6.21212H6.21219H6.21225H6.21232H6.21239H6.21245H6.21252H6.21259H6.21265H6.21272H6.21279H6.21285H6.21292H6.21299H6.21305H6.21312H6.21319H6.21326H6.21332H6.21339H6.21346H6.21352H6.21359H6.21366H6.21372H6.21379H6.21386H6.21392H6.21399H6.21406H6.21412H6.21419H6.21426H6.21432H6.21439H6.21446H6.21452H6.21459H6.21466H6.21472H6.21479H6.21486H6.21492H6.21499H6.21506H6.21512H6.21519H6.21526H6.21532H6.21539C6.37272 24.2466 6.51275 24.1241 6.53277 23.952C6.69563 22.6771 5.84011 21.6737 4.97715 21.2799L4.96726 21.2754M6.18121 24.2466L4.96726 21.2754M4.96726 21.2754H4.96509M4.96726 21.2754H4.96509M4.96509 21.2754C4.96387 21.2748 4.96253 21.2743 4.96112 21.2737C4.9589 21.2729 4.95593 21.2719 4.95235 21.2711C4.43309 21.0713 4.11824 20.858 3.89772 20.5887C3.67568 20.3175 3.54553 19.9853 3.40325 19.5386C3.03285 18.36 3.04644 17.6678 3.06891 16.5231L3.06943 16.4962C3.06943 16.496 3.06944 16.4959 3.06944 16.4958L4.96509 21.2754ZM3.94362 16.0846L3.94363 16.0849L3.99362 16.0843H3.94362C3.94362 16.0844 3.94362 16.0845 3.94362 16.0846ZM3.24663 12.1849C3.24681 12.1847 3.24699 12.1845 3.24718 12.1844L3.21315 12.1477L3.24608 12.1854C3.24626 12.1852 3.24645 12.185 3.24663 12.1849Z" fill="#C29340" stroke="#C29340" stroke-width="0.1"/>
<path d="M5.14607 24.5338L5.14605 24.5338L5.14664 24.5348L6.61045 27.0751C6.65103 27.1492 6.72341 27.2021 6.80217 27.2232C6.83383 27.2375 6.86463 27.2374 6.88512 27.2374L6.88762 27.2374C6.94585 27.2374 7.00156 27.2245 7.05133 27.1897L11.3903 24.6842L11.3908 24.684C11.5397 24.596 11.5931 24.4006 11.5057 24.246L11.5055 24.2456L10.0417 21.7053C10.0003 21.6298 9.92569 21.5761 9.84502 21.556C9.76348 21.5356 9.6766 21.5494 9.60386 21.5891L9.60386 21.5891L9.6028 21.5897L5.26181 24.0963L5.26178 24.0962L5.25996 24.0974C5.18846 24.1429 5.13369 24.2098 5.11297 24.2927C5.09259 24.3742 5.10639 24.4611 5.14607 24.5338ZM10.7957 24.2922L7.00842 26.481L5.86213 24.4996L9.64941 22.3052L10.7957 24.2922Z" fill="#C29340" stroke="#C29340" stroke-width="0.1"/>
<path d="M10.684 9.08585L10.684 9.08579C10.8757 8.44496 11.5304 8.01057 12.3281 8.01057H17.3242C18.1163 8.01057 18.7766 8.44504 18.9683 9.08579L18.9683 9.08585L20.8653 15.3979C20.9358 15.6338 20.9233 15.9356 20.8344 16.2568C20.7457 16.5774 20.582 16.9136 20.3548 17.2164L20.3547 17.2166C19.9771 17.7238 19.5173 18.0168 19.1244 18.0168H10.5336C10.1406 18.0168 9.67507 17.7236 9.29761 17.2166C9.07035 16.9108 8.90658 16.5745 8.81789 16.2546C8.72902 15.9341 8.7165 15.6338 8.78699 15.3979L10.684 9.08585ZM8.1671 15.221H8.1671L8.167 15.2214C7.96745 15.9022 8.20893 16.8355 8.77871 17.601C9.27435 18.2695 9.91426 18.658 10.5279 18.658H19.1244C19.7384 18.658 20.3726 18.2634 20.8679 17.5953C21.4375 16.8301 21.6851 15.8966 21.4795 15.2153L19.5825 8.90339C19.3074 7.97852 18.3963 7.36937 17.3242 7.36937H12.3281C11.2559 7.36937 10.3449 7.98434 10.0698 8.9033L8.1671 15.221Z" fill="#C29340" stroke="#C29340" stroke-width="0.1"/>
<path d="M17.0055 7.46652C17.0055 7.66954 17.1696 7.83359 17.3726 7.83359C17.9601 7.83359 18.4413 7.35246 18.4413 6.76491C18.4413 6.17736 17.9601 5.69623 17.3726 5.69623H12.3534C11.7658 5.69623 11.2847 6.17736 11.2847 6.76491C11.2847 7.35246 11.7658 7.83359 12.3534 7.83359C12.5564 7.83359 12.7205 7.66954 12.7205 7.46652C12.7205 7.2635 12.5564 7.09945 12.3534 7.09945C12.1719 7.09945 12.0256 6.95318 12.0256 6.77166C12.0256 6.59014 12.1719 6.44387 12.3534 6.44387H17.3726C17.5541 6.44387 17.7004 6.59014 17.7004 6.77166C17.7004 6.95318 17.5541 7.09945 17.3726 7.09945C17.1696 7.09945 17.0055 7.2635 17.0055 7.46652Z" fill="#C29340" stroke="#C29340" stroke-width="0.1"/>
<path fill-rule="evenodd" clip-rule="evenodd" d="M12.5536 6.36694C12.4356 6.36694 12.3177 6.29757 12.2622 6.18658L11.0483 3.77257C10.6737 3.03033 11.076 2.3852 11.6102 2.10079C12.1929 1.78864 12.8241 1.9135 13.1016 2.39908L13.712 3.46735L13.8091 2.14935C13.8508 1.55278 14.3988 1.12964 15.1271 1.12964C15.8624 1.12964 16.4035 1.54585 16.4521 2.14935L16.5492 3.46735L17.1596 2.39908C17.4371 1.9135 18.0683 1.78864 18.651 2.10079C19.1852 2.3852 19.5875 3.03033 19.2129 3.77257L17.999 6.18658C17.9157 6.34613 17.7215 6.4155 17.555 6.33225C17.3955 6.24901 17.3261 6.05478 17.4093 5.8883L18.6233 3.47428C18.8661 2.98871 18.4291 2.71817 18.3389 2.66961C18.1238 2.55169 17.8325 2.53088 17.7284 2.71817L17.0694 3.86968C16.9307 4.11247 16.6602 4.2304 16.3896 4.16797C16.1191 4.10553 15.9249 3.88356 15.904 3.60608L15.8 2.19097C15.7723 1.86494 15.356 1.7817 15.1341 1.7817C14.9121 1.7817 14.4959 1.86494 14.4681 2.19097L14.3641 3.60608C14.3433 3.88356 14.149 4.11247 13.8785 4.16797C13.608 4.2304 13.3305 4.11247 13.1987 3.86968L12.5397 2.71817C12.4356 2.53088 12.1443 2.55862 11.9293 2.66961C11.8391 2.71817 11.4021 2.98177 11.6448 3.47428L12.8588 5.8883C12.942 6.04784 12.8727 6.24901 12.7131 6.33225C12.6507 6.36 12.6021 6.36694 12.5536 6.36694Z" fill="#C29340"/>
<path d="M18.4054 13.0081V13.008C18.4054 11.0377 16.7993 9.43161 14.829 9.43161C12.8588 9.43161 11.2527 11.0377 11.2527 13.008C11.2527 14.9839 12.8588 16.5843 14.829 16.5843C16.7993 16.5843 18.3996 14.9838 18.4054 13.0081ZM11.8939 13.0137C11.8939 11.3949 13.2102 10.0785 14.829 10.0785C16.442 10.0785 17.7585 11.3948 17.7642 13.0137C17.7642 14.6325 16.4478 15.9488 14.829 15.9488C13.2102 15.9488 11.8939 14.6324 11.8939 13.0137Z" fill="#C29340" stroke="#C29340" stroke-width="0.1"/>
<path fill-rule="evenodd" clip-rule="evenodd" d="M14.0302 6.36376C13.9276 6.36376 13.8308 6.30679 13.7852 6.20995L13.3067 5.2187C13.244 5.08197 13.2953 4.92246 13.432 4.8598C13.5687 4.79713 13.7283 4.8541 13.7909 4.98513L14.2695 5.97638C14.3321 6.1131 14.2752 6.27261 14.1441 6.33528C14.1099 6.35807 14.0701 6.36376 14.0302 6.36376Z" fill="#C29340"/>
<path fill-rule="evenodd" clip-rule="evenodd" d="M16.2226 6.36473C16.1827 6.36473 16.1428 6.35904 16.1029 6.33625C15.9719 6.27358 15.9149 6.10837 15.9776 5.97735L16.4561 4.98609C16.5188 4.84937 16.684 4.7981 16.815 4.86076C16.9518 4.92343 17.003 5.08864 16.9404 5.21967L16.4618 6.21092C16.4219 6.30776 16.3251 6.36473 16.2226 6.36473Z" fill="#C29340"/>
<path fill-rule="evenodd" clip-rule="evenodd" d="M15.13 6.36024C14.9819 6.36024 14.8622 6.24061 14.8622 6.09249V4.86767C14.8622 4.71955 14.9819 4.59991 15.13 4.59991C15.2781 4.59991 15.3977 4.71955 15.3977 4.86767V6.09249C15.3977 6.24061 15.2781 6.36024 15.13 6.36024Z" fill="#C29340"/>
<path fill-rule="evenodd" clip-rule="evenodd" d="M17.9907 7.08402C17.8654 7.08402 17.7515 6.99287 17.7287 6.86185C17.7002 6.71373 17.797 6.577 17.9451 6.54852C18.304 6.48016 18.6516 6.36052 18.9763 6.18962C19.5858 5.87059 20.0815 5.38067 20.4176 4.78819C20.4916 4.66286 20.4461 4.50335 20.3207 4.42929C20.2581 4.39511 20.1897 4.38372 20.1213 4.40651C20.053 4.4236 19.996 4.46917 19.9618 4.53184C19.6713 5.03886 19.2497 5.45473 18.7313 5.72817C18.5376 5.83072 18.3325 5.91047 18.1217 5.97314C17.9793 6.01302 17.8312 5.92756 17.7913 5.78514C17.7515 5.64272 17.8369 5.4946 17.9793 5.45473C18.1502 5.40345 18.3211 5.34079 18.4806 5.25534C18.9079 5.02746 19.2554 4.69135 19.4947 4.26978C19.6029 4.08178 19.7738 3.95076 19.9789 3.89379C20.184 3.83682 20.4005 3.8653 20.5885 3.96785C20.9759 4.18433 21.1069 4.67426 20.8904 5.06164C20.503 5.74526 19.9276 6.30356 19.2326 6.67385C18.8623 6.87324 18.4636 7.00996 18.0477 7.08972C18.0249 7.08402 18.0078 7.08402 17.9907 7.08402Z" fill="#C29340"/>
<path fill-rule="evenodd" clip-rule="evenodd" d="M20.6695 8.41858C20.5271 8.41858 20.3903 8.3787 20.265 8.31034C19.8491 8.06537 19.3763 7.94574 18.8921 7.96283C18.6471 7.97422 18.385 8.03119 18.0888 8.13943C17.9521 8.1907 17.7926 8.12234 17.7413 7.97992C17.69 7.8432 17.7584 7.68369 17.9008 7.63241C18.2483 7.50139 18.5673 7.43302 18.875 7.42163C19.4617 7.39884 20.0371 7.54696 20.5384 7.8432C20.6011 7.87738 20.6695 7.88877 20.7378 7.87168C20.8062 7.85459 20.8632 7.80902 20.8973 7.75205C20.9315 7.68938 20.9429 7.62102 20.9258 7.55266C20.9087 7.4843 20.8632 7.42733 20.8062 7.39315C20.2479 7.06273 19.6042 6.89182 18.9547 6.89752C18.8066 6.89752 18.687 6.77789 18.687 6.62977C18.687 6.48165 18.8066 6.36202 18.9547 6.35632C19.701 6.35062 20.4359 6.55001 21.0796 6.926C21.2619 7.03424 21.393 7.21085 21.4499 7.41593C21.5012 7.62102 21.4727 7.8375 21.3645 8.0255C21.2562 8.2078 21.0796 8.33882 20.8746 8.39579C20.8062 8.40718 20.7378 8.41858 20.6695 8.41858Z" fill="#C29340"/>
<g clip-path="url(#clip0_2930_14590)">
<path d="M14.0762 11.8781L14.0762 11.8781C14.1324 11.878 14.1786 11.8971 14.2178 11.9363C14.257 11.9755 14.2762 12.0218 14.2762 12.0781L14.2762 12.0782C14.2763 12.1344 14.2572 12.1806 14.218 12.2198C14.1788 12.259 14.1325 12.2781 14.0762 12.2781L14.0761 12.2781C14.0199 12.2782 13.9737 12.2591 13.9345 12.2199C13.8953 12.1807 13.8762 12.1344 13.8762 12.0781L13.8762 12.0781C13.8761 12.0219 13.8952 11.9757 13.9344 11.9365C13.9735 11.8973 14.0198 11.8781 14.0762 11.8781ZM15.5762 13.3781L15.5762 13.3781C15.6324 13.378 15.6786 13.3971 15.7178 13.4363C15.757 13.4755 15.7762 13.5218 15.7762 13.5781V13.5782C15.7763 13.6344 15.7572 13.6806 15.718 13.7198C15.6788 13.759 15.6325 13.7781 15.5762 13.7781H15.5761C15.5199 13.7782 15.4737 13.7591 15.4345 13.7199C15.3953 13.6807 15.3762 13.6344 15.3762 13.5781L15.3762 13.5781C15.3761 13.5219 15.3952 13.4757 15.4344 13.4365C15.4735 13.3973 15.5198 13.3781 15.5762 13.3781ZM13.6283 12.526C13.7516 12.6493 13.9018 12.7115 14.0762 12.7115C14.2505 12.7115 14.4007 12.6493 14.524 12.526C14.6473 12.4027 14.7095 12.2525 14.7095 12.0781C14.7095 11.9038 14.6473 11.7535 14.524 11.6303C14.4007 11.507 14.2505 11.4448 14.0762 11.4448C13.9018 11.4448 13.7516 11.507 13.6283 11.6303C13.505 11.7535 13.4428 11.9038 13.4428 12.0781C13.4428 12.2525 13.505 12.4027 13.6283 12.526ZM15.1283 14.026C15.2516 14.1493 15.4018 14.2115 15.5762 14.2115C15.7505 14.2115 15.9007 14.1493 16.024 14.026C16.1473 13.9027 16.2095 13.7525 16.2095 13.5781C16.2095 13.4038 16.1473 13.2535 16.024 13.1303C15.9007 13.007 15.7505 12.9448 15.5762 12.9448C15.4018 12.9448 15.2516 13.007 15.1283 13.1303C15.005 13.2535 14.9428 13.4038 14.9428 13.5781C14.9428 13.7525 15.005 13.9027 15.1283 14.026ZM13.5741 14.0802C13.6581 14.1641 13.7942 14.1641 13.8782 14.0802L16.0782 11.8802C16.1621 11.7962 16.1621 11.6601 16.0782 11.5761C15.9942 11.4921 15.8581 11.4921 15.7741 11.5761L13.5741 13.7761C13.4902 13.8601 13.4902 13.9962 13.5741 14.0802Z" fill="#C29340" stroke="#C29340" stroke-width="0.1"/>
</g>
<defs>
<clipPath id="clip0_2930_14590">
<rect width="4" height="4" fill="white" transform="translate(12.8262 10.8281)"/>
</clipPath>
</defs>
</svg>
