<svg width="34" height="34" viewBox="0 0 34 34" fill="none" xmlns="http://www.w3.org/2000/svg">
<g clip-path="url(#clip0_1604_150538)">
<path d="M33.2917 34.0026H0.708333C0.317333 34.0026 0 33.6853 0 33.2943C0 32.9033 0.317333 32.5859 0.708333 32.5859H33.2917C33.6827 32.5859 34 32.9033 34 33.2943C34 33.6853 33.6827 34.0026 33.2917 34.0026Z" fill="#C29340"/>
<path d="M9.20768 34.0026H2.12435C1.73335 34.0026 1.41602 33.6853 1.41602 33.2943V25.5026C1.41602 24.722 2.0521 24.0859 2.83268 24.0859H8.49935C9.27993 24.0859 9.91601 24.722 9.91601 25.5026V33.2943C9.91601 33.6853 9.59868 34.0026 9.20768 34.0026ZM2.83268 32.5859H8.49935V25.5026H2.83268V32.5859Z" fill="#C29340"/>
<path d="M20.5417 34.0026H13.4583C13.0673 34.0026 12.75 33.6853 12.75 33.2943V17.0026C12.75 16.222 13.3861 15.5859 14.1667 15.5859H19.8333C20.6139 15.5859 21.25 16.222 21.25 17.0026V33.2943C21.25 33.6853 20.9327 34.0026 20.5417 34.0026ZM14.1667 32.5859H19.8333V17.0026H14.1667V32.5859Z" fill="#C29340"/>
<path d="M31.8757 34.0026H24.7923C24.4013 34.0026 24.084 33.6853 24.084 33.2943V8.5026C24.084 7.72202 24.7201 7.08594 25.5007 7.08594H31.1673C31.9479 7.08594 32.584 7.72202 32.584 8.5026V33.2943C32.584 33.6853 32.2667 34.0026 31.8757 34.0026ZM25.5007 32.5859H31.1673V8.5026H25.5007V32.5859Z" fill="#C29340"/>
<path d="M3.54072 15.5875C3.35939 15.5875 3.17805 15.5181 3.03922 15.3807C2.76297 15.1044 2.76297 14.6553 3.03922 14.3791L15.7892 1.62906C16.0655 1.35281 16.5146 1.35281 16.7908 1.62906C17.0671 1.90531 17.0671 2.3544 16.7908 2.63065L4.0408 15.3807C3.90339 15.5181 3.72205 15.5875 3.54072 15.5875Z" fill="#C29340"/>
<path d="M16.291 8.49739C15.9 8.49739 15.5827 8.18006 15.5827 7.78906V2.83073H10.6243C10.2333 2.83073 9.91602 2.5134 9.91602 2.1224C9.91602 1.7314 10.2333 1.41406 10.6243 1.41406H16.291C16.682 1.41406 16.9993 1.7314 16.9993 2.1224V7.78906C16.9993 8.18006 16.682 8.49739 16.291 8.49739Z" fill="#C29340"/>
</g>
<defs>
<clipPath id="clip0_1604_150538">
<rect width="34" height="34" fill="white"/>
</clipPath>
</defs>
</svg>
