<svg width="29" height="29" viewBox="0 0 29 29" fill="none" xmlns="http://www.w3.org/2000/svg">
<path d="M7.83789 26.6406C11.0803 26.6406 13.5254 25.5121 13.5254 24.0156V11.7656C13.4551 8.28938 2.22102 8.28718 2.15039 11.7657V24.0156C2.15039 25.5121 4.59552 26.6406 7.83789 26.6406ZM7.83789 25.7656C5.08343 25.7656 3.02539 24.8417 3.02539 24.0156V22.3872C4.01489 23.1135 5.76075 23.5781 7.83789 23.5781C8.31341 23.5781 8.79022 23.5523 9.25507 23.5012C9.49518 23.4747 9.66864 23.2588 9.64215 23.0184C9.61566 22.7785 9.40247 22.6059 9.15936 22.6313C8.72614 22.679 8.2818 22.7031 7.83789 22.7031C5.08343 22.7031 3.02539 21.7792 3.02539 20.9531V19.3247C4.01489 20.051 5.76075 20.5156 7.83789 20.5156C9.91503 20.5156 11.6609 20.051 12.6504 19.3247V20.9531C12.6504 21.3688 12.089 21.8365 11.1849 22.1735C10.7306 22.3359 10.865 23.0297 11.3379 23.0212C11.8369 22.9212 12.3145 22.6179 12.6504 22.3916L12.6504 24.0156C12.6504 24.8417 10.5923 25.7656 7.83789 25.7656ZM4.49085 16.0486C3.58679 15.7115 3.02539 15.2438 3.02539 14.8281V13.1997C4.96194 14.7685 10.7148 14.7675 12.6504 13.1996V14.8281C12.6504 15.6542 10.5923 16.5781 7.83789 16.5781C7.39398 16.5781 6.94964 16.554 6.51641 16.5063C6.27331 16.4786 6.06011 16.6533 6.03362 16.8934C6.00713 17.1338 6.1806 17.3497 6.42071 17.3762C6.88555 17.4273 7.36236 17.4531 7.83789 17.4531C9.91502 17.4531 11.6609 16.9885 12.6504 16.2622V17.8906C12.6504 18.7167 10.5923 19.6406 7.83789 19.6406C5.08343 19.6406 3.02539 18.7167 3.02539 17.8906V16.2665C3.36566 16.4547 4.44061 17.3151 4.7476 16.6115C4.83221 16.385 4.71729 16.1329 4.49085 16.0486ZM7.83789 10.0156C10.5923 10.0156 12.6504 10.9395 12.6504 11.7656C12.6504 12.5917 10.5923 13.5156 7.83789 13.5156C5.08343 13.5156 3.02539 12.5917 3.02539 11.7656C3.02539 10.9395 5.08343 10.0156 7.83789 10.0156Z" fill="#C29340"/>
<path d="M20.9629 15.2656C17.7205 15.2656 15.2754 16.3942 15.2754 17.8906V24.0156C15.2754 25.5121 17.7205 26.6406 20.9629 26.6406C24.2053 26.6406 26.6504 25.5121 26.6504 24.0156V17.8906C26.6504 16.3942 24.2053 15.2656 20.9629 15.2656ZM20.9629 16.1406C23.7173 16.1406 25.7754 17.0645 25.7754 17.8906C25.7754 18.7167 23.7173 19.6406 20.9629 19.6406C18.2084 19.6406 16.1504 18.7167 16.1504 17.8906C16.1504 17.0645 18.2084 16.1406 20.9629 16.1406ZM20.9629 25.7656C18.2084 25.7656 16.1504 24.8417 16.1504 24.0156V22.3915C16.4853 22.6178 16.9644 22.9214 17.4629 23.0212C17.938 23.0293 18.0683 22.3356 17.6158 22.1735C16.7118 21.8365 16.1504 21.3688 16.1504 20.9531V19.3247C17.1399 20.051 18.8858 20.5156 20.9629 20.5156C23.04 20.5156 24.7859 20.051 25.7754 19.3247V20.9531C25.7754 21.7792 23.7173 22.7031 20.9629 22.7031C20.519 22.7031 20.0746 22.679 19.6414 22.6313C19.3987 22.6055 19.1851 22.7785 19.1586 23.0184C19.1321 23.2588 19.3056 23.4747 19.5457 23.5012C20.0106 23.5523 20.4874 23.5781 20.9629 23.5781C23.04 23.5781 24.7859 23.1136 25.7754 22.3872V24.0156C25.7754 24.8417 23.7173 25.7656 20.9629 25.7656Z" fill="#C29340"/>
<path d="M16.752 22.25C17.3693 22.6065 18.4854 23.0227 20.4428 23.129" stroke="#C29340" stroke-width="0.88" stroke-linecap="round"/>
<path d="M3.63135 16.1362C4.24874 16.4927 5.25142 16.8962 7.41932 17.004" stroke="#C29340" stroke-width="0.88" stroke-linecap="round"/>
<path d="M21.3316 10.3906L19.6504 8.44618V7.89062H20.5254C20.7462 7.89062 20.9369 7.81072 21.0974 7.6509C21.2579 7.49109 21.3547 7.29322 21.3879 7.05729H19.4004V6.50174H21.3129C21.2421 6.3397 21.1368 6.20655 20.9971 6.10229C20.8575 5.99803 20.7002 5.946 20.5254 5.94618H19.4004V5.39062H22.4004V5.94618H21.5879C21.6462 6.02488 21.6983 6.11053 21.7441 6.20313C21.79 6.29572 21.8254 6.39525 21.8504 6.50174H22.4004V7.05729H21.8941C21.8608 7.45081 21.715 7.78072 21.4566 8.04701C21.1983 8.31331 20.8879 8.44637 20.5254 8.44618H20.3441L22.0254 10.3906H21.3316Z" fill="#C29340"/>
<path d="M26.9004 8.14062C26.9004 11.3163 24.326 13.8906 21.1504 13.8906C17.9748 13.8906 15.4004 11.3163 15.4004 8.14062C15.4004 4.96499 17.9748 2.39062 21.1504 2.39062C24.326 2.39062 26.9004 4.96499 26.9004 8.14062ZM16.1489 8.14062C16.1489 10.9029 18.3881 13.1421 21.1504 13.1421C23.9126 13.1421 26.1519 10.9029 26.1519 8.14062C26.1519 5.37838 23.9126 3.13915 21.1504 3.13915C18.3881 3.13915 16.1489 5.37838 16.1489 8.14062Z" fill="#C29340"/>
<path d="M8.39441 23.1199C9.15641 23.1433 10.4382 22.9844 12.425 22.1554" stroke="#C29340" stroke-width="0.88" stroke-linecap="round"/>
</svg>
