<svg width="29" height="29" viewBox="0 0 29 29" fill="none" xmlns="http://www.w3.org/2000/svg">
<g clip-path="url(#clip0_2930_14424)">
<path d="M10.6174 13.4766C7.95076 13.4766 5.78125 15.6461 5.78125 18.313C5.78125 20.9794 7.95076 23.1489 10.6174 23.1489C13.2866 23.1489 15.458 20.9794 15.458 18.313C15.458 15.6461 13.2866 13.4766 10.6174 13.4766ZM10.6174 22.29C8.42446 22.29 6.64017 20.5059 6.64017 18.313C6.64017 16.12 8.42446 14.3355 10.6174 14.3355C12.8129 14.3355 14.5991 16.12 14.5991 18.313C14.5991 20.5059 12.8129 22.29 10.6174 22.29Z" fill="#C29340"/>
<path d="M26.4685 18.3194C25.1469 18.2552 23.9973 17.8006 22.954 16.9295C22.4053 16.4724 21.6103 16.4741 21.0628 16.9346C20.863 17.1027 20.6574 17.2506 20.4486 17.3878C19.5376 13.675 17.3247 9.68688 14.4776 7.65321C14.7086 7.40756 14.8528 7.07927 14.8528 6.7162C14.8528 6.21078 14.5752 5.77328 14.1675 5.535L15.6855 1.48561C15.7732 1.25226 15.6431 0.992114 15.4032 0.92277C13.7335 0.437528 12.4157 0.798629 11.141 1.14797C9.62741 1.56316 8.19794 1.95445 6.14486 0.949184C5.79716 0.778559 5.41762 1.12265 5.55374 1.48556L7.07176 5.53495C6.66406 5.77322 6.38641 6.21072 6.38641 6.71614C6.38641 7.08217 6.53254 7.41319 6.76682 7.6595C2.99781 10.3516 0.333984 16.4612 0.333984 20.8202C0.333984 25.8725 3.98979 28.6552 10.6279 28.6552C14.2252 28.6552 16.9348 27.8277 18.6672 26.2681C19.4227 27.1211 20.3426 27.7988 21.4313 28.2903C21.7969 28.4558 22.2167 28.4566 22.5829 28.2916C25.6547 26.9139 27.4143 24.0927 27.8125 19.9068C27.8888 19.105 27.2901 18.3589 26.4685 18.3194ZM7.75907 7.22988C7.47579 7.22988 7.24534 6.99921 7.24534 6.71614C7.24534 6.43308 7.47579 6.20241 7.75907 6.20241H13.4801C13.7634 6.20241 13.9939 6.43308 13.9939 6.71614C13.9939 6.99921 13.7634 7.22988 13.4801 7.22988H7.75907ZM11.3679 1.97622C12.451 1.67926 13.4801 1.39702 14.7113 1.63737L13.322 5.34349H7.91717L6.70519 2.11042C8.57036 2.74332 9.98912 2.35411 11.3679 1.97622ZM10.6279 27.7963C6.32369 27.7963 1.19291 26.5859 1.19291 20.8202C1.19291 16.6092 3.94489 10.4094 7.65801 8.07857C7.86664 8.09405 13.3869 8.09312 13.5822 8.07847C16.4797 9.89491 18.7886 14.0688 19.6631 17.8215C19.0136 18.1153 18.3202 18.2828 17.5677 18.3194C16.7425 18.3592 16.1481 19.1088 16.2235 19.9067C16.4446 22.2316 17.0857 24.1342 18.1355 25.6041C16.2548 27.3249 13.2869 27.7963 10.6279 27.7963ZM22.2313 27.5081C22.091 27.571 21.9241 27.5702 21.7847 27.5077C19.0285 26.2629 17.445 23.6782 17.0787 19.8253C17.0482 19.5027 17.2863 19.1932 17.609 19.1774C19.1039 19.1048 20.452 18.571 21.6158 17.5917C21.8488 17.3952 22.1743 17.3975 22.4039 17.5892C23.5792 18.5705 24.9328 19.1048 26.4273 19.1774C26.7494 19.1932 26.9884 19.5022 26.9574 19.8253C26.5906 23.6808 25.0005 26.2659 22.2313 27.5081Z" fill="#C29340"/>
<path d="M22.0189 20.6953C21.2655 20.6953 20.6523 21.3085 20.6523 22.0621C20.6523 22.6644 21.0471 23.1714 21.5895 23.3526V23.8684C21.5895 24.1058 21.7818 24.2979 22.0189 24.2979C22.2561 24.2979 22.4484 24.1058 22.4484 23.8684V23.3526C22.9908 23.1714 23.3855 22.6644 23.3855 22.0621C23.3855 21.3085 22.7724 20.6953 22.0189 20.6953ZM22.0189 22.5696C21.739 22.5696 21.5113 22.3418 21.5113 22.0621C21.5113 21.782 21.739 21.5542 22.0189 21.5542C22.2989 21.5542 22.5266 21.782 22.5266 22.0621C22.5266 22.3418 22.2989 22.5696 22.0189 22.5696Z" fill="#C29340"/>
<path d="M11.0074 20.6719L9.32617 18.7274V18.1719H10.2012C10.422 18.1719 10.6127 18.092 10.7732 17.9322C10.9337 17.7723 11.0305 17.5745 11.0637 17.3385H9.07617V16.783H10.9887C10.9178 16.6209 10.8126 16.4878 10.6729 16.3835C10.5333 16.2793 10.376 16.2272 10.2012 16.2274H9.07617V15.6719H12.0762V16.2274H11.2637C11.322 16.3061 11.3741 16.3918 11.4199 16.4844C11.4658 16.577 11.5012 16.6765 11.5262 16.783H12.0762V17.3385H11.5699C11.5366 17.7321 11.3908 18.062 11.1324 18.3283C10.8741 18.5946 10.5637 18.7276 10.2012 18.7274H10.0199L11.7012 20.6719H11.0074Z" fill="#C29340"/>
</g>
<defs>
<clipPath id="clip0_2930_14424">
<rect width="28" height="28" fill="white" transform="translate(0.0761719 0.671875)"/>
</clipPath>
</defs>
</svg>
