<svg width="24" height="25" viewBox="0 0 24 25" fill="none" xmlns="http://www.w3.org/2000/svg">
<g clip-path="url(#clip0_647_14627)">
<path d="M21.8438 13.8108L17.9438 4.93268C17.9174 4.86977 17.8792 4.81248 17.8313 4.76393C17.3039 4.23724 16.5891 3.94141 15.8438 3.94141C15.0984 3.94141 14.3836 4.23724 13.8563 4.76393C13.802 4.81401 13.759 4.87496 13.7299 4.94281C13.7008 5.01066 13.6864 5.08387 13.6875 5.15768V8.06393H10.3125V5.15768C10.3136 5.08387 10.2992 5.01066 10.2701 4.94281C10.241 4.87496 10.198 4.81401 10.1438 4.76393C9.61642 4.23724 8.90158 3.94141 8.15626 3.94141C7.41095 3.94141 6.69611 4.23724 6.16876 4.76393C6.12083 4.81248 6.08265 4.86977 6.05626 4.93268L2.15626 13.8108C1.84665 14.4107 1.68588 15.0763 1.68751 15.7514C1.68751 16.8952 2.14186 17.9921 2.95061 18.8008C3.75936 19.6096 4.85627 20.0639 6.00001 20.0639C7.14376 20.0639 8.24066 19.6096 9.04941 18.8008C9.85816 17.9921 10.3125 16.8952 10.3125 15.7514V9.18893H13.6875V15.7514C13.6875 16.8952 14.1419 17.9921 14.9506 18.8008C15.7594 19.6096 16.8563 20.0639 18 20.0639C19.1438 20.0639 20.2407 19.6096 21.0494 18.8008C21.8582 17.9921 22.3125 16.8952 22.3125 15.7514C22.3141 15.0763 22.1534 14.4107 21.8438 13.8108ZM6.00001 18.9389C5.48864 18.939 4.98476 18.816 4.53091 18.5804C4.07706 18.3448 3.68657 18.0034 3.39239 17.5851C3.09821 17.1668 2.90899 16.6839 2.8407 16.1771C2.77241 15.6703 2.82705 15.1545 3.00001 14.6733L3.16876 14.2796C3.42978 13.7782 3.81942 13.3552 4.29776 13.0541C4.77609 12.7529 5.32591 12.5843 5.89085 12.5657C6.45579 12.547 7.01554 12.6789 7.5127 12.9479C8.00987 13.2168 8.42658 13.6131 8.72011 14.0962C9.01364 14.5792 9.17343 15.1317 9.18311 15.6968C9.19279 16.262 9.05201 16.8196 8.7752 17.3124C8.49838 17.8053 8.09549 18.2156 7.60783 18.5014C7.12016 18.7872 6.56526 18.9382 6.00001 18.9389ZM6.00001 11.4389C5.40263 11.4377 4.8117 11.5623 4.26564 11.8046L7.04064 5.49518C7.33296 5.23391 7.70714 5.08258 8.09891 5.06718C8.49068 5.05178 8.87558 5.17328 9.18751 5.41081V12.8452C8.7836 12.4015 8.29138 12.0472 7.74244 11.805C7.19351 11.5629 6.59999 11.4382 6.00001 11.4389ZM14.8125 5.41081C15.1244 5.17328 15.5093 5.05178 15.9011 5.06718C16.2929 5.08258 16.6671 5.23391 16.9594 5.49518L19.7344 11.8046C19.1883 11.5623 18.5974 11.4377 18 11.4389C17.4 11.4382 16.8065 11.5629 16.2576 11.805C15.7086 12.0472 15.2164 12.4015 14.8125 12.8452V5.41081ZM18 18.9389C17.4348 18.9382 16.8799 18.7872 16.3922 18.5014C15.9045 18.2156 15.5016 17.8053 15.2248 17.3124C14.948 16.8196 14.8072 16.262 14.8169 15.6968C14.8266 15.1317 14.9864 14.5792 15.2799 14.0962C15.5734 13.6131 15.9902 13.2168 16.4873 12.9479C16.9845 12.6789 17.5442 12.547 18.1092 12.5657C18.6741 12.5843 19.2239 12.7529 19.7023 13.0541C20.1806 13.3552 20.5702 13.7782 20.8313 14.2796L21 14.6733C21.173 15.1545 21.2276 15.6703 21.1593 16.1771C21.091 16.6839 20.9018 17.1668 20.6076 17.5851C20.3135 18.0034 19.923 18.3448 19.4691 18.5804C19.0153 18.816 18.5114 18.939 18 18.9389Z" fill="#C29340"/>
</g>
<defs>
<clipPath id="clip0_647_14627">
<rect width="24" height="24" fill="white" transform="translate(0 0.5)"/>
</clipPath>
</defs>
</svg>
