<svg width="33" height="32" viewBox="0 0 33 32" fill="none" xmlns="http://www.w3.org/2000/svg">
<g clip-path="url(#clip0_2730_136171)">
<path d="M16.5686 32C7.74594 32 0.568604 24.8227 0.568604 16C0.568604 7.17733 7.74594 0 16.5686 0C25.3913 0 32.5686 7.17733 32.5686 16C32.5686 24.8227 25.3913 32 16.5686 32ZM16.5686 1.33333C8.48194 1.33333 1.90194 7.91333 1.90194 16C1.90194 24.0867 8.48194 30.6667 16.5686 30.6667C24.6553 30.6667 31.2353 24.0867 31.2353 16C31.2353 7.91333 24.6553 1.33333 16.5686 1.33333Z" fill="#C5A265"/>
<path d="M11.9019 13.3307C10.0646 13.3307 8.5686 11.8347 8.5686 9.99739C8.5686 8.16006 10.0646 6.66406 11.9019 6.66406C13.7393 6.66406 15.2353 8.16006 15.2353 9.99739C15.2353 11.8347 13.7393 13.3307 11.9019 13.3307ZM11.9019 7.99739C10.7993 7.99739 9.90194 8.89473 9.90194 9.99739C9.90194 11.1001 10.7993 11.9974 11.9019 11.9974C13.0046 11.9974 13.9019 11.1001 13.9019 9.99739C13.9019 8.89473 13.0046 7.99739 11.9019 7.99739Z" fill="#C5A265"/>
<path d="M21.2356 25.3308C19.3982 25.3308 17.9022 23.8347 17.9022 21.9974C17.9022 20.1601 19.3982 18.6641 21.2356 18.6641C23.0729 18.6641 24.5689 20.1601 24.5689 21.9974C24.5689 23.8347 23.0729 25.3308 21.2356 25.3308ZM21.2356 19.9974C20.1329 19.9974 19.2356 20.8947 19.2356 21.9974C19.2356 23.1001 20.1329 23.9974 21.2356 23.9974C22.3382 23.9974 23.2356 23.1001 23.2356 21.9974C23.2356 20.8947 22.3382 19.9974 21.2356 19.9974Z" fill="#C5A265"/>
<path d="M11.9021 23.9987C11.7794 23.9987 11.6554 23.9653 11.5448 23.8947C11.2341 23.6973 11.1421 23.284 11.3408 22.9747L20.6741 8.30799C20.8714 7.99866 21.2848 7.90666 21.5941 8.10399C21.9048 8.30133 21.9968 8.71466 21.7981 9.02399L12.4648 23.6907C12.3381 23.8893 12.1221 23.9987 11.9021 23.9987Z" fill="#C5A265"/>
</g>
<defs>
<clipPath id="clip0_2730_136171">
<rect width="32" height="32" fill="white" transform="translate(0.568604)"/>
</clipPath>
</defs>
</svg>
