<svg width="40" height="40" viewBox="0 0 40 40" fill="none" xmlns="http://www.w3.org/2000/svg">
<g clip-path="url(#clip0_1158_60766)">
<path d="M22.5 40H4.16667C1.86833 40 0 38.1317 0 35.8333V4.16667C0 1.86833 1.86833 0 4.16667 0H22.5C24.7983 0 26.6667 1.86833 26.6667 4.16667V7.5C26.6667 7.96 26.2933 8.33333 25.8333 8.33333C25.3733 8.33333 25 7.96 25 7.5V4.16667C25 2.78833 23.8783 1.66667 22.5 1.66667H4.16667C2.78833 1.66667 1.66667 2.78833 1.66667 4.16667V35.8333C1.66667 37.2117 2.78833 38.3333 4.16667 38.3333H22.5C23.8783 38.3333 25 37.2117 25 35.8333V32.5C25 32.04 25.3733 31.6667 25.8333 31.6667C26.2933 31.6667 26.6667 32.04 26.6667 32.5V35.8333C26.6667 38.1317 24.7983 40 22.5 40Z" fill="#C5A265"/>
<path d="M16.6665 5H9.99984C8.6215 5 7.49984 3.87833 7.49984 2.5C7.49984 2.04167 7.12484 1.66667 6.6665 1.66667H4.99984C4.53984 1.66667 4.1665 1.29333 4.1665 0.833333C4.1665 0.373333 4.53984 0 4.99984 0H6.6665C8.04484 0 9.1665 1.12167 9.1665 2.5C9.1665 2.95833 9.5415 3.33333 9.99984 3.33333H16.6665C17.1248 3.33333 17.4998 2.95833 17.4998 2.5C17.4998 1.12167 18.6215 0 19.9998 0H21.6665C22.1265 0 22.4998 0.373333 22.4998 0.833333C22.4998 1.29333 22.1265 1.66667 21.6665 1.66667H19.9998C19.5415 1.66667 19.1665 2.04167 19.1665 2.5C19.1665 3.87833 18.0448 5 16.6665 5Z" fill="#C5A265"/>
<path d="M35.8333 28.3327H19.1667C16.8683 28.3327 15 26.4643 15 24.166V15.8327C15 13.5343 16.8683 11.666 19.1667 11.666H35.8333C38.1317 11.666 40 13.5343 40 15.8327V24.166C40 26.4643 38.1317 28.3327 35.8333 28.3327ZM19.1667 13.3327C17.7883 13.3327 16.6667 14.4543 16.6667 15.8327V24.166C16.6667 25.5443 17.7883 26.666 19.1667 26.666H35.8333C37.2117 26.666 38.3333 25.5443 38.3333 24.166V15.8327C38.3333 14.4543 37.2117 13.3327 35.8333 13.3327H19.1667Z" fill="#C5A265"/>
<path d="M39.1667 18.3327H15.8333C15.3733 18.3327 15 17.9594 15 17.4994C15 17.0394 15.3733 16.666 15.8333 16.666H39.1667C39.6267 16.666 40 17.0394 40 17.4994C40 17.9594 39.6267 18.3327 39.1667 18.3327Z" fill="#C5A265"/>
</g>
<defs>
<clipPath id="clip0_1158_60766">
<rect width="40" height="40" fill="white"/>
</clipPath>
</defs>
</svg>
