<svg width="28" height="28" viewBox="0 0 28 28" fill="none" xmlns="http://www.w3.org/2000/svg">
<path d="M21.9969 4.64805C21.8203 4.47148 21.5349 4.47148 21.3583 4.64805L20.0971 5.90931L18.8358 4.64805C18.6592 4.47148 18.3738 4.47148 18.1973 4.64805L13.8138 9.03153H4.96916C4.71976 9.03153 4.51758 9.23371 4.51758 9.48311C4.51758 9.73251 4.71976 9.93469 4.96916 9.93469H12.9106L6.00463 16.8407C5.82806 17.0173 5.82806 17.3027 6.00463 17.4792L11.8752 23.3498C11.9632 23.4378 12.0788 23.4821 12.1944 23.4821C12.31 23.4821 12.4256 23.4378 12.5137 23.3498L13.775 22.0885L15.0362 23.3498C15.1243 23.4378 15.2399 23.4821 15.3555 23.4821C15.4711 23.4821 15.5867 23.4378 15.6748 23.3498L27.8674 11.1571C28.044 10.9806 28.044 10.6952 27.8674 10.5186L21.9969 4.64805ZM17.1591 20.5884C16.6741 20.1318 16.0225 19.8694 15.3555 19.8694C14.6885 19.8694 14.0369 20.1318 13.5519 20.5884L11.9271 18.9636C12.3836 18.4786 12.646 17.8269 12.646 17.16C12.646 16.493 12.3836 15.8414 11.9271 15.3564L19.874 7.40946C20.359 7.86601 21.0106 8.12837 21.6776 8.12837C22.3446 8.12837 22.9962 7.86601 23.4812 7.40946L25.106 9.03424C24.6494 9.51924 24.3871 10.1709 24.3871 10.8379C24.3871 11.5048 24.6494 12.1565 25.106 12.6415L17.1591 20.5884ZM8.76604 18.9636C9.09027 18.619 9.31561 18.1909 9.41857 17.7321L11.6295 19.9431C11.1698 20.0456 10.7372 20.2655 10.3917 20.5893L8.76604 18.9636ZM16.7129 7.40946C17.0575 7.73369 17.4856 7.95903 17.9444 8.06199L9.41857 16.5878C9.31516 16.129 9.08982 15.7009 8.76604 15.3564L16.7129 7.40946ZM11.7429 17.16C11.7429 17.589 11.5744 18.0058 11.2859 18.3223L10.1235 17.16L11.2859 15.9976C11.5744 16.3142 11.7429 16.731 11.7429 17.16ZM21.6776 5.60585L22.84 6.76822C22.5234 7.05633 22.1066 7.22522 21.6776 7.22522C21.2486 7.22522 20.8318 7.05633 20.5152 6.76822L21.6776 5.60585ZM18.5165 5.60585L19.4585 6.54785L18.8101 7.19632C18.2917 7.28482 17.7421 7.12406 17.3524 6.77002L18.5165 5.60585ZM8.1248 15.9976C8.41336 16.3142 8.58179 16.731 8.58179 17.16C8.58179 17.589 8.41336 18.0058 8.1248 18.3223L6.96243 17.16L8.1248 15.9976ZM12.1944 22.392L11.0303 21.2278C11.4204 20.8733 11.9736 20.7143 12.488 20.8015L13.1364 21.45L12.1944 22.392ZM15.3555 22.392L14.1931 21.2296C14.5097 20.941 14.9265 20.7726 15.3555 20.7726C15.7845 20.7726 16.2013 20.941 16.5179 21.2296L15.3555 22.392ZM25.7472 12.0002C25.4587 11.6837 25.2902 11.2669 25.2902 10.8379C25.2902 10.4089 25.4587 9.99204 25.7472 9.67549L26.9096 10.8379L25.7472 12.0002Z" fill="#C29340"/>
<path d="M18.5181 11.2891C17.0238 11.2891 15.8086 12.5043 15.8086 13.9985C15.8086 15.4928 17.0238 16.708 18.5181 16.708C20.0123 16.708 21.2275 15.4928 21.2275 13.9985C21.2275 12.5043 20.0123 11.2891 18.5181 11.2891ZM18.5181 15.8049C17.5219 15.8049 16.7118 14.9947 16.7118 13.9985C16.7118 13.0024 17.5219 12.1922 18.5181 12.1922C19.5143 12.1922 20.3244 13.0024 20.3244 13.9985C20.3244 14.9947 19.5143 15.8049 18.5181 15.8049Z" fill="#C29340"/>
<path d="M0.90625 15.807C0.90625 15.5576 1.10843 15.3555 1.35783 15.3555H5.42205C5.67145 15.3555 5.87363 15.5576 5.87363 15.807C5.87363 16.0564 5.67145 16.2586 5.42205 16.2586H1.35783C1.10843 16.2586 0.90625 16.0564 0.90625 15.807Z" fill="#C29340"/>
<path d="M4.06641 13.5492C4.06641 13.2998 4.26859 13.0977 4.51799 13.0977H7.22746C7.47686 13.0977 7.67904 13.2998 7.67904 13.5492C7.67904 13.7986 7.47686 14.0008 7.22746 14.0008H4.51799C4.26859 14.0008 4.06641 13.7986 4.06641 13.5492Z" fill="#C29340"/>
<path d="M0.00195312 11.2875C0.00195312 11.0381 0.204132 10.8359 0.453533 10.8359H5.87249C6.12189 10.8359 6.32407 11.0381 6.32407 11.2875C6.32407 11.5369 6.12189 11.7391 5.87249 11.7391H0.453533C0.204132 11.7391 0.00195312 11.5369 0.00195312 11.2875Z" fill="#C29340"/>
</svg>
