<?xml version="1.0" encoding="utf-8"?>
<svg xmlns="http://www.w3.org/2000/svg" style="margin: auto; background: none; display: block; shape-rendering: auto;" width="268" height="85" preserveAspectRatio="xMidYMid">
<style type="text/css">
  text {
    text-anchor: middle; font-size: 58px; opacity: 0;
  }
</style>
<g style="transform-origin: 134px 42.5px; transform: scale(0.725);">
<g transform="translate(134,42.5)">
  <g transform="translate(0,0)"><g class="path" style="opacity: 1; transform-origin: -144.67px -5.4634px; animation: 2.5641s linear -1.48077s infinite normal forwards running fade-930f984f-d0ae-4c90-9489-1cb85f87e4ff;"><path d="M32.30-51.99L32.30-51.99L32.30-51.99Q22.89-51.99 17.44-45.72L17.44-45.72L17.44-45.72Q11.99-39.45 11.99-28.55L11.99-28.55L11.99-28.55Q11.99-17.34 17.25-11.23L17.25-11.23L17.25-11.23Q22.50-5.12 32.23-5.12L32.23-5.12L32.23-5.12Q38.20-5.12 45.86-7.27L45.86-7.27L45.86-1.45L45.86-1.45Q39.92 0.78 31.21 0.78L31.21 0.78L31.21 0.78Q18.59 0.78 11.74-6.88L11.74-6.88L11.74-6.88Q4.88-14.53 4.88-28.63L4.88-28.63L4.88-28.63Q4.88-37.46 8.18-44.10L8.18-44.10L8.18-44.10Q11.48-50.74 17.71-54.34L17.71-54.34L17.71-54.34Q23.95-57.93 32.38-57.93L32.38-57.93L32.38-57.93Q41.37-57.93 48.09-54.65L48.09-54.65L45.27-48.95L45.27-48.95Q38.79-51.99 32.30-51.99" fill="#c29340" stroke="none" stroke-width="none" transform="translate(-171.1549835205078,23.111599884033204)" style="fill: rgb(194, 147, 64);"></path></g><g class="path" style="opacity: 1; transform-origin: -96.525px 1.7066px; animation: 2.5641s linear -1.26923s infinite normal forwards running fade-930f984f-d0ae-4c90-9489-1cb85f87e4ff;"><path d="M94.30-21.45L94.30-21.45L94.30-21.45Q94.30-10.98 89.02-5.10L89.02-5.10L89.02-5.10Q83.75 0.78 74.45 0.78L74.45 0.78L74.45 0.78Q68.71 0.78 64.26-1.91L64.26-1.91L64.26-1.91Q59.80-4.61 57.38-9.65L57.38-9.65L57.38-9.65Q54.96-14.69 54.96-21.45L54.96-21.45L54.96-21.45Q54.96-31.91 60.20-37.75L60.20-37.75L60.20-37.75Q65.43-43.59 74.73-43.59L74.73-43.59L74.73-43.59Q83.71-43.59 89.00-37.62L89.00-37.62L89.00-37.62Q94.30-31.64 94.30-21.45zM61.68-21.45L61.68-21.45L61.68-21.45Q61.68-13.24 64.96-8.95L64.96-8.95L64.96-8.95Q68.24-4.65 74.61-4.65L74.61-4.65L74.61-4.65Q80.98-4.65 84.28-8.93L84.28-8.93L84.28-8.93Q87.58-13.20 87.58-21.45L87.58-21.45L87.58-21.45Q87.58-29.61 84.28-33.85L84.28-33.85L84.28-33.85Q80.98-38.09 74.53-38.09L74.53-38.09L74.53-38.09Q68.16-38.09 64.92-33.91L64.92-33.91L64.92-33.91Q61.68-29.73 61.68-21.45" fill="#c29340" stroke="none" stroke-width="none" transform="translate(-171.1549835205078,23.111599884033204)" style="fill: rgb(40, 41, 47);"></path></g><g class="path" style="opacity: 1; transform-origin: -53.17px 1.3166px; animation: 2.5641s linear -1.05769s infinite normal forwards running fade-930f984f-d0ae-4c90-9489-1cb85f87e4ff;"><path d="M125.20-43.59L125.20-43.59L125.20-43.59Q128.05-43.59 130.31-43.13L130.31-43.13L129.41-37.11L129.41-37.11Q126.76-37.70 124.73-37.70L124.73-37.70L124.73-37.70Q119.53-37.70 115.84-33.48L115.84-33.48L115.84-33.48Q112.15-29.26 112.15-22.97L112.15-22.97L112.15 0L105.66 0L105.66-42.81L111.02-42.81L111.76-34.88L112.07-34.88L112.07-34.88Q114.45-39.06 117.81-41.33L117.81-41.33L117.81-41.33Q121.17-43.59 125.20-43.59" fill="#c29340" stroke="none" stroke-width="none" transform="translate(-171.1549835205078,23.111599884033204)" style="fill: rgb(40, 41, 47);"></path></g><g class="path" style="opacity: 1; transform-origin: -13.985px 10.9266px; animation: 2.5641s linear -0.846154s infinite normal forwards running fade-930f984f-d0ae-4c90-9489-1cb85f87e4ff;"><path d="M158.24 0.78L158.24 0.78L158.24 0.78Q154.06 0.78 150.61-0.76L150.61-0.76L150.61-0.76Q147.15-2.30 144.80-5.51L144.80-5.51L144.34-5.51L144.34-5.51Q144.80-1.76 144.80 1.60L144.80 1.60L144.80 19.22L138.32 19.22L138.32-42.81L143.59-42.81L144.49-36.95L144.80-36.95L144.80-36.95Q147.30-40.47 150.63-42.03L150.63-42.03L150.63-42.03Q153.95-43.59 158.24-43.59L158.24-43.59L158.24-43.59Q166.76-43.59 171.39-37.77L171.39-37.77L171.39-37.77Q176.02-31.95 176.02-21.45L176.02-21.45L176.02-21.45Q176.02-10.90 171.31-5.06L171.31-5.06L171.31-5.06Q166.60 0.78 158.24 0.78zM157.30-38.09L157.30-38.09L157.30-38.09Q150.74-38.09 147.81-34.45L147.81-34.45L147.81-34.45Q144.88-30.82 144.80-22.89L144.80-22.89L144.80-21.45L144.80-21.45Q144.80-12.42 147.81-8.54L147.81-8.54L147.81-8.54Q150.82-4.65 157.46-4.65L157.46-4.65L157.46-4.65Q163.01-4.65 166.15-9.14L166.15-9.14L166.15-9.14Q169.30-13.63 169.30-21.52L169.30-21.52L169.30-21.52Q169.30-29.53 166.15-33.81L166.15-33.81L166.15-33.81Q163.01-38.09 157.30-38.09" fill="#c29340" stroke="none" stroke-width="none" transform="translate(-171.1549835205078,23.111599884033204)" style="fill: rgb(40, 41, 47);"></path></g><g class="path" style="opacity: 1; transform-origin: 35.795px -5.4634px; animation: 2.5641s linear -0.634615s infinite normal forwards running fade-930f984f-d0ae-4c90-9489-1cb85f87e4ff;"><path d="M212.77-51.99L212.77-51.99L212.77-51.99Q203.36-51.99 197.91-45.72L197.91-45.72L197.91-45.72Q192.46-39.45 192.46-28.55L192.46-28.55L192.46-28.55Q192.46-17.34 197.71-11.23L197.71-11.23L197.71-11.23Q202.97-5.12 212.70-5.12L212.70-5.12L212.70-5.12Q218.67-5.12 226.33-7.27L226.33-7.27L226.33-1.45L226.33-1.45Q220.39 0.78 211.68 0.78L211.68 0.78L211.68 0.78Q199.06 0.78 192.21-6.88L192.21-6.88L192.21-6.88Q185.35-14.53 185.35-28.63L185.35-28.63L185.35-28.63Q185.35-37.46 188.65-44.10L188.65-44.10L188.65-44.10Q191.95-50.74 198.18-54.34L198.18-54.34L198.18-54.34Q204.41-57.93 212.85-57.93L212.85-57.93L212.85-57.93Q221.84-57.93 228.55-54.65L228.55-54.65L225.74-48.95L225.74-48.95Q219.26-51.99 212.77-51.99" fill="#c29340" stroke="none" stroke-width="none" transform="translate(-171.1549835205078,23.111599884033204)" style="fill: rgb(194, 147, 64);"></path></g><g class="path" style="opacity: 1; transform-origin: 80.625px 1.7416px; animation: 2.5641s linear -0.423077s infinite normal forwards running fade-930f984f-d0ae-4c90-9489-1cb85f87e4ff;"><path d="M268.95 0L264.14 0L262.85-6.09L262.54-6.09L262.54-6.09Q259.34-2.07 256.15-0.64L256.15-0.64L256.15-0.64Q252.97 0.78 248.20 0.78L248.20 0.78L248.20 0.78Q241.84 0.78 238.22-2.50L238.22-2.50L238.22-2.50Q234.61-5.78 234.61-11.84L234.61-11.84L234.61-11.84Q234.61-24.80 255.35-25.43L255.35-25.43L262.62-25.66L262.62-28.32L262.62-28.32Q262.62-33.36 260.45-35.76L260.45-35.76L260.45-35.76Q258.28-38.16 253.52-38.16L253.52-38.16L253.52-38.16Q248.16-38.16 241.41-34.88L241.41-34.88L239.41-39.84L239.41-39.84Q242.58-41.56 246.35-42.54L246.35-42.54L246.35-42.54Q250.12-43.52 253.91-43.52L253.91-43.52L253.91-43.52Q261.56-43.52 265.25-40.12L265.25-40.12L265.25-40.12Q268.95-36.72 268.95-29.22L268.95-29.22L268.95 0zM249.49-4.57L249.49-4.57L249.49-4.57Q255.55-4.57 259.00-7.89L259.00-7.89L259.00-7.89Q262.46-11.21 262.46-17.19L262.46-17.19L262.46-21.05L255.98-20.78L255.98-20.78Q248.24-20.51 244.82-18.38L244.82-18.38L244.82-18.38Q241.41-16.25 241.41-11.76L241.41-11.76L241.41-11.76Q241.41-8.24 243.54-6.41L243.54-6.41L243.54-6.41Q245.66-4.57 249.49-4.57" fill="#c29340" stroke="none" stroke-width="none" transform="translate(-171.1549835205078,23.111599884033204)" style="fill: rgb(40, 41, 47);"></path></g><g class="path" style="opacity: 1; transform-origin: 123.47px 1.3166px; animation: 2.5641s linear -0.211538s infinite normal forwards running fade-930f984f-d0ae-4c90-9489-1cb85f87e4ff;"><path d="M301.84-43.59L301.84-43.59L301.84-43.59Q304.69-43.59 306.95-43.13L306.95-43.13L306.05-37.11L306.05-37.11Q303.40-37.70 301.37-37.70L301.37-37.70L301.37-37.70Q296.17-37.70 292.48-33.48L292.48-33.48L292.48-33.48Q288.79-29.26 288.79-22.97L288.79-22.97L288.79 0L282.30 0L282.30-42.81L287.66-42.81L288.40-34.88L288.71-34.88L288.71-34.88Q291.09-39.06 294.45-41.33L294.45-41.33L294.45-41.33Q297.81-43.59 301.84-43.59" fill="#c29340" stroke="none" stroke-width="none" transform="translate(-171.1549835205078,23.111599884033204)" style="fill: rgb(40, 41, 47);"></path></g><g class="path" style="opacity: 1; transform-origin: 157.93px 1.7066px; animation: 2.5641s linear 0s infinite normal forwards running fade-930f984f-d0ae-4c90-9489-1cb85f87e4ff;"><path d="M331.45 0.78L331.45 0.78L331.45 0.78Q321.95 0.78 316.46-5L316.46-5L316.46-5Q310.98-10.78 310.98-21.05L310.98-21.05L310.98-21.05Q310.98-31.41 316.07-37.50L316.07-37.50L316.07-37.50Q321.17-43.59 329.77-43.59L329.77-43.59L329.77-43.59Q337.81-43.59 342.50-38.30L342.50-38.30L342.50-38.30Q347.19-33.01 347.19-24.34L347.19-24.34L347.19-20.23L317.70-20.23L317.70-20.23Q317.89-12.70 321.50-8.79L321.50-8.79L321.50-8.79Q325.12-4.88 331.68-4.88L331.68-4.88L331.68-4.88Q338.59-4.88 345.35-7.77L345.35-7.77L345.35-1.99L345.35-1.99Q341.91-0.51 338.85 0.14L338.85 0.14L338.85 0.14Q335.78 0.78 331.45 0.78zM329.69-38.16L329.69-38.16L329.69-38.16Q324.53-38.16 321.46-34.80L321.46-34.80L321.46-34.80Q318.40-31.45 317.85-25.51L317.85-25.51L340.23-25.51L340.23-25.51Q340.23-31.64 337.50-34.90L337.50-34.90L337.50-34.90Q334.77-38.16 329.69-38.16" fill="#c29340" stroke="none" stroke-width="none" transform="translate(-171.1549835205078,23.111599884033204)" style="fill: rgb(40, 41, 47);"></path></g></g>
</g>
</g>
<style id="fade-930f984f-d0ae-4c90-9489-1cb85f87e4ff" data-anikit="">@keyframes fade-930f984f-d0ae-4c90-9489-1cb85f87e4ff
{
  0% {
    animation-timing-function: cubic-bezier(0.2057,0.573,0.3723,0.9184);
    opacity: 1;
  }
  100% {
    opacity: 0;
  }
}</style></svg>