<svg width="33" height="33" viewBox="0 0 33 33" fill="none" xmlns="http://www.w3.org/2000/svg">
<g clip-path="url(#clip0_2730_136203)">
<path d="M25.5408 32.8151H6.87419C5.40352 32.8151 4.20752 31.6191 4.20752 30.1484V16.8151C4.20752 15.3444 5.40352 14.1484 6.87419 14.1484H25.5408C27.0115 14.1484 28.2075 15.3444 28.2075 16.8151V30.1484C28.2075 31.6191 27.0115 32.8151 25.5408 32.8151ZM6.87419 15.4818C6.13819 15.4818 5.54085 16.0804 5.54085 16.8151V30.1484C5.54085 30.8831 6.13819 31.4818 6.87419 31.4818H25.5408C26.2768 31.4818 26.8742 30.8831 26.8742 30.1484V16.8151C26.8742 16.0804 26.2768 15.4818 25.5408 15.4818H6.87419Z" fill="#C5A265"/>
<path d="M23.5409 15.4831C23.1729 15.4831 22.8742 15.1844 22.8742 14.8164V8.81641C22.8742 5.14041 19.8835 2.14974 16.2075 2.14974C12.5315 2.14974 9.54085 5.14041 9.54085 8.81641V14.8164C9.54085 15.1844 9.24219 15.4831 8.87419 15.4831C8.50619 15.4831 8.20752 15.1844 8.20752 14.8164V8.81641C8.20752 4.40441 11.7955 0.816406 16.2075 0.816406C20.6195 0.816406 24.2075 4.40441 24.2075 8.81641V14.8164C24.2075 15.1844 23.9089 15.4831 23.5409 15.4831Z" fill="#C5A265"/>
</g>
<defs>
<clipPath id="clip0_2730_136203">
<rect width="32" height="32" fill="white" transform="translate(0.20752 0.816406)"/>
</clipPath>
</defs>
</svg>
