<svg width="28" height="28" viewBox="0 0 28 28" fill="none" xmlns="http://www.w3.org/2000/svg">
<g clip-path="url(#clip0_647_14503)">
<path d="M15.7507 28.0007C15.4287 28.0007 15.1673 27.7393 15.1673 27.4173V1.41701L3.50065 5.66018V27.4173C3.50065 27.7393 3.23932 28.0007 2.91732 28.0007C2.59532 28.0007 2.33398 27.7393 2.33398 27.4173V5.25068C2.33398 5.00568 2.48682 4.78634 2.71782 4.70234L15.5512 0.0356773C15.7297 -0.0308227 15.9292 -0.00282272 16.0855 0.106844C16.2407 0.215344 16.334 0.393844 16.334 0.584011V27.4173C16.334 27.7393 16.0727 28.0007 15.7507 28.0007Z" fill="#C29340"/>
<path d="M26.2507 27.9992C25.9287 27.9992 25.6674 27.7379 25.6674 27.4159V11.4676L17.8542 8.11924C17.5579 7.99207 17.4202 7.64907 17.5474 7.35274C17.6746 7.0564 18.0187 6.92224 18.3127 7.0459L26.4794 10.5459C26.6952 10.6381 26.8341 10.8492 26.8341 11.0826V27.4159C26.8341 27.7379 26.5727 27.9992 26.2507 27.9992Z" fill="#C29340"/>
<path d="M6.41732 10.5C6.09532 10.5 5.83398 10.2387 5.83398 9.91667V7.58333C5.83398 7.26133 6.09532 7 6.41732 7C6.73932 7 7.00065 7.26133 7.00065 7.58333V9.91667C7.00065 10.2387 6.73932 10.5 6.41732 10.5Z" fill="#C29340"/>
<path d="M12.2494 10.5C11.9273 10.5 11.666 10.2387 11.666 9.91667V7.58333C11.666 7.26133 11.9273 7 12.2494 7C12.5714 7 12.8327 7.26133 12.8327 7.58333V9.91667C12.8327 10.2387 12.5714 10.5 12.2494 10.5Z" fill="#C29340"/>
<path d="M6.41732 17.5C6.09532 17.5 5.83398 17.2387 5.83398 16.9167V14.5833C5.83398 14.2613 6.09532 14 6.41732 14C6.73932 14 7.00065 14.2613 7.00065 14.5833V16.9167C7.00065 17.2387 6.73932 17.5 6.41732 17.5Z" fill="#C29340"/>
<path d="M12.2494 17.5C11.9273 17.5 11.666 17.2387 11.666 16.9167V14.5833C11.666 14.2613 11.9273 14 12.2494 14C12.5714 14 12.8327 14.2613 12.8327 14.5833V16.9167C12.8327 17.2387 12.5714 17.5 12.2494 17.5Z" fill="#C29340"/>
<path d="M6.41732 24.5C6.09532 24.5 5.83398 24.2387 5.83398 23.9167V21.5833C5.83398 21.2613 6.09532 21 6.41732 21C6.73932 21 7.00065 21.2613 7.00065 21.5833V23.9167C7.00065 24.2387 6.73932 24.5 6.41732 24.5Z" fill="#C29340"/>
<path d="M12.2494 24.5C11.9273 24.5 11.666 24.2387 11.666 23.9167V21.5833C11.666 21.2613 11.9273 21 12.2494 21C12.5714 21 12.8327 21.2613 12.8327 21.5833V23.9167C12.8327 24.2387 12.5714 24.5 12.2494 24.5Z" fill="#C29340"/>
<path d="M19.2493 17.5C18.9273 17.5 18.666 17.2387 18.666 16.9167V14.5833C18.666 14.2613 18.9273 14 19.2493 14C19.5713 14 19.8327 14.2613 19.8327 14.5833V16.9167C19.8327 17.2387 19.5713 17.5 19.2493 17.5Z" fill="#C29340"/>
<path d="M22.7493 17.5C22.4273 17.5 22.166 17.2387 22.166 16.9167V14.5833C22.166 14.2613 22.4273 14 22.7493 14C23.0713 14 23.3327 14.2613 23.3327 14.5833V16.9167C23.3327 17.2387 23.0713 17.5 22.7493 17.5Z" fill="#C29340"/>
<path d="M19.2493 24.5C18.9273 24.5 18.666 24.2387 18.666 23.9167V21.5833C18.666 21.2613 18.9273 21 19.2493 21C19.5713 21 19.8327 21.2613 19.8327 21.5833V23.9167C19.8327 24.2387 19.5713 24.5 19.2493 24.5Z" fill="#C29340"/>
<path d="M22.7493 24.5C22.4273 24.5 22.166 24.2387 22.166 23.9167V21.5833C22.166 21.2613 22.4273 21 22.7493 21C23.0713 21 23.3327 21.2613 23.3327 21.5833V23.9167C23.3327 24.2387 23.0713 24.5 22.7493 24.5Z" fill="#C29340"/>
<path d="M27.4167 28.0026H0.583333C0.261333 28.0026 0 27.7413 0 27.4193C0 27.0973 0.261333 26.8359 0.583333 26.8359H27.4167C27.7387 26.8359 28 27.0973 28 27.4193C28 27.7413 27.7387 28.0026 27.4167 28.0026Z" fill="#C29340"/>
</g>
<defs>
<clipPath id="clip0_647_14503">
<rect width="28" height="28" fill="white"/>
</clipPath>
</defs>
</svg>
