<svg width="29" height="29" viewBox="0 0 29 29" fill="none" xmlns="http://www.w3.org/2000/svg">
<g clip-path="url(#clip0_2930_14358)">
<path d="M20.5083 18.8377L20.5086 18.8378L24.3859 19.8769L20.5083 18.8377ZM20.5083 18.8377C20.3514 18.7965 20.1875 18.8771 20.1256 19.0272L20.1719 19.0463M20.5083 18.8377L20.1719 19.0463M20.1719 19.0463L20.1256 19.0272C19.8645 19.6614 19.5188 20.2589 19.0971 20.8023M20.1719 19.0463L19.0971 20.8023M12.0093 28.364L12.0089 28.3639C8.94869 28.108 6.11128 26.7204 4.01919 24.4577L4.0559 24.4237L4.01918 24.4577C1.91523 22.1816 0.756641 19.2196 0.756641 16.1184C0.756641 10.9166 4.02098 6.29487 8.89708 4.54705C9.07485 4.4833 9.26973 4.58676 9.31815 4.76815L12.0093 28.364ZM12.0093 28.364C12.2029 28.3785 12.3596 28.2273 12.3596 28.0418V24.0301C12.3596 23.867 12.238 23.7293 12.0762 23.7091C8.2672 23.2271 5.3945 19.9638 5.3945 16.1184C5.3945 12.9892 7.26731 10.2059 10.1666 9.02736L10.1666 9.02734C10.3172 8.96595 10.3993 8.80171 10.3573 8.64395L10.3573 8.64385L9.31817 4.76821L12.0093 28.364ZM14.0835 28.3639L14.083 28.364C13.8913 28.3783 13.7333 28.2297 13.7333 28.0418V24.0301C13.7333 23.8671 13.8543 23.7292 14.016 23.7091M14.0835 28.3639L17.7554 22.2123M14.0835 28.3639C16.6295 28.1509 19.0108 27.1646 20.9681 25.5124M14.0835 28.3639L20.9681 25.5124M14.016 23.7091L14.0222 23.7588L14.0159 23.7091C14.016 23.7091 14.016 23.7091 14.016 23.7091ZM14.016 23.7091C15.3641 23.5385 16.6463 23.0071 17.7249 22.1727M17.7249 22.1727C17.7248 22.1728 17.7248 22.1728 17.7248 22.1728L17.7554 22.2123M17.7249 22.1727C17.8535 22.073 18.0365 22.0845 18.1516 22.1998L17.7554 22.2123M17.7249 22.1727L17.7554 22.2123M19.0971 20.8023C18.997 20.931 19.0086 21.1141 19.1239 21.2293L21.961 24.0664C22.0946 24.2 22.3144 24.1911 22.4365 24.0463C23.3809 22.9289 24.1106 21.6681 24.6061 20.2994M19.0971 20.8023L24.6061 20.2994M24.6061 20.2994C24.6061 20.2994 24.6061 20.2994 24.6061 20.2995L24.5591 20.2824L24.6061 20.2994ZM24.6061 20.2994C24.67 20.1233 24.5683 19.9253 24.3861 19.8769L24.6061 20.2994ZM20.9681 25.5124C21.1129 25.3906 21.1221 25.1703 20.9882 25.0369L20.9681 25.5124ZM15.5296 5.52612H15.5296C16.2101 5.5256 16.763 4.97273 16.763 4.29273C16.763 3.61219 16.2096 3.05935 15.5296 3.05935C14.8497 3.05935 14.296 3.61218 14.296 4.29273C14.296 4.97276 14.8496 5.5256 15.5296 5.52612ZM13.9548 12.1087C11.4019 11.5163 8.93062 13.4592 8.93062 16.103C8.93062 18.3642 10.7703 20.2038 13.0314 20.2038C15.2924 20.2038 17.1322 18.3642 17.1322 16.103C17.1322 15.8156 17.1013 15.5355 17.0445 15.2646L19.3012 14.4894L19.3012 14.4894C19.3993 14.4556 19.4632 14.3914 19.4947 14.3144C19.5258 14.2386 19.5241 14.154 19.4985 14.0795C19.4729 14.0049 19.4223 13.9371 19.3512 13.8964C19.279 13.8551 19.1891 13.8439 19.091 13.8777L16.863 14.6433C16.4581 13.583 15.6243 12.734 14.576 12.3056L14.969 10.2895L14.969 10.2895C14.9888 10.1876 14.9651 10.1001 14.9142 10.0344C14.8641 9.9696 14.7899 9.92882 14.7125 9.91376C14.6351 9.89871 14.5511 9.90872 14.4803 9.94996C14.4084 9.99185 14.3535 10.0641 14.3336 10.1659L14.3336 10.166L13.9548 12.1087ZM15.5296 3.70606C15.853 3.70606 16.1161 3.96934 16.1161 4.29273C16.1161 4.61553 15.8531 4.87864 15.5296 4.87941C15.2063 4.87864 14.9429 4.61549 14.9429 4.29273C14.9429 3.96938 15.2064 3.70606 15.5296 3.70606ZM23.5379 10.675C23.8615 10.675 24.1246 10.9386 24.1246 11.2617C24.1246 11.585 23.8615 11.8481 23.5379 11.8481C23.2145 11.8481 22.9514 11.5851 22.9514 11.2617C22.9515 10.9385 23.2146 10.675 23.5379 10.675ZM23.5379 12.4948C24.2178 12.4948 24.7713 11.9422 24.7713 11.2617C24.7713 10.5814 24.2179 10.028 23.5379 10.028C22.8579 10.028 22.3045 10.5814 22.3045 11.2617C22.3045 11.9422 22.8579 12.4948 23.5379 12.4948ZM15.5296 5.94144C14.3117 5.94144 13.2149 6.61122 12.6499 7.65423C11.7312 6.29239 11.897 4.4495 13.0771 3.26939C13.7322 2.61431 14.6032 2.25318 15.5296 2.25313C17.4422 2.25313 18.9981 3.80935 18.9981 5.72166C18.9981 6.43631 18.7804 7.10016 18.4085 7.65266C17.843 6.61045 16.7467 5.94144 15.5296 5.94144ZM17.9543 8.1997C16.6154 9.50941 14.464 9.53194 13.104 8.20122C13.5111 7.22897 14.4625 6.5882 15.5296 6.5882C16.5964 6.5882 17.5473 7.22827 17.9543 8.1997ZM15.5296 9.83719C17.7988 9.83719 19.6451 7.99086 19.6451 5.72172C19.6451 3.45257 17.7988 1.60625 15.5296 1.60625C13.2558 1.60625 11.4146 3.44821 11.4146 5.72172C11.4146 7.99605 13.2552 9.83719 15.5296 9.83719ZM21.1131 15.1683C21.5202 14.1976 22.4716 13.5576 23.5379 13.5576C24.6046 13.5576 25.5557 14.1976 25.9629 15.1683C24.6132 16.4899 22.4626 16.4902 21.1131 15.1683ZM20.0693 12.6911C20.0693 10.7783 21.6253 9.22234 23.5379 9.22234C25.4507 9.22234 27.0064 10.7783 27.0064 12.6911C27.0064 13.405 26.7887 14.0695 26.417 14.6214C25.8513 13.5794 24.755 12.9106 23.5379 12.9106C22.3207 12.9106 21.2245 13.5794 20.659 14.6214C20.2871 14.0695 20.0693 13.4051 20.0693 12.6911ZM23.5379 8.57568C21.2687 8.57568 19.4224 10.4217 19.4224 12.6911C19.4224 14.9603 21.2687 16.8066 23.5379 16.8066C25.8073 16.8066 27.6533 14.9603 27.6533 12.6911C27.6534 10.4217 25.8073 8.57568 23.5379 8.57568ZM16.4853 16.103C16.4853 18.0076 14.9357 19.5569 13.0314 19.5569C11.1268 19.5569 9.57755 18.0075 9.57749 16.103C9.57749 14.1992 11.1268 12.6496 13.0314 12.6496C14.9357 12.6496 16.4853 14.1992 16.4853 16.103ZM20.6108 19.5348L23.8729 20.409C23.4525 21.4702 22.8798 22.4593 22.166 23.3563L19.7792 20.97C20.1038 20.5203 20.3827 20.0397 20.6108 19.5348ZM11.7126 27.6847C5.90332 27.0192 1.40335 22.0055 1.40335 16.1184C1.40335 11.3337 4.35563 7.02215 8.786 5.27996L9.6597 8.54044C6.67841 9.87224 4.74757 12.8345 4.74757 16.1184C4.74757 20.1933 7.72224 23.6654 11.7126 24.31V27.6847ZM17.8922 22.8551L20.2785 25.2416C18.5694 26.5996 16.543 27.4385 14.3803 27.6848V24.3101C15.6454 24.1053 16.849 23.6064 17.8922 22.8551ZM20.9881 25.0368L18.1516 22.1998L20.9881 25.0368Z" fill="#C29340" stroke="#C29340" stroke-width="0.1"/>
<path d="M13.5009 18.2686L12.1086 16.713V16.2686H12.8333C13.0161 16.2686 13.174 16.2046 13.3069 16.0768C13.4399 15.9489 13.52 15.7906 13.5475 15.6019H11.9016V15.1575H13.4854C13.4267 15.0278 13.3396 14.9213 13.2239 14.8379C13.1083 14.7545 12.978 14.7129 12.8333 14.713H11.9016V14.2686H14.386V14.713H13.7131C13.7614 14.776 13.8046 14.8445 13.8425 14.9186C13.8805 14.9926 13.9098 15.0723 13.9305 15.1575H14.386V15.6019H13.9667C13.9391 15.9167 13.8184 16.1806 13.6044 16.3937C13.3905 16.6067 13.1334 16.7132 12.8333 16.713H12.6832L14.0754 18.2686H13.5009Z" fill="#C29340"/>
</g>
<defs>
<clipPath id="clip0_2930_14358">
<rect width="28" height="28" fill="white" transform="translate(0.205078 0.984375)"/>
</clipPath>
</defs>
</svg>
