<svg width="34" height="34" viewBox="0 0 34 34" fill="none" xmlns="http://www.w3.org/2000/svg">
<g clip-path="url(#clip0_1604_150550)">
<path d="M30.459 3.53906H6.37569C4.42209 3.53906 2.83405 5.12717 2.83405 7.08071V26.9141C2.83405 27.3051 3.15141 27.6224 3.54241 27.6224C3.93341 27.6224 4.25069 27.3051 4.25069 26.9141V7.08077C4.25069 5.90917 5.20409 4.95577 6.37569 4.95577H30.459C31.6306 4.95577 32.584 5.90917 32.584 7.08077V26.9141C32.584 28.0857 31.6306 29.0391 30.459 29.0391H3.54234C3.15134 29.0391 2.83398 29.3565 2.83398 29.7475C2.83398 30.1385 3.15134 30.4558 3.54234 30.4558H30.459C32.4126 30.4558 34.0006 28.8677 34.0006 26.9142V7.08077C34.0007 5.12717 32.4126 3.53906 30.459 3.53906Z" fill="#C29340"/>
<path d="M6.375 29.0391H3.54164C2.37004 29.0391 1.41664 28.0857 1.41664 26.9141V11.3308C1.41664 10.1592 2.37004 9.20577 3.54164 9.20577C3.93264 9.20577 4.25 8.88842 4.25 8.49742C4.25 8.10642 3.93264 7.78906 3.54164 7.78906C1.58811 7.78906 0 9.37717 0 11.3308V26.9141C0 28.8677 1.58811 30.4558 3.54164 30.4558H6.375C6.766 30.4558 7.08336 30.1384 7.08336 29.7474C7.08336 29.3564 6.766 29.0391 6.375 29.0391Z" fill="#C29340"/>
<path d="M17.7077 16.2891H6.37437C5.98337 16.2891 5.66602 16.6064 5.66602 16.9974V25.4974C5.66602 25.8884 5.98337 26.2058 6.37437 26.2058H17.7077C18.0987 26.2058 18.4161 25.8884 18.4161 25.4974V16.9974C18.416 16.6064 18.0987 16.2891 17.7077 16.2891ZM16.9994 24.7891H7.08273V17.7058H16.9994V24.7891Z" fill="#C29340"/>
<path d="M30.4591 16.2891H20.5423C20.1513 16.2891 19.834 16.6064 19.834 16.9974C19.834 17.3884 20.1513 17.7058 20.5423 17.7058H30.459C30.85 17.7058 31.1673 17.3884 31.1673 16.9974C31.1673 16.6064 30.8501 16.2891 30.4591 16.2891Z" fill="#C29340"/>
<path d="M30.4591 20.5391H20.5423C20.1513 20.5391 19.834 20.8564 19.834 21.2474C19.834 21.6384 20.1513 21.9558 20.5423 21.9558H30.459C30.85 21.9558 31.1673 21.6384 31.1673 21.2474C31.1673 20.8564 30.8501 20.5391 30.4591 20.5391Z" fill="#C29340"/>
<path d="M30.4591 24.7891H20.5423C20.1513 24.7891 19.834 25.1064 19.834 25.4974C19.834 25.8884 20.1513 26.2058 20.5423 26.2058H30.459C30.85 26.2058 31.1673 25.8884 31.1673 25.4974C31.1673 25.1064 30.8501 24.7891 30.4591 24.7891Z" fill="#C29340"/>
<path d="M30.4577 12.0391H6.37437C5.98337 12.0391 5.66602 12.3564 5.66602 12.7474C5.66602 13.1384 5.98337 13.4558 6.37437 13.4558H30.4577C30.8487 13.4558 31.1661 13.1384 31.1661 12.7474C31.1661 12.3564 30.8487 12.0391 30.4577 12.0391Z" fill="#C29340"/>
<path d="M30.4577 7.78906H6.37437C5.98337 7.78906 5.66602 8.10642 5.66602 8.49742C5.66602 8.88842 5.98337 9.20577 6.37437 9.20577H30.4577C30.8487 9.20577 31.1661 8.88842 31.1661 8.49742C31.1661 8.10642 30.8487 7.78906 30.4577 7.78906Z" fill="#C29340"/>
</g>
<defs>
<clipPath id="clip0_1604_150550">
<rect width="34" height="34" fill="white"/>
</clipPath>
</defs>
</svg>
