<svg width="350" height="233" viewBox="0 0 350 233" fill="none" xmlns="http://www.w3.org/2000/svg">
<path d="M102.61 56.9774L50.25 91.9531L101.825 168.943L154.185 133.967L102.61 56.9774Z" fill="#F5F5F5"/>
<path d="M127.127 130.325L126.535 133.997L100.504 130.25L101.097 126.578L127.127 130.325Z" fill="#E0E0E0"/>
<path d="M114.019 117.219L117.752 117.755L113.613 143.347L109.875 142.807L114.019 117.219Z" fill="#E0E0E0"/>
<path d="M90.0637 84.696C90.1011 84.7472 84.8557 88.3215 78.3457 92.6646C71.8357 97.0077 66.5297 100.493 66.4924 100.437C66.4551 100.382 71.7004 96.812 78.2104 92.4642C84.7204 88.1164 90.0031 84.6401 90.0637 84.696Z" fill="#E0E0E0"/>
<path d="M109.3 79.8676C109.337 79.9235 100.61 85.8138 89.8117 93.0274C79.013 100.241 70.2117 106.043 70.1837 105.992C70.1557 105.94 78.8637 100.041 89.6763 92.827C100.489 85.6134 109.262 79.8117 109.3 79.8676Z" fill="#E0E0E0"/>
<path d="M113.159 85.6254C113.196 85.6813 104.47 91.5762 93.671 98.7899C82.8724 106.004 74.071 111.805 74.043 111.749C74.015 111.693 82.7324 105.803 93.5357 98.5849C104.339 91.3665 113.122 85.5695 113.159 85.6254Z" fill="#E0E0E0"/>
<path d="M117.018 91.391C117.055 91.4469 108.328 97.3418 97.5297 104.551C86.731 111.76 77.9297 117.571 77.9297 117.515C77.9297 117.459 86.6144 111.564 97.4177 104.35C108.221 97.1368 116.98 91.3351 117.018 91.391Z" fill="#E0E0E0"/>
<path d="M120.865 97.1567C120.903 97.2126 112.176 103.103 101.377 110.316C90.5786 117.53 81.7773 123.332 81.754 123.276C81.7306 123.22 90.4526 117.33 101.265 110.116C112.078 102.902 120.865 97.1007 120.865 97.1567Z" fill="#E0E0E0"/>
<path d="M277.697 108.563L233.723 137.938L277.036 202.594L321.01 173.22L277.697 108.563Z" fill="#F5F5F5"/>
<path d="M298.292 170.177L297.793 173.262L275.93 170.116L276.434 167.031L298.292 170.177Z" fill="#E0E0E0"/>
<path d="M287.282 159.172L290.418 159.624L286.941 181.116L283.801 180.664L287.282 159.172Z" fill="#E0E0E0"/>
<path d="M267.145 131.877C267.182 131.932 262.781 134.938 257.312 138.587C251.843 142.236 247.381 145.153 247.344 145.111C247.307 145.069 251.712 142.054 257.177 138.401C262.641 134.747 267.107 131.797 267.145 131.877Z" fill="#E0E0E0"/>
<path d="M283.318 127.797C283.355 127.853 276.033 132.812 266.984 138.865C257.936 144.918 250.53 149.793 250.492 149.737C250.455 149.681 257.777 144.722 266.826 138.664C275.874 132.606 283.266 127.741 283.318 127.797Z" fill="#E0E0E0"/>
<path d="M286.56 132.641C286.597 132.697 279.275 137.655 270.227 143.713C261.178 149.771 253.772 154.636 253.735 154.58C253.697 154.524 260.996 149.589 270.068 143.531C279.14 137.473 286.532 132.59 286.56 132.641Z" fill="#E0E0E0"/>
<path d="M289.798 137.469C289.835 137.525 282.509 142.483 273.465 148.541C264.421 154.599 257.01 159.464 256.973 159.408C256.935 159.352 264.257 154.399 273.306 148.336C282.355 142.274 289.765 137.422 289.798 137.469Z" fill="#E0E0E0"/>
<path d="M293.064 142.321C293.101 142.377 285.779 147.33 276.73 153.388C267.682 159.446 260.276 164.311 260.238 164.26C260.201 164.209 267.523 159.246 276.572 153.188C285.62 147.13 293.003 142.265 293.064 142.321Z" fill="#E0E0E0"/>
<path d="M208.126 59.8059L160.145 34.1797L122.357 104.73L170.338 130.356L208.126 59.8059Z" fill="#F5F5F5"/>
<path d="M162.126 108.287L159.083 109.326L151.355 87.997L154.403 86.9531L162.126 108.287Z" fill="#E0E0E0"/>
<path d="M166.793 92.9844L167.903 96.046L146.689 103.302L145.578 100.24L166.793 92.9844Z" fill="#E0E0E0"/>
<path d="M181.868 61.5115C181.831 61.5814 176.968 59.0557 170.999 55.8729C165.031 52.6901 160.229 50.0479 160.266 49.978C160.303 49.9081 165.171 52.4338 171.139 55.6166C177.108 58.7994 181.905 61.4369 181.868 61.5115Z" fill="#E0E0E0"/>
<path d="M193.383 74.1988C193.346 74.2687 185.291 70.0374 175.393 64.753C165.495 59.4686 157.506 55.1254 157.543 55.0555C157.58 54.9856 165.63 59.2123 175.528 64.5014C185.426 69.7905 193.42 74.1289 193.383 74.1988Z" fill="#E0E0E0"/>
<path d="M190.559 79.4801C190.522 79.55 182.467 75.3233 172.569 70.0343C162.671 64.7452 154.682 60.4067 154.719 60.3368C154.756 60.2669 162.806 64.4982 172.704 69.7826C182.602 75.0671 190.596 79.4102 190.559 79.4801Z" fill="#E0E0E0"/>
<path d="M187.731 84.757C187.693 84.8269 179.639 80.6003 169.741 75.3159C159.843 70.0314 151.853 65.7023 151.891 65.6184C151.928 65.5345 159.978 69.7751 169.876 75.0596C179.774 80.344 187.768 84.6871 187.731 84.757Z" fill="#E0E0E0"/>
<path d="M184.903 90.0379C184.865 90.1078 176.811 85.8812 166.913 80.5968C157.015 75.3123 149.021 70.9692 149.063 70.8993C149.105 70.8294 157.15 75.056 167.048 80.3405C176.946 85.6249 184.94 89.968 184.903 90.0379Z" fill="#E0E0E0"/>
<path opacity="0.2" d="M185.149 0H183.945V20.4947H185.149V0Z" fill="black"/>
<path d="M156.441 45.2944H212.656C212.656 45.2944 207.467 20.5078 184.124 20.5078C163.362 20.5078 156.441 45.2944 156.441 45.2944Z" fill="#EDD5AB"/>
<path d="M185.149 0H183.945V20.4947H185.149V0Z" fill="#EDD5AB"/>
<path d="M309.714 204.957C309.714 205.022 249.398 205.078 175.006 205.078C100.615 205.078 40.2891 205.036 40.2891 204.957C40.2891 204.878 100.596 204.836 175.006 204.836C249.416 204.836 309.714 204.887 309.714 204.957Z" fill="#263238"/>
<path d="M55.2016 175.778C55.9906 175.835 56.76 176.05 57.464 176.41C58.1679 176.77 58.792 177.269 59.2989 177.875C60.3068 179.095 61.0205 180.53 61.3849 182.069C62.1736 185.014 61.6882 188.495 60.8482 191.426C57.6562 190.285 55.6822 186.883 54.7816 185.093C53.3816 182.269 52.5462 176.305 55.1876 175.773" fill="#EDD5AB"/>
<path d="M65.4443 195.003C64.965 194.26 64.6909 193.405 64.6499 192.522C64.6089 191.64 64.8025 190.763 65.211 189.979C65.6322 189.203 66.2041 188.519 66.8932 187.966C67.5822 187.413 68.3747 187.003 69.2243 186.759C70.0036 186.517 70.909 186.419 71.5856 186.871C71.8907 187.101 72.1282 187.409 72.2735 187.763C72.4188 188.116 72.4665 188.502 72.4116 188.879C72.2891 189.637 71.967 190.348 71.4783 190.939C69.9243 193.041 68.039 194.788 65.4116 195.003" fill="#EDD5AB"/>
<path d="M65.8005 204.844C65.7313 204.646 65.6828 204.442 65.6558 204.234C65.5718 203.796 65.4598 203.232 65.3245 202.556C64.9056 200.706 64.789 198.8 64.9792 196.913C65.1992 195.016 65.9226 193.213 67.0745 191.689C67.4265 191.233 67.8323 190.822 68.2832 190.464C68.4057 190.367 68.5334 190.276 68.6658 190.193C68.7079 190.158 68.7552 190.13 68.8058 190.109C68.2155 190.613 67.6763 191.173 67.1958 191.782C66.1047 193.308 65.4176 195.084 65.1985 196.946C64.8998 199.117 65.2685 201.107 65.4832 202.538C65.5952 203.251 65.6885 203.828 65.7398 204.229C65.7766 204.432 65.7969 204.638 65.8005 204.844Z" fill="#263238"/>
<path d="M56.2305 180.266C56.2838 180.339 56.3276 180.419 56.3611 180.503C56.4451 180.69 56.5571 180.923 56.6878 181.216C56.9725 181.836 57.3691 182.735 57.8498 183.849C58.8111 186.081 60.0991 189.185 61.4431 192.643C62.7871 196.1 63.9305 199.255 64.7098 201.553C65.1111 202.699 65.4238 203.631 65.6431 204.279C65.7411 204.586 65.8158 204.833 65.8765 205.024C65.9098 205.11 65.9333 205.199 65.9465 205.29C65.8991 205.211 65.8615 205.126 65.8345 205.038C65.7645 204.852 65.6758 204.609 65.5591 204.307L64.5745 201.604C63.7391 199.325 62.5725 196.175 61.2331 192.722C59.8938 189.269 58.6245 186.156 57.7005 183.91C57.2338 182.805 56.8745 181.906 56.6085 181.249C56.4871 180.951 56.3891 180.713 56.3145 180.522C56.2794 180.439 56.2513 180.353 56.2305 180.266Z" fill="#263238"/>
<path d="M62.0061 198.33C61.0459 196.733 59.7189 195.388 58.1349 194.405C56.5509 193.422 54.7554 192.83 52.8968 192.677C51.9634 192.612 50.8154 192.77 50.3954 193.609C49.9754 194.448 50.5354 195.473 51.1794 196.154C52.5477 197.583 54.3092 198.576 56.2417 199.007C58.1742 199.438 60.1913 199.289 62.0388 198.577" fill="#EDD5AB"/>
<path d="M54.336 195.207C54.5338 195.197 54.7322 195.205 54.9286 195.231C55.1587 195.243 55.3878 195.269 55.6146 195.31C55.8806 195.361 56.1933 195.389 56.52 195.482C56.8851 195.559 57.2451 195.659 57.598 195.78C58.0067 195.912 58.4072 196.067 58.7973 196.246C59.6944 196.648 60.543 197.15 61.3266 197.742C62.1012 198.349 62.8028 199.043 63.4173 199.811C63.6827 200.146 63.9273 200.496 64.15 200.86C64.3512 201.174 64.535 201.499 64.7006 201.834C64.8408 202.106 64.9655 202.386 65.074 202.673C65.1675 202.885 65.247 203.103 65.312 203.325C65.3811 203.511 65.4326 203.703 65.466 203.898C65.4146 203.898 65.1906 203.097 64.5606 201.904C64.3891 201.583 64.2006 201.272 63.996 200.972C63.7685 200.619 63.5224 200.278 63.2586 199.951C62.038 198.445 60.4814 197.245 58.7133 196.447C58.3073 196.27 57.92 196.102 57.542 195.981C57.1949 195.855 56.8413 195.747 56.4826 195.659C55.176 195.3 54.3313 195.258 54.336 195.207Z" fill="#263238"/>
<path d="M288.423 201.268C288.423 201.268 288.287 201.455 288.045 201.59C287.907 201.683 287.744 201.732 287.578 201.73C287.712 201.64 287.854 201.563 288.003 201.501C288.231 201.376 288.399 201.245 288.423 201.268Z" fill="#263238"/>
<path d="M279.468 42.8715C279.398 42.8715 279.127 40.3831 278.856 37.2795C278.586 34.1759 278.418 31.6875 278.483 31.6875C278.548 31.6875 278.824 34.1759 279.094 37.2795C279.365 40.3831 279.533 42.8715 279.468 42.8715Z" fill="#263238"/>
<path d="M292.727 31.8754C292.778 31.9126 290.739 34.8717 288.167 38.4832C285.596 42.0947 283.463 45.0072 283.407 44.9513C283.351 44.8954 285.395 41.9549 287.967 38.3434C290.538 34.7319 292.671 31.8381 292.727 31.8754Z" fill="#263238"/>
<path d="M298.23 45.2877C298.23 45.3529 295.86 45.8981 292.91 46.5039C289.961 47.1097 287.553 47.5478 287.539 47.4825C287.525 47.4173 289.905 46.8721 292.859 46.2663C295.813 45.6605 298.198 45.2224 298.23 45.2877Z" fill="#263238"/>
<path d="M139.534 109.294L123.014 194.013L120.867 205.104L231.001 204.573C235.947 204.549 240.334 200.164 241.916 193.65L261.451 113.67C262.659 108.726 260.009 103.581 256.257 103.586L144.761 103.702C142.334 103.698 140.159 105.991 139.534 109.294Z" fill="#C29340"/>
<path d="M220.45 188.261L208.784 94.4043C208.317 90.5598 205.242 87.6892 201.616 87.7032L176.042 87.7824C175.092 87.7931 174.154 87.9969 173.285 88.3815C172.416 88.7661 171.634 89.3233 170.988 90.0192L158.855 102.913L87.7349 103.296C83.3902 103.319 80.0489 107.429 80.6229 112.042L91.4542 198.788C91.9209 202.628 94.9962 205.494 98.6129 205.489L222.583 205.242C236.387 205.527 237.708 201.458 237.708 201.458C221.86 204.958 220.45 188.285 220.45 188.261Z" fill="#EDD5AB"/>
<g opacity="0.5">
<path d="M166.995 169.492L162.813 173.975L130.613 145.045L134.795 140.562L166.995 169.492Z" fill="white"/>
<path d="M161.064 139.57L165.684 143.722L136.55 174.968L131.926 170.816L161.064 139.57Z" fill="white"/>
</g>
<path d="M233.349 81.404C233.198 81.3405 233.068 81.2353 232.975 81.1008C232.881 80.9663 232.828 80.808 232.822 80.6445L232.635 76.32C232.628 76.1856 232.653 76.0516 232.708 75.9284C232.762 75.8053 232.844 75.6965 232.948 75.6106C233.051 75.5247 233.174 75.464 233.305 75.4335C233.436 75.4029 233.573 75.4033 233.704 75.4346C234.065 75.5124 234.439 75.5158 234.801 75.4445C235.164 75.3732 235.508 75.2287 235.813 75.0198C236.094 74.8425 236.335 74.6095 236.522 74.3354C236.709 74.0613 236.838 73.7519 236.9 73.4261C236.943 73.0963 236.918 72.7614 236.828 72.4412C236.739 72.121 236.585 71.8221 236.378 71.5621C236.159 71.2664 235.884 71.0166 235.569 70.8271C235.253 70.6376 234.903 70.512 234.539 70.4577C233.805 70.4169 233.078 70.6248 232.477 71.0476C231.876 71.4705 231.435 72.0836 231.226 72.7877C231.156 73.0011 231.007 73.1793 230.809 73.2854C230.61 73.3914 230.379 73.4171 230.163 73.357C229.946 73.297 229.761 73.1558 229.646 72.9629C229.531 72.7701 229.495 72.5404 229.546 72.3217C229.863 71.2142 230.553 70.2497 231.499 69.5903C232.445 68.9309 233.589 68.6168 234.74 68.7009C235.339 68.7806 235.915 68.9796 236.436 69.2862C236.956 69.5928 237.409 70.0007 237.768 70.4857C238.118 70.9351 238.374 71.4501 238.52 72C238.667 72.5499 238.702 73.1236 238.622 73.6871C238.516 74.2498 238.296 74.7849 237.975 75.2593C237.654 75.7338 237.239 76.1376 236.756 76.4458C236.056 76.9165 235.238 77.1828 234.394 77.2147L234.539 80.5513C234.544 80.6979 234.513 80.8434 234.447 80.9745C234.381 81.1056 234.283 81.218 234.162 81.3011C234.041 81.3843 233.901 81.4357 233.755 81.4504C233.608 81.4651 233.461 81.4428 233.326 81.3854L233.349 81.404Z" fill="#C29340"/>
<path d="M239.43 50.1324C239.44 50.2732 239.408 50.4136 239.338 50.5361C239.268 50.6585 239.163 50.7574 239.036 50.8203C238.91 50.8832 238.767 50.9072 238.627 50.8893C238.487 50.8713 238.355 50.8123 238.249 50.7196C238.142 50.627 238.066 50.5048 238.029 50.3687C237.992 50.2325 237.996 50.0885 238.041 49.9548C238.086 49.8211 238.17 49.7037 238.282 49.6175C238.394 49.5314 238.529 49.4803 238.67 49.4707C238.763 49.4637 238.857 49.4754 238.946 49.505C239.035 49.5345 239.117 49.5814 239.188 49.643C239.259 49.7045 239.317 49.7795 239.358 49.8635C239.4 49.9475 239.424 50.0389 239.43 50.1324Z" fill="#C29340"/>
<path d="M235.798 59.1356C235.89 59.1556 235.984 59.1696 236.078 59.1775C236.283 59.1775 236.545 59.2288 236.913 59.266C237.366 59.3119 237.815 59.3882 238.257 59.4944C238.519 59.5549 238.808 59.5876 239.102 59.6808C239.396 59.774 239.713 59.8672 240.035 59.9697C241.631 60.5092 243.132 61.2954 244.483 62.2997C246.232 63.6158 247.686 65.2844 248.748 67.1973C249.363 68.2861 249.842 69.4457 250.176 70.6504C250.521 71.9505 250.697 73.2897 250.699 74.6347C250.71 75.3432 250.673 76.0516 250.587 76.755C250.549 77.1138 250.456 77.468 250.395 77.8268C250.333 78.1897 250.246 78.5478 250.134 78.8986C249.723 80.3674 249.089 81.7646 248.253 83.0413C246.41 85.8803 243.69 88.0427 240.507 89.2019C238.801 89.8261 236.998 90.1417 235.182 90.1339C233.311 90.1531 231.453 89.8228 229.703 89.1599L229.171 88.9502L229.101 88.9223L229.031 88.9502C226.339 90.1199 223.693 91.2802 221.131 92.3753L221.355 92.5711L224.038 85.5811L224.071 85.4972L224.005 85.4273C222.211 83.5782 220.903 81.3145 220.197 78.838C219.614 76.722 219.487 74.5064 219.824 72.3376C220.161 70.1688 220.955 68.096 222.153 66.256C223.142 64.749 224.381 63.4207 225.816 62.3277C227.911 60.7437 230.374 59.7174 232.975 59.3453C233.441 59.2893 233.833 59.2427 234.188 59.2008C234.543 59.1588 234.832 59.2008 235.079 59.1775C235.327 59.1542 235.49 59.1775 235.625 59.1775C235.629 59.2007 235.641 59.2218 235.66 59.2364C235.678 59.2511 235.701 59.2582 235.725 59.2564C235.748 59.2547 235.77 59.2441 235.786 59.2269C235.802 59.2096 235.811 59.187 235.811 59.1635C235.811 59.14 235.802 59.1174 235.786 59.1001C235.77 59.0829 235.748 59.0723 235.725 59.0706C235.701 59.0688 235.678 59.076 235.66 59.0906C235.641 59.1052 235.629 59.1263 235.625 59.1495C235.49 59.1495 235.308 59.1495 235.079 59.1495C234.851 59.1495 234.533 59.1495 234.179 59.1495C233.824 59.1495 233.418 59.2287 232.956 59.2753C231.834 59.4286 230.73 59.6956 229.661 60.0722C228.251 60.6057 226.917 61.3233 225.695 62.2065C224.234 63.3039 222.972 64.6418 221.961 66.1628C220.733 68.0255 219.916 70.1276 219.564 72.3298C219.211 74.532 219.332 76.7838 219.917 78.9359C220.63 81.4421 221.951 83.7342 223.763 85.609L223.73 85.4552L221.033 92.4452L220.897 92.7947L221.257 92.641C223.819 91.5319 226.46 90.3855 229.157 89.2205L229.022 89.2205L229.568 89.4349C231.356 90.1148 233.255 90.4531 235.168 90.4321C237.023 90.4467 238.866 90.1311 240.609 89.5001C243.856 88.316 246.627 86.1054 248.501 83.2045C249.356 81.8956 250.001 80.4617 250.414 78.9545C250.527 78.598 250.613 78.2335 250.671 77.8641C250.736 77.5006 250.829 77.1418 250.862 76.7783C250.951 76.0657 250.991 75.348 250.983 74.6301C250.978 73.2635 250.793 71.9037 250.433 70.5852C250.086 69.3645 249.594 68.1896 248.967 67.0855C247.879 65.1535 246.392 63.4745 244.604 62.1599C243.231 61.1587 241.705 60.3831 240.087 59.8625C239.751 59.7647 239.429 59.6715 239.153 59.5876C238.872 59.5135 238.587 59.4544 238.299 59.4105C237.854 59.3106 237.402 59.2451 236.946 59.2148C236.587 59.1868 236.311 59.1682 236.106 59.1542C236.005 59.1346 235.901 59.1283 235.798 59.1356Z" fill="#263238"/>
</svg>
