<svg width="24" height="24" viewBox="0 0 24 24" fill="none" xmlns="http://www.w3.org/2000/svg">
<rect x="-1" y="1" width="22" height="22" rx="3" transform="matrix(-1 0 0 1 22 0)" fill="#EADDC7" stroke="#EADDC7" stroke-width="2"/>
<g clip-path="url(#clip0_447_13173)">
<path fill-rule="evenodd" clip-rule="evenodd" d="M10.4 6.24156C8.98613 6.24156 7.83995 7.38771 7.83995 8.80156C7.83995 10.2154 8.98613 11.3616 10.4 11.3616C11.8138 11.3616 12.96 10.2154 12.96 8.80156C12.96 7.38771 11.8138 6.24156 10.4 6.24156ZM7.19995 8.80156C7.19995 7.03425 8.63265 5.60156 10.4 5.60156C12.1673 5.60156 13.6 7.03425 13.6 8.80156C13.6 10.5689 12.1673 12.0016 10.4 12.0016C8.63265 12.0016 7.19995 10.5689 7.19995 8.80156Z" fill="white" stroke="white" stroke-width="0.32"/>
<path fill-rule="evenodd" clip-rule="evenodd" d="M15.7014 15.1799C12.3865 13.4184 8.41314 13.4184 5.09832 15.1799C5.01311 15.2252 4.95986 15.3138 4.95986 15.4103V17.7603C4.95986 17.937 5.10313 18.0803 5.27986 18.0803H15.5199C15.6966 18.0803 15.8399 17.937 15.8399 17.7603V15.4103C15.8399 15.3138 15.7866 15.2252 15.7014 15.1799H15.7014ZM4.79797 14.6147C8.30062 12.7534 12.499 12.7534 16.0017 14.6147C16.2959 14.7711 16.4798 15.0771 16.4798 15.4103V17.7603C16.4798 18.2905 16.05 18.7203 15.5198 18.7203H5.27982C4.74963 18.7203 4.31982 18.2905 4.31982 17.7603V15.4103C4.31982 15.0771 4.50373 14.7711 4.79796 14.6147H4.79797Z" fill="white" stroke="white" stroke-width="0.32"/>
<path d="M17.7911 9.70404L19.3559 9.83984C19.356 9.83984 19.3561 9.83985 19.3562 9.83986C19.7223 9.86921 19.8639 10.3251 19.5886 10.5634C19.5886 10.5634 19.5886 10.5634 19.5886 10.5634L18.4018 11.5918L18.7575 13.1215C18.8401 13.4767 18.4557 13.7582 18.1415 13.568L16.7995 12.7564L15.4577 13.5647L15.4575 13.5648L15.4163 13.4963L17.7911 9.70404ZM17.7911 9.70404L17.18 8.26529C17.18 8.26523 17.18 8.26517 17.1799 8.26511C17.0391 7.92995 16.5601 7.92996 16.4192 8.26514L16.4193 8.26504L16.4929 8.29625L16.4192 8.26529L17.7911 9.70404ZM14.8417 13.1181L14.8417 13.1181L14.2466 9.83984L14.2529 9.91958L14.2462 9.83987L14.2464 9.83985C13.882 9.86901 13.734 10.3239 14.0105 10.5634C14.0105 10.5634 14.0105 10.5634 14.0106 10.5634L15.1974 11.5918L14.8417 13.1181ZM15.8081 9.70728L15.7893 9.7517L15.8629 9.78292L15.8562 9.7032L15.8081 9.70728ZM16.841 11.9711L16.7996 11.9461L16.7582 11.9711L15.6673 12.6297L15.9575 11.3878L15.9685 11.3408L15.932 11.3092L14.9681 10.473L16.2398 10.3626L16.2879 10.3584L16.3066 10.314L16.7997 9.14512L17.2959 10.3174L17.3147 10.3618L17.3627 10.366L18.6344 10.4763L17.6705 11.3125L17.634 11.3441L17.645 11.3911L17.9351 12.6328L16.841 11.9711Z" fill="white" stroke="white" stroke-width="0.16"/>
</g>
<defs>
<clipPath id="clip0_447_13173">
<rect width="16" height="16" fill="white" transform="translate(4 4)"/>
</clipPath>
</defs>
</svg>
