<svg width="29" height="29" viewBox="0 0 29 29" fill="none" xmlns="http://www.w3.org/2000/svg">
<g clip-path="url(#clip0_2930_14495)">
<path d="M9.45263 26.7074C9.05111 27.7742 6.73999 29.5634 6.16655 28.1551L3.92207 22.6547C3.91591 22.6402 3.91087 22.6262 3.90807 22.6116C3.75575 22.1877 3.94447 21.8528 4.32583 21.5991C5.07175 21.1024 6.76575 20.9226 7.36551 21.3544L7.79727 21.0038C9.13231 19.8894 10.0149 19.4829 11.2833 19.4151C10.9977 18.5326 10.926 17.585 11.0341 16.6134C11.2323 14.8293 12.5517 13.0087 13.7008 11.5102C13.3564 11.1926 13.2326 10.7262 13.4006 10.2972C12.6704 9.93377 12.5578 9.08761 12.9974 8.47329C12.3719 7.88585 12.4929 6.77145 13.2735 6.36377C12.7415 5.50641 13.3071 4.28281 14.3722 4.19881L13.2343 2.27801C12.9694 1.84289 13.096 1.39041 13.5933 1.21625C14.314 0.962009 15.7537 1.34337 16.5982 1.71297C17.1022 1.13113 18.1455 0.605848 18.9626 0.678648C19.685 0.741928 20.0882 1.26889 19.9566 2.06745L19.8373 2.79265C21.123 3.03401 21.4355 3.45289 22.2643 4.04033C22.3769 3.68025 22.7073 3.43217 23.0864 3.39745L25.7313 3.15161C26.2616 3.10233 26.6709 3.56433 26.6709 4.05937V11.5169C26.6709 12.0231 26.2437 12.4885 25.7201 12.4246L23.0752 12.1026C22.6087 12.0455 22.2246 11.6821 22.2246 11.1949V11.0426C21.7105 11.3522 21.2451 11.5869 20.8117 11.7616C22.037 13.1806 23.031 14.5123 23.2611 16.4477C23.4532 18.0655 23.2118 19.5635 22.4547 20.7922C24.2389 20.4097 25.2995 21.9671 23.7326 22.8989L20.3961 24.8863C20.2231 24.9894 19.1149 25.3993 18.0021 25.7723C17.3385 25.9963 15.9525 26.4392 15.7213 26.4487V26.4504L9.47951 26.7058C9.47167 26.7058 9.46215 26.7058 9.45263 26.7074ZM8.68431 26.6823L6.71255 21.8567C6.71087 21.8517 6.21247 21.9362 5.69335 22.0281C5.39991 22.0791 5.02807 22.1709 4.80295 22.3215C4.76935 22.3439 4.72679 22.3154 4.72343 22.3232L6.96959 27.8297C6.97743 27.8487 6.97127 27.8028 6.98863 27.7994C7.21879 27.7631 7.57103 27.5357 7.77431 27.385C8.23519 27.044 8.68935 26.6935 8.68431 26.6823ZM12.2022 19.4151C12.8703 19.4437 13.7786 19.5355 14.7088 19.6296C16.4325 19.8027 16.4028 21.6423 14.9725 22.1502C15.2581 22.2678 15.7918 22.4408 16.0948 22.4867C16.3395 22.5231 17.9344 22.5931 18.0867 22.531L20.7601 21.4407C21.37 20.9372 21.8589 20.2675 22.1523 19.423C22.4301 18.6261 22.5331 17.6707 22.3998 16.5496C22.1809 14.7005 21.1236 13.4304 19.9185 12.0522C18.8231 12.3222 17.8566 12.2314 16.6167 12.1155C16.0914 12.0662 15.5152 12.0125 14.8465 11.9822C14.832 11.9822 14.818 11.9806 14.8034 11.9789C14.6892 11.9615 14.5828 11.9408 14.4825 11.9139C13.4096 13.3078 12.0745 15.0886 11.8953 16.7081C11.7895 17.6545 11.8735 18.5751 12.2022 19.4151ZM7.90199 22.0359C7.85607 22.0723 7.81015 22.1087 7.76367 22.1423L9.27959 25.8551C9.33839 25.8473 9.39215 25.8423 9.44647 25.8406C9.70687 25.8294 11.78 25.747 13.5165 25.6754C14.4053 25.639 15.2117 25.6054 15.6468 25.5863C16.0931 25.4833 16.9152 25.2246 17.7277 24.9513C18.7979 24.5923 19.8278 24.2194 19.9549 24.1432L23.2913 22.1574C23.4991 22.0337 23.6643 21.8814 23.615 21.8069C23.5915 21.7722 23.545 21.7352 23.4818 21.7022C23.2213 21.5689 22.7896 21.5482 22.3181 21.7402L18.4115 23.334C18.2245 23.4102 17.7149 23.4275 17.1733 23.4135C16.9146 23.4057 15.859 23.3609 15.5605 23.2819L11.4697 22.1927C11.281 22.1418 11.1427 21.9671 11.1477 21.7643C11.1539 21.5247 11.3527 21.3359 11.5907 21.3421L14.2149 21.4043C14.9149 21.4199 15.2514 20.9647 15.1405 20.7295C15.0437 20.5279 14.7245 20.501 14.4439 20.4724C11.1802 20.1454 10.2865 20.0546 8.35447 21.6691C8.19095 21.8041 8.04143 21.9262 7.90199 22.0359ZM8.72407 9.03665C8.89375 8.86697 9.16871 8.86697 9.33839 9.03665C9.50807 9.20633 9.50807 9.48129 9.33839 9.65097L4.83655 14.1528C4.66687 14.3208 4.39191 14.3208 4.22223 14.1528C4.05423 13.9831 4.05423 13.7082 4.22223 13.5385L8.72407 9.03665ZM6.10943 8.96329C7.02223 9.87609 6.37319 11.443 5.08239 11.443C3.79327 11.443 3.14423 9.87609 4.05535 8.96329C4.62375 8.39657 5.54271 8.39657 6.10943 8.96329ZM5.66647 9.99033C5.66647 9.47121 5.03647 9.21081 4.66967 9.57761C4.30287 9.94441 4.56327 10.5744 5.08239 10.5744C5.40663 10.575 5.66647 10.3146 5.66647 9.99033ZM9.50527 12.1698C10.4181 13.0826 9.76903 14.6495 8.47823 14.6495C7.18743 14.6495 6.54007 13.0826 7.45119 12.1698C8.01903 11.6031 8.93855 11.6031 9.50527 12.1698ZM9.06231 13.1969C9.06231 12.6778 8.43231 12.4174 8.06551 12.7842C7.69871 13.151 7.95911 13.781 8.47823 13.781C8.80023 13.7815 9.06231 13.5211 9.06231 13.1969ZM6.78087 6.29377C9.70799 6.29377 12.0813 8.66705 12.0813 11.5942C12.0813 14.5213 9.70799 16.8962 6.78087 16.8962C3.85375 16.8962 1.48047 14.5213 1.48047 11.5942C1.48103 8.66649 3.85375 6.29377 6.78087 6.29377ZM9.91463 8.46041C8.18423 6.72833 5.37807 6.72833 3.64599 8.46041C1.91559 10.1908 1.91559 12.997 3.64599 14.729C5.37807 16.4594 8.18423 16.4594 9.91463 14.729C11.6467 12.997 11.6467 10.1908 9.91463 8.46041ZM25.7884 4.01569L23.1642 4.25873C23.1374 4.26209 23.0926 4.27609 23.0926 4.30465L23.097 11.2083C23.1127 11.2257 23.1413 11.2369 23.1765 11.2419L25.7912 11.5611L25.8024 11.518V4.05993L25.7884 4.01569ZM15.3802 4.19825C16.0993 4.20329 17.0692 4.22233 17.912 3.99161C18.3583 3.86953 18.7374 3.68025 18.8629 3.38513L19.1026 1.92969C19.1502 1.63625 19.1025 1.56009 18.8881 1.54105C18.3292 1.49009 17.3279 1.99801 17.1532 2.41577C17.0451 2.67001 16.7741 2.76353 16.5484 2.64761C15.7767 2.25057 14.7116 1.96833 14.0765 2.00137L15.3802 4.19825ZM16.6946 11.2559C18.6568 11.4385 19.8725 11.5527 22.2251 10.0211V5.05225C21.8359 4.81089 21.5581 4.59977 21.314 4.41385C20.852 4.06161 20.5216 3.81073 19.6978 3.64889C19.2532 4.97273 16.9482 5.06961 15.8915 5.06625L14.4932 5.05841C14.0614 5.05841 13.8296 5.54393 13.9853 5.86481C14.0805 6.06025 14.3375 6.21257 14.8124 6.21257V7.07777H13.9343C13.5277 7.07777 13.3866 7.43785 13.4992 7.70665C13.5501 7.82873 13.6689 7.92729 13.8581 7.94297C13.9567 7.93177 14.0581 7.93345 14.1645 7.94913C14.4008 7.98553 14.5643 8.20617 14.5296 8.44305C14.4949 8.66985 14.2899 8.82889 14.0642 8.81153H13.9354C13.7484 8.83057 13.5149 9.18001 13.6403 9.39561C13.7165 9.52553 13.9242 9.62241 14.3246 9.61961C14.3515 9.61625 14.3801 9.61625 14.4086 9.61625C14.6483 9.61625 14.8421 9.81001 14.8421 10.0497C14.8421 10.2894 14.6483 10.4848 14.4086 10.4848C14.2501 10.4848 14.1404 10.6388 14.2182 10.7866C14.3229 10.9832 14.6942 11.0991 14.9121 11.1198C15.5768 11.1512 16.1609 11.205 16.6946 11.2559Z" fill="#C29340"/>
<path d="M18.0074 19.6719L16.3262 17.7274V17.1719H17.2012C17.422 17.1719 17.6127 17.092 17.7732 16.9322C17.9337 16.7723 18.0305 16.5745 18.0637 16.3385H16.0762V15.783H17.9887C17.9178 15.6209 17.8126 15.4878 17.6729 15.3835C17.5333 15.2793 17.376 15.2272 17.2012 15.2274H16.0762V14.6719H19.0762V15.2274H18.2637C18.322 15.3061 18.3741 15.3918 18.4199 15.4844C18.4658 15.577 18.5012 15.6765 18.5262 15.783H19.0762V16.3385H18.5699C18.5366 16.7321 18.3908 17.062 18.1324 17.3283C17.8741 17.5946 17.5637 17.7276 17.2012 17.7274H17.0199L18.7012 19.6719H18.0074Z" fill="#C29340"/>
</g>
<defs>
<clipPath id="clip0_2930_14495">
<rect width="28" height="28" fill="white" transform="translate(0.0761719 0.671875)"/>
</clipPath>
</defs>
</svg>
