<svg width="166" height="24" viewBox="0 0 166 24" fill="none" xmlns="http://www.w3.org/2000/svg">
<path d="M29.092 12.374C29.092 14.67 30.366 16.168 32.9 16.168C35.434 16.168 36.708 14.684 36.708 12.36V6.662H35.546V12.346C35.546 14.054 34.622 15.132 32.9 15.132C31.178 15.132 30.254 14.054 30.254 12.346V6.662H29.092V12.374ZM39.9027 18.576V14.978C40.4487 15.734 41.2607 16.168 42.1847 16.168C43.9627 16.168 45.1947 14.796 45.1947 12.612C45.1947 10.414 43.9627 9.07 42.1847 9.07C41.2327 9.07 40.3927 9.56 39.9027 10.246V9.238H38.8527V18.576H39.9027ZM44.0887 12.612C44.0887 14.11 43.2767 15.23 41.9187 15.23C41.0927 15.23 40.2667 14.726 39.9027 14.138V11.086C40.2667 10.498 41.0927 10.008 41.9187 10.008C43.2767 10.008 44.0887 11.114 44.0887 12.612ZM46.8918 16H47.9418V6.662H46.8918V16ZM52.9903 16.168C55.0483 16.168 56.3363 14.572 56.3363 12.612C56.3363 10.652 55.0483 9.07 52.9903 9.07C50.9323 9.07 49.6443 10.652 49.6443 12.612C49.6443 14.572 50.9323 16.168 52.9903 16.168ZM52.9903 15.23C51.5483 15.23 50.7363 13.998 50.7363 12.612C50.7363 11.24 51.5483 10.008 52.9903 10.008C54.4323 10.008 55.2303 11.24 55.2303 12.612C55.2303 13.998 54.4323 15.23 52.9903 15.23ZM62.276 16H63.326V11.352C63.326 9.714 62.136 9.07 60.708 9.07C59.602 9.07 58.734 9.434 58.006 10.19L58.496 10.918C59.098 10.274 59.756 9.98 60.568 9.98C61.548 9.98 62.276 10.498 62.276 11.408V12.626C61.73 11.996 60.96 11.702 60.036 11.702C58.888 11.702 57.67 12.416 57.67 13.928C57.67 15.398 58.888 16.168 60.036 16.168C60.946 16.168 61.716 15.846 62.276 15.23V16ZM62.276 14.572C61.87 15.132 61.156 15.412 60.414 15.412C59.434 15.412 58.748 14.796 58.748 13.942C58.748 13.074 59.434 12.458 60.414 12.458C61.156 12.458 61.87 12.738 62.276 13.298V14.572ZM70.3309 16H71.3809V6.662H70.3309V10.26C69.7849 9.518 68.9589 9.07 68.0489 9.07C66.2709 9.07 65.0389 10.47 65.0389 12.626C65.0389 14.824 66.2849 16.168 68.0489 16.168C69.0009 16.168 69.8269 15.678 70.3309 14.992V16ZM70.3309 14.166C69.9529 14.754 69.1409 15.23 68.3009 15.23C66.9429 15.23 66.1309 14.124 66.1309 12.626C66.1309 11.128 66.9429 10.008 68.3009 10.008C69.1409 10.008 69.9529 10.512 70.3309 11.1V14.166ZM73.0916 12.612C73.0916 14.726 74.5336 16.168 76.5356 16.168C77.6416 16.168 78.5516 15.804 79.2236 15.132L78.7196 14.446C78.1876 14.992 77.4036 15.3 76.6336 15.3C75.1776 15.3 74.2816 14.236 74.1976 12.962H79.6716V12.696C79.6716 10.666 78.4676 9.07 76.4236 9.07C74.4916 9.07 73.0916 10.652 73.0916 12.612ZM76.4096 9.938C77.9496 9.938 78.6216 11.184 78.6356 12.192H74.1976C74.2536 11.156 74.9676 9.938 76.4096 9.938ZM86.2723 16H87.3223V6.662H86.2723V10.26C85.7263 9.518 84.9003 9.07 83.9903 9.07C82.2123 9.07 80.9803 10.47 80.9803 12.626C80.9803 14.824 82.2263 16.168 83.9903 16.168C84.9423 16.168 85.7683 15.678 86.2723 14.992V16ZM86.2723 14.166C85.8943 14.754 85.0823 15.23 84.2423 15.23C82.8843 15.23 82.0723 14.124 82.0723 12.626C82.0723 11.128 82.8843 10.008 84.2423 10.008C85.0823 10.008 85.8943 10.512 86.2723 11.1V14.166ZM92.4464 15.104C93.1324 15.832 94.0704 16.168 95.1764 16.168C96.9264 16.168 97.8364 15.258 97.8364 14.124C97.8364 12.626 96.4784 12.29 95.3024 12.024C94.4204 11.814 93.6504 11.604 93.6504 10.946C93.6504 10.344 94.2244 9.924 95.1484 9.924C96.0164 9.924 96.7584 10.288 97.1644 10.778L97.6544 10.05C97.1084 9.504 96.2964 9.07 95.1484 9.07C93.5384 9.07 92.6284 9.966 92.6284 11.016C92.6284 12.416 93.9304 12.724 95.0784 12.99C95.9884 13.214 96.8144 13.452 96.8144 14.194C96.8144 14.852 96.2544 15.314 95.2184 15.314C94.2944 15.314 93.4404 14.866 92.9924 14.348L92.4464 15.104ZM104.106 16H105.156V9.238H104.106V14.208C103.714 14.754 102.93 15.23 102.104 15.23C101.194 15.23 100.592 14.88 100.592 13.69V9.238H99.5422V14.012C99.5422 15.482 100.284 16.168 101.698 16.168C102.706 16.168 103.588 15.636 104.106 15.048V16ZM106.861 12.612C106.861 14.628 108.219 16.168 110.235 16.168C111.467 16.168 112.195 15.664 112.713 14.992L112.013 14.348C111.565 14.95 110.991 15.23 110.291 15.23C108.849 15.23 107.953 14.11 107.953 12.612C107.953 11.114 108.849 10.008 110.291 10.008C110.991 10.008 111.565 10.274 112.013 10.89L112.713 10.246C112.195 9.574 111.467 9.07 110.235 9.07C108.219 9.07 106.861 10.61 106.861 12.612ZM113.793 12.612C113.793 14.628 115.151 16.168 117.167 16.168C118.399 16.168 119.127 15.664 119.645 14.992L118.945 14.348C118.497 14.95 117.923 15.23 117.223 15.23C115.781 15.23 114.885 14.11 114.885 12.612C114.885 11.114 115.781 10.008 117.223 10.008C117.923 10.008 118.497 10.274 118.945 10.89L119.645 10.246C119.127 9.574 118.399 9.07 117.167 9.07C115.151 9.07 113.793 10.61 113.793 12.612ZM120.724 12.612C120.724 14.726 122.166 16.168 124.168 16.168C125.274 16.168 126.184 15.804 126.856 15.132L126.352 14.446C125.82 14.992 125.036 15.3 124.266 15.3C122.81 15.3 121.914 14.236 121.83 12.962H127.304V12.696C127.304 10.666 126.1 9.07 124.056 9.07C122.124 9.07 120.724 10.652 120.724 12.612ZM124.042 9.938C125.582 9.938 126.254 11.184 126.268 12.192H121.83C121.886 11.156 122.6 9.938 124.042 9.938ZM128.417 15.104C129.103 15.832 130.041 16.168 131.147 16.168C132.897 16.168 133.807 15.258 133.807 14.124C133.807 12.626 132.449 12.29 131.273 12.024C130.391 11.814 129.621 11.604 129.621 10.946C129.621 10.344 130.195 9.924 131.119 9.924C131.987 9.924 132.729 10.288 133.135 10.778L133.625 10.05C133.079 9.504 132.267 9.07 131.119 9.07C129.509 9.07 128.599 9.966 128.599 11.016C128.599 12.416 129.901 12.724 131.049 12.99C131.959 13.214 132.785 13.452 132.785 14.194C132.785 14.852 132.225 15.314 131.189 15.314C130.265 15.314 129.411 14.866 128.963 14.348L128.417 15.104ZM134.925 15.104C135.611 15.832 136.549 16.168 137.655 16.168C139.405 16.168 140.315 15.258 140.315 14.124C140.315 12.626 138.957 12.29 137.781 12.024C136.899 11.814 136.129 11.604 136.129 10.946C136.129 10.344 136.703 9.924 137.627 9.924C138.495 9.924 139.237 10.288 139.643 10.778L140.133 10.05C139.587 9.504 138.775 9.07 137.627 9.07C136.017 9.07 135.107 9.966 135.107 11.016C135.107 12.416 136.409 12.724 137.557 12.99C138.467 13.214 139.293 13.452 139.293 14.194C139.293 14.852 138.733 15.314 137.697 15.314C136.773 15.314 135.919 14.866 135.471 14.348L134.925 15.104ZM142.315 16H143.365V10.162H144.737V9.238H143.365V8.72C143.365 7.866 143.743 7.39 144.429 7.39C144.667 7.39 144.863 7.446 145.031 7.544L145.297 6.76C145.031 6.592 144.667 6.522 144.275 6.522C143.099 6.522 142.315 7.32 142.315 8.72V9.238H141.195V10.162H142.315V16ZM150.55 16H151.6V9.238H150.55V14.208C150.158 14.754 149.374 15.23 148.548 15.23C147.638 15.23 147.036 14.88 147.036 13.69V9.238H145.986V14.012C145.986 15.482 146.728 16.168 148.142 16.168C149.15 16.168 150.032 15.636 150.55 15.048V16ZM153.696 16H154.746V6.662H153.696V16ZM156.841 16H157.891V6.662H156.841V16ZM159.776 17.694L159.608 18.646C159.804 18.702 160.154 18.744 160.378 18.744C161.274 18.73 161.96 18.352 162.366 17.372L165.754 9.238H164.606L162.366 14.782L160.112 9.238H158.978L161.806 16.07L161.358 17.092C161.12 17.652 160.812 17.806 160.35 17.806C160.182 17.806 159.93 17.764 159.776 17.694Z" fill="black" fill-opacity="0.85"/>
<path fill-rule="evenodd" clip-rule="evenodd" d="M7.52038 4.14427C8.29229 4.08264 9.02507 3.77903 9.61438 3.27667C10.28 2.70978 11.1257 2.39844 12 2.39844C12.8743 2.39844 13.72 2.70978 14.3856 3.27667C14.9749 3.77903 15.7077 4.08264 16.4796 4.14427C17.3513 4.21394 18.1697 4.59182 18.7881 5.21019C19.4064 5.82855 19.7843 6.64695 19.854 7.51867C19.9152 8.29027 20.2188 9.02347 20.7216 9.61267C21.2885 10.2783 21.5998 11.124 21.5998 11.9983C21.5998 12.8726 21.2885 13.7183 20.7216 14.3839C20.2192 14.9732 19.9156 15.706 19.854 16.4779C19.7843 17.3496 19.4064 18.168 18.7881 18.7864C18.1697 19.4047 17.3513 19.7826 16.4796 19.8523C15.7077 19.9139 14.9749 20.2175 14.3856 20.7199C13.72 21.2868 12.8743 21.5981 12 21.5981C11.1257 21.5981 10.28 21.2868 9.61438 20.7199C9.02507 20.2175 8.29229 19.9139 7.52038 19.8523C6.64866 19.7826 5.83026 19.4047 5.2119 18.7864C4.59353 18.168 4.21565 17.3496 4.14598 16.4779C4.08435 15.706 3.78074 14.9732 3.27838 14.3839C2.71149 13.7183 2.40015 12.8726 2.40015 11.9983C2.40015 11.124 2.71149 10.2783 3.27838 9.61267C3.78074 9.02336 4.08435 8.29058 4.14598 7.51867C4.21565 6.64695 4.59353 5.82855 5.2119 5.21019C5.83026 4.59182 6.64866 4.21394 7.52038 4.14427ZM16.4484 10.4467C16.667 10.2203 16.7879 9.91722 16.7852 9.60259C16.7825 9.28795 16.6563 8.98698 16.4338 8.76449C16.2113 8.542 15.9103 8.41579 15.5957 8.41306C15.281 8.41033 14.9779 8.53128 14.7516 8.74987L10.8 12.7015L9.24838 11.1499C9.02206 10.9313 8.71893 10.8103 8.4043 10.8131C8.08966 10.8158 7.78869 10.942 7.5662 11.1645C7.34371 11.387 7.2175 11.688 7.21477 12.0026C7.21203 12.3172 7.33299 12.6203 7.55158 12.8467L9.95158 15.2467C10.1766 15.4716 10.4818 15.598 10.8 15.598C11.1182 15.598 11.4233 15.4716 11.6484 15.2467L16.4484 10.4467Z" fill="#209E52"/>
</svg>
