<svg width="86" height="86" viewBox="0 0 86 86" fill="none" xmlns="http://www.w3.org/2000/svg">
<path d="M80.1222 10.0748H73.5387V3.77082C73.5382 2.77175 73.1415 1.81365 72.4355 1.10673C71.7295 0.399808 70.7719 0.00179068 69.7729 0H16.232C15.2323 0.00114733 14.2738 0.398803 13.5669 1.10573C12.86 1.81265 12.4624 2.77111 12.4613 3.77082V10.0748H5.87262C4.31585 10.0796 2.82426 10.7004 1.72384 11.8016C0.623422 12.9028 0.00365853 14.3948 0 15.9516V67.9188C0.00361193 69.4755 0.62326 70.9675 1.72353 72.0687C2.82381 73.1699 4.31525 73.7909 5.87193 73.7958H33.978L33.1131 81.6554H25.5512C23.8064 81.6554 21.9401 83.0817 21.3989 84.8267L21.0348 86H64.9602L64.5961 84.8267C64.0599 83.0817 62.1886 81.6554 60.4438 81.6554H52.8831L52.018 73.7958H80.1241C81.6811 73.7907 83.1729 73.1699 84.2737 72.0688C85.3746 70.9677 85.9952 69.4759 86 67.9188V15.9516C85.9952 14.3943 85.3743 12.9022 84.273 11.8011C83.1717 10.7 81.6795 10.0794 80.1222 10.0748Z" fill="#EDD5AB"/>
<path d="M70.1773 0H15.8276C14.8128 0.00113839 13.8399 0.395695 13.1223 1.09711C12.4047 1.79852 12.0011 2.74951 12 3.74143V60H74V3.74143C73.9995 2.75014 73.5968 1.79952 72.8802 1.0981C72.1635 0.396692 71.1915 0.00177672 70.1773 0Z" fill="#EADDC7"/>
<circle cx="42.9136" cy="30.0835" r="8.23589" fill="#C29340"/>
<path fill-rule="evenodd" clip-rule="evenodd" d="M40.2781 27.4456C40.4243 27.2994 40.6613 27.2994 40.8075 27.4456L45.799 32.437C45.9452 32.5832 45.9452 32.8203 45.799 32.9665C45.6528 33.1127 45.4157 33.1127 45.2696 32.9665L40.2781 27.975C40.1319 27.8288 40.1319 27.5918 40.2781 27.4456Z" fill="white"/>
<path fill-rule="evenodd" clip-rule="evenodd" d="M45.799 27.4456C45.9452 27.5918 45.9452 27.8288 45.799 27.975L40.8075 32.9665C40.6613 33.1127 40.4243 33.1127 40.2781 32.9665C40.1319 32.8203 40.1319 32.5832 40.2781 32.437L45.2696 27.4456C45.4157 27.2994 45.6528 27.2994 45.799 27.4456Z" fill="white"/>
<path d="M74 3.79643C73.9995 2.79058 73.5968 1.82597 72.8802 1.11425C72.1635 0.402523 71.1915 0.00180284 70.1773 0H15.8276C14.8128 0.00115512 13.8399 0.401512 13.1223 1.11324C12.4047 1.82496 12.0011 2.78993 12 3.79643V15H35.2397C35.4722 15 35.7011 14.9429 35.9059 14.8338C36.1107 14.7247 36.2851 14.5669 36.4135 14.3747L38.8047 10.7942H74V3.79643Z" fill="#EDD5AB"/>
<path d="M0 65V67.6936C0.00361193 69.2697 0.62326 70.7802 1.72353 71.8952C2.82381 73.0101 4.31525 73.6388 5.87193 73.6438H33.978L33.1131 81.6013H25.5517C23.8069 81.6013 21.9408 83.0454 21.3996 84.8121L21.0355 86H64.9602L64.5961 84.8121C64.0599 83.0454 62.1886 81.6013 60.4438 81.6013H52.8831L52.018 73.6438H80.1241C81.6811 73.6386 83.1729 73.0101 84.2737 71.8953C85.3746 70.7805 85.9952 69.27 86 67.6936V65H0Z" fill="#C29340"/>
<path fill-rule="evenodd" clip-rule="evenodd" d="M75.5031 71C75.7995 70.9994 76.0891 70.911 76.3353 70.7459C76.5815 70.5808 76.7733 70.3465 76.8864 70.0725C76.9996 69.7986 77.029 69.4972 76.971 69.2065C76.913 68.9158 76.7702 68.6489 76.5606 68.4393C76.351 68.2297 76.084 68.0869 75.7933 68.0289C75.5026 67.971 75.2012 68.0005 74.9273 68.1136C74.6533 68.2268 74.419 68.4186 74.254 68.6649C74.089 68.9111 74.0006 69.2007 74 69.4971C74.0009 69.8955 74.1595 70.2772 74.4412 70.5589C74.7229 70.8406 75.1048 70.9992 75.5031 71Z" fill="#EDD5AB"/>
<path d="M32.7065 48.7976H23.9926C23.6247 48.7976 23.2719 48.6515 23.0117 48.3914C22.7516 48.1312 22.6055 47.7784 22.6055 47.4105C22.6055 47.0427 22.7516 46.6898 23.0117 46.4297C23.2719 46.1696 23.6247 46.0234 23.9926 46.0234H32.7065C33.0744 46.0234 33.4272 46.1696 33.6873 46.4297C33.9474 46.6898 34.0936 47.0427 34.0936 47.4105C34.0936 47.7784 33.9474 48.1312 33.6873 48.3914C33.4272 48.6515 33.0744 48.7976 32.7065 48.7976Z" fill="#C29340"/>
<path d="M62.101 48.7976H39.8617C39.4938 48.7976 39.141 48.6515 38.8809 48.3914C38.6208 48.1312 38.4746 47.7784 38.4746 47.4105C38.4746 47.0427 38.6208 46.6898 38.8809 46.4297C39.141 46.1696 39.4938 46.0234 39.8617 46.0234H62.101C62.4689 46.0234 62.8217 46.1696 63.0819 46.4297C63.342 46.6898 63.4881 47.0427 63.4881 47.4105C63.4881 47.7784 63.342 48.1312 63.0819 48.3914C62.8217 48.6515 62.4689 48.7976 62.101 48.7976Z" fill="#C29340"/>
<path d="M62.1009 53.7429H23.9037C23.5358 53.7429 23.183 53.5968 22.9229 53.3367C22.6627 53.0765 22.5166 52.7237 22.5166 52.3558C22.5166 51.988 22.6627 51.6352 22.9229 51.375C23.183 51.1149 23.5358 50.9688 23.9037 50.9688H62.1009C62.4688 50.9688 62.8216 51.1149 63.0817 51.375C63.3418 51.6352 63.488 51.988 63.488 52.3558C63.488 52.7237 63.3418 53.0765 63.0817 53.3367C62.8216 53.5968 62.4688 53.7429 62.1009 53.7429Z" fill="#C29340"/>
<path fill-rule="evenodd" clip-rule="evenodd" d="M20.0115 8.83947C20.2864 8.83995 20.5552 8.75886 20.7839 8.60648C21.0126 8.45409 21.1909 8.23727 21.2963 7.98345C21.4017 7.72964 21.4294 7.45026 21.3759 7.1807C21.3224 6.91113 21.1901 6.66351 20.9958 6.46918C20.8014 6.27485 20.5538 6.14256 20.2843 6.08906C20.0147 6.03556 19.7353 6.06327 19.4815 6.16866C19.2277 6.27405 19.0109 6.45239 18.8585 6.6811C18.7061 6.9098 18.625 7.17859 18.6255 7.45341C18.6267 7.82064 18.7732 8.17247 19.0328 8.43214C19.2925 8.69181 19.6443 8.83823 20.0115 8.83947Z" fill="#C29340"/>
<path fill-rule="evenodd" clip-rule="evenodd" d="M24.6018 8.83947C24.8767 8.83998 25.1455 8.75892 25.3742 8.60656C25.6029 8.4542 25.7813 8.23738 25.8867 7.98358C25.9921 7.72977 26.0198 7.45038 25.9664 7.18081C25.9129 6.91123 25.7806 6.66359 25.5863 6.46924C25.392 6.27489 25.1443 6.14259 24.8748 6.08907C24.6052 6.03556 24.3258 6.06325 24.072 6.16864C23.8182 6.27403 23.6013 6.45237 23.4489 6.68108C23.2966 6.90979 23.2155 7.17858 23.2159 7.45341C23.2162 7.8209 23.3623 8.17326 23.6222 8.43313C23.882 8.69301 24.2343 8.83914 24.6018 8.83947Z" fill="#C29340"/>
<path fill-rule="evenodd" clip-rule="evenodd" d="M29.1922 8.83947C29.467 8.83995 29.7358 8.75886 29.9645 8.60648C30.1932 8.45409 30.3716 8.23727 30.477 7.98345C30.5824 7.72964 30.6101 7.45026 30.5566 7.1807C30.5031 6.91113 30.3708 6.66351 30.1764 6.46918C29.9821 6.27485 29.7345 6.14256 29.4649 6.08906C29.1954 6.03556 28.916 6.06327 28.6622 6.16866C28.4084 6.27405 28.1915 6.45239 28.0391 6.6811C27.8868 6.9098 27.8057 7.17859 27.8062 7.45341C27.8076 7.82057 27.9541 8.17227 28.2137 8.43189C28.4734 8.69151 28.8251 8.83801 29.1922 8.83947Z" fill="#C29340"/>
<path d="M11.9998 15H5.99139C5.72955 15.0039 5.47945 15.1182 5.2943 15.3185C5.10915 15.5189 5.00356 15.7895 5 16.0728V58.9272C5.00431 59.2103 5.11017 59.4804 5.29519 59.6806C5.48022 59.8808 5.72992 59.9953 5.99155 60H12L11.9998 15Z" fill="#FFFDFA"/>
<path d="M80.0082 15H74V60H80.0082C80.2699 59.9953 80.5197 59.8808 80.7047 59.6806C80.8898 59.4804 80.9957 59.2103 81 58.9272V16.0728C80.9964 15.7895 80.8908 15.5188 80.7056 15.3185C80.5203 15.1181 80.2701 15.0039 80.0082 15Z" fill="#FFFDFA"/>
</svg>
