<svg width="40" height="40" viewBox="0 0 40 40" fill="none" xmlns="http://www.w3.org/2000/svg">
<rect x="0.5" y="0.5" width="39" height="39" rx="3.5" fill="white"/>
<g clip-path="url(#clip0_16174_18909)">
<path d="M12.3864 20.2917C12.4888 20.2917 12.5871 20.25 12.6596 20.1757C12.732 20.1015 12.7727 20.0008 12.7727 19.8958V11.1875C12.7727 11.0825 12.8134 10.9818 12.8859 10.9076C12.9583 10.8334 13.0566 10.7917 13.1591 10.7917H22.0455V15.9375C22.0455 16.0425 22.0862 16.1432 22.1586 16.2174C22.2311 16.2916 22.3293 16.3333 22.4318 16.3333H27.4545V19.8958C27.4545 20.0008 27.4953 20.1015 27.5677 20.1757C27.6402 20.25 27.7384 20.2917 27.8409 20.2917C27.9434 20.2917 28.0417 20.25 28.1141 20.1757C28.1866 20.1015 28.2273 20.0008 28.2273 19.8958V15.9474C28.2235 15.8406 28.1824 15.7387 28.1114 15.6604L22.7023 10.1287C22.6693 10.088 22.628 10.0554 22.5812 10.0331C22.5344 10.0109 22.4834 9.99957 22.4318 10H13.1591C12.8517 10 12.5569 10.1251 12.3395 10.3478C12.1221 10.5705 12 10.8726 12 11.1875V19.8958C12 20.0008 12.0407 20.1015 12.1132 20.1757C12.1856 20.25 12.2839 20.2917 12.3864 20.2917ZM22.8182 11.3557L26.904 15.5417H22.8182V11.3557ZM13.9318 23.4583H12.3864C12.2839 23.4583 12.1856 23.5 12.1132 23.5743C12.0407 23.6485 12 23.7492 12 23.8542V28.6042C12 28.7091 12.0407 28.8098 12.1132 28.8841C12.1856 28.9583 12.2839 29 12.3864 29C12.4888 29 12.5871 28.9583 12.6596 28.8841C12.732 28.8098 12.7727 28.7091 12.7727 28.6042V27.4167H13.9318C14.4442 27.4167 14.9355 27.2081 15.2978 26.837C15.6601 26.4658 15.8636 25.9624 15.8636 25.4375C15.8636 24.9126 15.6601 24.4092 15.2978 24.038C14.9355 23.6669 14.4442 23.4583 13.9318 23.4583ZM13.9318 26.625H12.7727V24.25H13.9318C14.2392 24.25 14.534 24.3751 14.7514 24.5978C14.9688 24.8205 15.0909 25.1226 15.0909 25.4375C15.0909 25.7524 14.9688 26.0545 14.7514 26.2772C14.534 26.4999 14.2392 26.625 13.9318 26.625ZM29 23.8542C29 23.9592 28.9593 24.0598 28.8868 24.1341C28.8144 24.2083 28.7161 24.25 28.6136 24.25H26.2955V26.2292H28.2273C28.3297 26.2292 28.428 26.2709 28.5005 26.3451C28.5729 26.4193 28.6136 26.52 28.6136 26.625C28.6136 26.73 28.5729 26.8307 28.5005 26.9049C28.428 26.9791 28.3297 27.0208 28.2273 27.0208H26.2955V28.6042C26.2955 28.7091 26.2547 28.8098 26.1823 28.8841C26.1098 28.9583 26.0116 29 25.9091 29C25.8066 29 25.7083 28.9583 25.6359 28.8841C25.5634 28.8098 25.5227 28.7091 25.5227 28.6042V23.8542C25.5227 23.7492 25.5634 23.6485 25.6359 23.5743C25.7083 23.5 25.8066 23.4583 25.9091 23.4583H28.6136C28.7161 23.4583 28.8144 23.5 28.8868 23.5743C28.9593 23.6485 29 23.7492 29 23.8542ZM20.1136 23.4583H18.7614C18.6589 23.4583 18.5606 23.5 18.4882 23.5743C18.4157 23.6485 18.375 23.7492 18.375 23.8542V28.6042C18.375 28.7091 18.4157 28.8098 18.4882 28.8841C18.5606 28.9583 18.6589 29 18.7614 29H20.1136C20.8309 29 21.5188 28.7081 22.026 28.1884C22.5332 27.6688 22.8182 26.964 22.8182 26.2292C22.8182 25.4943 22.5332 24.7895 22.026 24.2699C21.5188 23.7503 20.8309 23.4583 20.1136 23.4583ZM20.1136 28.2083H19.1477V24.25H20.1136C20.626 24.25 21.1174 24.4585 21.4796 24.8297C21.8419 25.2009 22.0455 25.7043 22.0455 26.2292C22.0455 26.7541 21.8419 27.2575 21.4796 27.6287C21.1174 27.9998 20.626 28.2083 20.1136 28.2083Z" fill="#C5A265" stroke="#C5A265" stroke-width="0.4"/>
</g>
<rect x="0.5" y="0.5" width="39" height="39" rx="3.5" stroke="#C5A265"/>
<defs>
<clipPath id="clip0_16174_18909">
<rect width="20" height="20" fill="white" transform="translate(10 10)"/>
</clipPath>
</defs>
</svg>
