<svg width="40" height="40" viewBox="0 0 40 40" fill="none" xmlns="http://www.w3.org/2000/svg">
<g clip-path="url(#clip0_1158_60749)">
<path d="M6.29787 12.6167C6.29787 12.2716 6.57771 11.9917 6.92287 11.9917H24.6182C24.9633 11.9917 25.2432 12.2716 25.2432 12.6167C25.2432 12.9619 24.9633 13.2417 24.6182 13.2417H6.92287C6.57771 13.2417 6.29787 12.9619 6.29787 12.6167ZM6.92287 18.4566H24.6182C24.9633 18.4566 25.2432 18.1767 25.2432 17.8316C25.2432 17.4864 24.9633 17.2066 24.6182 17.2066H6.92287C6.57771 17.2066 6.29787 17.4864 6.29787 17.8316C6.29787 18.1767 6.57771 18.4566 6.92287 18.4566ZM19.0095 22.4214H6.92287C6.57771 22.4214 6.29787 22.7013 6.29787 23.0464C6.29787 23.3916 6.57771 23.6714 6.92287 23.6714H19.0095C19.3547 23.6714 19.6345 23.3916 19.6345 23.0464C19.6345 22.7013 19.3547 22.4214 19.0095 22.4214ZM19.0095 27.6362H6.92287C6.57771 27.6362 6.29787 27.9161 6.29787 28.2612C6.29787 28.6064 6.57771 28.8862 6.92287 28.8862H19.0095C19.3547 28.8862 19.6345 28.6064 19.6345 28.2612C19.6345 27.9161 19.3547 27.6362 19.0095 27.6362ZM19.0095 32.8511H6.92287C6.57771 32.8511 6.29787 33.1309 6.29787 33.4761C6.29787 33.8213 6.57771 34.1011 6.92287 34.1011H19.0095C19.3547 34.1011 19.6345 33.8213 19.6345 33.4761C19.6345 33.1309 19.3547 32.8511 19.0095 32.8511ZM6.92287 8.02688H19.6254C19.9706 8.02688 20.2504 7.74703 20.2504 7.40188C20.2504 7.05672 19.9706 6.77688 19.6254 6.77688H6.92287C6.57771 6.77688 6.29787 7.05672 6.29787 7.40188C6.29787 7.74703 6.57771 8.02688 6.92287 8.02688ZM31.3443 37.2086V39.375C31.3443 39.7202 31.0645 40 30.7193 40H0.821777C0.476621 40 0.196777 39.7202 0.196777 39.375V0.625C0.196777 0.279844 0.476621 0 0.821777 0H25.8754C26.0412 0 26.2002 0.0658594 26.3174 0.183047L31.1614 5.02703C31.2786 5.1443 31.3444 5.3032 31.3444 5.46898V18.1708C36.1008 18.7302 39.8032 22.7854 39.8032 27.6897C39.8032 32.594 36.1008 36.6491 31.3443 37.2086ZM35.7753 33.8963C35.3353 31.1859 32.9991 29.1788 30.2179 29.1788C27.4365 29.1788 25.1004 31.186 24.6604 33.8963C26.1362 35.2192 28.0846 36.0251 30.2178 36.0251C32.3511 36.0251 34.2994 35.2191 35.7753 33.8963ZM30.2179 27.9288C31.6177 27.9288 32.7566 26.7899 32.7566 25.3901C32.7566 23.9902 31.6177 22.8514 30.2179 22.8514C28.818 22.8514 27.6792 23.9902 27.6792 25.3901C27.6792 26.7899 28.818 27.9288 30.2179 27.9288ZM30.2179 19.3542C25.6217 19.3542 21.8825 23.0934 21.8825 27.6896C21.8825 29.612 22.5369 31.3841 23.6342 32.7957C24.2658 30.7142 25.8445 29.0773 27.8518 28.3459C26.9854 27.651 26.4292 26.5845 26.4292 25.39C26.4292 23.3009 28.1288 21.6013 30.2179 21.6013C32.307 21.6013 34.0066 23.3009 34.0066 25.39C34.0066 26.5845 33.4504 27.651 32.5839 28.3459C34.5911 29.0773 36.1699 30.7142 36.8015 32.7957C37.8988 31.3841 38.5532 29.612 38.5532 27.6896C38.5532 23.0935 34.814 19.3542 30.2179 19.3542ZM26.5004 4.84398H29.2104L26.5004 2.13391V4.84398ZM30.0943 38.75V37.2735C24.8658 37.207 20.6325 32.9338 20.6325 27.6897C20.6325 22.4455 24.8658 18.1723 30.0943 18.1059V6.09398H25.8754C25.5302 6.09398 25.2504 5.81414 25.2504 5.46898V1.25H1.44678V38.75H30.0943Z" fill="#C5A265"/>
</g>
<defs>
<clipPath id="clip0_1158_60749">
<rect width="40" height="40" fill="white"/>
</clipPath>
</defs>
</svg>
