<svg width="72" height="72" viewBox="0 0 72 72" fill="none" xmlns="http://www.w3.org/2000/svg">
<path d="M32.28 26.07C31.6753 26.07 31.0954 26.3102 30.6678 26.7378C30.2402 27.1654 30 30.8953 30 31.5V62.7C30 63.96 31.02 64.98 32.28 64.98C32.85 64.98 33.33 64.8 33.72 64.5L39.45 59.85L44.43 70.71C44.82 71.52 45.63 72 46.5 72C46.83 72 47.16 72 47.49 71.76L55.77 67.92C56.91 67.38 57.45 66 56.85 64.89L51.84 54L59.07 52.65C59.5667 52.5209 60.015 52.2498 60.36 51.87C61.17 50.91 61.05 49.5 60 48.63L33.78 26.58L33.75 26.61C33.3397 26.2612 32.8186 26.0698 32.28 26.07ZM45 30V24H60V30H45ZM41.49 14.28L49.98 5.79L54.21 10.02L45.72 18.51L41.49 14.28ZM30 0H36V15H30V0ZM11.79 43.98L20.28 35.49L24.51 39.72L16.02 48.21L11.79 43.98ZM11.79 10.02L16.02 5.79L24.51 14.28L20.28 18.51L11.79 10.02ZM21 30H6V24H21V30Z" fill="#C29340"/>
<path d="M32.28 26.07C31.6753 26.07 31.0954 26.3102 30.6678 26.7378C30.2402 27.1654 30 30.8953 30 31.5V62.7C30 63.96 31.02 64.98 32.28 64.98C32.85 64.98 33.33 64.8 33.72 64.5L39.45 59.85L44.43 70.71C44.82 71.52 45.63 72 46.5 72C46.83 72 47.16 72 47.49 71.76L55.77 67.92C56.91 67.38 57.45 66 56.85 64.89L51.84 54L59.07 52.65C59.5667 52.5209 60.015 52.2498 60.36 51.87C61.17 50.91 61.05 49.5 60 48.63L33.78 26.58L33.75 26.61C33.3397 26.2612 32.8186 26.0698 32.28 26.07Z" fill="#EDD5AB"/>
</svg>
