<svg width="20" height="20" viewBox="0 0 20 20" fill="none" xmlns="http://www.w3.org/2000/svg">
<path fill-rule="evenodd" clip-rule="evenodd" d="M8.76661 2.96406C6.99933 2.96406 5.5666 4.39675 5.5666 6.16406C5.5666 7.93137 6.99933 9.36406 8.76661 9.36406C10.5339 9.36406 11.9666 7.93137 11.9666 6.16406C11.9666 4.39675 10.5339 2.96406 8.76661 2.96406ZM4.7666 6.16406C4.7666 3.95492 6.55747 2.16406 8.76661 2.16406C10.9757 2.16406 12.7666 3.95492 12.7666 6.16406C12.7666 8.37319 10.9757 10.1641 8.76661 10.1641C6.55747 10.1641 4.7666 8.37319 4.7666 6.16406Z" fill="currentColor"/>
<path fill-rule="evenodd" clip-rule="evenodd" d="M8.76628 2.33333C6.64919 2.33333 4.93294 4.04958 4.93294 6.16666C4.93294 8.28375 6.64919 9.99999 8.76628 9.99999C10.8834 9.99999 12.5996 8.28375 12.5996 6.16666C12.5996 4.04958 10.8834 2.33333 8.76628 2.33333ZM4.59961 6.16666C4.59961 3.86548 6.4651 2 8.76628 2C11.0675 2 12.933 3.86548 12.933 6.16666C12.933 8.46784 11.0675 10.3333 8.76628 10.3333C6.4651 10.3333 4.59961 8.46784 4.59961 6.16666ZM5.39961 6.16666C5.39961 4.3073 6.90695 2.8 8.76628 2.8C10.6256 2.8 12.133 4.3073 12.133 6.16666C12.133 8.02602 10.6256 9.53333 8.76628 9.53333C6.90695 9.53333 5.39961 8.02602 5.39961 6.16666ZM8.76628 3.13333C7.09105 3.13333 5.73294 4.4914 5.73294 6.16666C5.73294 7.84192 7.09105 9.19999 8.76628 9.19999C10.4415 9.19999 11.7996 7.84192 11.7996 6.16666C11.7996 4.4914 10.4415 3.13333 8.76628 3.13333Z" fill="currentColor"/>
<path fill-rule="evenodd" clip-rule="evenodd" d="M10.5445 11.6285C7.54701 11.273 4.46723 11.8197 1.72281 13.2684L1.68613 13.2879C1.2639 13.5123 1 13.9514 1 14.4296V17.367C1 18.1219 1.61188 18.7337 2.36667 18.7337H13.2926C12.4756 18.5528 11.7407 18.1535 11.1523 17.6003H2.36671C2.23783 17.6003 2.13337 17.4959 2.13337 17.367V14.4296C2.13337 14.3705 2.166 14.3164 2.218 14.2887C4.63371 13.005 7.33256 12.4786 9.98048 12.7096C10.1204 12.3223 10.3111 11.9592 10.5445 11.6285ZM15.3169 18.7255C15.4711 18.7086 15.6176 18.6661 15.752 18.6023C15.61 18.6503 15.4648 18.6915 15.3169 18.7255Z" fill="currentColor"/>
<circle cx="14.2871" cy="14.2646" r="3.97715" stroke="currentColor" stroke-width="1.2"/>
<line x1="14.2765" y1="14.7902" x2="14.2765" y2="16.1752" stroke="currentColor" stroke-width="1.38505" stroke-linecap="round"/>
<circle cx="14.2873" cy="12.6135" r="0.703344" fill="currentColor"/>
</svg>
