<svg width="20" height="20" viewBox="0 0 20 20" fill="none" xmlns="http://www.w3.org/2000/svg">
    <path
        d="M8.83333 8.21875C8.83333 8.06128 8.89479 7.91025 9.00419 7.7989C9.11358 7.68755 9.26196 7.625 9.41667 7.625H13.5C13.6547 7.625 13.8031 7.68755 13.9125 7.7989C14.0219 7.91025 14.0833 8.06128 14.0833 8.21875C14.0833 8.37622 14.0219 8.52724 13.9125 8.63859C13.8031 8.74994 13.6547 8.8125 13.5 8.8125H9.41667C9.26196 8.8125 9.11358 8.74994 9.00419 8.63859C8.89479 8.52724 8.83333 8.37622 8.83333 8.21875ZM8.83333 11.7812C8.83333 11.6238 8.89479 11.4728 9.00419 11.3614C9.11358 11.2501 9.26196 11.1875 9.41667 11.1875H13.5C13.6547 11.1875 13.8031 11.2501 13.9125 11.3614C14.0219 11.4728 14.0833 11.6238 14.0833 11.7812C14.0833 11.9387 14.0219 12.0897 13.9125 12.2011C13.8031 12.3124 13.6547 12.375 13.5 12.375H9.41667C9.26196 12.375 9.11358 12.3124 9.00419 12.2011C8.89479 12.0897 8.83333 11.9387 8.83333 11.7812ZM8.83333 15.3438C8.83333 15.1863 8.89479 15.0353 9.00419 14.9239C9.11358 14.8126 9.26196 14.75 9.41667 14.75H13.5C13.6547 14.75 13.8031 14.8126 13.9125 14.9239C14.0219 15.0353 14.0833 15.1863 14.0833 15.3438C14.0833 15.5012 14.0219 15.6522 13.9125 15.7636C13.8031 15.8749 13.6547 15.9375 13.5 15.9375H9.41667C9.26196 15.9375 9.11358 15.8749 9.00419 15.7636C8.89479 15.6522 8.83333 15.5012 8.83333 15.3438ZM7.66667 8.21875C7.66667 8.45496 7.57448 8.68149 7.41039 8.84852C7.24629 9.01554 7.02373 9.10938 6.79167 9.10938C6.5596 9.10938 6.33704 9.01554 6.17295 8.84852C6.00885 8.68149 5.91667 8.45496 5.91667 8.21875C5.91667 7.98254 6.00885 7.75601 6.17295 7.58898C6.33704 7.42196 6.5596 7.32812 6.79167 7.32812C7.02373 7.32812 7.24629 7.42196 7.41039 7.58898C7.57448 7.75601 7.66667 7.98254 7.66667 8.21875ZM7.66667 11.7812C7.66667 12.0175 7.57448 12.244 7.41039 12.411C7.24629 12.578 7.02373 12.6719 6.79167 12.6719C6.5596 12.6719 6.33704 12.578 6.17295 12.411C6.00885 12.244 5.91667 12.0175 5.91667 11.7812C5.91667 11.545 6.00885 11.3185 6.17295 11.1515C6.33704 10.9845 6.5596 10.8906 6.79167 10.8906C7.02373 10.8906 7.24629 10.9845 7.41039 11.1515C7.57448 11.3185 7.66667 11.545 7.66667 11.7812ZM6.79167 16.2344C7.02373 16.2344 7.24629 16.1405 7.41039 15.9735C7.57448 15.8065 7.66667 15.58 7.66667 15.3438C7.66667 15.1075 7.57448 14.881 7.41039 14.714C7.24629 14.547 7.02373 14.4531 6.79167 14.4531C6.5596 14.4531 6.33704 14.547 6.17295 14.714C6.00885 14.881 5.91667 15.1075 5.91667 15.3438C5.91667 15.58 6.00885 15.8065 6.17295 15.9735C6.33704 16.1405 6.5596 16.2344 6.79167 16.2344ZM6.59917 1.6875C6.71985 1.34006 6.94343 1.03928 7.23909 0.826596C7.53476 0.613914 7.88795 0.499807 8.25 0.5H11.75C12.112 0.499807 12.4652 0.613914 12.7609 0.826596C13.0566 1.03928 13.2802 1.34006 13.4008 1.6875H16.25C16.7141 1.6875 17.1592 1.87517 17.4874 2.20922C17.8156 2.54327 18 2.99633 18 3.46875V17.7188C18 18.1912 17.8156 18.6442 17.4874 18.9783C17.1592 19.3123 16.7141 19.5 16.25 19.5H3.75C3.28587 19.5 2.84075 19.3123 2.51256 18.9783C2.18437 18.6442 2 18.1912 2 17.7188V3.46875C2 2.99633 2.18437 2.54327 2.51256 2.20922C2.84075 1.87517 3.28587 1.6875 3.75 1.6875H6.59917ZM8.25 1.6875C8.09529 1.6875 7.94692 1.75006 7.83752 1.86141C7.72812 1.97276 7.66667 2.12378 7.66667 2.28125C7.66667 2.43872 7.72812 2.58975 7.83752 2.70109C7.94692 2.81244 8.09529 2.875 8.25 2.875H11.75C11.9047 2.875 12.0531 2.81244 12.1625 2.70109C12.2719 2.58975 12.3333 2.43872 12.3333 2.28125C12.3333 2.12378 12.2719 1.97276 12.1625 1.86141C12.0531 1.75006 11.9047 1.6875 11.75 1.6875H8.25ZM6.59917 2.875H3.75C3.59529 2.875 3.44692 2.93756 3.33752 3.04891C3.22812 3.16026 3.16667 3.31128 3.16667 3.46875V17.7188C3.16667 17.8762 3.22812 18.0272 3.33752 18.1386C3.44692 18.2499 3.59529 18.3125 3.75 18.3125H16.25C16.4047 18.3125 16.5531 18.2499 16.6625 18.1386C16.7719 18.0272 16.8333 17.8762 16.8333 17.7188V3.46875C16.8333 3.31128 16.7719 3.16026 16.6625 3.04891C16.5531 2.93756 16.4047 2.875 16.25 2.875H13.4008C13.2802 3.22244 13.0566 3.52322 12.7609 3.7359C12.4652 3.94859 12.112 4.06269 11.75 4.0625H8.25C7.88795 4.06269 7.53476 3.94859 7.23909 3.7359C6.94343 3.52322 6.71985 3.22244 6.59917 2.875Z"
        fill="currentColor" />
</svg>