<svg width="29" height="29" viewBox="0 0 29 29" fill="none" xmlns="http://www.w3.org/2000/svg">
<g clip-path="url(#clip0_2930_14512)">
<path d="M9.17539 11.0656L8.21289 10.3438L7.25083 11.0656C5.52008 12.3632 3.37545 13.0781 1.21289 13.0781H0.775391V18.5504C0.775391 22.9998 3.7902 26.8611 8.10702 27.94L8.21289 27.9667L8.31877 27.9396C12.6356 26.8611 15.6504 22.9998 15.6504 18.5504V13.0781H15.2129C13.0503 13.0781 10.9057 12.3632 9.17539 11.0656ZM14.7754 18.5504C14.7754 22.5609 12.0826 26.0465 8.21289 27.0641C4.3432 26.0465 1.65039 22.5609 1.65039 18.5504V13.9439C3.85145 13.8542 6.01139 13.0886 7.77583 11.7656L8.21289 11.4375L8.65039 11.7656C10.4144 13.0886 12.5743 13.8542 14.7754 13.9439V18.5504Z" fill="#C29340"/>
<path d="M27.4209 4.105L25.5532 2.23731C24.645 1.32906 23.4361 0.828125 22.1503 0.828125H12.2449C11.5318 0.828125 10.8313 1.02194 10.2188 1.389L9.52539 1.8055V0.828125H0.775391V8.70312H9.52539V7.82812H11.1459C12.0506 8.40125 13.0919 8.70312 14.1651 8.70312H14.7754V10.4531C14.7754 11.4183 15.5603 12.2031 16.5254 12.2031C17.4905 12.2031 18.2754 11.4183 18.2754 10.4531V8.45988C18.796 8.15625 19.1504 7.598 19.1504 6.95312C19.1504 6.75231 19.1093 6.56244 19.0467 6.38263C19.3363 6.18575 19.6715 6.07812 20.0254 6.07812C20.9905 6.07812 21.7754 6.863 21.7754 7.82812V24.4531H20.9673L20.3837 27.9531H26.6666L26.083 24.4531H25.2754V7.82812C25.2754 7.37925 25.2124 6.94 25.103 6.51519C25.4031 6.79169 25.8008 6.95312 26.2095 6.95312H26.2641C27.1663 6.95312 27.9004 6.219 27.9004 5.31687V5.26219C27.9004 4.83125 27.7258 4.40994 27.4209 4.105ZM8.65039 7.82812H1.65039V1.70312H8.65039V7.82812ZM17.4004 10.4531C17.4004 10.9357 17.008 11.3281 16.5254 11.3281C16.0428 11.3281 15.6504 10.9357 15.6504 10.4531V8.70312H17.4004V10.4531ZM25.3423 25.3281L25.6337 27.0781H21.4166L21.708 25.3281H21.7754H25.2754H25.3423ZM22.6504 24.4531V7.82812C22.6504 6.38044 21.4731 5.20312 20.0254 5.20312C19.4973 5.20312 18.9973 5.36369 18.5646 5.65594C18.2544 5.37769 17.8493 5.20312 17.4004 5.20312H16.269L16.7595 4.71269C17.0075 4.46462 17.337 4.32812 17.6878 4.32812H22.363C22.5283 4.32812 22.688 4.36094 22.8376 4.41913L22.8092 4.45325C23.8207 5.288 24.4004 6.51825 24.4004 7.82812V24.4531H22.6504ZM27.0254 5.31687C27.0254 5.73688 26.6841 6.07812 26.2641 6.07812H26.2095C26.0091 6.07812 25.8131 5.99675 25.6713 5.855L23.9104 4.09406C23.497 3.68106 22.9475 3.45312 22.363 3.45312H17.6878C17.1033 3.45312 16.5538 3.68106 16.1408 4.09406L15.0318 5.20312H14.3379V6.07812H17.4004C17.883 6.07812 18.2754 6.47056 18.2754 6.95312C18.2754 7.43569 17.883 7.82812 17.4004 7.82812H14.1651C13.2201 7.82812 12.3044 7.55075 11.5178 7.02663L11.408 6.95312H9.52539V2.82575L10.6686 2.13931C11.145 1.85406 11.6901 1.70312 12.2449 1.70312H22.1508C23.2025 1.70312 24.1913 2.11306 24.935 2.85637L26.8027 4.72406C26.9445 4.86581 27.0258 5.06181 27.0258 5.26219L27.0254 5.31687Z" fill="#C29340"/>
<path d="M2.52539 19.2031C2.52539 22.3391 5.07689 24.8906 8.21289 24.8906C11.3489 24.8906 13.9004 22.3391 13.9004 19.2031C13.9004 16.0671 11.3489 13.5156 8.21289 13.5156C5.07689 13.5156 2.52539 16.0671 2.52539 19.2031ZM13.0254 19.2031C13.0254 21.8566 10.8663 24.0156 8.21289 24.0156C5.55945 24.0156 3.40039 21.8566 3.40039 19.2031C3.40039 16.5497 5.55945 14.3906 8.21289 14.3906C10.8663 14.3906 13.0254 16.5497 13.0254 19.2031Z" fill="#C29340"/>
<path d="M11.2754 18.7656H12.1504V19.6406H11.2754V18.7656Z" fill="#C29340"/>
<path d="M4.27539 18.7656H5.15039V19.6406H4.27539V18.7656Z" fill="#C29340"/>
<path d="M8.91289 23.3906L6.67122 20.6684V19.8906H7.83789C8.13234 19.8906 8.38656 19.7788 8.60056 19.555C8.81456 19.3313 8.94367 19.0543 8.98789 18.724H6.33789V17.9462H8.88789C8.79345 17.7193 8.65311 17.5329 8.46689 17.387C8.28067 17.241 8.071 17.1681 7.83789 17.1684H6.33789V16.3906H10.3379V17.1684H9.25456C9.33234 17.2786 9.40178 17.3985 9.46289 17.5281C9.524 17.6578 9.57122 17.7971 9.60456 17.9462H10.3379V18.724H9.66289C9.61845 19.2749 9.424 19.7368 9.07956 20.1096C8.73511 20.4824 8.32122 20.6687 7.83789 20.6684H7.59622L9.83789 23.3906H8.91289Z" fill="#C29340"/>
</g>
<defs>
<clipPath id="clip0_2930_14512">
<rect width="28" height="28" fill="white" transform="translate(0.337891 0.390625)"/>
</clipPath>
</defs>
</svg>
