<svg width="10" height="17" viewBox="0 0 10 17" fill="none" xmlns="http://www.w3.org/2000/svg">
<path d="M3.21868 0.127441C2.6677 1.1409 2.78404 2.50355 3.84936 3.13433C4.00543 3.22684 4.17721 3.29254 4.3531 3.3287C4.3614 3.357 4.37369 3.38465 4.38982 3.41091C5.11978 4.59703 5.55513 5.96723 5.64953 7.37309C5.7644 9.08367 5.38124 10.7587 4.54087 12.2173C3.71955 13.6423 2.52182 14.7676 1.07598 15.4711C0.910516 15.5518 0.840929 15.7568 0.920842 15.929C0.9866 16.0712 1.13318 16.1464 1.27534 16.1233C1.30572 16.1184 1.3358 16.1093 1.36466 16.095C2.06143 15.7559 2.70488 15.3262 3.28284 14.8178C3.34971 14.9783 3.44057 15.1287 3.55111 15.261C4.35491 16.2226 5.6657 16.0758 6.5161 15.3176C6.14799 14.3573 5.25537 13.64 4.2725 13.7921C4.5825 13.4145 4.86392 13.0073 5.11342 12.5749C5.21909 12.391 5.31838 12.2044 5.41084 12.0146C5.5279 12.1457 5.66567 12.2582 5.81637 12.345C6.8883 12.9639 8.06437 12.3573 8.60637 11.3388C7.91883 10.5377 6.79218 10.1834 5.90985 10.7585C6.13186 10.0537 6.26809 9.32117 6.31595 8.5749C6.47495 8.69003 6.65496 8.77673 6.84251 8.82756C8.02713 9.15021 9.01506 8.2557 9.29102 7.12591C8.35025 6.46876 7.03007 6.47074 6.35467 7.51593C6.3442 7.53149 6.33451 7.5473 6.32519 7.56306C6.3229 7.4872 6.31857 7.41012 6.31315 7.33322C6.27331 6.73517 6.17571 6.14264 6.02423 5.56578C6.20873 5.59554 6.39874 5.59283 6.58176 5.55621C7.779 5.32044 8.29309 4.06808 8.07045 2.91981C7.01094 2.75283 5.89204 3.27468 5.63222 4.39416C5.44237 3.92633 5.21358 3.47483 4.94943 3.04562C4.94175 3.03262 4.93311 3.02054 4.9238 3.00896C4.99414 2.86356 5.04414 2.70721 5.07086 2.54693C5.27863 1.30344 4.33132 0.340483 3.21868 0.127441Z" fill="#9A9A9A"/>
</svg>
