<svg width="29" height="29" viewBox="0 0 29 29" fill="none" xmlns="http://www.w3.org/2000/svg">
<g clip-path="url(#clip0_2930_14319)">
<g clip-path="url(#clip1_2930_14319)">
<g clip-path="url(#clip2_2930_14319)">
<path d="M15.4379 28.0547C15.1265 28.0547 14.8737 27.802 14.8737 27.4906V2.34669L3.59137 6.45009V27.4906C3.59137 27.802 3.33865 28.0547 3.02725 28.0547C2.71586 28.0547 2.46313 27.802 2.46313 27.4906V6.05408C2.46313 5.81715 2.61093 5.60504 2.83432 5.52381L15.2449 1.01086C15.4175 0.946553 15.6105 0.973631 15.7617 1.07968C15.9117 1.18461 16.002 1.35723 16.002 1.54113V27.4906C16.002 27.802 15.7492 28.0547 15.4379 28.0547Z" fill="#C29340"/>
<path d="M25.5926 28.0587C25.2812 28.0587 25.0285 27.806 25.0285 27.4946V12.0716L17.4727 8.83353C17.1861 8.71055 17.053 8.37885 17.1759 8.09228C17.2989 7.80571 17.6318 7.67596 17.9161 7.79555L25.8137 11.1803C26.0224 11.2694 26.1567 11.4736 26.1567 11.6993V27.4946C26.1567 27.806 25.904 28.0587 25.5926 28.0587Z" fill="#C29340"/>
<path d="M6.4119 11.1359C6.1005 11.1359 5.84778 10.8831 5.84778 10.5718V8.31528C5.84778 8.00389 6.1005 7.75116 6.4119 7.75116C6.72329 7.75116 6.97601 8.00389 6.97601 8.31528V10.5718C6.97601 10.8831 6.72329 11.1359 6.4119 11.1359Z" fill="#C29340"/>
<path d="M12.0514 11.1359C11.74 11.1359 11.4873 10.8831 11.4873 10.5718V8.31528C11.4873 8.00389 11.74 7.75116 12.0514 7.75116C12.3628 7.75116 12.6155 8.00389 12.6155 8.31528V10.5718C12.6155 10.8831 12.3628 11.1359 12.0514 11.1359Z" fill="#C29340"/>
<path d="M6.4119 17.8996C6.1005 17.8996 5.84778 17.6469 5.84778 17.3355V15.079C5.84778 14.7676 6.1005 14.5149 6.4119 14.5149C6.72329 14.5149 6.97601 14.7676 6.97601 15.079V17.3355C6.97601 17.6469 6.72329 17.8996 6.4119 17.8996Z" fill="#C29340"/>
<path d="M12.0514 17.8996C11.74 17.8996 11.4873 17.6469 11.4873 17.3355V15.079C11.4873 14.7676 11.74 14.5149 12.0514 14.5149C12.3628 14.5149 12.6155 14.7676 12.6155 15.079V17.3355C12.6155 17.6469 12.3628 17.8996 12.0514 17.8996Z" fill="#C29340"/>
<path d="M6.4119 24.6744C6.1005 24.6744 5.84778 24.4217 5.84778 24.1103V21.8538C5.84778 21.5424 6.1005 21.2897 6.4119 21.2897C6.72329 21.2897 6.97601 21.5424 6.97601 21.8538V24.1103C6.97601 24.4217 6.72329 24.6744 6.4119 24.6744Z" fill="#C29340"/>
<path d="M12.0514 24.6744C11.74 24.6744 11.4873 24.4217 11.4873 24.1103V21.8538C11.4873 21.5424 11.74 21.2897 12.0514 21.2897C12.3628 21.2897 12.6155 21.5424 12.6155 21.8538V24.1103C12.6155 24.4217 12.3628 24.6744 12.0514 24.6744Z" fill="#C29340"/>
<path d="M18.8227 17.8996C18.5113 17.8996 18.2585 17.6469 18.2585 17.3355V15.079C18.2585 14.7676 18.5113 14.5149 18.8227 14.5149C19.1341 14.5149 19.3868 14.7676 19.3868 15.079V17.3355C19.3868 17.6469 19.1341 17.8996 18.8227 17.8996Z" fill="#C29340"/>
<path d="M18.8227 24.6744C18.5113 24.6744 18.2585 24.4217 18.2585 24.1103V21.8538C18.2585 21.5424 18.5113 21.2897 18.8227 21.2897C19.1341 21.2897 19.3868 21.5424 19.3868 21.8538V24.1103C19.3868 24.4217 19.1341 24.6744 18.8227 24.6744Z" fill="#C29340"/>
<path d="M26.7206 28.0632H0.771149C0.459756 28.0632 0.207031 27.8104 0.207031 27.499C0.207031 27.1876 0.459756 26.9349 0.771149 26.9349H26.7206C27.032 26.9349 27.2847 27.1876 27.2847 27.499C27.2847 27.8104 27.032 28.0632 26.7206 28.0632Z" fill="#C29340"/>
<path d="M7.4386 14.7012C7.4386 14.4342 7.65508 14.2177 7.92213 14.2177H20.798C21.065 14.2177 21.2815 14.4342 21.2815 14.7012V27.5771C21.2815 27.8441 21.065 28.0606 20.798 28.0606H7.92213C7.65508 28.0606 7.4386 27.8441 7.4386 27.5771V14.7012Z" fill="#FFFDFA"/>
<path d="M22.9826 19.5288C22.6712 19.5288 22.4185 19.2761 22.4185 18.9647V16.7082C22.4185 16.3968 22.6712 16.1441 22.9826 16.1441C23.294 16.1441 23.5467 16.3968 23.5467 16.7082V18.9647C23.5467 19.2761 23.294 19.5288 22.9826 19.5288Z" fill="#C29340"/>
<path d="M11.5412 20.4988C11.2298 20.4988 10.9771 20.2461 10.9771 19.9347V17.6782C10.9771 17.3668 11.2298 17.1141 11.5412 17.1141C11.8526 17.1141 12.1053 17.3668 12.1053 17.6782V19.9347C12.1053 20.2461 11.8526 20.4988 11.5412 20.4988Z" fill="#C29340"/>
<path d="M22.9826 24.3628C22.6712 24.3628 22.4185 24.11 22.4185 23.7987V21.5422C22.4185 21.2308 22.6712 20.9781 22.9826 20.9781C23.294 20.9781 23.5467 21.2308 23.5467 21.5422V23.7987C23.5467 24.11 23.294 24.3628 22.9826 24.3628Z" fill="#C29340"/>
<path d="M17.1806 20.4953C16.8692 20.4953 16.6165 20.2425 16.6165 19.9311V17.6747C16.6165 17.3633 16.8692 17.1105 17.1806 17.1105C17.492 17.1105 17.7447 17.3633 17.7447 17.6747V19.9311C17.7447 20.2425 17.492 20.4953 17.1806 20.4953Z" fill="#C29340"/>
<path d="M17.1806 25.3309C16.8692 25.3309 16.6165 25.0782 16.6165 24.7668V22.5103C16.6165 22.1989 16.8692 21.9462 17.1806 21.9462C17.492 21.9462 17.7447 22.1989 17.7447 22.5103V24.7668C17.7447 25.0782 17.492 25.3309 17.1806 25.3309Z" fill="#C29340"/>
<path d="M11.5412 25.3341C11.2298 25.3341 10.9771 25.0814 10.9771 24.77V22.5135C10.9771 22.2021 11.2298 21.9494 11.5412 21.9494C11.8526 21.9494 12.1053 22.2021 12.1053 22.5135V24.77C12.1053 25.0814 11.8526 25.3341 11.5412 25.3341Z" fill="#C29340"/>
</g>
</g>
</g>
<defs>
<clipPath id="clip0_2930_14319">
<rect width="28" height="28" fill="white" transform="translate(0.205078 0.984375)"/>
</clipPath>
<clipPath id="clip1_2930_14319">
<rect width="28" height="28" fill="white" transform="translate(0.205078 0.984375)"/>
</clipPath>
<clipPath id="clip2_2930_14319">
<rect width="27.0777" height="27.0777" fill="white" transform="translate(0.206055 0.98201)"/>
</clipPath>
</defs>
</svg>
