<svg width="29" height="29" viewBox="0 0 29 29" fill="none" xmlns="http://www.w3.org/2000/svg">
<g clip-path="url(#clip0_2930_14447)">
<mask id="mask0_2930_14447" style="mask-type:luminance" maskUnits="userSpaceOnUse" x="0" y="0" width="29" height="29">
<path d="M0.0761719 0.671877H28.0762V28.6719H0.0761719V0.671877Z" fill="white"/>
</mask>
<g mask="url(#mask0_2930_14447)">
<path d="M15.0528 4.39441H18.9903C19.7152 4.39441 20.3028 3.80679 20.3028 3.08191C20.3028 2.35703 19.7152 1.76941 18.9903 1.76941H15.0528C14.3279 1.76941 13.7403 2.35703 13.7403 3.08191C13.7403 3.80679 14.3279 4.39441 15.0528 4.39441Z" stroke="#C29340" stroke-width="1.09375" stroke-miterlimit="10" stroke-linecap="round" stroke-linejoin="round"/>
<path d="M18.8934 6.55469V4.39584H15.152V6.55469" stroke="#C29340" stroke-width="1.09375" stroke-miterlimit="10" stroke-linecap="round" stroke-linejoin="round"/>
<path d="M18.0662 16.0154L20.8757 13.2059" stroke="#C29340" stroke-width="1.09375" stroke-miterlimit="10" stroke-linecap="round" stroke-linejoin="round"/>
<path d="M15.8761 17.061C15.8761 17.6975 16.3921 18.2135 17.0286 18.2135C17.6651 18.2135 18.1811 17.6975 18.1811 17.061C18.1811 16.4245 17.6651 15.9085 17.0286 15.9085C16.3921 15.9085 15.8761 16.4245 15.8761 17.061Z" stroke="#C29340" stroke-width="1.09375" stroke-miterlimit="10" stroke-linecap="round" stroke-linejoin="round"/>
<path d="M22.8774 17.0607H22.3707" stroke="#C29340" stroke-width="1.09375" stroke-miterlimit="10" stroke-linecap="round" stroke-linejoin="round"/>
<path d="M11.1821 17.0487H11.6887" stroke="#C29340" stroke-width="1.09375" stroke-miterlimit="10" stroke-linecap="round" stroke-linejoin="round"/>
<path d="M17.037 11.2062V11.7128" stroke="#C29340" stroke-width="1.09375" stroke-miterlimit="10" stroke-linecap="round" stroke-linejoin="round"/>
<path d="M17.023 22.8931V22.3864" stroke="#C29340" stroke-width="1.09375" stroke-miterlimit="10" stroke-linecap="round" stroke-linejoin="round"/>
<path d="M16.1645 16.1949L14.6797 14.7102" stroke="#C29340" stroke-width="1.09375" stroke-miterlimit="10" stroke-linecap="round" stroke-linejoin="round"/>
<path d="M17.8448 16.2507L20.7965 13.2991" stroke="#C29340" stroke-width="1.09375" stroke-miterlimit="10" stroke-linecap="round" stroke-linejoin="round"/>
<path d="M7.00933 20.4356H2.81146" stroke="#C29340" stroke-width="1.09375" stroke-miterlimit="10" stroke-linecap="round" stroke-linejoin="round"/>
<path d="M6.53106 17.2342H3.57788" stroke="#C29340" stroke-width="1.09375" stroke-miterlimit="10" stroke-linecap="round" stroke-linejoin="round"/>
<path d="M6.86427 14.0406H0.624756" stroke="#C29340" stroke-width="1.09375" stroke-miterlimit="10" stroke-linecap="round" stroke-linejoin="round"/>
<path d="M8.24889 10.8452H4.35181" stroke="#C29340" stroke-width="1.09375" stroke-miterlimit="10" stroke-linecap="round" stroke-linejoin="round"/>
<path fill-rule="evenodd" clip-rule="evenodd" d="M18.5026 25.4195C18.0244 25.5032 17.5324 25.5469 17.0302 25.5469C12.3448 25.5469 8.54663 21.7486 8.54663 17.0632C8.54663 12.3778 12.3448 8.57962 17.0302 8.57962C21.7156 8.57962 25.5139 12.3778 25.5139 17.0632C25.5139 17.6418 25.4559 18.2069 25.3456 18.753C25.0187 18.5843 24.671 18.4504 24.3074 18.3562C24.3815 17.9363 24.4201 17.5043 24.4201 17.0632C24.4201 12.9819 21.1116 9.67337 17.0302 9.67337C12.9489 9.67337 9.64038 12.9819 9.64038 17.0632C9.64038 21.1446 12.9489 24.4531 17.0302 24.4531C17.4051 24.4531 17.7734 24.4252 18.1332 24.3713C18.218 24.7377 18.3427 25.0887 18.5026 25.4195Z" fill="#C29340"/>
<path fill-rule="evenodd" clip-rule="evenodd" d="M27.436 20.7727C28.8245 16.8786 27.9603 12.3613 24.8423 9.24334C20.5282 4.92924 13.5338 4.92924 9.2197 9.24333C4.90561 13.5574 4.90561 20.5519 9.2197 24.866C12.261 27.9073 16.6337 28.8043 20.4608 27.5579C20.0734 27.3265 19.7198 27.0446 19.4089 26.7212C16.1408 27.5218 12.5458 26.6453 9.9931 24.0926C6.10614 20.2056 6.10614 13.9036 9.99309 10.0167L9.61343 9.63707L9.9931 10.0167C13.8801 6.12978 20.182 6.12978 24.0689 10.0167C26.691 12.6388 27.5445 16.3606 26.6286 19.6982C26.9431 20.0176 27.2152 20.3788 27.436 20.7727Z" fill="#C29340"/>
</g>
<path d="M18.0062 23.2453C18.0062 26.0214 20.265 28.2803 23.0412 28.2803C25.8173 28.2803 28.0762 26.0214 28.0762 23.2453C28.0762 20.4692 25.8173 18.2103 23.0412 18.2103C20.265 18.2103 18.0062 20.4692 18.0062 23.2453ZM23.0412 19.1258C25.3124 19.1258 27.1607 20.9741 27.1607 23.2453C27.1607 25.5166 25.3124 27.3649 23.0412 27.3649C20.7699 27.3649 18.9216 25.5166 18.9216 23.2453C18.9216 20.9741 20.7699 19.1258 23.0412 19.1258Z" fill="#C29340"/>
<path d="M23.4926 25.8628L21.7337 23.8285V23.2473H22.6491C22.8802 23.2473 23.0796 23.1637 23.2476 22.9964C23.4155 22.8292 23.5168 22.6222 23.5515 22.3754H21.4721V21.7942H23.473C23.3989 21.6246 23.2888 21.4853 23.1427 21.3762C22.9966 21.2672 22.832 21.2127 22.6491 21.2129H21.4721V20.6317H24.6108V21.2129H23.7607C23.8218 21.2953 23.8763 21.3849 23.9242 21.4817C23.9722 21.5786 24.0092 21.6827 24.0354 21.7942H24.6108V22.3754H24.0812C24.0463 22.7871 23.8937 23.1323 23.6234 23.4109C23.3531 23.6895 23.0284 23.8287 22.6491 23.8285H22.4595L24.2185 25.8628H23.4926Z" fill="#C29340"/>
</g>
<defs>
<clipPath id="clip0_2930_14447">
<rect width="28" height="28" fill="white" transform="translate(0.0761719 0.671875)"/>
</clipPath>
</defs>
</svg>
