<svg width="34" height="34" viewBox="0 0 34 34" fill="none" xmlns="http://www.w3.org/2000/svg">
<g clip-path="url(#clip0_1604_150581)">
<path d="M33.2917 34.0026H0.708333C0.317333 34.0026 0 33.6853 0 33.2943C0 32.9033 0.317333 32.5859 0.708333 32.5859H33.2917C33.6827 32.5859 34 32.9033 34 33.2943C34 33.6853 33.6827 34.0026 33.2917 34.0026Z" fill="#C29340"/>
<path d="M9.20768 34.0026H2.12435C1.73335 34.0026 1.41602 33.6853 1.41602 33.2943V25.5026C1.41602 24.722 2.05068 24.0859 2.83268 24.0859H8.49935C9.28135 24.0859 9.91601 24.722 9.91601 25.5026V33.2943C9.91601 33.6853 9.59868 34.0026 9.20768 34.0026ZM2.83268 32.5859H8.49935V25.5026H2.83268V32.5859Z" fill="#C29340"/>
<path d="M20.5417 34.0026H13.4583C13.0673 34.0026 12.75 33.6853 12.75 33.2943V17.0026C12.75 16.222 13.3847 15.5859 14.1667 15.5859H19.8333C20.6153 15.5859 21.25 16.222 21.25 17.0026V33.2943C21.25 33.6853 20.9327 34.0026 20.5417 34.0026ZM14.1667 32.5859H19.8333V17.0026H14.1667V32.5859Z" fill="#C29340"/>
<path d="M31.8757 33.9974H24.7923C24.4013 33.9974 24.084 33.6801 24.084 33.2891V19.8307C24.084 19.0501 24.7187 18.4141 25.5007 18.4141H31.1673C31.9493 18.4141 32.584 19.0501 32.584 19.8307V33.2891C32.584 33.6801 32.2667 33.9974 31.8757 33.9974ZM25.5007 32.5807H31.1673V19.8307H25.5007V32.5807Z" fill="#C29340"/>
<path d="M3.54267 15.5811C3.36134 15.5811 3.18001 15.5117 3.04117 15.3743C2.76492 15.098 2.76492 14.6489 3.04117 14.3727L10.1245 7.28933C10.3002 7.11367 10.5538 7.04 10.7974 7.10233L21.7426 9.83792L29.9593 1.62125C30.2355 1.345 30.6846 1.345 30.9608 1.62125C31.2371 1.8975 31.2371 2.34658 30.9608 2.62283L22.4608 11.1228C22.2866 11.2985 22.0316 11.3693 21.7879 11.3084L10.8428 8.57425L4.04276 15.3743C3.90534 15.5117 3.72401 15.5811 3.54267 15.5811Z" fill="#C29340"/>
<path d="M30.459 8.49739C30.068 8.49739 29.7507 8.18006 29.7507 7.78906V2.83073H24.7923C24.4013 2.83073 24.084 2.5134 24.084 2.1224C24.084 1.7314 24.4013 1.41406 24.7923 1.41406H30.459C30.85 1.41406 31.1673 1.7314 31.1673 2.1224V7.78906C31.1673 8.18006 30.85 8.49739 30.459 8.49739Z" fill="#C29340"/>
</g>
<defs>
<clipPath id="clip0_1604_150581">
<rect width="34" height="34" fill="white"/>
</clipPath>
</defs>
</svg>
