<svg width="95" height="95" viewBox="0 0 95 95" fill="none" xmlns="http://www.w3.org/2000/svg">
<path fill-rule="evenodd" clip-rule="evenodd" d="M25.3349 8.63838C29.1543 8.33343 32.7802 6.83116 35.696 4.34549C38.9894 1.54052 43.174 0 47.5 0C51.826 0 56.0106 1.54052 59.304 4.34549C62.2198 6.83116 65.8457 8.33343 69.6651 8.63838C73.9783 8.9831 78.0278 10.8529 81.0875 13.9125C84.1471 16.9722 86.0169 21.0217 86.3616 25.3349C86.6644 29.1528 88.1667 32.7807 90.6545 35.696C93.4595 38.9894 95 43.174 95 47.5C95 51.826 93.4595 56.0106 90.6545 59.304C88.1688 62.2198 86.6666 65.8457 86.3616 69.6651C86.0169 73.9783 84.1471 78.0278 81.0875 81.0875C78.0278 84.1471 73.9783 86.0169 69.6651 86.3616C65.8457 86.6666 62.2198 88.1688 59.304 90.6545C56.0106 93.4595 51.826 95 47.5 95C43.174 95 38.9894 93.4595 35.696 90.6545C32.7802 88.1688 29.1543 86.6666 25.3349 86.3616C21.0217 86.0169 16.9722 84.1471 13.9125 81.0875C10.8529 78.0278 8.9831 73.9783 8.63838 69.6651C8.33343 65.8457 6.83116 62.2198 4.34549 59.304C1.54052 56.0106 0 51.826 0 47.5C0 43.174 1.54052 38.9894 4.34549 35.696C6.83116 32.7802 8.33343 29.1543 8.63838 25.3349C8.9831 21.0217 10.8529 16.9722 13.9125 13.9125C16.9722 10.8529 21.0217 8.9831 25.3349 8.63838ZM69.5107 39.8227C70.5923 38.7028 71.1908 37.203 71.1772 35.6462C71.1637 34.0893 70.5393 32.6001 69.4384 31.4992C68.3375 30.3984 66.8483 29.7739 65.2914 29.7604C63.7346 29.7468 62.2348 30.3453 61.1149 31.4269L41.5624 50.9794L33.8851 43.3021C32.7652 42.2205 31.2654 41.6221 29.7086 41.6356C28.1517 41.6491 26.6625 42.2736 25.5616 43.3744C24.4608 44.4753 23.8363 45.9646 23.8228 47.5214C23.8092 49.0782 24.4077 50.578 25.4893 51.6979L37.3645 63.5731C38.478 64.6862 39.988 65.3115 41.5624 65.3115C43.1368 65.3115 44.6468 64.6862 45.7603 63.5731L69.5107 39.8227Z" fill="#2BA375"/>
</svg>
