<svg width="33" height="32" viewBox="0 0 33 32" fill="none" xmlns="http://www.w3.org/2000/svg">
<g clip-path="url(#clip0_2730_136185)">
<path d="M27.5399 1.33333H4.87321C4.50521 1.33333 4.20654 1.03467 4.20654 0.666667C4.20654 0.298667 4.50521 0 4.87321 0H27.5399C27.9079 0 28.2065 0.298667 28.2065 0.666667C28.2065 1.03467 27.9079 1.33333 27.5399 1.33333Z" fill="#C5A265"/>
<path d="M7.54039 32C7.17239 32 6.87372 31.7013 6.87372 31.3333V24.3747C6.87372 22.6773 7.59772 21.052 8.85905 19.9147L11.5591 17.4867C11.9857 17.1027 12.2217 16.5747 12.2217 16C12.2217 15.4253 11.9857 14.8973 11.5591 14.5133L8.86039 12.084C7.59772 10.948 6.87372 9.32267 6.87372 7.62533V0.666667C6.87372 0.298667 7.17239 0 7.54039 0C7.90839 0 8.20705 0.298667 8.20705 0.666667V7.62533C8.20705 8.94533 8.76972 10.2093 9.75239 11.0947L12.4497 13.5227C13.1511 14.1547 13.5537 15.0573 13.5537 16C13.5537 16.9427 13.1511 17.8467 12.4511 18.4773L9.75105 20.9067C8.76972 21.7907 8.20705 23.0547 8.20705 24.3747V31.3333C8.20705 31.7013 7.90839 32 7.54039 32Z" fill="#C5A265"/>
<path d="M24.873 32C24.505 32 24.2063 31.7013 24.2063 31.3333V24.3747C24.2063 23.0547 23.6437 21.7907 22.661 20.9053L19.9637 18.4773C19.2623 17.8453 18.8597 16.9427 18.8597 16C18.8597 15.0573 19.2623 14.1533 19.9623 13.5227L22.6623 11.0947C23.6437 10.2093 24.2063 8.94533 24.2063 7.62533V0.666667C24.2063 0.298667 24.505 0 24.873 0C25.241 0 25.5397 0.298667 25.5397 0.666667V7.62533C25.5397 9.32267 24.8157 10.948 23.5543 12.0853L20.8543 14.5133C20.429 14.8987 20.193 15.4267 20.193 16C20.193 16.5733 20.429 17.1027 20.8557 17.4867L23.553 19.9147C24.8157 21.052 25.5397 22.676 25.5397 24.3747V31.3333C25.5397 31.7013 25.241 32 24.873 32Z" fill="#C5A265"/>
<path d="M27.5399 31.9974H4.87321C4.50521 31.9974 4.20654 31.6987 4.20654 31.3307C4.20654 30.9627 4.50521 30.6641 4.87321 30.6641H27.5399C27.9079 30.6641 28.2065 30.9627 28.2065 31.3307C28.2065 31.6987 27.9079 31.9974 27.5399 31.9974Z" fill="#C5A265"/>
</g>
<defs>
<clipPath id="clip0_2730_136185">
<rect width="32" height="32" fill="white" transform="translate(0.206543)"/>
</clipPath>
</defs>
</svg>
