<svg width="28" height="28" viewBox="0 0 28 28" fill="none" xmlns="http://www.w3.org/2000/svg">
<g clip-path="url(#clip0_647_14597)">
<path d="M22.2915 15.3335C22.0714 10.4615 18.0504 6.5625 13.125 6.5625C8.05919 6.5625 3.9375 10.6838 3.9375 15.75C3.9375 20.8162 8.05919 24.9375 13.125 24.9375C14.9931 24.9375 16.7711 24.3801 18.2993 23.3345C19.1809 24.3158 20.4549 24.9375 21.875 24.9375C24.5284 24.9375 26.6875 22.7784 26.6875 20.125C26.6875 17.612 24.7502 15.5457 22.2915 15.3335ZM13.5625 24.045V21.875C13.5625 21.6334 13.3666 21.4375 13.125 21.4375C12.8834 21.4375 12.6875 21.6334 12.6875 21.875V24.0402C8.45381 23.8184 5.05662 20.4212 4.83481 16.1875H7C7.24162 16.1875 7.4375 15.9916 7.4375 15.75C7.4375 15.5084 7.24162 15.3125 7 15.3125H4.83481C5.0645 10.9327 8.68919 7.4375 13.125 7.4375C17.5687 7.4375 21.1986 10.9454 21.4165 15.3357C18.9774 15.5676 17.0625 17.626 17.0625 20.125C17.0625 21.0446 17.3263 21.9017 17.7756 22.6332C16.5204 23.4841 15.0802 23.9671 13.5625 24.045ZM21.875 24.0625C19.7037 24.0625 17.9375 22.2959 17.9375 20.125C17.9375 17.9541 19.7037 16.1875 21.875 16.1875C24.0463 16.1875 25.8125 17.9541 25.8125 20.125C25.8125 22.2959 24.0463 24.0625 21.875 24.0625Z" fill="#C29340"/>
<path d="M19.5088 12.8417C19.722 12.728 19.8027 12.463 19.689 12.2498C19.5754 12.0366 19.3103 11.9559 19.0971 12.0696L14.4086 14.5696C14.1842 14.3255 13.8928 14.1479 13.5625 14.0621V8.75C13.5625 8.50838 13.3666 8.3125 13.125 8.3125C12.8834 8.3125 12.6875 8.50838 12.6875 8.75V14.0621C11.9346 14.2577 11.375 14.9371 11.375 15.75C11.375 16.7151 12.1599 17.5 13.125 17.5C14.0901 17.5 14.875 16.7151 14.875 15.75C14.875 15.6087 14.8536 15.4731 14.8216 15.3409L19.5088 12.8417ZM13.1246 16.625C12.642 16.625 12.2496 16.2326 12.2496 15.75C12.2496 15.2674 12.642 14.875 13.1246 14.875C13.6071 14.875 13.9996 15.2674 13.9996 15.75C13.9996 16.2326 13.6071 16.625 13.1246 16.625Z" fill="#C29340"/>
<path d="M13.1149 27.5625C14.8629 27.5625 16.6015 27.1708 18.1708 26.4267C18.3892 26.3231 18.4719 26.0579 18.36 25.8436C18.2482 25.6294 17.9844 25.5473 17.7658 25.6501C16.3212 26.3297 14.7221 26.6875 13.1149 26.6875C7.08925 26.6875 2.1875 21.7809 2.1875 15.75C2.1875 9.71906 7.08925 4.8125 13.1149 4.8125C17.6054 4.8125 21.6186 7.59237 23.2579 11.6944L22.4755 11.2248C22.2683 11.1004 21.9995 11.1676 21.8752 11.3748C21.7509 11.582 21.8181 11.8507 22.0253 11.975L23.8376 13.0624C23.9063 13.104 23.9837 13.125 24.0625 13.125C24.1093 13.125 24.1566 13.1176 24.2021 13.1023C24.3232 13.0611 24.4208 12.9692 24.4685 12.8503L25.181 11.0689C25.2708 10.8446 25.1617 10.59 24.9374 10.5003C24.713 10.4105 24.4583 10.5197 24.3686 10.7441L24.0944 11.4301C22.5002 7.37537 18.7617 4.51325 14.4375 4.0215V3.0625H14.875C15.5986 3.0625 16.1875 2.47362 16.1875 1.75C16.1875 1.02637 15.5986 0.4375 14.875 0.4375H11.375C10.6514 0.4375 10.0625 1.02637 10.0625 1.75C10.0625 2.47362 10.6514 3.0625 11.375 3.0625H11.8125V4.011C5.91544 4.662 1.3125 9.6775 1.3125 15.75C1.3125 22.2635 6.60712 27.5625 13.1149 27.5625ZM10.9375 1.75C10.9375 1.50894 11.1335 1.3125 11.375 1.3125H14.875C15.1165 1.3125 15.3125 1.50894 15.3125 1.75C15.3125 1.99106 15.1165 2.1875 14.875 2.1875H11.375C11.1335 2.1875 10.9375 1.99106 10.9375 1.75ZM12.6875 3.0625H13.5625V3.95631C13.4133 3.95063 13.265 3.9375 13.1149 3.9375C12.9714 3.9375 12.8297 3.94319 12.6875 3.94844V3.0625Z" fill="#C29340"/>
<path d="M20.9041 20.4307C20.7867 20.4176 20.6997 20.3763 20.6431 20.3067C20.5865 20.237 20.5604 20.1653 20.5648 20.0913C20.5691 20.013 20.6018 19.9434 20.6627 19.8825C20.7236 19.8172 20.8128 19.7824 20.9303 19.778H22.5227C22.4661 19.6127 22.366 19.4822 22.2224 19.3865C22.105 19.3125 21.9875 19.2646 21.87 19.2429C21.7569 19.2168 21.6416 19.2015 21.5241 19.1972C21.4067 19.1928 21.287 19.1928 21.1652 19.1972C21.0434 19.2015 20.9172 19.195 20.7867 19.1776L20.6627 19.1711C20.5757 19.1363 20.5147 19.0928 20.4799 19.0406C20.4495 18.984 20.4386 18.9274 20.4473 18.8709C20.456 18.81 20.4799 18.7556 20.5191 18.7077C20.5583 18.6555 20.6083 18.6164 20.6692 18.5903C21.0651 18.5903 21.4632 18.5924 21.8635 18.5968C22.2638 18.5968 22.688 18.5946 23.1361 18.5903C23.2362 18.6207 23.3123 18.6664 23.3645 18.7273C23.4168 18.7839 23.445 18.8448 23.4494 18.91C23.4537 18.9753 23.432 19.0362 23.3841 19.0928C23.3363 19.1493 23.2623 19.1885 23.1622 19.2103H22.9664C23.0274 19.2973 23.0752 19.3886 23.11 19.4844C23.1492 19.5801 23.1775 19.678 23.1949 19.778H23.5277C23.6278 19.8085 23.7017 19.8563 23.7496 19.9216C23.7974 19.9825 23.8192 20.0478 23.8149 20.1174C23.8105 20.187 23.7822 20.2523 23.73 20.3132C23.6778 20.3697 23.6017 20.4089 23.5016 20.4307H23.1426C23.1078 20.5438 23.0578 20.6526 22.9925 20.757C22.9316 20.857 22.8555 20.9484 22.7641 21.0311C22.5814 21.1964 22.3965 21.3226 22.2094 21.4096C22.0223 21.4966 21.8069 21.5575 21.5633 21.5923C21.9157 21.9273 22.2638 22.2624 22.6075 22.5974C22.6684 22.68 22.6967 22.7605 22.6923 22.8388C22.6923 22.9215 22.6706 22.9889 22.6271 23.0412C22.5836 23.0934 22.5227 23.126 22.4443 23.139C22.366 23.1565 22.2812 23.1412 22.1898 23.0934C21.9288 22.841 21.6677 22.5908 21.4067 22.3428C21.15 22.0905 20.8911 21.8403 20.63 21.5923C20.5778 21.5227 20.5496 21.4575 20.5452 21.3965C20.5409 21.3313 20.5517 21.2725 20.5778 21.2203C20.6039 21.1681 20.6409 21.1246 20.6888 21.0898C20.741 21.0507 20.7932 21.0245 20.8454 21.0115C20.9803 21.0071 21.113 20.9984 21.2435 20.9854C21.374 20.9723 21.5024 20.9506 21.6286 20.9201C21.7547 20.8853 21.8766 20.8396 21.994 20.7831C22.1159 20.7222 22.229 20.6438 22.3334 20.5481C22.3682 20.522 22.403 20.4829 22.4378 20.4307H20.9041Z" fill="#C29340"/>
</g>
<defs>
<clipPath id="clip0_647_14597">
<rect width="28" height="28" fill="white"/>
</clipPath>
</defs>
</svg>
