<svg width="20" height="21" viewBox="0 0 20 21" fill="none" xmlns="http://www.w3.org/2000/svg">
<path fill-rule="evenodd" clip-rule="evenodd" d="M9.99923 1.35844C7.87849 1.35844 6.15922 3.07766 6.15922 5.19843C6.15922 7.31921 7.87849 9.03843 9.99923 9.03843C12.12 9.03843 13.8392 7.31921 13.8392 5.19843C13.8392 3.07766 12.12 1.35844 9.99923 1.35844ZM5.19922 5.19843C5.19922 2.54747 7.34826 0.398438 9.99923 0.398438C12.6502 0.398438 14.7992 2.54747 14.7992 5.19843C14.7992 7.84939 12.6502 9.99843 9.99923 9.99843C7.34826 9.99843 5.19922 7.84939 5.19922 5.19843Z" fill="currentColor"/>
<path fill-rule="evenodd" clip-rule="evenodd" d="M9.99903 0.603125C7.45852 0.603125 5.39902 2.66262 5.39902 5.20312C5.39902 7.74362 7.45852 9.80311 9.99903 9.80311C12.5395 9.80311 14.599 7.74362 14.599 5.20312C14.599 2.66262 12.5395 0.603125 9.99903 0.603125ZM4.99902 5.20312C4.99902 2.4417 7.23761 0.203125 9.99903 0.203125C12.7604 0.203125 14.999 2.4417 14.999 5.20312C14.999 7.96454 12.7604 10.2031 9.99903 10.2031C7.23761 10.2031 4.99902 7.96454 4.99902 5.20312ZM5.95903 5.20312C5.95903 2.97189 7.76784 1.16312 9.99903 1.16312C12.2302 1.16312 14.039 2.97189 14.039 5.20312C14.039 7.43435 12.2302 9.24312 9.99903 9.24312C7.76784 9.24312 5.95903 7.43435 5.95903 5.20312ZM9.99903 1.56312C7.98875 1.56312 6.35903 3.19281 6.35903 5.20312C6.35903 7.21343 7.98875 8.84312 9.99903 8.84312C12.0093 8.84312 13.639 7.21343 13.639 5.20312C13.639 3.19281 12.0093 1.56312 9.99903 1.56312Z" fill="currentColor"/>
<path fill-rule="evenodd" clip-rule="evenodd" d="M17.9513 14.7699C12.9789 12.1276 7.01887 12.1276 2.04665 14.7699C1.91884 14.8378 1.83895 14.9707 1.83895 15.1155V18.6404C1.83895 18.9056 2.05386 19.1204 2.31895 19.1204H17.679C17.944 19.1204 18.159 18.9056 18.159 18.6404V15.1155C18.159 14.9707 18.0791 14.8378 17.9513 14.7699H17.9513ZM1.59612 13.9221C6.85011 11.1301 13.1477 11.1301 18.4017 13.9221C18.843 14.1566 19.1189 14.6156 19.1189 15.1155V18.6404C19.1189 19.4358 18.4742 20.0804 17.6789 20.0804H2.31891C1.52361 20.0804 0.878906 19.4358 0.878906 18.6404V15.1155C0.878906 14.6156 1.15476 14.1566 1.59611 13.9221H1.59612Z" fill="currentColor"/>
<path fill-rule="evenodd" clip-rule="evenodd" d="M18.3086 14.1034C13.1133 11.3426 6.88606 11.3426 1.69076 14.1034L1.68789 14.1049C1.31353 14.3052 1.07969 14.6953 1.07969 15.1202V18.6451C1.07969 19.33 1.63485 19.8851 2.31969 19.8851H17.6797C18.3645 19.8851 18.9197 19.33 18.9197 18.6451V15.1202C18.9197 14.6943 18.6846 14.3032 18.3086 14.1034ZM18.4963 13.7502L18.4031 13.9257L18.4963 13.7502C19.003 14.0194 19.3197 14.5463 19.3197 15.1202V18.6451C19.3197 19.5509 18.5854 20.2851 17.6797 20.2851H2.31969C1.41394 20.2851 0.679688 19.5509 0.679688 18.6451V15.1202C0.679688 14.5463 0.996366 14.0194 1.50304 13.7502L1.54706 13.7268H1.54721C6.85098 10.927 13.1984 10.9348 18.4963 13.7502ZM18.0017 14.5746H18.0019L18.0459 14.5979C18.2391 14.7006 18.3597 14.9015 18.3597 15.1202V18.6451C18.3597 19.0207 18.0552 19.3251 17.6797 19.3251H2.31974C1.9442 19.3251 1.63974 19.0207 1.63974 18.6451V15.1202C1.63974 14.9015 1.76038 14.7006 1.95358 14.598C6.96977 11.9323 12.9796 11.9245 18.0017 14.5746ZM17.8582 14.9512C12.9446 12.3401 7.05483 12.3401 2.14129 14.9512L2.14123 14.9512C2.07883 14.9843 2.03974 15.0493 2.03974 15.1202V18.6451C2.03974 18.7998 2.16508 18.9251 2.31974 18.9251H17.6797C17.8344 18.9251 17.9597 18.7998 17.9597 18.6451V15.1202C17.9597 15.0503 17.9217 14.9861 17.8609 14.9526L17.8582 14.9512Z" fill="currentColor"/>
</svg>
