<svg width="76" height="76" viewBox="0 0 76 76" fill="none" xmlns="http://www.w3.org/2000/svg">
<path d="M63.9466 38.6496V16.0505C63.9466 7.7297 57.2013 0.984375 48.8805 0.984375H7.63967C6.80757 0.984375 6.13306 1.65888 6.13306 2.49099V8.65581C6.13306 9.76257 6.61984 10.8134 7.46415 11.529L12.8974 18.6887C13.7417 19.4044 14.2285 20.4551 14.2285 21.5619V38.6496V74.2591C14.2285 77.9119 20.0114 74.2283 21.038 73.5465C21.2652 73.3951 21.5564 73.3793 21.7991 73.5036L25.5461 75.4298C26.6269 75.985 27.9092 75.985 28.99 75.4298L32.7857 73.4787C33.0018 73.368 33.2583 73.368 33.4744 73.4787L37.2701 75.4298C38.3509 75.985 39.6332 75.985 40.714 75.4298L44.5097 73.4787C44.7258 73.368 44.9823 73.368 45.1984 73.4787L48.9941 75.4298C50.0749 75.985 51.3572 75.985 52.4379 75.4298L56.1918 73.5006C56.4308 73.377 56.7172 73.3913 56.9434 73.5367C57.9645 74.1929 63.9466 77.9986 63.9466 74.3096V38.6496Z" fill="#EDD5AB"/>
<path d="M2.17458 25.0902H14.2275C14.4039 25.0902 14.2275 9.5411 14.2275 7.76412C14.2275 4.01974 11.1921 0.984375 7.44772 0.984375C3.70334 0.984375 0.667969 4.01974 0.667969 7.76412V23.5835C0.667969 24.4156 1.34248 25.0902 2.17458 25.0902Z" fill="#C29340"/>
<path d="M36.8281 39.4063C36.8281 50.2233 45.5971 58.9922 56.4141 58.9922C67.2311 58.9922 76 50.2233 76 39.4063C76 28.5892 67.2311 19.8203 56.4141 19.8203C45.5971 19.8203 36.8281 28.5892 36.8281 39.4063Z" fill="#C29340"/>
<path fill-rule="evenodd" clip-rule="evenodd" d="M54.1528 38.649C54.1528 40.3132 55.5019 41.6623 57.1661 41.6623H64.6991C65.5312 41.6623 66.2057 40.9878 66.2057 40.1557C66.2057 39.3236 65.5312 38.649 64.6991 38.649H57.1661V31.116C57.1661 30.2839 56.4915 29.6094 55.6594 29.6094C54.8273 29.6094 54.1528 30.2839 54.1528 31.116V38.649Z" fill="white"/>
</svg>
